<svg id="Layer_1" data-name="Layer 1" xmlns="http://www.w3.org/2000/svg" viewBox="0 0 40 40"><title>ana</title><g id="nanoboost"><g id="_Group_" data-name=" Group "><path id="_Path_" data-name=" Path " d="M25.42,18.74a14.42,14.42,0,0,1,1.59,0,.63.63,0,0,1,.48.32,2.66,2.66,0,0,1,.39,1.12,5.1,5.1,0,0,1-.22,2.65.84.84,0,0,1-1,.66H25.42s0-.08.07-.11a1.63,1.63,0,0,0,.44-.84,5.51,5.51,0,0,0,0-2.72A1.91,1.91,0,0,0,25.42,18.74Z"/><path id="_Path_2" data-name=" Path 2" d="M34,20.6a9.22,9.22,0,0,0-.78.62,1.28,1.28,0,0,1-1,.34H28.45c-.29,0-.29,0-.29-.28v-.59c0-.19,0-.13.14-.13H34Z"/><path id="_Compound_Path_" data-name=" Compound Path " d="M29.67,14q-2.8-2.85-5.58-5.71a.65.65,0,0,0-.55-.21,1,1,0,0,0-.47.19L19.7,10.5,14.36,14a1,1,0,0,0-.4.43.5.5,0,0,0,.4.73h2.48c.23,0,.24,0,.18.23l-.48,1.8c-.06.24,0,.26.2.26h8.78c.31,0,.24-.06.28-.22.16-.62.33-1.23.49-1.84a.25.25,0,0,1,.27-.23h2.38a1,1,0,0,0,.67-.26.63.63,0,0,0,.1-.89Z"/><path id="_Compound_Path_2" data-name=" Compound Path 2" d="M23.61,24.74H14.75a.22.22,0,0,0-.26.18v0l-1.23,4.6a.94.94,0,0,0,1,1.27h6.61a1.73,1.73,0,0,0,1.65-1.19c.43-1.56.84-3.13,1.26-4.69C23.82,24.77,23.76,24.74,23.61,24.74Z"/><path id="_Compound_Path_3" data-name=" Compound Path 3" d="M18.3,23.5H12.39a.53.53,0,0,0-.52.25.77.77,0,0,1-.67.35l-2.87.31-2,.21c-.09,0-.22.07-.28,0a.38.38,0,0,1,0-.41l.53-.68c.06-.07.09-.13,0-.22A2.67,2.67,0,0,1,6.09,22a5.39,5.39,0,0,1,.11-2.14A1.9,1.9,0,0,1,6.64,19a.18.18,0,0,0,0-.25l0,0-.48-.61L6.05,18a.39.39,0,0,1,0-.36c.05-.1.16,0,.25,0L9.5,18l1.92.21a.43.43,0,0,1,.36.2.86.86,0,0,0,.85.4H24.31a.74.74,0,0,1,.75.45A4,4,0,0,1,25.44,21a5.37,5.37,0,0,1-.18,1.4A2.13,2.13,0,0,1,25,23a.89.89,0,0,1-.8.46C22.23,23.49,20.27,23.5,18.3,23.5ZM16,22.88h5.85a.6.6,0,0,0,.65-.43,3.8,3.8,0,0,0,0-2.71.56.56,0,0,0-.6-.39H10.16c-.44,0-.56.08-.71.5a3.72,3.72,0,0,0-.19,1.64,2.8,2.8,0,0,0,.27,1.07.52.52,0,0,0,.52.32Z"/></g></g><g id="bioticgrenade"><g id="_Group_2" data-name=" Group 2"><path id="_Path_3" data-name=" Path 3" d="M25,8.94c-.4,1.22-.92,2.36-1.35,3.54a12,12,0,0,0,1-1,1.47,1.47,0,0,1-.2.51,9.2,9.2,0,0,0-.56,1.26,3.89,3.89,0,0,0-.15.53.63.63,0,0,0,.22.67,5.09,5.09,0,0,1,1.14,1.43.33.33,0,0,0,.36.2c.64,0,1.24-.26,1.87-.37l1-.19c0,.13-.13.14-.2.17a9.43,9.43,0,0,0-1.82,1.18A1.06,1.06,0,0,0,25.89,18a3.22,3.22,0,0,1,.07.66c0,.16.06.19.21.14a5.47,5.47,0,0,1,1.6-.24,2.79,2.79,0,0,1,2.25,1c.78.94,1.59,1.84,2.39,2.76a1.24,1.24,0,0,1,.3.46,2.59,2.59,0,0,0-.9-.42,4.74,4.74,0,0,0-2.63.2A11,11,0,0,0,24,26.31a9.2,9.2,0,0,0-1.77,3.22,3.92,3.92,0,0,0-.07,2.16,4.88,4.88,0,0,0,.19.49c-.09,0-.12,0-.16-.07-1-1.06-2-2.11-3-3.19A2.46,2.46,0,0,1,18.61,27,5.51,5.51,0,0,1,19,25.38c.06-.15,0-.2-.13-.23a6.09,6.09,0,0,1-2.36-.86.23.23,0,0,0-.3,0,6.11,6.11,0,0,0-1,1l-.69.86s-.07.15-.16.12-.08-.15-.06-.23c.12-.49.24-1,.38-1.45A11.25,11.25,0,0,0,15,23.28.32.32,0,0,0,15,23a6.1,6.1,0,0,1-1-1.75.21.21,0,0,0-.23-.15h0c-1.12-.1-1.13-.1-1.43-1.1a3.81,3.81,0,0,1,.13-2.3,8.1,8.1,0,0,1,1.08-2.09.24.24,0,0,1,.32-.12l.05,0c.33.18.66.34,1,.5.15.07.2.14.11.31a6.13,6.13,0,0,0,1.32,7.26A6.89,6.89,0,0,0,19,25c.16.06.21,0,.27-.15A10.56,10.56,0,0,1,20.35,23c.18-.24.2-.25.31,0a5.46,5.46,0,0,0,1.42,1.72.18.18,0,0,0,.24,0l.52-.24a1.12,1.12,0,0,1,.91-.14.26.26,0,0,0,.28-.09A2,2,0,0,1,24.3,24a.78.78,0,0,0,.4-.84.89.89,0,0,1,.15-.42l.32-.58a.26.26,0,0,0,0-.34,5,5,0,0,0-1.59-1.55c-.16-.08-.15-.15,0-.24a10.17,10.17,0,0,1,2-1c.21-.07.26-.17.21-.38a6.16,6.16,0,0,0-4.64-4.85,5.54,5.54,0,0,0-3.6.23c-.17.07-.27.05-.34-.14-.13-.36-.27-.71-.41-1.07a.2.2,0,0,1,0-.28l0,0a6.49,6.49,0,0,1,3.55-1A3.21,3.21,0,0,1,22,12a.25.25,0,0,0,.35,0l0,0A28.66,28.66,0,0,0,24.8,9.12.51.51,0,0,1,25,8.94Z"/><path id="_Path_4" data-name=" Path 4" d="M12.11,20.52a7.78,7.78,0,0,1-1-1c-.61-.66-1.21-1.33-1.82-2a2.6,2.6,0,0,1-.65-2.21,7.61,7.61,0,0,1,1.73-3.75A10.84,10.84,0,0,1,15.25,8,4.74,4.74,0,0,1,18,7.7a2.3,2.3,0,0,1,1.22.71l2.61,2.89.19.24h0a3.74,3.74,0,0,0-3-.23,8.11,8.11,0,0,0-2.12.91c-.15.09-.21.11-.34-.08A11.36,11.36,0,0,0,15.4,10.8a.35.35,0,0,0-.4-.06,5.29,5.29,0,0,0-.61.27.73.73,0,0,1-.7,0,.34.34,0,0,0-.42.1c-.21.22-.44.41-.67.61a.27.27,0,0,0-.11.33.82.82,0,0,1-.14.78,4.8,4.8,0,0,0-.3.54.36.36,0,0,0,.07.46,10.63,10.63,0,0,0,1.27,1.25c.14.1,0,.17,0,.23a9,9,0,0,0-1.07,1.91,5,5,0,0,0-.41,2A3.17,3.17,0,0,0,12.11,20.52Z"/><path id="_Path_5" data-name=" Path 5" d="M8.79,27.77h.88A.3.3,0,0,0,10,27.5h0c.14-.58.29-1.16.44-1.73.11-.41.24-.52.67-.52H12.4A.58.58,0,0,1,13,26c-.12.49-.24,1-.39,1.48-.07.22,0,.25.2.25h1.46a.58.58,0,0,1,.61.81l-.35,1.34a.54.54,0,0,1-.58.49H12.21a.36.36,0,0,0-.42.33c-.13.57-.29,1.14-.44,1.71-.1.37-.22.46-.61.46H9.42a.57.57,0,0,1-.6-.78c.12-.49.24-1,.38-1.45.07-.24,0-.27-.22-.26H7.62a.62.62,0,0,1-.62-.9c.2-.57.22-.86.34-1.29s.23-.46.61-.47Z"/><path id="_Path_6" data-name=" Path 6" d="M27.25,31.52s0,.08-.07.08a5.59,5.59,0,0,1-2.6.77,1.33,1.33,0,0,1-1.38-1.64,5.89,5.89,0,0,1,1.1-2.54,12,12,0,0,1,5.14-4.27,4.32,4.32,0,0,1,1.87-.41A1.31,1.31,0,0,1,32.66,25a4.47,4.47,0,0,1-.54,1.74,6.83,6.83,0,0,1-.55.93.4.4,0,0,1,.08-.3A2.64,2.64,0,0,0,32,26.26a.91.91,0,0,0-1-1.08,3,3,0,0,0-1.36.3,9.17,9.17,0,0,0-4.4,4.07,3.25,3.25,0,0,0-.34,1c-.15.93.42,1.35,1.25,1.25a3.2,3.2,0,0,0,.94-.25Z"/><path id="_Path_7" data-name=" Path 7" d="M28.91,9.37H26.1c-.45,0-.65-.26-.53-.7l.31-1.17c.08-.31.19-.4.5-.4h5.68a.49.49,0,0,1,.52.66c-.1.41-.21.82-.32,1.22s-.19.39-.51.39Z"/><path id="_Path_8" data-name=" Path 8" d="M25,22.1a2.25,2.25,0,0,1-.4.69s-.1,0-.16,0a1.44,1.44,0,0,1-.28-.12.5.5,0,0,0-.7.07l0,0-.11.09a.69.69,0,0,0-.32.92l0,.08c.12.21,0,.36-.18.43l-.24.11c-.34.15-.46.13-.7-.16h0A4.89,4.89,0,0,1,20.46,22c-.11-.31-.24-.61-.37-.9a.31.31,0,0,1,.08-.38c.39-.39.81-.74,1.22-1.1a.29.29,0,0,1,.37,0l2,1a1.63,1.63,0,0,1,.44.4l.67.75A.44.44,0,0,1,25,22.1Z"/><path id="_Path_9" data-name=" Path 9" d="M15,11a.45.45,0,0,1,.34.17l.85,1a.71.71,0,0,1,.11.21c.26.71.52,1.42.79,2.12a.31.31,0,0,1-.08.38l-1.08,1a.28.28,0,0,1-.35,0l-2.08-1a.79.79,0,0,1-.21-.15l-.87-.89a.44.44,0,0,1-.09-.56c.29-.59.29-.6.9-.35a.36.36,0,0,0,.45-.08l.62-.56a.27.27,0,0,0,.09-.34.53.53,0,0,1,0-.14c0-.18-.21-.39-.07-.51A1.46,1.46,0,0,1,15,11Z"/><path id="_Path_10" data-name=" Path 10" d="M31.51,27.2a1.43,1.43,0,0,1-.23.7,8.28,8.28,0,0,1-3.81,3.41,1.3,1.3,0,0,1-.67.13.41.41,0,0,1-.4-.51,1.83,1.83,0,0,1,.28-.73,9.22,9.22,0,0,1,3.62-3.27,1.58,1.58,0,0,1,.75-.2.41.41,0,0,1,.46.47Z"/><path id="_Path_11" data-name=" Path 11" d="M13.6,11.31a.76.76,0,0,1,.65.82,2.42,2.42,0,0,1-.85.76.77.77,0,0,1-.73-.58.35.35,0,0,1,.14-.39c.21-.16.39-.34.59-.52S13.52,11.28,13.6,11.31Z"/><path id="_Path_12" data-name=" Path 12" d="M24.5,23.38a.24.24,0,0,1-.11.25A2.73,2.73,0,0,0,24,24a.47.47,0,0,1-.58.16.65.65,0,0,1-.28-1L23.3,23a.67.67,0,0,1,.93-.16l.07.05C24.52,23,24.45,23.24,24.5,23.38Z"/></g></g><g id="sleepdart"><g id="_Group_3" data-name=" Group 3"><path id="_Path_13" data-name=" Path 13" d="M19.79,15.78c.53-.42,1-.81,1.48-1.18A16.19,16.19,0,0,1,23.49,13c.33-.17.38-.16.5.2.28.85.56,1.71.91,2.53a.29.29,0,0,1-.12.39,20.2,20.2,0,0,1-2,1.43l-4.72,3a3.35,3.35,0,0,1-.4.23c-.17.08-.35.19-.53,0a.68.68,0,0,1-.29-.66c.14-.9.29-1.81.46-2.7.31-1.55.59-3.1.88-4.65a2.94,2.94,0,0,1,.14-.64c0-.21,0-.28-.18-.17-.83.45-1.74.73-2.55,1.22-.51.3-1.07.54-1.57.87s-.83.59-1.26.86c-.21.13-.28.08-.33-.13-.36-1.42-.84-2.8-1.24-4.2a.35.35,0,0,1,.16-.47h0c.43-.22.86-.43,1.28-.66A55,55,0,0,1,17.67,7a33,33,0,0,1,3.59-1.35c.47-.15.58-.06.6.45a12.52,12.52,0,0,1-.3,2.17,42.56,42.56,0,0,1-1.32,5.21A19.09,19.09,0,0,0,19.79,15.78Z"/><path id="_Path_14" data-name=" Path 14" d="M15.36,27.75A17.45,17.45,0,0,0,12.89,30l-.19.23c-.09.11-.16.08-.23,0L11.14,28c-.09-.14,0-.24.07-.33a36.86,36.86,0,0,1,4.67-3.85c.5-.33.62-.29.7.31a16.88,16.88,0,0,1,.14,3.45,13.81,13.81,0,0,0,.07,2l.66-.87a10.93,10.93,0,0,1,1-1.15c.16-.16.27-.16.4,0,.26.4.53.8.82,1.19a.28.28,0,0,1,0,.39c-.5.66-1.09,1.24-1.64,1.85s-1,1.06-1.45,1.58c-.13.14-.26.34-.48.29s-.28-.3-.31-.52c-.1-.79-.13-1.59-.19-2.38S15.41,28.55,15.36,27.75Z"/><path id="_Path_15" data-name=" Path 15" d="M26.83,32.35a16.52,16.52,0,0,1,1.49-.85c.29-.14.33-.1.4.21s.1.55.17.82a.28.28,0,0,1-.15.37h0l-1.54.75-1.43.66c-.12.06-.25.13-.38,0a.33.33,0,0,1,0-.4L26.27,31c0-.08.11-.18,0-.25s-.17,0-.25,0a9.7,9.7,0,0,0-2,.78c-.17.1-.25,0-.27-.15-.08-.55-.16-1.09-.25-1.64a.23.23,0,0,1,.15-.29h0a26.8,26.8,0,0,1,4-1.25c.49-.1.57,0,.42.5a15.72,15.72,0,0,1-.93,2.44A8.66,8.66,0,0,0,26.83,32.35Z"/></g></g><g id="bioticrifle"><g id="_Group_2-2" data-name="&lt;Group&gt;"><path id="_Path_2-2" data-name="&lt;Path&gt;" d="M21.53,19.07h0l0,.52,0,0h1.94a.46.46,0,0,1-.05-.1L23.21,19a.09.09,0,0,1,0,0h0a10.61,10.61,0,0,0-1.63,0A.42.42,0,0,0,21.53,19.07Z"/><path id="_Path_3-2" data-name="&lt;Path&gt;" d="M21.76,18.82h.14v-.37h-.15Z"/><path id="_Path_4-2" data-name="&lt;Path&gt;" d="M21.31,20.16a1.52,1.52,0,0,1-.33,0c0,.15,0,.54,0,.84h.55Z"/><polygon id="_Path_5-2" data-name="&lt;Path&gt;" points="26.3 19.37 26.32 19.37 26.32 19.37 26.32 18.99 25.29 19 25.12 19.25 25.75 19.69 25.97 19.48 26.3 19.37"/><path id="_Path_6-2" data-name="&lt;Path&gt;" d="M34.33,23.05a.87.87,0,0,0-.1-.24s-.19-.3-.41-.31l-.23,0a7.13,7.13,0,0,0-.62.62l-.07.1a.17.17,0,0,0-.06.17,1,1,0,0,0,.16.33,7.46,7.46,0,0,1,.91-.49Z"/><path id="_Compound_Path_2-2" data-name="&lt;Compound Path&gt;" d="M21.68,21.3a.69.69,0,0,1,.19.14h.54l.13-.28,0,0h.79l.12.09,1,0,.18.09h.24l.47-.93c-.29-.18-.91-.58-1-.62a.68.68,0,0,0-.21,0,.36.36,0,0,1-.15,0H21.48l-.08-.09v.07c0,.06-.06.08-.08.16v.07h0l.35,1.34h0Zm1.39-1.18a.1.1,0,0,1,.2,0h0a.1.1,0,1,1-.2,0Zm-.24.31h0a.1.1,0,1,1,0,.2h0a.1.1,0,1,1,0-.2Zm-.58,0h0a.1.1,0,1,1,0,.2h0a.1.1,0,1,1,0-.2Zm-.38-.37h0a.1.1,0,0,1,.14.14h0a.1.1,0,1,1-.14-.14Z"/><path id="_Path_7-2" data-name="&lt;Path&gt;" d="M22,18.82l.59,0v-.3H22Z"/><polygon id="_Path_8-2" data-name="&lt;Path&gt;" points="25.75 19.9 25.42 19.77 25.33 19.91 25.53 20.13 25.63 20.12 25.75 19.9"/><path id="_Path_9-2" data-name="&lt;Path&gt;" d="M36.85,22s-.05,0-.05.1a.56.56,0,0,0,0,.21l.17,0,.38-.07v-.38l-.53.11Z"/><path id="_Path_10-2" data-name="&lt;Path&gt;" d="M30.27,20.64l0,0,.21-.21,0-.32-.7-.77H27.35l-.07-.09v-.16h-.86l-.07.33c.12,0,.43.1.46.25a1,1,0,0,1,0,.38l-.08.2c.5.22.95.52,1.45.71h.23l.23-.27h1.63Z"/><path id="_Compound_Path_3-2" data-name="&lt;Compound Path&gt;" d="M21.54,17.8s0,.59,0,1l.11,0v-.51H22v.09h.6v-.09H23v.12l3.34,0v-.1l2.93,0,.11-.11,1,0h.16a.21.21,0,0,1,.17.19,1.54,1.54,0,0,1,0,.37c0,.14-.23.21-.25.22H29.37l-.11-.09H27.4v.14h2.44l.07.07h.79A.42.42,0,0,0,31,19l0-.1a.36.36,0,0,0,.05-.3.41.41,0,0,0-.18-.3.21.21,0,0,0-.15,0H27.26v-.05c0-.14,0-.35,0-.37h0v0c0-.15-.07-.24-.09-.28l-2,0-.25,0c-.29.08-.58.13-.86.21a1.89,1.89,0,0,1-.49.09c-.67,0-1.34,0-2,0Zm5.25.2h0a.1.1,0,0,1,.14.14h0a.1.1,0,1,1-.14-.14Z"/><path id="_Path_11-2" data-name="&lt;Path&gt;" d="M34.35,22.15l-.08.51.06.08a.94.94,0,0,1,.11.27l2.84-.61.08-.06-.35.07-.24,0v0a.69.69,0,0,1-.08-.29.18.18,0,0,1,.12-.2h0a3.11,3.11,0,0,1,.58-.13v-.08a1.38,1.38,0,0,0-.32,0v0l-.07,0a2.1,2.1,0,0,1-.56.07,2,2,0,0,1-.56.05h-.06a4.89,4.89,0,0,1-.52.07,2.43,2.43,0,0,0-.31,0,.32.32,0,0,1-.19,0,1.48,1.48,0,0,1-.4-.22H34Z"/><path id="_Path_12-2" data-name="&lt;Path&gt;" d="M29.28,18.95h0l.11.09h1c.06,0,.16-.08.17-.13a1.4,1.4,0,0,0,0-.34s0-.09-.07-.09H30.4l-1,0-.11.11h0l-2.84,0v.43h2.85Z"/><path id="_Path_13-2" data-name="&lt;Path&gt;" d="M19.65,18.61h0s-.09.29-.13.46l-.08.28h0l.08.1.08-.3c.06.11.09.21.2.24v.44l1,1.37,0-.05a.12.12,0,0,0,0-.05h0c0-.44,0-1,0-1h0a.33.33,0,0,0-.15-.19h-.46v-.48a.36.36,0,0,0,.15-.16,1.64,1.64,0,0,1,0-.2c0-.14,0-1.06,0-1.2a.23.23,0,0,1,0-.14h0a.29.29,0,0,0-.11-.11h-.61l0,0Z"/><path id="_Compound_Path_4" data-name="&lt;Compound Path&gt;" d="M25,16.76s0,.07,0,.1-.13,0-.19,0,0,.17,0,.25.12,0,.18,0l-.34,0a.22.22,0,0,0,.13.16h.47a.22.22,0,0,1,0,.07l1.91,0s0,0,.14.36v0h0l.25,0a1.68,1.68,0,0,1,.29,0,3.62,3.62,0,0,0,.3-.54.81.81,0,0,1-.14-.18c-.06,0-.12,0-.17-.07v-.72a.35.35,0,0,0-.18,0c-.28,0-.56,0-.84,0a11.31,11.31,0,0,1-1.65,0,1,1,0,0,0-.54.05c0,.08.07.09.1.14s0,.08,0,.1-.12,0-.17,0a.18.18,0,0,0,.06.13A3.08,3.08,0,0,1,25,16.76Zm1.33.09h-.93s0,0,0-.1a3.84,3.84,0,0,1,.48,0h.48S26.34,16.82,26.31,16.85Zm.6,0a.33.33,0,0,1-.21,0s0-.06,0-.09a.54.54,0,0,1,.18,0S26.93,16.81,26.91,16.85Zm-.2-.41h.23s0,.09,0,.14h-.24S26.69,16.5,26.71,16.44Zm-1.33,0h1.09s0,.08,0,.12a6.86,6.86,0,0,1-1.12,0A.15.15,0,0,1,25.38,16.44Z"/><path id="_Path_14-2" data-name="&lt;Path&gt;" d="M31.27,20.79v0l0,0Z"/><path id="_Path_15-2" data-name="&lt;Path&gt;" d="M30.95,20.47h-.42l-.06.06,0,0,.19.29c0,.11-.05.18-.06.28s.13.06.16.13S31,21,31.09,21l0,0,.14-.21-.08,0A.92.92,0,0,0,30.95,20.47Z"/><path id="_Path_16" data-name="&lt;Path&gt;" d="M31.52,21.67a1.4,1.4,0,0,1,0,.22c.1.1.17.25.28.32l.06.16a4.16,4.16,0,0,0,.66-.74c.21-.26.41-.54.6-.81l0,0,0,0a3.6,3.6,0,0,1-.38,0l-.57.06v0l-.37.44Z"/><path id="_Path_17" data-name="&lt;Path&gt;" d="M24.35,19.65a.09.09,0,0,1,0-.08l.21-.36a.26.26,0,0,1,.07-.08,1.39,1.39,0,0,0-.28-.1v0a2.82,2.82,0,0,0,0,.3c0,.06,0,.18,0,.23a.09.09,0,0,1,0,.07Z"/><path id="_Path_18" data-name="&lt;Path&gt;" d="M33.41,21.46l-.47.53-1,1.08a1.06,1.06,0,0,1-.05.17.38.38,0,0,1,.21.11s.37.38.45.5a.08.08,0,0,0,.05,0,.1.1,0,0,0,.06,0l.2-.12a1,1,0,0,1-.17-.37.28.28,0,0,1,.08-.25l.07-.09a7.73,7.73,0,0,1,.66-.66l0,0,.28,0a.58.58,0,0,1,.34.17l.06-.38-.36-.48,0,0h0l-.3-.4Z"/><path id="_Path_19" data-name="&lt;Path&gt;" d="M31.59,19.53c0-.2.05-.39.09-.58a4.9,4.9,0,0,0,.1-.77,1.86,1.86,0,0,1-.34,0h0a13,13,0,0,1-.17,1.34A1.13,1.13,0,0,0,31.59,19.53Z"/><path id="_Path_20" data-name="&lt;Path&gt;" d="M31.38,21.36h0v0l0,0Z"/><path id="_Path_21" data-name="&lt;Path&gt;" d="M32.08,20.44h0l.57-.15,0-.05-.1-.24-.08,0-.34.37Z"/><path id="_Path_22" data-name="&lt;Path&gt;" d="M23.83,19.64a.07.07,0,0,1,0-.05,1.25,1.25,0,0,0,0-.35.55.55,0,0,1,0-.23h-.24l.12.29a.91.91,0,0,1,.1.31.08.08,0,0,1,0,0Z"/><path id="_Path_23" data-name="&lt;Path&gt;" d="M24.62,19l.41.19.12-.19Z"/><path id="_Path_24" data-name="&lt;Path&gt;" d="M25.37,19.62l.22.09L25,19.29l-.14-.07a.39.39,0,0,1-.07.19l-.16.26a.09.09,0,0,1,0,.05l0,0,.85.53,0-.09-.25-.27Z"/><path id="_Path_25" data-name="&lt;Path&gt;" d="M29.13,22.25a.36.36,0,0,0-.47.17l-.25.38a1.06,1.06,0,0,1-.32.13,2.37,2.37,0,0,0-.53-.37l-1-.6a1,1,0,0,0-.26-.12,1.8,1.8,0,0,1-.48-.24l.79-1.32h0l.12-.3a.88.88,0,0,0,0-.32c0-.06-.2-.13-.38-.17v0h0l-.28.09-.2.2.06.1-.19.36h-.16l-.07.15-.53,1h-.33l-.18-.09-1,0-.12-.09h-.69l-.13.28a.25.25,0,0,1,0,.08c0,.21.05.41.08.61a.55.55,0,0,0,0,.12l.38.29a4,4,0,0,0,.44-.06l.09,0c.32,0,.64,0,1,0a5.53,5.53,0,0,1,.86.11,3,3,0,0,1,.7.23,2.25,2.25,0,0,1,.65.39.81.81,0,0,1,.26.34c0,.08.11.13.12.21a.57.57,0,0,0,.71,0c.09,0,.17.07.29.07a3.37,3.37,0,0,0,.66-.52c0-.19,0-.39,0-.58S29,22.43,29.13,22.25Z"/><path id="_Path_26" data-name="&lt;Path&gt;" d="M22.73,18.45l0,.39.48,0h.2a.08.08,0,0,1,.08,0l.34,0h2.49v-.27l-3.34,0v.27h-.11v-.39Z"/><path id="_Compound_Path_5" data-name="&lt;Compound Path&gt;" d="M29.91,18.08s0,.06,0,.1h.85a.32.32,0,0,1,.24.07.52.52,0,0,1,.22.36.46.46,0,0,1-.06.38l0,.1a.53.53,0,0,1-.34.27H30l.61.68,0,.33H31a1,1,0,0,1,.26.4l.12-.15c.08-.08.2-.15.24-.26a1.25,1.25,0,0,1,.08-.18,3.89,3.89,0,0,1,.61-.7A.68.68,0,0,0,32,19.1a.39.39,0,0,1,.22-.14l.17-.13a.33.33,0,0,0,0-.31,1,1,0,0,1-.15-.31c-.15-.2-.38-.24-.54-.37h-.84a.37.37,0,0,0-.32-.11.82.82,0,0,1-.4,0s-.07,0-.12,0-.07-.11-.13-.12-.25-.08-.39,0a.28.28,0,0,0-.13.26A.78.78,0,0,1,29.91,18.08Zm1.42,0h.12a1.51,1.51,0,0,0,.38,0h.07v.07a4.59,4.59,0,0,1-.1.85c0,.18-.07.37-.09.55l.06.1h-.08l-.2,0a1.23,1.23,0,0,1-.29,0h-.05v-.05a12.91,12.91,0,0,0,.18-1.43Z"/><path id="_Path_27" data-name="&lt;Path&gt;" d="M21.4,19.39l0-.31c0-.28,0-1.18,0-1.28l-.94,0v0s0,0,0,.08,0,1,0,1.17a1.22,1.22,0,0,0,0,.19h.86Z"/><path id="_Path_28" data-name="&lt;Path&gt;" d="M7.35,18.89a1,1,0,0,1-.09-.22,1.34,1.34,0,0,1,0-.62H7.12a.91.91,0,0,0,.06.94l0,0H7.4Z"/><path id="_Path_29" data-name="&lt;Path&gt;" d="M6.37,18h0a.7.7,0,0,0-.1.44A1.37,1.37,0,0,0,6.4,19h0A1.39,1.39,0,0,1,6.37,18Z"/><path id="_Path_30" data-name="&lt;Path&gt;" d="M6,18.63a.78.78,0,0,0,.19.3,1.64,1.64,0,0,1-.09-.53A.91.91,0,0,1,6.23,18H6.15v0c-.06,0-.1.1-.11.13A.78.78,0,0,0,6,18.63Z"/><path id="_Path_31" data-name="&lt;Path&gt;" d="M6.57,18.56a.9.9,0,0,1,0-.23A.6.6,0,0,1,6.76,18h-.1A1.05,1.05,0,0,0,6.57,18.56Z"/><path id="_Path_32" data-name="&lt;Path&gt;" d="M6.54,18H6.49a1.29,1.29,0,0,0,0,1.06h.08A1.18,1.18,0,0,1,6.54,18Z"/><path id="_Path_33" data-name="&lt;Path&gt;" d="M14.43,19c-.05-.09-.11-.19-.16-.29h0a.61.61,0,0,0,.09.27h0Z"/><path id="_Path_34" data-name="&lt;Path&gt;" d="M6.68,18.35A.84.84,0,0,0,6.9,19h.18A1,1,0,0,1,7,18H7l0,0A.4.4,0,0,0,6.68,18.35Z"/><path id="_Path_35" data-name="&lt;Path&gt;" d="M13.83,18H7.37a1.23,1.23,0,0,0,0,.59.91.91,0,0,0,.08.2l.08.12H13.9A1.28,1.28,0,0,1,13.83,18Z"/><path id="_Path_36" data-name="&lt;Path&gt;" d="M14.16,18.71a1.66,1.66,0,0,1,0-.67H14a1.16,1.16,0,0,0,.06.89,0,0,0,0,0,0,0v0h.25A.92.92,0,0,1,14.16,18.71Z"/><path id="_Path_37" data-name="&lt;Path&gt;" d="M6.57,18.58v0Z"/><path id="_Path_38" data-name="&lt;Path&gt;" d="M7.11,18h0A0,0,0,0,0,7.11,18Z"/><path id="_Compound_Path_6" data-name="&lt;Compound Path&gt;" d="M37,23.19l0,0a.08.08,0,0,1,.07,0h0l.32-.11h0l0,0a1.75,1.75,0,0,0,.33-.52l0-1.7.42-.91a.29.29,0,0,0,0-.16c0-.06-.07-.11-.13-.15l-.07-.05-1.79,0a.91.91,0,0,0-.32.15l-.13.08A.68.68,0,0,0,36,20h1.22a.3.3,0,0,1,.25.08,9.51,9.51,0,0,1-.37.9v.6c.25,0,.33,0,.35,0l0,0v.81l-.18.12-2.9.62-.47.18a8.26,8.26,0,0,0-.94.51l0,0h0l-.2.12a.2.2,0,0,1-.11,0h0a.19.19,0,0,1-.12-.09c-.08-.11-.43-.48-.44-.48s-.11-.09-.16-.07v0h0c0,.06-.21.06-.27.2a3.42,3.42,0,0,0,.5.81c.17,0,.31-.06.47-.09a.43.43,0,0,1,.07.15.3.3,0,0,0,.29.22.38.38,0,0,1,.15.05.61.61,0,0,1,.06.33.35.35,0,0,0,0,.19.17.17,0,0,1,0,.11A2.45,2.45,0,0,1,33,26a3.87,3.87,0,0,1-.61.78,6.24,6.24,0,0,1-.91.7c-.14.09-.3.16-.45.24a6.68,6.68,0,0,1-1.43.58,8.65,8.65,0,0,1-1.05.25,3.63,3.63,0,0,0-.57.11h0a2.69,2.69,0,0,0-.54,0,14.72,14.72,0,0,1-1.51,0,5.54,5.54,0,0,1-1.29-.17A15.26,15.26,0,0,1,23,28.09c-.16-.06-.31-.14-.46-.21s-.54-.26-.8-.4a11.34,11.34,0,0,1-1.27-.8c-.22-.16-.43-.34-.64-.5a5,5,0,0,1-.45-.41,11.06,11.06,0,0,1-1-1c-.18-.22-.36-.45-.51-.68a8.3,8.3,0,0,1-.7-1.24c-.08-.18-.13-.36-.2-.55a.56.56,0,0,1,.2-.15.34.34,0,0,0,.2-.33c0-.07,0-.14,0-.22l.11-.09v-.24l-.09-.1a1.2,1.2,0,0,0-.43,0c0-.07,0-.09,0-.14h1.26a.2.2,0,0,1,0-.16h0s.09-.35.17-.67H17.15l.12-.85a3.55,3.55,0,0,1-.13-1.26V18a1.91,1.91,0,0,0-.33-.07,1,1,0,0,0-.34,0A5.9,5.9,0,0,1,16.32,19c0,.13-.05.27-.08.4h0c0,.23-.06.46-.07.69,0,0,0,0,0,.06H13.81a1.12,1.12,0,0,0,.09.85H16a.12.12,0,0,1,0,.14c-.2,0-.41-.08-.63,0a.26.26,0,0,0-.08.09.43.43,0,0,0,.05.28s.07,0,.1.06,0,.19,0,.3a.24.24,0,0,0,.16.25,1.43,1.43,0,0,1,.27.14l0,.12c.07.22.12.44.2.65a9.09,9.09,0,0,0,.58,1.27,7.55,7.55,0,0,0,.9,1.22,10.4,10.4,0,0,0,1.08,1c.32.26.66.51,1,.74a7.08,7.08,0,0,0,1,.54,9.37,9.37,0,0,0,.95.41c.38.13.76.27,1.14.36a9.89,9.89,0,0,0,1.11.25l.69.12L25,29c.24,0,.48.1.72.14s.22,0,.33,0a2,2,0,0,0,.52.07.24.24,0,0,1,.1,0,2.06,2.06,0,0,0,.54.06c.26,0,.54,0,.81,0s.54-.07.82,0h.06c.12-.06.26,0,.38-.07a2.62,2.62,0,0,0,.76-.13,7.9,7.9,0,0,0,1.76-.64l.41-.22a5.74,5.74,0,0,0,.94-.66,6.84,6.84,0,0,0,.62-.66l0,0,.36-.6a.48.48,0,0,0,.08-.18,3.08,3.08,0,0,1,.1-.45,2.06,2.06,0,0,0,0-.83,1.21,1.21,0,0,1,0-.41s.07-.12.14-.15a.29.29,0,0,0,.13-.18c0-.24-.12-.43-.11-.67l2.6-.67-.13.33A.61.61,0,0,0,37,23.19ZM15.71,21.86a1.65,1.65,0,0,1,0-.32.48.48,0,0,1,.33-.06l.11.19a6.77,6.77,0,0,0,.76,0l.08-.22c.07,0,.12,0,.16.06v.31A8.81,8.81,0,0,0,15.71,21.86ZM33,24.31s-.07,0-.07.12l-.09-.29,1.3-.69a3,3,0,0,1,.15.54C33.86,24.06,33.44,24.19,33,24.31Z"/><path id="_Path_39" data-name="&lt;Path&gt;" d="M13.1,20.84a1,1,0,0,1,0-.36.6.6,0,0,1,0-.25.26.26,0,0,1,.16-.14L13.21,20a.49.49,0,0,0-.15-.05h-.68a4.22,4.22,0,0,0-.13.62.33.33,0,0,0,0,0l.1.49c.11,0,.12.07.16.11h.71a.11.11,0,0,0,.09-.11A.4.4,0,0,1,13.1,20.84Z"/><path id="_Path_40" data-name="&lt;Path&gt;" d="M37.1,23.23h0v0h0Z"/><path id="_Path_41" data-name="&lt;Path&gt;" d="M39.08,19.66c0-.15-.06-.28,0-.43a.16.16,0,0,0-.07-.15c-.09-.05-.14-.15-.25-.21h-.19c-.48,0-1,0-1.45,0a.82.82,0,0,0-.44.12c-.24.16-.52.25-.75.42a.82.82,0,0,0,0,.23l.09-.06a1,1,0,0,1,.36-.17l1.83,0h0l0,0,.08.06a.38.38,0,0,1,.17.22.39.39,0,0,1,0,.22l-.41.9,0,1.7a1.86,1.86,0,0,1-.34.55.1.1,0,0,1-.06.06l-.31.11h0c.1.07.22,0,.32.07l.18-.06a.67.67,0,0,0,.52-.39.76.76,0,0,1,.11-.18.45.45,0,0,0,.11-.32c0-.37.06-.74,0-1.12a1.25,1.25,0,0,1,0-.39,1.89,1.89,0,0,1,.26-.62c.11-.16.2-.33.29-.49S39.08,19.68,39.08,19.66Z"/><path id="_Path_42" data-name="&lt;Path&gt;" d="M6.68,18.92l.07.11h0Z"/><path id="_Path_43" data-name="&lt;Path&gt;" d="M5.93,18.67a.89.89,0,0,1,0-.58A.38.38,0,0,1,6,17.94a6.28,6.28,0,0,0-.66,0v0h-.2l-.09,0a.17.17,0,0,0-.06.12,1.33,1.33,0,0,0,.09.67.44.44,0,0,0,.06.13.47.47,0,0,0,.3.13v0h.7l0,0A.89.89,0,0,1,5.93,18.67Z"/><path id="_Path_44" data-name="&lt;Path&gt;" d="M6.67,18.89l0-.05Z"/><path id="_Path_45" data-name="&lt;Path&gt;" d="M6.61,18.75v0Z"/><path id="_Path_46" data-name="&lt;Path&gt;" d="M5.07,19A.54.54,0,0,1,5,18.83a1.43,1.43,0,0,1-.1-.73A.27.27,0,0,1,5,17.9a.3.3,0,0,1,.15,0H5.2a.44.44,0,0,0-.44-.06.74.74,0,0,1-.4,0l-.14-.07H1.37c-.06,0-.08.08-.05.14s.37,0,.58.08l-.47.24a4.55,4.55,0,0,0-.49.2,4,4,0,0,1,1,.45.41.41,0,0,1,.17-.1.34.34,0,0,1,.28.21,1.3,1.3,0,0,1-.32-.06.78.78,0,0,1-.42.11c-.09,0-.18,0-.24.08a.07.07,0,0,0,0,.08.33.33,0,0,0,.23,0c.82,0,1.65,0,2.48,0,.17,0,.34,0,.51,0l-.06-.08h0a.72.72,0,0,1-.32-.41c0-.11-.06-.31.07-.36s.24.14.27.25a1.05,1.05,0,0,0,.34.61l0,0,.07,0c.08,0,.18,0,.28,0l.06,0A.49.49,0,0,1,5.07,19Z"/><path id="_Path_47" data-name="&lt;Path&gt;" d="M16,19A3.35,3.35,0,0,1,15.66,18h-.2A2.49,2.49,0,0,0,15.79,19Z"/><path id="_Path_48" data-name="&lt;Path&gt;" d="M15.77,18A3.24,3.24,0,0,0,16.13,19h.07v0l0-.12A2.37,2.37,0,0,1,16,18Z"/><path id="_Path_49" data-name="&lt;Path&gt;" d="M16.19,17.86a.14.14,0,0,1,.08.11h0a2.42,2.42,0,0,0,.09.32,3.3,3.3,0,0,0,0-.38v-.06h0a1.2,1.2,0,0,1,.43-.06,2.06,2.06,0,0,1,.36.08.1.1,0,0,1,.06,0,.1.1,0,0,1,0,.06v.1a3.75,3.75,0,0,0,.1,1.14h.92l.38.48,0-.07h0l-.25-.32a6.48,6.48,0,0,1-.61-.84c-.12-.23-.28-.59-.36-.77l-.09,0h-1c-.11-.09-.18-.21-.32-.23l-.13.09C16,17.63,16.07,17.77,16.19,17.86Z"/><path id="_Path_50" data-name="&lt;Path&gt;" d="M19.34,21.28h.56l-.27-.45-.42-.53c0,.14,0,.35,0,.47a2.72,2.72,0,0,1,0,.33A.79.79,0,0,0,19.34,21.28Z"/><path id="_Path_51" data-name="&lt;Path&gt;" d="M15,18h-.24A2.64,2.64,0,0,0,15.2,19h.17A2.54,2.54,0,0,1,15,18Z"/><path id="_Path_52" data-name="&lt;Path&gt;" d="M14.69,18h-.16a1,1,0,0,0,0,.19,1.27,1.27,0,0,0,.05.17,5.8,5.8,0,0,0,.32.71h.14A2.75,2.75,0,0,1,14.69,18Z"/><path id="_Path_53" data-name="&lt;Path&gt;" d="M18.46,18l.5.7c.15-.59.21-.83.24-.93h-.52l0-.11c-.09,0-.16-.05-.22-.08s-.1,0-.14.07Z"/><path id="_Path_54" data-name="&lt;Path&gt;" d="M18.54,21.12c.17,0,.37.05.53-.09,0-.06,0-.15,0-.26s0-.54,0-.61l-.35-.45c-.07.25-.3,1.09-.3,1.14a.12.12,0,0,1,0,.05s0,.06,0,.09l0,0A.58.58,0,0,0,18.54,21.12Z"/><path id="_Path_55" data-name="&lt;Path&gt;" d="M17.91,18.4a6.53,6.53,0,0,0,.59.82l1.21,1.55.36.58,0,0,0,0h.69a.1.1,0,0,0,0-.09h0l-1.72-2.25-.69-1-.24-.43a1.67,1.67,0,0,0-.58,0C17.63,17.8,17.79,18.17,17.91,18.4Z"/><path id="_Path_56" data-name="&lt;Path&gt;" d="M15.35,18h-.19A2.43,2.43,0,0,0,15.5,19h.16A2.61,2.61,0,0,1,15.35,18Z"/><path id="_Path_57" data-name="&lt;Path&gt;" d="M16.26,18.71l0-.2a2.53,2.53,0,0,1-.17-.52h0l0,0h0A2.54,2.54,0,0,0,16.26,18.71Z"/><path id="_Path_58" data-name="&lt;Path&gt;" d="M14.57,19l0,0h.2a5.91,5.91,0,0,1-.3-.67,1.36,1.36,0,0,1-.06-.18,1,1,0,0,1,0-.15l0,0h-.15C14.17,18.34,14.4,18.72,14.57,19Z"/><path id="_Path_59" data-name="&lt;Path&gt;" d="M19.32,17.79s-.18.67-.27,1h0l.13.18.2.26.06-.21c.08-.28.12-.42.14-.46v-.86h-.21l-.06,0Z"/><path id="_Path_60" data-name="&lt;Path&gt;" d="M13.78,21a1.24,1.24,0,0,1-.08-.85h-.36v0a.14.14,0,0,0-.12.09.51.51,0,0,0,0,.2.9.9,0,0,0,0,.32.27.27,0,0,0,.2.18v0Z"/></g></g><g id="ana"><path d="M24.22,25.34a.08.08,0,0,0,.08.08c.33,0,1.57-.17,1.57-3.23,0-6.53-.82-7-1.68-7.9l-.26-.3-4.41,3.74a.08.08,0,0,0,0,.06A2,2,0,0,1,19,19.23a4.26,4.26,0,0,1-3.32,1.13.2.2,0,0,0-.2.07,3.71,3.71,0,0,0-.09,1.32.56.56,0,0,0,.07.25c1.4,2.6,4,4.5,4.57,4.5S22.46,25,23.91,23a.08.08,0,0,1,.15,0A17.51,17.51,0,0,1,24.22,25.34Z"/><path d="M25.3,25.47c0-.32-.59.53-1.26.5-.29,0-.9,1-.55,1.68C23.73,28.11,25.09,26.68,25.3,25.47Z"/><path d="M22.66,27.77c.56,0,.53-.21.56-.73a2.6,2.6,0,0,1,.58-1.19,2.85,2.85,0,0,0-.08-1.34c-.17-.4-1.75,1.2-1.75,2.39C22,27.63,22.1,27.77,22.66,27.77Z"/><path d="M25.58,9.18A6.5,6.5,0,0,0,20,5.8a6.5,6.5,0,0,0-5.58,3.38C12.45,12.32,8,21,8,23.25s2.26,4.53,5.12,6.74a10.3,10.3,0,0,0-.47,1.07c-.45,1.22-.16,1-.13.94,1.05-1.7,1.83-1.94,2.78-1.79a1.93,1.93,0,0,0,1.88-.56c.18-.19.37-.17.77-.17a.87.87,0,0,1,.72.27c.24.2,1,.26.62,0a.25.25,0,0,1-.1-.41,1.72,1.72,0,0,0,1.35.64c1.16,0,.94-.94.87-1.09s-.22,0-.47.08-.38-.28-.94-.48a.84.84,0,0,0-.61,0c-.15-.14.61-.14.83-.49a1.84,1.84,0,0,0,0,.46c0,.15.42.1.9,0a1.56,1.56,0,0,0,.34-.11.71.71,0,0,0,.76.8c.62,0,1.78-1.15,1.34-1.15a4.23,4.23,0,0,1-1,.08c-.22,0-.49-.11-.69-.11a.24.24,0,0,0,0-.1c-.16-.48,0-.89-.3-1.14s-.93.1-1.21.78a1.16,1.16,0,0,0-.33,0c-.81,0-1,.5-1.49.5S18.08,27,16.42,27a3.48,3.48,0,0,0-2.49,1.77,6.68,6.68,0,0,1-2-4.79,18.5,18.5,0,0,1,.54-3.08c0-.13-1.16-.19-1.25-.49.23.16,1.91,0,2.15-.47,0,0,.21,4.45,3.35,6.11A8.28,8.28,0,0,1,15,21.37,5.93,5.93,0,0,1,17.84,16a3.37,3.37,0,0,0-.92,1.55,2.79,2.79,0,0,1,1.51-1.22c.43-.16.72.18,1,.13a35.56,35.56,0,0,0,4-3A5.74,5.74,0,0,0,20,12.32c-1.36,0-5.08-.31-6.29,4.61a5.32,5.32,0,0,1-1.43,2.77C13.47,15.58,16,10.15,20,10.15c5.82,0,8.07,11.74,8.07,13.76,0,4.61-7.65,8.17-8.07,8.17a3.78,3.78,0,0,1-2.86-.69,13.63,13.63,0,0,0-1.72.06.82.82,0,0,0-.3.11,19,19,0,0,0,4.88,3,30.53,30.53,0,0,0,5.76-3.71c3.2-2.49,6.24-5,6.24-7.6C32,21,27.55,12.32,25.58,9.18Z"/></g></svg>