<svg xmlns="http://www.w3.org/2000/svg" viewBox="0 0 40 40"><title>bastion</title><g id="tank"><g id="_Group_" data-name="&lt;Group&gt;"><path id="_Compound_Path_" data-name="&lt;Compound Path&gt;" d="M26.53,18.26l.57.33a.25.25,0,0,1,.16.2c0,.1.13.1.19.15s.15.08.21,0,.07,0,.12,0l.63.36a.15.15,0,0,1,.09.14c0,.1.05.14.12.18l.57.33a.82.82,0,0,1,.28.27c.05.09.12.14.23.05s.21,0,.29,0c.31.16.6.34.9.51a.11.11,0,0,1,.06.15c0,.09,0,.13.07.17l.2.12a.69.69,0,0,1,.35.44c.09.32.2.63.3.94a.17.17,0,0,1-.07.23c-.29.22-.29.22,0,.49l.49.51c.13.14.28.27.42.4a.64.64,0,0,1,.18.27c.13.37.3.73.41,1.11a1.35,1.35,0,0,1,0,.45c0,.34-.06.67-.08,1a.41.41,0,0,1-.08.21l-.72,1.06a.45.45,0,0,1-.24.19,11,11,0,0,0-1.05.4,2.3,2.3,0,0,1-1,.14c-.37,0-.74,0-1.11,0-.56,0-1.11,0-1.67,0-.19,0-.39,0-.58,0-.44,0-.88-.06-1.33,0a6.31,6.31,0,0,1-1.84-.36l-.58-.13c-.37-.09-.74-.18-1.1-.3a.52.52,0,0,0-.17,0c-.52,0-1,0-1.55,0a7.24,7.24,0,0,0-1.87.11c-.41.12-.82.2-1.23.31l-1.35.32-.2,0c-.8,0-1.61,0-2.41,0-.54,0-1.09,0-1.63,0-.7,0-1.4,0-2.09,0a1.36,1.36,0,0,1-.61-.16L7.8,28.17a.61.61,0,0,1-.26-.27L7,26.77a.35.35,0,0,1,0-.17c0-.4,0-.81,0-1.21A.46.46,0,0,1,7,25.15l.62-1,0-.05c.58-.44,1.16-.88,1.78-1.26a1.83,1.83,0,0,1,.45-.17c.13,0,.27-.07.33-.23s.13-.12.21-.17l.95-.69a1.31,1.31,0,0,1,.47-.24.34.34,0,0,0,.15-.1,9.82,9.82,0,0,1,.78-.68.93.93,0,0,1,.46-.17.72.72,0,0,0,.38-.2,4.25,4.25,0,0,1,.83-.69,1.81,1.81,0,0,1,.44-.11.07.07,0,0,1,.09.07c0,.13.09.13.2.1s.51-.13.76-.19.28-.18.48-.2a.83.83,0,0,1-.31-.62c0-.11.07-.25.15-.36s.1,0,.14,0a1.62,1.62,0,0,0,.77.32,1.65,1.65,0,1,0,.26-3.27,1.66,1.66,0,0,0-1.64,1.88c0,.08,0,.13-.1.13H10.37a.29.29,0,0,0-.29.13.25.25,0,0,1-.22.1q-.95,0-1.9,0a.16.16,0,0,1-.08,0,1.24,1.24,0,0,1-.62-.73,6.42,6.42,0,0,1-.17-1.37A8.72,8.72,0,0,1,7.16,14a1.3,1.3,0,0,1,.56-.92.45.45,0,0,0,.16-.23c.07-.19.15-.38.22-.57a.14.14,0,0,1,.16-.11H9.93c.17,0,.25.11.32.22a.27.27,0,0,0,.25.12h7.56a1.43,1.43,0,0,0,.76-.17c.23-.14.49-.24.73-.36.07,0,.13-.05.2,0s.06,0,.07,0,.17-.06.25-.06c.67,0,1.33,0,2,0,.39,0,.79,0,1.18,0s.75,0,1.13,0l.34,0c.09,0,.12.11.23.12a4.73,4.73,0,0,0,.51,0c.36,0,.71,0,1.07,0,.09,0,.16,0,.18-.11s.07-.06.11-.06h1a.12.12,0,0,1,.13.11s0,.07,0,.1c0,.32,0,.65,0,1,0,.15,0,.29,0,.44s0,.08.1.1.31,0,.47,0a.3.3,0,0,1,.16.09l.35.41a.54.54,0,0,1,.1.38c0,.09,0,.17.1.21s.06.12,0,.18c-.08.24,0,.3.23.26,0,0,.09,0,.12,0a2.8,2.8,0,0,0,.3.35c.07.07.12.16.19.23s.12.16.05.26-.11.24,0,.36a.21.21,0,0,1,0,.22,2,2,0,0,1-.21.59.47.47,0,0,1-.26.2,6.19,6.19,0,0,0-.81.3l-.06,0a.42.42,0,0,1-.55.07c-.07,0-.11,0-.14.06s-.07.17-.1.25,0,.16-.16.17-.09.12-.14.19-.09.08-.16,0-.42-.24-.62-.37A.55.55,0,0,0,26.53,18.26Zm5.14,8.12a2.22,2.22,0,0,0-2.24-2.24,2.23,2.23,0,0,0,0,4.47A2.22,2.22,0,0,0,31.68,26.38Zm-19.77-.21A1.92,1.92,0,0,0,10,24.25a1.92,1.92,0,1,0,0,3.85A1.92,1.92,0,0,0,11.91,26.17Zm6.69-.52A1.62,1.62,0,0,0,20.26,24a1.59,1.59,0,0,0-1.66-1.65A1.57,1.57,0,0,0,17,24,1.62,1.62,0,0,0,18.6,25.65Zm8.85-3.87a1.4,1.4,0,0,0-1.39-1.42,1.36,1.36,0,0,0-1.43,1.39A1.35,1.35,0,0,0,26,23.17,1.38,1.38,0,0,0,27.45,21.77ZM13.84,24.36a1.27,1.27,0,0,0,1.28,1.28,1.24,1.24,0,0,0,1.28-1.28,1.23,1.23,0,0,0-1.3-1.28A1.25,1.25,0,0,0,13.84,24.36Zm2.43-11h1.6c.27,0,.26,0,.3-.27s0-.15-.14-.15c-1,0-2.09,0-3.14,0-.23,0-.36,0-.43.28s-.06.17.11.17Zm-4.53,0h1.2c.31,0,.3,0,.2-.29a.21.21,0,0,0-.24-.16c-.75,0-1.49,0-2.24,0a.36.36,0,0,0-.41.25c-.07.17-.06.2.13.2Z"/><path id="_Path_" data-name="&lt;Path&gt;" d="M16.11,16.9a1.31,1.31,0,0,1,1.3-1.32,1.32,1.32,0,1,1,0,2.64A1.31,1.31,0,0,1,16.11,16.9Z"/><path id="_Path_2" data-name="&lt;Path&gt;" d="M30.81,26.46a1.12,1.12,0,1,1-1.12-1.12A1.11,1.11,0,0,1,30.81,26.46Z"/><path id="_Path_3" data-name="&lt;Path&gt;" d="M10.11,25.16A1.12,1.12,0,1,1,9,26.28,1.11,1.11,0,0,1,10.11,25.16Z"/><path id="_Path_4" data-name="&lt;Path&gt;" d="M17.31,24a1.31,1.31,0,0,1,1.29-1.33,1.32,1.32,0,1,1,0,2.64A1.3,1.3,0,0,1,17.31,24Z"/><path id="_Path_5" data-name="&lt;Path&gt;" d="M27.15,21.81A1.12,1.12,0,1,1,26,20.68,1.11,1.11,0,0,1,27.15,21.81Z"/><path id="_Path_6" data-name="&lt;Path&gt;" d="M15.12,25.41a1,1,0,0,1-1-1,1.08,1.08,0,0,1,1-1,1.05,1.05,0,0,1,1,1A1,1,0,0,1,15.12,25.41Z"/></g></g><g id="selfrepair"><g id="_Group_2" data-name="&lt;Group&gt;"><path id="_Compound_Path_2" data-name="&lt;Compound Path&gt;" d="M33.11,13.2c-.81.37-1.62.71-2.4,1.1a1,1,0,0,1-1.09-.1,1.82,1.82,0,0,1-1-1.86,1.26,1.26,0,0,1,.82-1.3c.75-.34,1.45-.76,2.24-1.18-.16-.14-.24-.22-.33-.29A3.92,3.92,0,0,0,25.27,12a5.38,5.38,0,0,1-2.16,3.23C17.7,19.26,18,19,12.65,23.11A3.68,3.68,0,0,1,10,24a3,3,0,0,0-3.1,2.75,3.12,3.12,0,0,0,2.3,3.34,3,3,0,0,0,3.8-2.2,4.13,4.13,0,0,1,1.65-2.38c4.94-3.7,4.16-3.15,9-6.92a7,7,0,0,1,4.13-1.48A10.72,10.72,0,0,0,30.15,17,3.93,3.93,0,0,0,33.11,13.2ZM11.59,27.35,11,28.42a.47.47,0,0,1-.41.24H9.33a.47.47,0,0,1-.41-.24l-.62-1.07a.47.47,0,0,1,0-.47l.62-1.07a.47.47,0,0,1,.41-.24h1.23a.47.47,0,0,1,.41.24l.62,1.07A.47.47,0,0,1,11.59,27.35Z"/><g id="_Group_3" data-name="&lt;Group&gt;"><path d="M26.54,18.57a.29.29,0,0,0-.27-.26l-1-.07a5.85,5.85,0,0,0-.3-.79l.77-.79a.29.29,0,0,0,0-.38l-.8-1.1a.29.29,0,0,0-.37-.09l-1,.5c-.13-.12-.26-.23-.4-.33l.29-1.09a.29.29,0,0,0-.16-.34l-1.24-.57a.29.29,0,0,0-.36.1l-.62.91a5.87,5.87,0,0,0-.83-.14l-.26-1A.29.29,0,0,0,19.7,13l-1.36.13a.29.29,0,0,0-.26.27l-.07,1a5.79,5.79,0,0,0-.78.3l-.79-.77a.29.29,0,0,0-.38,0l-1.1.8a.29.29,0,0,0-.09.37l.5,1c-.11.13-.22.26-.33.4l-1.09-.29a.29.29,0,0,0-.34.16L13,17.54a.29.29,0,0,0,.1.37l.91.62a5.79,5.79,0,0,0-.14.83l-1,.26a.29.29,0,0,0-.21.31l.13,1.36a.29.29,0,0,0,.27.26l1,.07a5.84,5.84,0,0,0,.3.79l-.77.79a.29.29,0,0,0,0,.38l.8,1.1a.29.29,0,0,0,.37.09l1-.5c.13.12.26.23.4.33l-.29,1.09a.29.29,0,0,0,.16.34l1.24.57a.29.29,0,0,0,.36-.1l.62-.91a5.89,5.89,0,0,0,.83.14l.26,1a.29.29,0,0,0,.28.22h0l1.36-.13a.29.29,0,0,0,.26-.27l.07-1a5.78,5.78,0,0,0,.78-.3L23,26a.29.29,0,0,0,.38,0l1.1-.8a.29.29,0,0,0,.09-.37l-.5-1,.17-.2.16-.21,1.09.29a.29.29,0,0,0,.34-.16l.57-1.24a.29.29,0,0,0-.1-.37l-.91-.62a5.81,5.81,0,0,0,.14-.83l1-.26a.29.29,0,0,0,.21-.31Zm-4.1,3.6a3.51,3.51,0,0,1-2.38,1.28l-.35,0a3.53,3.53,0,0,1-.34-7.05l.35,0a3.53,3.53,0,0,1,2.73,5.77Z"/></g></g></g><g id="reconfigure"><g id="_Group_4" data-name="&lt;Group&gt;"><path id="_Compound_Path_3" data-name="&lt;Compound Path&gt;" d="M26.72,18.84a.34.34,0,0,0-.32-.31l-.93-.07a5.77,5.77,0,0,0-.27-.7l.72-.74a.34.34,0,0,0,0-.44l-.78-1.08a.34.34,0,0,0-.43-.11l-1,.47-.34-.28.28-1a.34.34,0,0,0-.19-.4l-1.21-.56a.34.34,0,0,0-.43.12l-.59.86a5.84,5.84,0,0,0-.74-.12l-.25-.9a.35.35,0,0,0-.37-.25l-1.33.13a.34.34,0,0,0-.31.32l-.07.94a5.74,5.74,0,0,0-.7.27l-.75-.73a.34.34,0,0,0-.44,0L15.29,15a.34.34,0,0,0-.11.43l.48,1-.27.33-1-.28a.34.34,0,0,0-.4.19l-.56,1.21a.34.34,0,0,0,.12.43l.86.59a5.77,5.77,0,0,0-.13.74l-.9.25a.34.34,0,0,0-.25.37l.13,1.33a.34.34,0,0,0,.32.31l.93.07a5.73,5.73,0,0,0,.27.71l-.72.74a.34.34,0,0,0,0,.44l.78,1.08a.34.34,0,0,0,.43.11l1-.47.34.28-.28,1a.34.34,0,0,0,.19.4l1.21.56a.35.35,0,0,0,.43-.12l.59-.86a5.83,5.83,0,0,0,.74.12l.25.9a.34.34,0,0,0,.33.25h0l1.33-.13a.34.34,0,0,0,.31-.32l.07-.93a5.77,5.77,0,0,0,.7-.27l.75.73a.34.34,0,0,0,.44,0l1.08-.78a.34.34,0,0,0,.11-.43l-.47-1,.14-.17.13-.17,1,.28a.34.34,0,0,0,.4-.19l.56-1.21a.34.34,0,0,0-.12-.43l-.86-.59a5.74,5.74,0,0,0,.12-.74l.9-.25a.34.34,0,0,0,.25-.37Zm-4.12,3.5a3.4,3.4,0,1,1-3-5.55l.34,0a3.4,3.4,0,0,1,2.63,5.56Z"/><g id="_Group_5" data-name="&lt;Group&gt;"><path id="_Path_7" data-name="&lt;Path&gt;" d="M31.89,20.18A11.87,11.87,0,0,0,29,12.4a.55.55,0,0,0-.79,0l-1,.91a.54.54,0,0,0,0,.74,9.51,9.51,0,0,1-1.83,14,.54.54,0,0,1-.83-.33h0a.54.54,0,0,0-.9-.27l-3,2.84a.54.54,0,0,0,.22.92l4,1.17a.54.54,0,0,0,.68-.65l-.11-.44a.55.55,0,0,1,.28-.61A11.91,11.91,0,0,0,31.89,20.18Z"/><path id="_Path_8" data-name="&lt;Path&gt;" d="M15.39,12.68h0a.54.54,0,0,0,.9.27l3-2.84a.54.54,0,0,0-.22-.92L15.11,8a.54.54,0,0,0-.68.65l.11.44a.55.55,0,0,1-.28.61,11.92,11.92,0,0,0-2,19.57.54.54,0,0,0,.77-.09l.81-1.05a.54.54,0,0,0-.07-.74,9.51,9.51,0,0,1,.78-15A.54.54,0,0,1,15.39,12.68Z"/></g></g></g><g id="bastion"><path d="M21.17,25.77v-9c0-.31,0-.34-.23-.34h-4.1c-.23,0-.23,0-.23.34v9c0,.34,0,.34.26.34h4C21.16,26.11,21.17,26.11,21.17,25.77ZM18.89,25c-1.32,0-1.42,0-1.42-.57s0-6.42,0-7,0-.52,1.4-.52,1.4,0,1.4.52,0,6.45,0,7S20.21,25,18.89,25Z"/><path d="M18.89,17.49c-1.05,0-1.05,0-1.05.38v6.27c0,.43,0,.43,1.05.43s1.05,0,1.05-.43V17.87C19.94,17.51,19.94,17.49,18.89,17.49Z"/><path d="M18.89,26.43H16.77c-.13,0-.12.06,0,.2a5.16,5.16,0,0,0,.32.47s.09.1.35.1h2.94c.26,0,.3-.05.35-.1a5.17,5.17,0,0,0,.32-.47c.1-.15.11-.2,0-.2Z"/><path d="M24.18,14.88H21.4c-.36,0-.35,0-.28.14.32.78.26.62.32.78s.07.19.07.75.09,10.15,0,10.31-.29.34-.43.54-.12.16-.37.16H17.06c-.25,0-.23,0-.37-.16s-.34-.37-.43-.54,0-9.75,0-10.31a1.86,1.86,0,0,1,.07-.75,7.68,7.68,0,0,1,.32-.78c.07-.17.08-.13-.28-.14H13.59c-.21,0-.24,0-.77.57s-.66.61-.66,1.2V31.21c0,.33,0,.33.22.53a7.53,7.53,0,0,0,1,.88h1.94c.17,0,.17,0,.26-.12s.77-1.05.94-1.24.16-.18.53-.18h3.73c.37,0,.36,0,.53.18s.85,1.11.94,1.24.09.12.26.12h1.94a7.53,7.53,0,0,0,1-.88c.2-.19.22-.19.22-.53V16.64c0-.59-.12-.65-.66-1.2S24.39,14.88,24.18,14.88Z"/><path d="M26.44,18l-.55-.54V31.3l.54-.46a.33.33,0,0,0,.12-.25V18.28A.33.33,0,0,0,26.44,18Z"/><path d="M16.91,16.07h4c.13,0,.15-.07.09-.24A11.73,11.73,0,0,0,20,13.5H17.75a11.73,11.73,0,0,0-.93,2.32C16.76,16,16.78,16.07,16.91,16.07Z"/><path d="M11.23,18.28V30.58a.33.33,0,0,0,.12.25l.54.46V17.5l-.55.54A.33.33,0,0,0,11.23,18.28Z"/><path d="M32.78,11.37c-.16-.11-1.26.34-1.26.34.95-.4.9-.47.9-.47a1.55,1.55,0,0,0-.61.09c.1-.09.09-.11.09-.11a1.09,1.09,0,0,0-.47,0c-.28,0-.16.05-.59.14s-1.1.29-1.22.33-.1,0-.15,0a4.39,4.39,0,0,0-1.14.37.92.92,0,0,1-.6-.11c-.32-.16-.58-.31-1.08-.61s-1.19-.95-1.38-1.07A6.59,6.59,0,0,0,24,9.92c-.27-.06-.31-.5-.43-1A2.4,2.4,0,0,0,23,8a3.39,3.39,0,0,0-.16-1.08,4,4,0,0,0-.65.79c-.07.08-.09.05-.34.13a1.21,1.21,0,0,0-.6.43A4.85,4.85,0,0,0,21,9.37c-.08.49,0,.48.14.67a2.92,2.92,0,0,1,.12,1.49c-.05.14,0,.19,0,.19s.17-.13.17-.13a2.58,2.58,0,0,0,.27,1.24,5.74,5.74,0,0,0,1.53,1.61c0-.1.23-.11.4,0a7.76,7.76,0,0,0,1.23.42c0-.19.15-.11.68.08a.79.79,0,0,1-.16.13c-.05,0-.11,0-.11.07s0,.08-.08.07l-.38-.05a.51.51,0,0,0-.43,0c-.17.11.18.41.27.37s.1-.07.32,0a.7.7,0,0,0,.5,0c.06,0,.06-.09.11-.16A3.22,3.22,0,0,1,25.9,15a3.15,3.15,0,0,0,.65.13,2.17,2.17,0,0,1-1.21.46c-.6,0-.34-.22-.72.1s.29.64.47.53.32-.23.44-.19.68,0,.67-.1,0-.12.06-.18,1-.59,1-.71l.07,0c.07-.26,0-.29,0-.68s.38-.39.5-.58a.46.46,0,0,1,.43-.23,1.6,1.6,0,0,0,.39-.08c.05,0,0-.08.11-.06a1,1,0,0,0,.48.05c.09,0-.22-.34-.19-.36A.07.07,0,0,0,29,13s-.1-.09,0-.1a20.33,20.33,0,0,0,2.58-.57c1.06-.32,1.18-.71,1.08-.7s-1.14.36-1.14.36C32.8,11.49,32.78,11.37,32.78,11.37Z"/></g></svg>