<svg xmlns="http://www.w3.org/2000/svg" viewBox="0 0 40 40"><defs><style>.cls-1{fill-rule:evenodd;}</style></defs><title>brigitte</title><g id="inspire"><path class="cls-1" d="M22.51,22.55l.58-2.22a.63.63,0,0,0-.61-.76H20.63a.51.51,0,0,0-.5.38l-.68,2.61H16.87a.51.51,0,0,0-.5.38l-.5,1.91a.63.63,0,0,0,.61.76h2.18l-.58,2.23a.63.63,0,0,0,.61.76h1.84a.51.51,0,0,0,.5-.38l.68-2.61H24.3a.51.51,0,0,0,.5-.38l.5-1.91a.63.63,0,0,0-.61-.76Zm-17,10.26,12.62-3,2.8,0,12,3-7.44-3.7,7.1-1.77-5.87-.34,9.09-4.72-9.46.45,8.2-7-9.15,4.4,4.5-10L24.22,18,25,4.78,19.42,18.09l-3.64-9.3,2.09,11.15-5.25-4.29,2.6,4.47L6.84,15.95,14.1,23l-9.42-.5L13.4,27l-7.32.65L14,28.7Z"/></g><g id="shieldbash"><polygon class="cls-1" points="6.38 27.78 6.48 25.68 5.84 24.52 6.83 20.25 6.08 19.49 7.57 13.8 8.53 12.96 8.8 12.22 9.83 11.53 9.17 13.32 8.26 14.11 6.86 19.49 7.56 20.2 6.63 24.23 7.23 25.32 7.12 28.23 6.38 27.78"/><polygon class="cls-1" points="8.5 30.83 8.72 26.08 8.05 24.89 9.08 20.46 8.3 19.68 9.85 13.78 10.85 12.91 12.21 9.2 14.11 8.29 12.18 13.55 11.25 14.36 9.81 19.84 10.54 20.57 9.58 24.68 10.2 25.79 9.97 31.68 8.5 30.83"/><path class="cls-1" d="M24.2,18.37l-1.08,4-1.18,4-1.21,1.38L17.4,33.17a4.45,4.45,0,0,1-2.34,1,6.07,6.07,0,0,1-3.59-1.49l.28-6.19-.66-1.2,1-4.43-.78-.79,1.55-5.91,1-.87L16.6,5.9s5.17-.47,7,.54a6,6,0,0,1,2.61,3.89l-.65,3.13-.9,3.3L24,16.59l-.18-.33.15-.12.1-.43-.47-.78.15-.64-.1-3-.53-1.13-.72-.28-.42.35-.12,1.18.37.18L22,14l-.41.65-1,.66-.17.43.07.15-.39.29-2,.05-.19.14-.11-.54-.92.42-.37,1.19.58.6.41-.29,2.25.18,0,.39-.27.39-.19.59.56.9H20l0,.63-1.14,2.44-.48.18-.54,1.18.22.35.87-.28,1.17-1.13,1.81-3,.11-.34.71-.47.19-.59,0-.42.27-.36,0-.05Z"/><path d="M34.54,17.93,32,13.62c-.16-.28-.66-.11-.76.26l-.42,1.58H26.57l-1.47,5.47h4.21l-.42,1.58c-.1.36.31.53.62.26l4.89-4.31a.43.43,0,0,0,.14-.52"/></g><g id="barriershield"><path class="cls-1" d="M20.8,26.93l.69-1.37L20.83,25l.3-.26V21.89l.2-.29.46.07,1.47-1V20L23,19.47l.26-.46,4.06-.2.56.39,1.34-.62V17.14l-1.37-.62-.49.62L27.08,17l-3.44,0-.53-.39.2-.16-.07-.52-2-1.37V11l-.33-.33.59-.52L20.9,8.83H19.39l-.59,1.34.59.52-.33.33v3.44l-2,1.37-.07.52.2.16-.53.39-3.44,0-.26.19-.49-.62-1.37.62v1.44l1.34.62.56-.39L17,19l.26.46L17,20v.72l1.48,1L19,21.6l.2.29v2.85l.29.26-.65.56.69,1.37ZM20.17,5.57a34.71,34.71,0,0,1,8.63,1.38l1,1v5.7l1.39,1.22v5.44L30,21.57v3.52l-1.82,2.08-2.62,6.11a26.87,26.87,0,0,1-5.37,1.07,26.88,26.88,0,0,1-5.36-1.07l-2.62-6.11-1.82-2.08V21.57L9.13,20.26V14.83l1.41-1.14V8l1-1A34.71,34.71,0,0,1,20.17,5.57Z"/></g><g id="rally"><path class="cls-1" d="M7.32,15a4,4,0,0,1-1.22-.47,7.56,7.56,0,0,1,0-2.09A14.5,14.5,0,0,1,8.27,9.78a7.16,7.16,0,0,1,2.12,0,3.75,3.75,0,0,1,.07,1.35A19.16,19.16,0,0,0,7.32,15Z"/><path class="cls-1" d="M20.37,18.07a7.62,7.62,0,0,1,.89-.7c.44-.25.84-.37.85-.07,0,.53-.37.84-.77,1.56a4,4,0,0,0-.53,1.22C20.6,19.23,20.55,18.87,20.37,18.07ZM18,19.57c-2,2.27-4,5.07-5.72,4.68a68,68,0,0,1-4.39-8.54C9.45,12.22,18,4.7,20.7,7.27A2.16,2.16,0,0,1,21,8c0,.09.16.62.27,1.09.51,2.15.78,4.43,1.08,6.55a28.07,28.07,0,0,0-.2-5.34A14.51,14.51,0,0,1,32.79,8.2,19,19,0,0,0,26,12.3a15.1,15.1,0,0,1,8.13-.9c-8,2.32-12.7,9.74-12.72,9.42a4.33,4.33,0,0,1,.84-2.29c.24-.41.82-1.06.53-1.7a.81.81,0,0,0-.94-.34c-1.4.28-2.69,1.62-3.72,2.93Z"/><path class="cls-1" d="M13.17,26.7a3.32,3.32,0,0,1-1.37-1.16l.31-.82a.92.92,0,0,0,1,.24,8.53,8.53,0,0,0,4-3.14l.52,1.75a1.68,1.68,0,0,1-.31.62,8.38,8.38,0,0,1-2,1.63A5.74,5.74,0,0,1,13.17,26.7ZM17,25l.21,1a4.85,4.85,0,0,1-2.06,1.37l-.83-.63A7.82,7.82,0,0,0,17,25Zm.38,1.42,4.5,7.64a7.73,7.73,0,0,1-3.48-1.19l-2.92-5.15A4.14,4.14,0,0,0,17.39,26.42Z"/></g><g id="repairpack"><path class="cls-1" d="M26.67,9.35A43.41,43.41,0,0,1,30,12.24l-2.52,1.68L27.08,13A7.41,7.41,0,0,0,26.67,9.35Z"/><ellipse cx="20.06" cy="9.12" rx="2.41" ry="0.86"/><path class="cls-1" d="M21.48,32v-.4l1.37-3.19a11.3,11.3,0,0,0,2.76-1L25.74,32l-3.39,2.12-.91-.27v-.1A8.25,8.25,0,0,1,16,32.09Z"/><path class="cls-1" d="M25.8,13.21a1.44,1.44,0,0,0,.25-.78,29.08,29.08,0,0,0-.88-4.08C24.88,7,22.89,6,20.07,6S15.23,7.07,15,8.34a30.74,30.74,0,0,0-.88,4.08c0,1.52,2.68,2.75,6,2.75a12.69,12.69,0,0,0,1.38-.08v.79L23,19.51l3-1.07.58-3.72ZM16.12,8.43c0-1.07,1.77-1.94,4-1.94s4,.87,4,1.94-1.77,1.94-4,1.94S16.12,9.5,16.12,8.43Z"/><path class="cls-1" d="M24.85,22.8V21.4l-1,.32v1.4l-1.3.44v1.06l1.3-.44v1.4l1-.32v-1.4l1.25-.42V22.39Zm-.54,4.95A6.19,6.19,0,0,1,21,22.28a5.36,5.36,0,0,0,3.36-3c.86,1.1,1.61,1.38,3.38.76C27.7,23.86,24.3,27.75,24.3,27.75Z"/><path class="cls-1" d="M27.74,14.48l2.63-1.73,1.75,2v6.65L27.64,28.9l-.93.57-.06-2.59a17.31,17.31,0,0,0,4.4-5.1V17.86a18.27,18.27,0,0,0-3.87.29Z"/><path d="M14.19,17.27l5.91-1h-.15c-3.44,0-7.34-1-6.92-4.36,0-.22.07-.44.11-.67l-2.75,2.58h0l-3,5.8.41,6.28,3.79,3.46-.39-6.93Z"/><path d="M15.83,23.09c1.34-1.27,3.63-2.23,6.28-3.19L20.6,16.73l-6,1.05L11.87,22.5l.41,7.44,1.24,1.13L20.63,31l1.19-2.76a16.65,16.65,0,0,1-5.88-1.67Z"/></g><g id="whipshot"><path class="cls-1" d="M15.55,23.05,17.21,22l.77.78L16.9,24.43A11,11,0,0,1,15.55,23.05Zm9.65-2.45c.16.24.24.41.22.48L19.1,25.26l-.73.23a11.23,11.23,0,0,1-1.16-.8c.37-.57.76-1.13,1.12-1.71a.42.42,0,0,0,0-.4c-.12-.22-.7-1-1.11-1a.31.31,0,0,0-.17,0,9.51,9.51,0,0,0-1.76,1.12,11.73,11.73,0,0,1-.72-1.06l.11-.71,4.4-6.3a2.93,2.93,0,0,1,.48.25q1.08.83,2.08,1.74l-.33.51L23,18.88l.5-.33.51.58Q24.64,19.84,25.2,20.61Z"/><path class="cls-1" d="M14.6,22.47l-.17.19a.56.56,0,0,0,0,.72c.18.24.38.47.57.69l-.66.66a1.86,1.86,0,0,0-.94-.33c-1.1,0-1.73,1-2.54,1.88a1.54,1.54,0,0,0-.29,1.64,2.48,2.48,0,0,0,.21.38l-.65.66a1.58,1.58,0,0,0-.91-.37H9c-.93.07-1.63,1.1-2.4,1.88a1.56,1.56,0,0,0,0,2.1c.56.56,1.14,1.18,1.87,1.13.92-.07,1.61-1.08,2.4-1.88a1.56,1.56,0,0,0,0-2l.62-.63a1.82,1.82,0,0,0,1.09.35c.94,0,1.64-1.06,2.44-1.89a1.55,1.55,0,0,0,.25-1.71,2.72,2.72,0,0,0-.21-.34l.65-.65c.24.21.48.41.73.6a.57.57,0,0,0,.71,0l.19-.18A12.5,12.5,0,0,1,14.6,22.47Zm-4.4,8.66q-.71.72-1.43,1.43a.5.5,0,0,1-.53.09c-.36-.15-1.27-1-.85-1.48s.95-1,1.43-1.43a.5.5,0,0,1,.32-.13.65.65,0,0,1,.25.05l-.44.44a.3.3,0,0,0,0,.43l.43.43a.3.3,0,0,0,.43,0l.44-.44A.54.54,0,0,1,10.2,31.12Zm4.18-4.19q-.71.73-1.43,1.43a.5.5,0,0,1-.53.09l-.08,0,.66-.66a.3.3,0,0,0,0-.43l-.43-.43a.3.3,0,0,0-.43,0l-.62.62a.48.48,0,0,1,0-.54q.71-.73,1.43-1.43a.51.51,0,0,1,.32-.13.65.65,0,0,1,.25.05l-.5.5a.3.3,0,0,0,0,.43l.43.43a.3.3,0,0,0,.43,0l.5-.5A.54.54,0,0,1,14.38,26.93Z"/><polygon class="cls-1" points="26.07 16.17 24 14.04 21.72 16.07 24.13 18.42 26.07 16.17"/><polygon class="cls-1" points="16.24 9.46 7.11 19.46 15.78 12.07 12.42 18.04 17.76 11.71 16.52 10.45 16.24 9.46"/><polygon class="cls-1" points="28.39 22.39 22.76 26.98 28.34 24.22 22.21 31.62 30.77 24.05 29.72 23.88 28.39 22.39"/><path class="cls-1" d="M34.19,24.09l-3-5.23-1.35-.62L28.59,17l-.69,0-1.64.8,1.36-1.59a.57.57,0,0,0,0-.76l-2.84-2.92a.57.57,0,0,0-.78,0l-1.53,1.32.73-1.47,0-.69-1.21-1.26L21.33,9,16.12,6l-.48-.07-1.11,1.2L15.1,8.5l1,1,.6-.12a.17.17,0,0,1,.15,0l2.58,1.67a.17.17,0,0,1,.07.16l-.07,2L20.63,15l.21.18h0l.61.59,2.3-2c.07-.06.07-.1.28-.09a.33.33,0,0,1,.25.11l2.07,2.13a.39.39,0,0,1,0,.51l-2,2.26.05.05.51.62,2,1.34,2-.06a.17.17,0,0,1,.16.07l1.9,2.49a.17.17,0,0,1,0,.15l-.26.73,1,1,1.36.59,1.09-1.15Z"/></g><g id="brigitte"><path d="M11.67,34.51a11.37,11.37,0,0,1-2.6-1,5.11,5.11,0,0,0,.55.7H9.56A8.58,8.58,0,0,1,8,33.12,3.35,3.35,0,0,1,6.89,31a7.08,7.08,0,0,1,.42-3.48A3.85,3.85,0,0,1,8.3,26c.36-.32.71-.64,1.05-1s.8-.75,1.19-1.14a6.63,6.63,0,0,0,.68-.73,3.44,3.44,0,0,0,.69-2c0-.32,0-.65,0-1A.21.21,0,0,0,11.8,20c-.16-.09-.17-.25-.22-.39a10.52,10.52,0,0,1-.37-1.69.19.19,0,0,1,0-.09c.07-.19.14-.39.22-.58s.16-.17.28-.05l.15.11c0-.14,0-.25,0-.36,0-.4.05-.81.09-1.21a6.61,6.61,0,0,1,.13-.7.22.22,0,0,1,.1-.13c.24-.13.47-.27.72-.39a.72.72,0,0,0,.3-.28c.21-.34.45-.67.68-1a2.19,2.19,0,0,1,.29-.26.31.31,0,0,0,.09-.12,6,6,0,0,1,.79-1.55l0,0c-.24-.26-.48-.5-.7-.77s-.49-.63-.72-1a1.35,1.35,0,0,1-.25-.68.29.29,0,0,1,.06-.2A6.66,6.66,0,0,1,16,6.93c.33-.13.66-.23,1-.35a.23.23,0,0,0,.09-.06,5.72,5.72,0,0,1,1.18-1,2.06,2.06,0,0,1,1-.31,8.68,8.68,0,0,1,3.21.22,11.16,11.16,0,0,1,3.1,1.49,11.28,11.28,0,0,1,1.53,1.18,20.09,20.09,0,0,1,2.56,3.12.26.26,0,0,1,0,.11A9.51,9.51,0,0,0,26.81,10l0,0,.09.08A6.77,6.77,0,0,1,28,11.32a10,10,0,0,1,1.08,1.56A8.91,8.91,0,0,1,30,15.2a12,12,0,0,1,.15,1.37,17.7,17.7,0,0,0,.63,4,22.78,22.78,0,0,0,1,2.45l-.59-.6c-.19-.21-.38-.42-.57-.64L30,21.12c-.18-.22-.36-.44-.53-.67s-.33-.46-.49-.7-.3-.48-.47-.71a3.05,3.05,0,0,0,.11.43c.23.55.45,1.11.7,1.65a8.43,8.43,0,0,0,2,2.65A8.77,8.77,0,0,0,35,25.69a.33.33,0,0,1,.14.07l-.46.08A4,4,0,0,1,33,25.71a11.64,11.64,0,0,1-1.61-.48,13.43,13.43,0,0,1-1.71-.9A18.54,18.54,0,0,1,26.81,22a11.68,11.68,0,0,1-2-2.46c-.11-.18-.22-.35-.31-.53a.5.5,0,0,1,0-.24c0-.31,0-.62.07-.93a.3.3,0,0,0,0-.15l-.42-.76a.54.54,0,0,1-.06-.22c0-.34,0-.68,0-1a.41.41,0,0,0-.16-.35c-.33-.27-.65-.54-1-.82a.69.69,0,0,1-.11-.14c-.18-.27-.35-.55-.55-.81a4.17,4.17,0,0,0-.41-.42l0,0,0,0,.88,1.5a.94.94,0,0,0,.16.19l.72.69a.61.61,0,0,1,.18.48c0,.34,0,.68,0,1,.16-.06.19-.05.26.12a4.4,4.4,0,0,1,.23.6.89.89,0,0,1,0,.33,8.17,8.17,0,0,1-.4,1.68s0,.06,0,.07c-.22.19-.13.44-.11.66A10.47,10.47,0,0,0,25.17,25a12.16,12.16,0,0,0,1.24,1.68,8.93,8.93,0,0,1,1.18,1.86A4.7,4.7,0,0,1,28,29.86c.05.34.09.69.12,1a1,1,0,0,1,0,.22,3.9,3.9,0,0,0-.84-1.27l.17.58a5.63,5.63,0,0,1,.2,2.37,2,2,0,0,1-1,1.53,3.94,3.94,0,0,1-2.8.63,1.2,1.2,0,0,1-.3-.1,2.8,2.8,0,0,0,1.49-.61,2,2,0,0,1-1.83,0,4.54,4.54,0,0,0,.54-.1,3.08,3.08,0,0,0,.57-.24c.21-.11.4-.26.6-.38a2.2,2.2,0,0,0,.8-1.07,3.12,3.12,0,0,0,.09-2.24,3.8,3.8,0,0,0-.45-.91,13.75,13.75,0,0,1-1.7-3.94A29.47,29.47,0,0,1,23,22c0-.31-.07-.62-.1-.93,0,0,0-.09,0-.16a1.16,1.16,0,0,1-.29.39.54.54,0,0,1,0-.09c0-.58,0-1.16,0-1.74a2.76,2.76,0,0,0-.13-1.1l-.35.64-.64-1.6-.72.28-.26.1c-.17.05-.18,0-.18-.13s0-.35,0-.53,0-.07,0-.13c-.17.11-.32.21-.47.32s-.28.23-.41.35-.17.15-.33,0l-.53-.47a3.52,3.52,0,0,0-.62,1.3c-.28-.12-.55-.22-.81-.36-.72-.38-1.42-.78-2.13-1.17l-.07,0c-.23-.12-.28-.1-.32.15s-.07.5-.1.77l-.32-.1-.6-.26c-.16-.06-.18-.05-.22.11-.1.4-.2.8-.3,1.2a.47.47,0,0,0,0,.12q0,1,0,2a.7.7,0,0,1,0,.07l-.33-.29c0,.16,0,.3,0,.44a6.59,6.59,0,0,1-1.26,3.48c-.31.46-.69.88-1,1.34a13.92,13.92,0,0,0-.9,1.44,8.08,8.08,0,0,0-.64,1.83A6.26,6.26,0,0,0,8.7,31a3.13,3.13,0,0,0,.49,1.51,5.06,5.06,0,0,0,2.19,1.91Zm8.63-22.3a2.32,2.32,0,0,0-.16-.26c-.35-.44-.7-.88-1.07-1.3s-.7-.72-1.06-1.06c-.18-.17-.22-.17-.4,0a9,9,0,0,0-.74.67c-.44.46-.85.95-1.27,1.42a.48.48,0,0,0,0,.11,4.45,4.45,0,0,0,.41-.29c.2-.18.38-.4.6-.57s.69-.52,1-.77a.27.27,0,0,1,.36,0c.12.09.25.16.36.26a11.38,11.38,0,0,1,1.48,1.48A.7.7,0,0,0,20.3,12.21Zm-8.06,7.53a4.12,4.12,0,0,0,.13-.39.82.82,0,0,0,0-.29c-.05-.38-.4-.56-.6-.86a.74.74,0,0,0-.1.53c0,.2.13.39.16.58S12,19.64,12.23,19.74Zm10.91,0,0,0c.1-.1.25-.18.3-.3a4.54,4.54,0,0,0,.21-.73.71.71,0,0,0-.1-.51,6.5,6.5,0,0,0-.53.61.69.69,0,0,0-.1.43A2.2,2.2,0,0,0,23.15,19.73Z"/></g></svg>