<svg xmlns="http://www.w3.org/2000/svg" viewBox="0 0 40 40"><title>doomfist</title><g id="bestdefense"><path d="M18.51,24.61a1.17,1.17,0,0,0,0-2.35H16.18a.87.87,0,0,0-.85.89v.58a.87.87,0,0,0,.85.89Z"/><path d="M24.18,21.91a.83.83,0,0,0,.81-.84V16.59a1.17,1.17,0,0,0-1.15-1.2h-.21a1.13,1.13,0,0,0-.84.38h-.6a1.13,1.13,0,0,0-.84-.38h-.21a1.13,1.13,0,0,0-.84.38h-.6a1.13,1.13,0,0,0-.84-.38h-.21a1.13,1.13,0,0,0-.84.38h-.6a1.13,1.13,0,0,0-.84-.38h-.21A1.17,1.17,0,0,0,15,16.59v4.48a.83.83,0,0,0,.81.84h.68a.83.83,0,0,0,.81-.84V17.68h.26v3.38a.83.83,0,0,0,.81.84h.68a.83.83,0,0,0,.81-.84V17.68h.26v3.38a.83.83,0,0,0,.81.84h.68a.83.83,0,0,0,.81-.84V17.88h.26v3.19a.83.83,0,0,0,.81.84Z"/><path d="M9.72,17a.69.69,0,0,0,.85,0l2-1.46a7.94,7.94,0,0,0,.26-3.06,4.55,4.55,0,0,1-.89-.31.69.69,0,0,0-.75.09,6.18,6.18,0,0,0-1,.9c-.27.28-.64.49-.74.89-.17.75-.3,1.52-.44,2.25A2.4,2.4,0,0,0,9.72,17Z"/><path d="M26.11,11.44a1.5,1.5,0,0,0,1.83-.31,1.85,1.85,0,0,0-.72-1.55,7.45,7.45,0,0,0-2.06-1.09A1.73,1.73,0,0,0,23.41,9c.18.29,0,.65.16,1C24.43,10.48,25.24,11,26.11,11.44Z"/><path d="M13.91,11.47c.67-.38,1.36-.75,2-1.1a1.24,1.24,0,0,0,.62-1.6c-1.26-.73-2.25,0-3.27.51a2.63,2.63,0,0,0-1.25,1.81A1.51,1.51,0,0,0,13.91,11.47Z"/><path d="M27.08,13c0,.27.2.39.25.63a5.51,5.51,0,0,0,0,1.13,1.34,1.34,0,0,0,.52,1.12c.51.42,1.06.78,1.59,1.16a1,1,0,0,0,.79.19,7.74,7.74,0,0,0,.55-.59.69.69,0,0,0,.18-.69c-.16-.71-.22-1.44-.46-2.2a11.25,11.25,0,0,1-1.37-1.26c-.14-.14-.28-.32-.5-.28C28.05,12.29,27.38,12.32,27.08,13Z"/><path d="M12.57,24.38a11,11,0,0,0-2.34-1.73c-.61,0-.86.56-1.26.93a3.41,3.41,0,0,1,.29,1.21A3,3,0,0,0,11,27.3c.24.15.42.39.76.39a3.49,3.49,0,0,0,1.15-.51A10,10,0,0,0,12.57,24.38Z"/><path d="M17.69,10.34c.68.16,1.28.53,2,.7a1.36,1.36,0,0,0,.93,0,13.36,13.36,0,0,1,1.88-.72,1.37,1.37,0,0,0,.35-.44l-.2-1a.59.59,0,0,0-.48-.51,11.53,11.53,0,0,1-1.51-.51,1.11,1.11,0,0,0-1,.05,5.79,5.79,0,0,1-1.14.45c-1,.32-1.19.57-1.16,1.64C17.4,10.14,17.52,10.3,17.69,10.34Z"/><path d="M9.91,20.73c-.05-.55,0-1.11,0-1.66,0-.91-.34-1.33-1.29-1.55a4.31,4.31,0,0,0-1.08,1v3a4.14,4.14,0,0,0,1.1,1,6.53,6.53,0,0,0,.64-.37A1.31,1.31,0,0,0,9.91,20.73Z"/><path d="M31.45,17.48l-.13.08a11.08,11.08,0,0,0-1,1.16c0,.92,0,1.85,0,2.78a.82.82,0,0,0,.1.27l1,.73a1.86,1.86,0,0,0,1.17-1.3c0-.89,0-1.78,0-2.66A4.91,4.91,0,0,0,31.45,17.48Z"/><path d="M33.78,16.5c0-.13-.07-.25-.1-.37h0v0h0a15.39,15.39,0,0,0-1-2.49,14.7,14.7,0,0,0-2-2.9,11.31,11.31,0,0,0-2.44-2.2A16.82,16.82,0,0,0,26.53,7.4a16.71,16.71,0,0,0-2.73-1.06A7.79,7.79,0,0,0,22.26,6,20.42,20.42,0,0,0,18.2,6,12.72,12.72,0,0,0,15,6.72a15.49,15.49,0,0,0-3.13,1.66c-.7.47-1.27,1.08-1.95,1.58-.33.25-.49.68-.8,1A11.13,11.13,0,0,0,7,14.39a12,12,0,0,0-.8,2.46,12.47,12.47,0,0,0-.33,2.2A15.46,15.46,0,0,0,6,22.13a15.9,15.9,0,0,0,1.09,3.72,13.76,13.76,0,0,0,1.29,2.26c.38.55.83,1.06,1.23,1.59a13.1,13.1,0,0,0,2.18,1.88,4.47,4.47,0,0,0,1,.64A19.77,19.77,0,0,0,16,33.65c.56.15,1.12.29,1.69.39a23.06,23.06,0,0,0,3.16.1A6,6,0,0,0,22.65,34a18.09,18.09,0,0,0,2.54-.76,22.73,22.73,0,0,0,2.24-1.09,12.85,12.85,0,0,0,2.36-1.82,13,13,0,0,0,1.5-1.67,13.14,13.14,0,0,0,1.57-2.57,9.2,9.2,0,0,0,1-3.13c0-.24.16-.39.21-.59.11-1,.06-2.07.09-3.11A10.39,10.39,0,0,0,33.78,16.5Zm-1.25,6.24a4.56,4.56,0,0,0-.73,1.57c-.09.24-.1.52-.33.72a2.28,2.28,0,0,1-1,2.25c-.57.51-1.07,1.09-1.62,1.64-.26.26-.19.63-.34.94A3.6,3.6,0,0,1,27,31.37a15.75,15.75,0,0,1-1.83.86.63.63,0,0,1-.52-.06,1.56,1.56,0,0,0-1.44,0,.67.67,0,0,1-.31.06,6.64,6.64,0,0,0-1.79.44,2.57,2.57,0,0,1-1.86,0,4.07,4.07,0,0,0-1.59-.37c-.51,0-.94-.32-1.46-.28-.31,0-.61,0-.81.26a9.08,9.08,0,0,1-2.85-1.33c-.59-.37-.73-1.07-1.09-1.61a10.77,10.77,0,0,0-2.24-2.52c-.63-.52-.43-1.35-.74-2s-.33-1.09-.53-1.62a4.18,4.18,0,0,0-1-1.16,4.06,4.06,0,0,1-.06-1.22c0-.75,0-1.5,0-2.25a1.1,1.1,0,0,1,.39-.95A2.19,2.19,0,0,0,8,16.39a20.9,20.9,0,0,0,.69-2.6,1.5,1.5,0,0,1,.65-1c.72-.57,1.32-1.26,1.94-1.86.32-1,.66-2,1.78-2.4A9.46,9.46,0,0,0,14.14,8c.9-.46,1.77-.14,2.81-.11.21-.16.66-.08,1.08-.15A8.42,8.42,0,0,1,19.76,7a1.94,1.94,0,0,1,1.15.14,15,15,0,0,1,2.37.81,3.45,3.45,0,0,1,3,.18,7.88,7.88,0,0,1,1.4.87,2.87,2.87,0,0,1,.87,1.38,3.81,3.81,0,0,0,1.71,2,3,3,0,0,1,1.28,2,15,15,0,0,0,.39,1.67,4.12,4.12,0,0,0,.25.66h0A3.79,3.79,0,0,0,33.1,18a.87.87,0,0,1,.21.7c0,.86,0,1.72,0,2.58A2.11,2.11,0,0,1,32.53,22.74Z"/><path d="M30,22.64a3.86,3.86,0,0,0-1.24.73h0l0,0a5.25,5.25,0,0,1-1,.66,1.93,1.93,0,0,0-.37,1.17,2.66,2.66,0,0,1-.29,1.57,1.42,1.42,0,0,0,2.21.45A4.84,4.84,0,0,1,30.5,26.2c.29-.83.31-1.7.57-2.54A1.62,1.62,0,0,0,30,22.64Z"/><path d="M20.08,28.6c-.92.43-1.89.62-2.73,1.13a1.3,1.3,0,0,0,.57,1.62c.19,0,.4.16.6.21.5.12.92.51,1.44.5a5.6,5.6,0,0,0,2.59-.76L22.83,30c-.7-.83-1.86-.76-2.66-1.37Z"/><path d="M14.46,28.62a4.24,4.24,0,0,0-1.09-.44,1.21,1.21,0,0,0-1.23.58c.23,1.55,1.57,2,2.75,2.62A3,3,0,0,0,16.65,31a1.67,1.67,0,0,0-.33-1.33C15.68,29.34,15.05,29,14.46,28.62Z"/><path d="M27.4,28.33a.9.9,0,0,0-1.09,0c-.43.27-.94.42-1.37.69s-1.1.5-1.45,1a7.68,7.68,0,0,0,0,1,2.15,2.15,0,0,0,2.11.12c.43-.21.82-.48,1.25-.7a1.85,1.85,0,0,0,1-2A2.08,2.08,0,0,1,27.4,28.33Z"/></g><g id="meteorstrike"><path d="M19.94,34C13,34,6.1,27.84,6.1,21.42c0,0,0-.36.3.36A13.47,13.47,0,0,0,7.76,24c.33.49.65.63.45.22s-.58-2.22,0-1.33S9,24.06,9.84,25.55c.42.7.61.71.27.09S8.79,21.23,9.69,23s3.74,5,6.3,6,4.11.67,5.17-.49,2.13-2.38,1.62-1.18S21.06,30,22.1,29.47a16.65,16.65,0,0,0,5.18-4.62c1.65-2.23,2.45-4.16,2.06-2.63A14.9,14.9,0,0,1,27.93,26c-.43.65-.83,1.22,0,.39a13.34,13.34,0,0,0,2-2.57c.37-.63,1-1.48.49,0-.37,1-.71,2.14-.07,1.4a9.07,9.07,0,0,0,2.72-5.75c.24-2.23.65-.7.65,1.39C33.78,23.91,31.93,34,19.94,34Z"/><path d="M31.76,22c.11.11.65-1,.8-1.84s-.38-.12-.54.35S31.55,21.77,31.76,22Z"/><path d="M20.22,8.86H14.59c-.37,0-.56-.16-.56-.75s0-.69.5-.93S16.49,6,20.22,6,25.8,7.13,26,7.24s.35.16.35.8,0,.82-.63.82Z"/><path d="M20.17,9.28H25c.37,0,.44,0,.44.71s0,.81-.24,1-.12.49-.21.69-.56.4-.69.53a1.41,1.41,0,0,0-.31.5c-.13.32-.85.62-1,.74s-.69.22-.71.35c-.06.34-.1.46-.56.46H19.35c-.32,0-.31,0-.62-.38s-.69-1.22-1-1.56-.44-.56-.8-.56H16c-.34,0-.5-.16-.5-.32a.24.24,0,0,0-.27-.25c-.15,0-.27-.06-.27-.47V9.6c0-.27,0-.32.5-.32Z"/><path d="M22.59,14.21c.11-.07.53-.27.72-.38s.91-.41,1-.74a1.41,1.41,0,0,1,.31-.5c.13-.13.66-.25.75-.46a1.16,1.16,0,0,1,1.15.09c.46.38.43.71.62,1s.15.55.43,1.06.41,1.19.56,1.44a2.24,2.24,0,0,1,.34,1.18,3,3,0,0,1-.22,1.28A2.71,2.71,0,0,0,28,19.3c0,.32-.06.94-.06,1.22s-.09.34-.34.34-.5,0-.53-.25a4.55,4.55,0,0,0-.1-.7c-.22-.76-.19-1.16-.35-1.49a4,4,0,0,0-.93-1.15,4.42,4.42,0,0,0-1.87-.18c-.25,0-.47,0-.85-.74a7.7,7.7,0,0,1-.56-1.56A.45.45,0,0,1,22.59,14.21Z"/><path d="M15.83,12.2h1c.35,0,.46.22.75.56a9.31,9.31,0,0,1,.91,1.62,1.39,1.39,0,0,1-.46,1.8s-1.21.52-1.56.62-.52.22-.44.34a6.81,6.81,0,0,0,.54.49c.16.16.57.46.44.81s-.34.72-.5.74-.62.06-.63.34.18.52.18.71.12.5-.35.65-.81,0-1.06.37a1.52,1.52,0,0,0-.44.88c0,.31-.07.35-.29.31a8.54,8.54,0,0,1-1.87-1.8,5.25,5.25,0,0,1-1-1.74,4.55,4.55,0,0,1,.82-1.83c.41-.66.68-1.19,1.34-1.21a2,2,0,0,1,1.18.52c.27.13.27.3.53.25s-.12-.16-.4-.4-.78-.56-.94-.71a.56.56,0,0,0-.47-.18.5.5,0,0,0-.46.24c-.15.18-.32,0-.38-.18s-.27-.19-.37,0a2.21,2.21,0,0,1-.54.52,1.18,1.18,0,0,0-.31.63,3.17,3.17,0,0,1-.28.75c-.06.09,0,.31,0,.68,0,0-.18.24-.43-.1a1.67,1.67,0,0,1-.46-1,5.68,5.68,0,0,1,.72-1.9c.19-.34.32-.65.69-.65a1.66,1.66,0,0,0,1.06-.4c.78-.49,1.39-1.24,2.18-1.4S15.26,12.2,15.83,12.2Z"/><path d="M15.24,23.92a1.11,1.11,0,0,1-1-.9c0-.22.26-.15.33-.59s0-.62.28-.87a3.08,3.08,0,0,1,1.33-.5c.44-.09.28-.32.35-.85s.4-1.19.84-1.12a16.07,16.07,0,0,1,1.62.53,2,2,0,0,1,1.44,2.09c-.15,1.28-.66,1.42-1,1.47l-2.73.37C15.92,23.66,15.93,23.91,15.24,23.92Z"/><path d="M12.78,22.44c.43,0,1.13.78,1.34,1.09a3.34,3.34,0,0,1,.29,1.31c0,.35.09,1-.25.6a9.67,9.67,0,0,1-1.24-1.88A3.27,3.27,0,0,1,12.78,22.44Z"/><path d="M14.57,24.18c.07-.22.27-.16.43-.06s.35.12,1,.12a3.12,3.12,0,0,0,1.25-.13c.19-.11.31,0,.31.63,0,.4.15.93,0,1.15a2.13,2.13,0,0,1-1.78.85c-.82,0-1.07-.89-1.1-1.19a5.85,5.85,0,0,0-.07-.73A1.67,1.67,0,0,1,14.57,24.18Z"/><path d="M17.8,23.79A7.18,7.18,0,0,0,17.89,25c0,.15.25.8.59,1a.79.79,0,0,0,.6.13c.31,0,.85-.29,1.16-.22s.65-.15.88-.66a1.48,1.48,0,0,0,.15-1,9.4,9.4,0,0,0-.1-1.17c-.09-.38-.24-.72-.38-.72s-.38,1-1.24,1.18S17.8,23.62,17.8,23.79Z"/><path d="M24.44,22.78c-.14,1.13-.4,2.68-2.05,2.68-1.49,0-1-2.14-.85-2.47.06-.17.37-.87.59-1.29a1,1,0,0,1,1.44-.26C24.12,22,24.52,22.16,24.44,22.78Z"/><path d="M17.8,18.68a2.14,2.14,0,0,1,1.53-.77c.47,0,.69,0,1,.66s.54,1,.63,1.15a3.19,3.19,0,0,1,.31,1.53c-.06.67-.34.85-.51.79s-.19-.34-.27-1.06a1.44,1.44,0,0,0-.84-1.19,4.34,4.34,0,0,0-1-.46C18.19,19.21,17.48,19,17.8,18.68Z"/><path d="M20.81,19.09A1.24,1.24,0,0,1,20.65,18c.13-.37.75-.68,1.74-.68s1.29,1.29,1.41,2,.21,1.28.29,1.56.27,1-.06.71-.38-.6-1-.6-1,.14-1.15.51-.16.6-.29.72-.49.15-.38-.2a2.11,2.11,0,0,0,.22-1.13A4.33,4.33,0,0,0,20.81,19.09Z"/><path d="M23.67,18.05c-.11-.37.49-1,1.36-.73a1.88,1.88,0,0,1,1.46,1.32c.12.46.14.94.23,1.28s.34.66.28.95-.29.26-.52.07-.31-.47-.69-.47-1,.21-1.06.52-.13.64-.28.49-.17-.37-.24-.76-.1-.34-.13-.53S23.84,18.58,23.67,18.05Z"/><path d="M27.61,21.51c0,1.43-.5,3.19-2.27,3.11-1.36-.06-.81-1.37-.72-1.69s0-1.3.06-1.42.21-.49,1.21-.65c.54-.09.42.59,1,.4C27.25,21.13,27.61,21,27.61,21.51Z"/></g><g id="risinguppercut"><path d="M15,32.79l-.49.45Zm9.58-13.05h0v0s0,0,0,0,0,0,0,0v-.07h0c-.05.12-.12.23-.18.35h0v0s0,.06,0,.11,0,0,0,0,0,0,0,.1,0,0,0,0l0,.11s0,0,0,0,.06.05.08.08l0,0s0,0,0,.05l0,0h0l0-.07h0v0h0s0,0,0,0a0,0,0,0,1,0,0v0s-.05.09-.05,0v0s0-.07,0-.09,0-.08.05-.07.08-.24.16-.34S24.65,19.79,24.63,19.74ZM15,32.79l.16-.15h0Zm5.14-5.19h0Zm0,0h0Zm0,0h0s0,0,0,0h0l0,0h0Zm0,0h0Zm0,0h0ZM30,14.82s-.84-1-2.31-2.49h0l-.56-.52A55.61,55.61,0,0,0,19.1,5.19s-3,6.82-5.34,12.26a28.47,28.47,0,0,1,4.92-1.61h0c0,.2,0,.41,0,.63a.12.12,0,0,0,0,.06,15.3,15.3,0,0,1-.34,2.52l0,.08a2.75,2.75,0,0,1-.12.26l-.06.11.08-.12c0,.1,0,.19,0,.27-.11.44-.24.9-.4,1.38,0,0-.09.09-.09,0,0,.14-.11.24-.11.38s-.23.39-.36.59l-.18.31-.19.31h0c-.08.15-.09.33-.27.45s-.17.33-.13.45a4.26,4.26,0,0,0-.23.36c.07,0-.08.16,0,.14s.1-.07.22-.09h0a4.55,4.55,0,0,0,.58-.41l.27-.23.25-.25c.09-.13.19-.26.29-.39s.17-.21.24-.31c0,.17-.09.34-.14.51s-.13.41-.19.62l-.09.32-.11.31-.2.62-.23.6c-.08.17,0,.4.15.27l-.12.26-.14.25c-.19.34.08.25-.11.59a13.24,13.24,0,0,1-2.77,3.85,40.56,40.56,0,0,1-3.74,3.19c.35-.22.68-.4,1-.59a4.48,4.48,0,0,0,.46-.31c.15-.12.29-.24.44-.39,0,0,.13.14.29,0a16.64,16.64,0,0,0,1.43-1.24,4.86,4.86,0,0,1,1.11-.91A2.15,2.15,0,0,0,16,29.7l-.4.48.15.12a20.31,20.31,0,0,0,1.8-2.07l.17.1L18,28c.31-.07.14.38-.19,1-.18.28-.4.6-.61.9s-.45.57-.6.79l.2.15.28-.34.1.07-.62.74-.63.67c-.22.24-.46.48-.71.71,0,0,.09.09.26-.07l-1.08,1a10.79,10.79,0,0,0-1.08,1c-.13.19.16.19.73-.2l.7-.58.67-.62.09.09-.6.53a7.7,7.7,0,0,0-.6.53c-.13.19.48-.15.35,0a2.57,2.57,0,0,0-.49.49l.88-.75a11.18,11.18,0,0,1,.86-.77c.22-.11.43-.23.52-.15A7.86,7.86,0,0,1,17.58,32a5.55,5.55,0,0,1,1.09-.73,2.36,2.36,0,0,0,.6-.67l.37-.52c.14-.17.27-.35.4-.52l.45-.62c.28-.43.55-.87.82-1.32a21,21,0,0,0,1.29-2.82c.09-.24.18-.48.26-.72l.23-.73.11-.36.1-.37.19-.73c.23-1,.44-1.94.6-2.88l.16-.47c.06-.18.1-.36.14-.48a13.25,13.25,0,0,0,0-3.11v-.09l.39,0c0,.09,0,.18,0,.26,0,.25.29.63.11.8,0,.16,0,.31,0,.47h0c0,.45.08.95.06,1.37,0,.18.07.25,0,.32-.11.35-.07.8-.15,1.15,0,0,.05.06.09,0s.13-.38.22-.37l0,.07.1-.11v-.08l.06,0c.06-.13.16-.24.23-.38a.78.78,0,0,1,.07-.38h0c0-.57.06-1.23,0-1.93a11.62,11.62,0,0,0-.09-1.2A38.06,38.06,0,0,1,30,14.82ZM20.22,27.75s0,0,0,0h0s0,0,0,0h0s0,0,0,0h0s0,.05-.06.08,0,0,0,0a.77.77,0,0,1-.06.16s-.06,0-.07,0h0s0,.06,0,.06,0,0,0,0h0v0a.17.17,0,0,0,0,.05s0,0,0,0,0,0,0,0l0,0s-.1.06-.14.09h0s0,.16,0,.15h0s0,0-.06,0h0s-.07.08-.09.11,0,0,0,0a.55.55,0,0,1-.1.13s-.09.05-.13.1a.53.53,0,0,1-.23,0h0s0,0,0,0,0,0,0,0,0,0,0-.06,0-.07,0-.11,0,0,0-.07h0a.64.64,0,0,1,.12-.16s0,0,0-.06,0,0,0,0v0h0s0,0,.06-.06h0a0,0,0,0,1,0,0s0,0,0-.06h0a.43.43,0,0,0,0-.08h0a.69.69,0,0,0,.14-.11c.06,0,.11-.09.08-.17l0,0s0,0,.11,0c-.13-.08-.06-.11,0-.13a.17.17,0,0,0,0,.06h0a0,0,0,0,1,0,0s0,0,0,0h0s0,0,0,0,0,0,.07,0h0l0,0h0s0,0,0,0h0s0,0,0,0h0l0,0s0,0,0,0h0s0-.06,0-.06,0,0,0,0,0,0,0,0,0,0,0,0,0,0,0,0h0s0,0,0,0h0s0,0,0,0,0,0,0,0,0,0,0,0H20v0h0s0,0,0,0h0s0,0,0,0,.12,0,.12,0h0l0,0h0s0,0,0,0,0,0,0,0,0,0,0,0,0,0,0,0,0,0,0,0l0,0s0,0,0,0l.06,0s0,0,0,0h0l.07.06h0Z"/></g><g id="seismicslam"><path d="M12.75,26.84a3.92,3.92,0,0,0,2,.88c.37.08.77.16,1.19.22l0,0a22.86,22.86,0,0,0,3.39.25l.94,0a22.33,22.33,0,0,0,4.44-.47,3.88,3.88,0,0,0,2-.89l0,0,0,0c1.9-2.54,3.76-8.42,3.77-8.48a.2.2,0,0,0,0-.19.08.08,0,0,0-.13,0A21.93,21.93,0,0,1,26.53,23l.27-1.09a.2.2,0,0,0,0-.18.08.08,0,0,0-.12,0A4.59,4.59,0,0,1,25.23,23L25,23a12.44,12.44,0,0,0,1-2.74A.19.19,0,0,0,26,20s-.1,0-.13.06a7.89,7.89,0,0,1-1.92,2.4,4.44,4.44,0,0,1-2.06-1.71,1.34,1.34,0,0,1,0-1.22,2.29,2.29,0,0,1,.94-.44.36.36,0,0,0,.38-.26,10.71,10.71,0,0,1,.67-1.94.37.37,0,0,0,0-.38,9.17,9.17,0,0,1-.37-3.23c0-2.29,3.05-3.59,5.86-3.64a23.43,23.43,0,0,1,3.17.23l.07,0c.18,0,.38.09.52-.08l0,0a.34.34,0,0,0-.05-.41.39.39,0,0,0-.17-.1,13.37,13.37,0,0,0-5.42-.77h-.81l-.1,0a35.19,35.19,0,0,0-3.85,1.38c-.52.22-.94.41-1.22.54l-.41.2,0,0h0l-.12,0v0a13.53,13.53,0,0,0-2.06,1.41.33.33,0,0,0-.12.34.32.32,0,0,0,.05.11,1.48,1.48,0,0,1,.13.68,26.19,26.19,0,0,1-.52,3.07l0,.12a11.09,11.09,0,0,0-.77,1.58l0,.06a10,10,0,0,0-.63,5c-.63-.39-1.2-.78-1.54-1,0,0-.09,0-.11.06a.22.22,0,0,0,0,.18l.45,1.37a7.17,7.17,0,0,1-3.1-2.43.08.08,0,0,0-.13,0,.21.21,0,0,0,0,.2s1.16,2,1.48,2.47c-.66,0-4.47-3.38-5.95-5.21a.07.07,0,0,0-.12,0,.2.2,0,0,0,0,.17S10.56,25.22,12.75,26.84Zm8.47-16h0Zm-1.58,4a6.29,6.29,0,0,1,.49-2.06.34.34,0,0,0,.06-.11,4.9,4.9,0,0,1,.7-.61v.09A15.27,15.27,0,0,0,21,14.38c.22,1.5-.13,1.84-.89,2-.14,0-.2,0-.24,0S19.61,15.86,19.63,14.78Z"/><path d="M30.38,25.73v.39C32,26.52,33,27,33,27.56c0,1.32-5.84,2.6-13,2.6S7,28.89,7,27.56c0-.42.6-.82,1.64-1.16V26C6.39,26.56,5,27.31,5,28.14,5,30,11.74,31.5,20,31.5S35,30,35,28.14C35,27.2,33.19,26.34,30.38,25.73Z"/></g><g id="rocketpunch"><path d="M33.65,20.07,21.21,13.71a14.23,14.23,0,0,1,5-1.49.14.14,0,0,0,.1-.14.14.14,0,0,0-.1-.14,19.92,19.92,0,0,0-6.49-1c.26-.63.46-1.06.46-1.07a.15.15,0,0,0,0-.14.12.12,0,0,0-.11-.07c-.84,0-2.11-.12-2.7-.18,2-1.55,6.28-2.72,6.33-2.73a.14.14,0,0,0,.09-.15.13.13,0,0,0-.12-.13c-10-.41-13.73,4-14.85,6a19.86,19.86,0,0,1,.75-2,.15.15,0,0,0,0-.16.11.11,0,0,0-.15,0c-.13.08-3.19,2.14-3.19,9.77s7.11,11.44,7.18,11.48a.12.12,0,0,0,.15,0,.15.15,0,0,0,0-.18,4.61,4.61,0,0,1-.74-1.18c3.84,3,9.69,3.36,12.18,3.36.72,0,1.16,0,1.18,0a.13.13,0,0,0,.12-.13.14.14,0,0,0-.1-.15c-4.56-1.14-6.43-2.51-7.05-3.09A40.4,40.4,0,0,0,28.45,30a.13.13,0,0,0,.11-.12.13.13,0,0,0-.08-.15c-1.56-.46-5.68-1.9-6.7-3.18l1.76-.42a.13.13,0,0,0,.1-.12.14.14,0,0,0-.07-.14L23,25.48l10.69-5A.25.25,0,0,0,33.65,20.07ZM11.25,15.64l2.19-.31.15,2.05-2.35,0Zm0,2.55,2.39-.05.16,2.16H11.25Zm.16,2.88,4.69-.2-.18,1.4L12,23Zm2,4.29-1.08-1.69,3.53-.7.52,1.15Zm7.12-3.13-2,2.29-2.45.3,1.14-.64-.53-1.6.42-1.77,2-.51-1.62-.87,1.07-2.15-2.31-2,1.05,2.32-.92,2.7H14.89l-.34-5.08,1.11-1.42,4.62,1.36.37,3a30.91,30.91,0,0,0,5.47,1.2c-1,.43-2.55,1-2.55,1a18.46,18.46,0,0,0,5.54.19C26.47,21.29,20.49,22.21,20.49,22.24Z"/></g><g id="doomfist"><path id="Face" d="M24.19,32.85a4.75,4.75,0,0,1-.48-1.36,9.53,9.53,0,0,0-.78-2.22c-.15-.29-.11-.38-.11-.38a3.2,3.2,0,0,1,1.84,1.25l.2.29.14-.32a7.13,7.13,0,0,1,1.33-2,5.18,5.18,0,0,0,1.21-2.73l.09-.36-.1-.08c-1.79-1.31-2.06-1.75-2.35-2.21a7.48,7.48,0,0,0-2-2,6.18,6.18,0,0,1-1-1.12,2.5,2.5,0,0,0-4.39,0,6.18,6.18,0,0,1-1,1.12,7.48,7.48,0,0,0-2,2c-.29.46-.56.89-2.35,2.21l-.1.08.09.36a5.18,5.18,0,0,0,1.21,2.73,7.1,7.1,0,0,1,1.33,2l.14.32.2-.29a3.25,3.25,0,0,1,1.8-1.25h0s.08.09-.07.38a9.53,9.53,0,0,0-.78,2.22,4.75,4.75,0,0,1-.48,1.36,8.05,8.05,0,0,1-2-2.28,14.54,14.54,0,0,0-1.58-2,8.72,8.72,0,0,1-1.67-2.32A15.58,15.58,0,0,1,9.89,24a15.94,15.94,0,0,0-.69-2.23c-.68-1.7-.68-1.7-1-2.71l0-.13H8A3.13,3.13,0,0,1,6.79,17.4a15.3,15.3,0,0,1-.36-5.14c0-.26,0-.46,0-.58A6.36,6.36,0,0,1,7.71,9.82c.6-.74.81-1,.81-1.2A2.06,2.06,0,0,1,9.7,8.13a3.75,3.75,0,0,1,.84,2.53A36.4,36.4,0,0,1,10,15.21L9.8,16.82l.35-.23a2.19,2.19,0,0,1,1.19-.26h.6a3,3,0,0,0,.42,0l.22,0a.32.32,0,0,1,.16,0h0a2.35,2.35,0,0,1-.2.26,2.64,2.64,0,0,1-.64.41A5.17,5.17,0,0,0,10,18.51l-.06.07,0,.09a6.73,6.73,0,0,0,.31.88l.12.27.37-.41a7.26,7.26,0,0,1,.78-.79c1.33-1.12,1.85-1.16,2.36-1.2a2.61,2.61,0,0,0,1-.24,1.11,1.11,0,0,1,.47-.11.55.55,0,0,1,.4.12,9.19,9.19,0,0,0-1.24,1,7,7,0,0,1-1.19.94A3.53,3.53,0,0,0,12.2,20.4a7.76,7.76,0,0,1-.84,1.13l-.08.09.05.11.25.56.1.22.19-.15a19.06,19.06,0,0,0,2.2-2A12.2,12.2,0,0,1,17,18a3.32,3.32,0,0,0,.89-.76A2.34,2.34,0,0,1,20,16.29a2.34,2.34,0,0,1,2.11.92A3.32,3.32,0,0,0,23,18a12.2,12.2,0,0,1,2.92,2.4,19.06,19.06,0,0,0,2.2,2l.19.15.1-.22.25-.56.05-.11-.08-.09a7.76,7.76,0,0,1-.84-1.13,3.53,3.53,0,0,0-1.17-1.25,7,7,0,0,1-1.19-.94,10.74,10.74,0,0,0-1.21-1s.13-.12.37-.12a1.11,1.11,0,0,1,.47.11,2.61,2.61,0,0,0,1,.24c.51,0,1,.08,2.36,1.2a7.26,7.26,0,0,1,.78.79l.37.41.12-.27a6.73,6.73,0,0,0,.31-.88l0-.09L30,18.51A5.17,5.17,0,0,0,28.1,17a2.64,2.64,0,0,1-.64-.41.7.7,0,0,1-.19-.28h.14l.22,0a3,3,0,0,0,.42,0h.6a2.19,2.19,0,0,1,1.19.26l.35.23L30,15.21a36.4,36.4,0,0,1-.51-4.55,3.69,3.69,0,0,1,.85-2.53c.34,0,1.14.33,1.17.49s.21.46.81,1.2a6.36,6.36,0,0,1,1.25,1.86c0,.12,0,.32,0,.58a15.3,15.3,0,0,1-.36,5.14A3.13,3.13,0,0,1,32,19h-.13l0,.13c-.34,1-.34,1-1,2.71A15.94,15.94,0,0,0,30.11,24a15.58,15.58,0,0,1-.68,2.19,8.72,8.72,0,0,1-1.67,2.32,14.54,14.54,0,0,0-1.58,2A8.05,8.05,0,0,1,24.19,32.85Z"/><path id="R_Brow" data-name="R Brow" d="M21,14.74c.34-.68,0,0,1.37-.34s2.06-1,3.78-1,2.75.68,2.75,1c-.34.34,0,0-2.4.34-2.07.29-3,1.91-4.12,1.36C21.72,15.76,20.69,15.42,21,14.74Z"/><path id="L_Brow" data-name="L Brow" d="M19,14.74c-.34-.68,0,0-1.37-.34s-2.06-1-3.78-1-2.75.68-2.75,1c.34.34,0,0,2.4.34,2.07.29,3,1.91,4.12,1.36C18.28,15.76,19.31,15.42,19,14.74Z"/></g></svg>