<svg xmlns="http://www.w3.org/2000/svg" viewBox="0 0 40 40"><title>dva</title><g id="micromissiles"><path d="M28.93,7.67l-4.76,4.76a6.32,6.32,0,0,0,.79,1,2.89,2.89,0,0,1-2,.27,12.42,12.42,0,0,0,3.39,3.39,3.32,3.32,0,0,1,.27-2,10.85,10.85,0,0,0,1,.79l4.72-4.72,1-1-3.5-3.5Z"/><path d="M32.23,6l-1.88.32,3.41,3.41.36-1.84A4.92,4.92,0,0,0,32.23,6Z"/><path d="M18.75,22.62l-.85,4,3.61-6.14h0l0,0-.06,3.68,2.85-6.67c-.05-1.16-.62-1.77-2-1.91L15.61,18.7l3.8-.35,0,0L13.3,22.06l4.11-.86-.39.48C14.92,23.89,7,33,7.17,33.2S17.08,24.31,18.75,22.62Z"/><path d="M24.73,6.74A3.3,3.3,0,0,0,23.6,5.43l-1.23.12,2,2.36Z"/><path d="M19.19,12.43a2.17,2.17,0,0,1,.27-1.27,7.16,7.16,0,0,0,.63.56l3.28-2.83L24,8.28l-2.1-2.43-.65.59L18,9.29a4.11,4.11,0,0,0,.47.71,1.9,1.9,0,0,1-1.3.08A8,8,0,0,0,19.19,12.43Z"/><path d="M13.27,18.17l2.62-3.8h0l-.21,2.38,2.17-4a1.23,1.23,0,0,0-1.17-1.31l-4.55,1.54,2.47,0,0,0L10.51,15l2.7-.36-.24.27c-1.44,1.23-7.2,6.48-7.08,6.62s7-4.92,8.12-5.9Z"/><path d="M28.39,19.19,25.8,22.06a3.73,3.73,0,0,0,.49.58,1.67,1.67,0,0,1-1.14.21,7.14,7.14,0,0,0,2,1.84,1.87,1.87,0,0,1,.1-1.15,6.29,6.29,0,0,0,.62.42l2.57-2.86.53-.61L28.91,18.6Z"/><path d="M30.27,18.14l-1.07.24,2.06,1.86.15-1.07A2.87,2.87,0,0,0,30.27,18.14Z"/><path d="M24.91,24.07l-3.84,1.86,2.17-.32v0l-3.39,2.29,2.34-.61-.17.25c-1.11,1.22-5.64,6.51-5.52,6.62s5.58-5.09,6.51-6.09l-.37,2.33,1.89-3.64h0l.08,2.12,1.47-3.78A1.09,1.09,0,0,0,24.91,24.07Z"/></g><g id="callmech"><g id="_Group_" data-name="&lt;Group&gt;"><path id="_Compound_Path_" data-name="&lt;Compound Path&gt;" d="M34.63,12.88l-2.53-.78-1.85-.56a.68.68,0,0,1-.33-.18c-.1-.11,0-.21,0-.32a1,1,0,0,1,.11-.47,1.4,1.4,0,0,0-1.2-1.94.56.56,0,0,0-.18,0,1.49,1.49,0,0,0-.87.52l-.14-.08a16.05,16.05,0,0,0-2.05-1.2A15.91,15.91,0,0,0,24,7.16c-.28-.08-.28-.08-.36.2,0,0,0,.07,0,.11-.27,1-1.8,3.92-2.06,4.93,0,.06.29.12.35.18a.76.76,0,0,0,.33,0h1a.61.61,0,0,1,.63.39.62.62,0,0,1-.2.75l-.08.08-1.73,1.41c-.87.71-1.72,1.44-2.62,2.12-1.28,1-2.13.34-2.49-.2-.64-1-1.33-1.87-2-2.81-.16-.23-.33-.45-.48-.68a.67.67,0,0,1,.31-1,.93.93,0,0,1,.41-.07h1.33c.39,0,.39,0,.49-.37.33-1.23,1.58-4.36,1.9-5.59.06-.22,0-.23-.19-.25a15.16,15.16,0,0,0-2.3.35h-.07a1,1,0,0,1-.33.26c-.38.17-.74.39-1.14.52a3.25,3.25,0,0,0-1.1.64.51.51,0,0,1-.34.13,2.54,2.54,0,0,0-1.44.5,6.05,6.05,0,0,0-1,1,2.41,2.41,0,0,1-.29.29,4.19,4.19,0,0,0-1,1.09c-.06.1-1.74,1.16-2.08,1.36.13,0,.17.11.27.09.51-.15,2-.67,2.23-.48a1.16,1.16,0,0,0,.29.18,2.5,2.5,0,0,1,.83.69,4.3,4.3,0,0,0,.54.63,6.3,6.3,0,0,0,.94.71.4.4,0,0,1,.23.28.58.58,0,0,0,.33.39l.13.08a.07.07,0,0,1,0,.07s0,0-.06,0a1,1,0,0,1-.24-.1.44.44,0,0,0-.5,0c-.15.08-.16.25-.21.39s-.1.31.06.44a.2.2,0,0,1,0,.3c-.05.07-.05.17-.16.22a1.64,1.64,0,0,0-.66-.32,3,3,0,0,0-1.16-.09,1.05,1.05,0,0,0-.53.19,6.1,6.1,0,0,0-.52.44,1.13,1.13,0,0,1-.52.29c-.63.17-1.27.33-1.91.48s-.75.53-1,1a.23.23,0,0,0,0,.18c0,.09.16.16.08.27s-.19,0-.28.06-.19,0-.28.11a.39.39,0,0,0,0,.62.44.44,0,0,0,.35.11c.21,0,.42-.09.62.05s.14,0,.21-.05a.6.6,0,0,1,.6.09,1.17,1.17,0,0,0,1.44.06,1.37,1.37,0,0,1,.7-.24,6.69,6.69,0,0,1,1.11.2l.41.06c.08,0,.1.08,0,.14a1.05,1.05,0,0,1-.15.12,2.52,2.52,0,0,0-.79,1.09,1.53,1.53,0,0,1-.18.33,1.08,1.08,0,0,0-.2.72,1.93,1.93,0,0,1,0,.27.25.25,0,0,1-.17.23,1,1,0,0,1-1.25-.16l-.05-.05a.23.23,0,0,0-.4.13.53.53,0,0,0,0,.4c.27.41.47.86.78,1.25a1.23,1.23,0,0,1,.28.73,3.83,3.83,0,0,1,0,1.06c0,.07,0,.14,0,.17s.38.31.66.22c.07,0,.14,0,.15.06.07.32.34.35.57.41s.69.13,1,.21a.59.59,0,0,0,.71-.29,1.09,1.09,0,0,1,.7-.55,3.82,3.82,0,0,0,1.09-.26.1.1,0,0,1,.14.11,8.2,8.2,0,0,1-.51,1.93.41.41,0,0,1-.09.12c-.33.34-.69.67-1,1a2.67,2.67,0,0,0-.66.91c0,.09-.11.12-.2.15a5.52,5.52,0,0,0-1.37,1c-.08.07-.11.15,0,.19l0,0a.12.12,0,0,1,.06.13.12.12,0,0,1-.11.09c-.18,0-.38,0-.56.08a11.3,11.3,0,0,0-1.21.82c.36,0,.65,0,.94,0s.41-.12.6.06.15,0,.22,0h.76A3.06,3.06,0,0,0,12,32.47c-.16-.2-.16-.35,0-.48a.28.28,0,0,0,.13-.22c0-.17.14-.19.26-.23s.2.08.27.15a.35.35,0,0,1,.1.28.13.13,0,0,0,.14.14,4.52,4.52,0,0,0,1.46-.1c0-.13-.16-.16-.25-.23a1.71,1.71,0,0,1-.28-.2.46.46,0,0,1,0-.74.4.4,0,0,1,.28-.09h.42a.42.42,0,0,0,.4-.51.74.74,0,0,1,.17-.73l.41-.59a.84.84,0,0,1,.16-.21,1.93,1.93,0,0,0,.42-.48,8.07,8.07,0,0,0,.95-1.44,2.08,2.08,0,0,1,.89-.9,1,1,0,0,0,.48-.7,1.67,1.67,0,0,0,0-.75.8.8,0,0,0-.66-.65c-.2,0-.39-.1-.59-.13a.28.28,0,0,1-.26-.18c-.06-.14-.17-.3-.3-.32-.29,0-.38-.29-.6-.45A2.65,2.65,0,0,0,17,22a.67.67,0,0,1,.5-.29.91.91,0,0,0,.66-.4s.07-.11.11-.15a.08.08,0,0,1,.15,0,.6.6,0,0,1,0,.19.33.33,0,0,0,.3.34,1.8,1.8,0,0,0,.3.06,1.89,1.89,0,0,0,1.36-.48,1.42,1.42,0,0,1,.23-.19c.22-.12.45-.22.69-.32a4.85,4.85,0,0,0,.6-.43c.12.08.09.2.13.29a2.15,2.15,0,0,0,.18.5,2.76,2.76,0,0,1,.33.84.42.42,0,0,1,0,.39.45.45,0,0,0-.06.39,9.92,9.92,0,0,0,.6,1.87.54.54,0,0,0,.3.33.47.47,0,0,1,.29.33.54.54,0,0,0,.36.41.29.29,0,0,1,.18.19,1,1,0,0,0,.68.61c.25.1.49.2.55.51,0,0,0,0,0,.06.22.34.58.55.81.89a.29.29,0,0,0,.27.11,2.69,2.69,0,0,0,.64,0c.24-.06.32,0,.42.2s.18.42.26.63a14.82,14.82,0,0,1,.41,1.49c0,.16.09.27-.06.38a.16.16,0,0,0-.08.16c.07.36,0,.78.46.94.1,0,.11.13,0,.22l-.18.19s-.09.09-.09.16c0,.23,0,.45.07.68a.29.29,0,0,0,.19.25,3.16,3.16,0,0,0,.84.25l0-.71a3.36,3.36,0,0,0,.63-.07c.08,0,.14,0,.18.1s.21.34.33.51.25.19.39,0c.27-.38.3-.25.12-.66,0-.07-.05-.14-.08-.21a.72.72,0,0,0-.36-.42l-.4-.22c-.19-.11-.2-.12-.08-.31a.41.41,0,0,0,.08-.32,1.32,1.32,0,0,0-.19-.64.26.26,0,0,1,0-.25,2.93,2.93,0,0,0,0-1,2.9,2.9,0,0,1,.11-1.49,1,1,0,0,0,0-.7c-.14-.41-.26-.82-.39-1.23a.7.7,0,0,1,0-.48,1,1,0,0,0,.08-.48,1.67,1.67,0,0,0-.9-1.43.92.92,0,0,1-.54-.39.78.78,0,0,0-.57-.44c-.12,0-.22-.07-.25-.2-.08-.32-.15-.64-.21-1a.54.54,0,0,1,.06-.33,3.23,3.23,0,0,0,.28-.89.62.62,0,0,0-.08-.47,1.1,1.1,0,0,1-.2-.77.44.44,0,0,0-.12-.35,4.43,4.43,0,0,0-.64-.58,1.61,1.61,0,0,1-.5-.45,3.47,3.47,0,0,0-1.2-1,1,1,0,0,0-.57-.19c-.32,0-.49-.18-.74-.32.34-.36.56-.79,1-1,.07,0,.11-.1.17-.15a4,4,0,0,0,.56-.66c.11-.15.24-.29.14-.51s.09-.2.19-.12c.3.26.73.26,1,.5a1.58,1.58,0,0,1,.37.31,5.91,5.91,0,0,0,.76.79.44.44,0,0,0,.2.11,1,1,0,0,0,.92-.19,1.6,1.6,0,0,0,.63-1.24c0-.42-.13-.85-.6-.88a2.13,2.13,0,0,0-.22,0,.31.31,0,0,1-.34-.24.78.78,0,0,0-.36-.42s-.07-.07,0-.17a7.09,7.09,0,0,0,.94.16c.64.08,1.27.19,1.91.27L33,13a3.09,3.09,0,0,0,.94.09,3.35,3.35,0,0,0,.86-.18Z"/></g></g><g id="selfdestruct"><g id="_Group_2" data-name="&lt;Group&gt;"><path id="_Compound_Path_2" data-name="&lt;Compound Path&gt;" d="M31.07,9.7c0,.61-.08,1.34-.12,2.08a9.62,9.62,0,0,1-.76,2.82,26.81,26.81,0,0,1-1.12,2.52,22.19,22.19,0,0,1-1.36,2.36c-.4.6-.7,1.26-1.08,1.87-.13.21-.13.22,0,.39a9.59,9.59,0,0,1,1.55,2,11.35,11.35,0,0,1,1,1.92,6.26,6.26,0,0,1,.41,2.22c0,.26,0,.52,0,.77a3.14,3.14,0,0,1-.28,1.46,8.17,8.17,0,0,1-.6,1.19,3.29,3.29,0,0,1-.48.54A7.3,7.3,0,0,1,26.64,33a7.87,7.87,0,0,1-2.15.79,15.41,15.41,0,0,1-1.57.36c-.51.06-1,.14-1.54.17s-1,.05-1.52,0c-.73,0-1.45-.07-2.18-.14a16.79,16.79,0,0,1-2.86-.62,7,7,0,0,1-2.39-1.2,9,9,0,0,1-.71-.59,4.36,4.36,0,0,1-.94-1.42,6.81,6.81,0,0,1-.37-1,1.28,1.28,0,0,1,0-.35c0-.46,0-.91,0-1.37a5.52,5.52,0,0,1,.34-1.85,7.4,7.4,0,0,1,.53-1.23,15.58,15.58,0,0,1,1.44-2.21c.23-.27.48-.52.72-.78,0,0,.07-.09,0-.15-.34-.52-.6-1.09-.93-1.62s-.61-1-.9-1.46A26.27,26.27,0,0,1,10.4,16a26.44,26.44,0,0,1-1.09-2.79,5.56,5.56,0,0,1-.27-1.38c0-.5-.11-1-.12-1.49s0-1.16,0-1.74A7.2,7.2,0,0,1,9.26,6.5c.08-.24.19-.46.29-.69s.12-.13.23-.08a5.66,5.66,0,0,1,.85.51,8.27,8.27,0,0,1,1,.77,9.71,9.71,0,0,1,1,1.21,20.14,20.14,0,0,1,1.69,2.66,22.91,22.91,0,0,1,1.51,3.45,22.19,22.19,0,0,1,.7,2.36c.11.48.16,1,.24,1.46A17,17,0,0,1,17.07,20c0,.09,0,.12.13.1L18,20a9.31,9.31,0,0,1,1.2-.13c.4,0,.8,0,1.19,0A10.63,10.63,0,0,1,22,20c.26,0,.52.09.77.15.09,0,.12,0,.13-.1,0-.92.23-1.82.37-2.73a19.06,19.06,0,0,1,1-3.43,19.6,19.6,0,0,1,1-2.4,20.49,20.49,0,0,1,2.12-3.41,9.12,9.12,0,0,1,.88-1,9.36,9.36,0,0,1,1.32-1,4,4,0,0,1,.6-.34c.14-.06.17-.05.24.08A5.7,5.7,0,0,1,31,7.72,18.11,18.11,0,0,1,31.07,9.7ZM24.42,28.87a1.49,1.49,0,0,0,1.07-.46A1.51,1.51,0,0,0,25,25.94s-.1,0-.1-.07,0-.08.08-.1l.57-.35a.83.83,0,0,0,.41-.88c0-.27-.09-.29-.32-.16l-2.22,1.21a10.07,10.07,0,0,0-1.2.65.45.45,0,0,0-.21.31,2.84,2.84,0,0,0,0,.33,1.12,1.12,0,0,0,0,.32c0,.11.09.14.19.09a2.47,2.47,0,0,0,.58-.36c.05-.05.13-.12.2-.08s0,.13,0,.2A1.52,1.52,0,0,0,24.42,28.87ZM14.11,27.34c0,.09,0,.17,0,.24a1.5,1.5,0,0,0,2,1.18,1.52,1.52,0,0,0,1-1.52,1.4,1.4,0,0,0-.11-.39s0-.06,0-.08,0,0,.07,0a.85.85,0,0,1,.22.12,2.33,2.33,0,0,0,.58.36c.1,0,.16,0,.19-.09a1.07,1.07,0,0,0,0-.27.79.79,0,0,0-.42-.78c-.27-.15-.54-.31-.82-.45-.54-.27-1.06-.57-1.59-.85l-.95-.52c-.05,0-.11-.06-.14,0a.92.92,0,0,0-.07.48,1,1,0,0,0,.57.7l.49.27s.07,0,.06.09,0,.06-.08.07a1.89,1.89,0,0,0-.34.14A1.51,1.51,0,0,0,14.11,27.34ZM20,28.81a5.28,5.28,0,0,0-1,0c-.21,0-.26.15-.14.33a3.09,3.09,0,0,0,.57.59c.25.21.28.21,0,.39-.5.3-.45.29-1,0-.19-.11-.37-.23-.56-.33a.22.22,0,0,0-.33.08c-.09.13-.1.38,0,.45a6.31,6.31,0,0,0,1.11.69.58.58,0,0,0,.6,0c.17-.12.34-.25.51-.38a.33.33,0,0,1,.41,0,5.17,5.17,0,0,0,.61.43.59.59,0,0,0,.61,0c.32-.2.64-.4.95-.61a.36.36,0,0,0,.07-.59.2.2,0,0,0-.28,0l-.27.16a6.48,6.48,0,0,1-.65.38.42.42,0,0,1-.39,0,3,3,0,0,1-.42-.3.07.07,0,0,1,0-.13l.35-.33a2.37,2.37,0,0,0,.38-.4c.12-.18.07-.29-.15-.32A5.87,5.87,0,0,0,20,28.81Z"/><path id="_Path_" data-name="&lt;Path&gt;" d="M25.25,27.44a.8.8,0,1,1-1.61,0,.8.8,0,1,1,1.61,0Z"/><path id="_Path_2" data-name="&lt;Path&gt;" d="M14.74,27.43a.8.8,0,0,1,.87-.79.77.77,0,0,1,.79.81.78.78,0,0,1-.82.8A.84.84,0,0,1,14.74,27.43Z"/></g></g><g id="defensematrix"><g id="_Group_3" data-name="&lt;Group&gt;"><g id="_Group_4" data-name="&lt;Group&gt;"><g id="_Group_5" data-name="&lt;Group&gt;"><path d="M21.86,31.45H10.14L5,15.85l10.14-7.3H28.78L35.16,16Zm-11.06-.9H21.45L34,16l-5.6-6.57H15.48L6.11,16.2Z"/></g><g id="_Group_6" data-name="&lt;Group&gt;"><path d="M21.44,27.56H12.71L8.93,16l7.53-5.42h10l4.77,5.59Zm-8.07-.9H21l9.06-10.51-4-4.69H16.75L10,16.32Z"/></g><g id="_Group_7" data-name="&lt;Group&gt;"><path d="M21,23.67H15.28l-2.47-7.58,4.92-3.54h6.5l3.17,3.71Zm-5.07-.9H20.6l5.61-6.5-2.39-2.81H18l-4.14,3Z"/></g></g></g><polygon points="21.63 17.53 20.01 17.53 20.44 15.91 19.35 15.91 18.92 17.53 17.3 17.53 17 18.62 18.63 18.62 18.19 20.24 19.28 20.24 19.72 18.62 21.34 18.62 21.63 17.53"/></g><g id="boosters"><path id="_Compound_Path_3" data-name="&lt;Compound Path&gt;" d="M12.34,31.78c-.62.16-1.23.32-1.83.51A27.61,27.61,0,0,1,15.6,28.2a26,26,0,0,0-1.74,2.47A2.52,2.52,0,0,1,12.34,31.78ZM22.48,29c-.22.2-.45.39-.69.56a24.64,24.64,0,0,0,4.75-.87,1.34,1.34,0,0,0,.33-.26c.2-.35.42-.7.65-1,.48-.76,1-1.52,1.49-2.24.11-.19.22-.38.32-.57C29,24.85,22.54,29,22.48,29ZM34.54,12.43A17.33,17.33,0,0,1,31.61,19a.33.33,0,0,1,.06.38c-1.81,3.61-6.54,6.14-10.35,8.18-.76.41-1.48.79-2.13,1.16a.33.33,0,0,1-.45-.44l2.41-4.57c-2.77.44-6.74,3-9.69,4.9-.86.55-1.6,1-2.23,1.4a.33.33,0,0,1-.49-.32v-.06a63.67,63.67,0,0,1,3.51-7.87c-.71.29-1.77.68-2.05.84a.19.19,0,0,1-.27-.26l2.79-3.11c-1.64.26-4,1.77-5.74,2.9-.51.33-.95.61-1.32.83a.19.19,0,0,1-.29-.19v0c.53-1.58,2.89-6.94,4.53-8.15a3.53,3.53,0,0,0-.47.06.19.19,0,0,1-.2-.09c0-.07,0,0,0-.11a6.25,6.25,0,0,1,.64-.81l.07-.07c2.25-2.65,6.68-4.65,9.44-3.49l.09,0,.07,0h0a1.89,1.89,0,0,1,.73.62c3.86-2.57,8.71-3.95,12.09-2.52a.33.33,0,0,1,.14.06l.11.05h0l0,0h0C34.19,9.14,34.8,10.52,34.54,12.43ZM14.48,16.24c.44-.13.41.7.37.81a8.22,8.22,0,0,0,2.81-2.76c.72-2.66-2.32-2.53-2.33-2.55a13.12,13.12,0,0,0-3.45,2.81s1,.19,1,.25a23.73,23.73,0,0,1-2.12,2.68,1.62,1.62,0,0,0,.26-.06A28.72,28.72,0,0,1,14.48,16.24ZM25.5,11a14,14,0,0,0-8,6.42c0,.06,3.28-1.39,3.23-.49,0,.59-1.91,2.36-3,3.74a2.73,2.73,0,0,0,.44-.1,48.48,48.48,0,0,1,5.85-2c.74-.22.7,2.15.63,2.34,2.63-.61,4.46-4.63,4.73-5.63C30.65,10.85,25.52,11.08,25.5,11Z"/></g><g id="dva"><path d="M20,8.77c-3.34,0-10.52.83-7.86,11.7a9.06,9.06,0,0,0,3.12-1,3.83,3.83,0,0,1-1.31,1,10.67,10.67,0,0,0,7.93-3.69,9.41,9.41,0,0,1-1,2.37,11.33,11.33,0,0,0,4.24-5.52c0,1.19,1.35,2.72,2.07,4.09a4.54,4.54,0,0,1,.67,2.75C30.51,9.59,23.33,8.77,20,8.77Z"/><path d="M34,12.37c-.83,0-1.69,2.75-1.69,2.75s-.46-.78-.74-1.18-.87-.23-1.46-.2c0-5.31-6.92-7.28-10.09-7.28s-10.07,2-10.09,7.28c-.59,0-1.21-.17-1.46.2s-.74,1.18-.74,1.18S6.86,12.37,6,12.37a9.37,9.37,0,0,0,0,1.17,39.29,39.29,0,0,0,1,6c.51,1.25,2,4.62,2.36,5.13s.79.5,1.34.3c0,0-.7-5-.75-7.93h.21c0-4.38,2.49-9.33,9.87-9.33s9.87,5,9.87,9.33h.21c-.05,3-.75,7.93-.75,7.93.55.2,1,.21,1.34-.3S32.52,20.75,33,19.5a39.29,39.29,0,0,0,1-6A9.37,9.37,0,0,0,34,12.37Z"/><path d="M12.77,25.21A22.21,22.21,0,0,1,16,24.78c0,.15-.1.23-3,1.67,0,0-.1,0-.12-.16S12.67,25.23,12.77,25.21Z"/><path d="M14,29.71a22.21,22.21,0,0,1,2.23-2.31c.06.15.06.24-1.31,3.15,0,0-.07.08-.19-.05S13.91,29.79,14,29.71Z"/><path d="M27.23,25.21A22.21,22.21,0,0,0,24,24.78c0,.15.1.23,3,1.67,0,0,.1,0,.12-.16S27.33,25.23,27.23,25.21Z"/><path d="M26,29.71a22.21,22.21,0,0,0-2.23-2.31c-.06.15-.06.24,1.31,3.15,0,0,.07.08.19-.05S26.09,29.79,26,29.71Z"/></g></svg>