<svg version="1.1" baseProfile="full" width="200px" height="200px" xmlns="http://www.w3.org/2000/svg" viewBox="5 3 30 34" preserveAspectRatio="xMidYMid meet">
	<g fill="white">
		<circle cx="20" cy="22.84" r="2.97" fill="#f6f6f6"></circle>
		<path d="M20,27.11a4.27,4.27,0,1,0-4.27-4.27h0A4.26,4.26,0,0,0,20,27.11Zm0-8a3.69,3.69,0,1,1-3.69,3.69h0A3.69,3.69,0,0,1,20,19.13Z" fill="#f6f6f6"></path>
		<path d="M28.31,25.39l-.43.34C26.78,32.32,20,36,20,36s-6.8-3.64-7.87-10.23l-.41-.34-1.48-1.18-.07.07.08.69.07.59,1.28,1.58s1,5.44,8.4,10.36c7.38-4.92,8.41-10.36,8.41-10.36l1.27-1.58.07-.59.08-.69-.06-.07Z" fill="#f6f6f6"></path>
		<path d="M31.24,15.93l-1.1,1.66v-.35L29.84,15l.3-1.32-.23-1.21-.41-1.11S27.07,2.5,20,2.5s-9.5,8.89-9.5,8.89l-.4,1.11-.2,1.19L10.2,15l-.3,2.21v.35L8.8,15.92l-1.4-.13,2.52,6.84a7.75,7.75,0,0,0,1.58,1.8L12,22.68l-.28-1.8a23.72,23.72,0,0,1,.57-4.59l-.42-1.44S13.75,6.76,20,6.76s8.1,8,8.1,8l-.45,1.45a25,25,0,0,1,.59,4.64L28,22.7l.54,1.8a8.89,8.89,0,0,0,1.61-1.85l2.5-6.87Z" fill="#f6f6f6"></path>
	</g>
</svg>