<svg xmlns="http://www.w3.org/2000/svg" viewBox="0 0 40 40"><title>genji</title><g id="cybernetics"><path id="_Compound_Path_" data-name="&lt;Compound Path&gt;" d="M31.14,12l-9.9-5.72a2.48,2.48,0,0,0-2.48,0L8.86,12a2.48,2.48,0,0,0-1.24,2.14V25.58a2.48,2.48,0,0,0,1.24,2.14L11.11,29v-6.1L9.6,22c-.49-.28-.74-1-.39-1.17L13.53,19c.22-.09.57.11.78.45l4.32,6.81c.35.55.1,1-.39.72l-1.51-.87v6.1l2,1.17a2.48,2.48,0,0,0,2.48,0l2.27-1.31v-6l-1.75,1c-.48.28-.72-.16-.38-.7l4.19-6.62c.21-.33.55-.53.76-.44l4.19,1.77c.34.14.1.86-.38,1.14l-1.49.86v6l2.49-1.44a2.48,2.48,0,0,0,1.24-2.14V14.14A2.48,2.48,0,0,0,31.14,12Zm-1.57,2.13L21,18.38a2.36,2.36,0,0,1-2.1,0L10.4,14.12a.72.72,0,0,1,0-1.27l8.43-4.9a2.36,2.36,0,0,1,2.37,0l8.46,4.91A.72.72,0,0,1,29.57,14.13Z"/></g><g id="dragonstrike"><g id="_Group_" data-name="&lt;Group&gt;"><g id="_Group_2" data-name="&lt;Group&gt;"><path d="M22.4,24.7l-2,0-.08,0h-.65l-.08,0H17.78a.67.67,0,1,0,0,1.34h.83l-.08,6.55h0a1.11,1.11,0,0,0,1.09,1.09h.65a1.11,1.11,0,0,0,1.11-1.07h0v0h0v0L21.46,26h.93a.67.67,0,0,0,0-1.34Zm-1.87,6-.43.32a.25.25,0,0,1-.3,0l-.42-.33a.25.25,0,0,1,0-.39l.43-.32a.25.25,0,0,1,.3,0l.42.33A.25.25,0,0,1,20.54,30.71Zm0-1.77-.43.32a.25.25,0,0,1-.3,0l-.42-.33a.25.25,0,0,1,0-.39l.43-.32a.25.25,0,0,1,.3,0l.42.33A.25.25,0,0,1,20.55,28.95Zm0-1.71-.43.32a.25.25,0,0,1-.3,0l-.42-.33a.25.25,0,0,1,0-.39l.43-.32a.25.25,0,0,1,.3,0l.42.33A.25.25,0,0,1,20.56,27.24Z"/><path id="_Path_" data-name="&lt;Path&gt;" d="M18.52,23.85V10.32a2.33,2.33,0,0,1,.71-1.67l2.45-2.38-.22,17.59L20,22.92Z"/></g><g id="_Group_3" data-name="&lt;Group&gt;"><path id="_Path_2" data-name="&lt;Path&gt;" d="M31.14,18.21c-.09-.41-.19-.82-.31-1.22a.14.14,0,0,1,.05-.16.17.17,0,0,1,.26,0,4.84,4.84,0,0,1,.31,7.38.15.15,0,0,1-.15,0l0,.07a.15.15,0,0,1-.13.11A9.67,9.67,0,0,0,31.14,18.21Z"/><path id="_Compound_Path_2" data-name="&lt;Compound Path&gt;" d="M18.31,9.41a8.92,8.92,0,0,0-1.76.55,14,14,0,0,0-2.25,1.13c-.21.17-.42.35-.61.54L13.3,12a16.82,16.82,0,0,0-2.14,2.65l-.13.2-.17.21a9.24,9.24,0,0,0-.59.84c-.1.15-.18.46-.32.56-.8.18-.87-.8-.94-.63a13.45,13.45,0,0,0-.88,5.34l0,.14c-.06.25-.12.27-.3.1a1.14,1.14,0,0,0-.33-.23c.11.63-.07,1.28.32,1.84a1.41,1.41,0,0,1-.55-.37,3.14,3.14,0,0,0,.89,1.56,1.09,1.09,0,0,1-.5-.13s-.09,0-.13,0a.11.11,0,0,0,0,.12l.06.13c.11.2.53.85.64,1.05a2.94,2.94,0,0,0,.41.58l.48.49a1.16,1.16,0,0,1-.86-.75l-.08-.12c0-.06-.11-.08-.16,0s-.15,0-.2,0a3.2,3.2,0,0,1-.45-1c0-.11-.07-.22-.2-.2s-.15.15-.15.25A2.26,2.26,0,0,0,7,25a2.33,2.33,0,0,0,.49,1,2.53,2.53,0,0,0,.76.51,3.2,3.2,0,0,1,1.4,1.26,3.87,3.87,0,0,0,.46.65,2.2,2.2,0,0,0,.81.71c.11,0,.24.09.34,0s.2,0,.23.07a.47.47,0,0,0,.34.34c.33.08.4.34.45.62s0,.22-.18.14a1.57,1.57,0,0,0-.72-.15,1.33,1.33,0,0,1,.53.68c.16.37.53.47.84.65a.39.39,0,0,0,.19,0,.85.85,0,0,0,.72-.44,1.33,1.33,0,0,1,.35-.38.67.67,0,0,0,.24-.59c-.1.12-.18.22-.31.2s.16-.13.09-.22-.14,0-.21,0a.45.45,0,0,1-.54-.23,6.26,6.26,0,0,0-.71-1.26.66.66,0,0,1,0-.76.6.6,0,0,1,.65-.24A1.45,1.45,0,0,1,14,28a1.62,1.62,0,0,0,.93.39l.67.1a.67.67,0,0,1,.31.13c.11.08,0,.2,0,.32a.48.48,0,0,0,.2-.18s.06-.1.11-.07,0,.08,0,.13-.06.06,0,.11a.38.38,0,0,0,.34-.45.75.75,0,0,1,.08-.4,2.92,2.92,0,0,1,.37-.58c.22-.28.15-.48-.2-.6,0,.06,0,.13,0,.19s0,.14-.06.17-.09-.07-.13-.1L16.54,27c-.21-.18-.21-.18-.34.06l-.07.13s0,.09-.08.08-.08-.06-.09-.1,0-.11-.05-.16a1.75,1.75,0,0,0-.73-.85,1.1,1.1,0,0,1,0,.39q0,.48-.48.27a1.13,1.13,0,0,1-.69-.94,4,4,0,0,0-.85-1.92,3.79,3.79,0,0,1-.49-1,1,1,0,0,1,0-.66,1.87,1.87,0,0,1,.4-.66,2,2,0,0,0-1.31.81s-.06.13-.13.11-.07-.1-.09-.15a3,3,0,0,1-.17-1.21l0,0c0-.19.09-.38.14-.57a5.89,5.89,0,0,1,.54-.91,4.49,4.49,0,0,1,2-2.87l-.46.06a8,8,0,0,1,4.16-2.28c.1-1.29,0-2.54,0-3.83-.27.09-.22.13-.49.23a12.75,12.75,0,0,0-1.57.62l-.56.23a.15.15,0,0,0-.08.08l-.28.14a13.11,13.11,0,0,1,1.93-1.58l.44-.25a.16.16,0,0,0,.07-.08c.32-.2.65-.38,1-.55a.16.16,0,0,0,.09-.15Zm-6.22,17.4a.83.83,0,0,0,0-.4s0-.08,0-.11.08,0,.11,0a2,2,0,0,1,.55.51c0-.14,0-.23,0-.35a.78.78,0,0,1,.25.24l.37.46c0,.06.15.11.09.19s-.14,0-.21,0l-.25-.1a.37.37,0,0,0-.51.32c0,.17-.06.13-.16.05-.35-.28-.49-.71-.8-1.07C11.8,26.54,11.9,26.73,12.09,26.81Zm-.58.63c.08-.09.21,0,.29.08a.8.8,0,0,1,0,1.24c0-.07,0-.12,0-.17a.66.66,0,0,0-.19-.93C11.6,27.6,11.43,27.54,11.51,27.44Zm0,.46a.33.33,0,0,1,.26.52c0,.05-.05.14-.13.14s-.06-.1-.08-.15L11.45,28C11.41,27.92,11.45,27.88,11.55,27.89Z"/><path id="_Path_3" data-name="&lt;Path&gt;" d="M24.78,12.21a7.93,7.93,0,0,1,3.11.25,4.23,4.23,0,0,1,.46.14,5.16,5.16,0,0,1,1.15.43l0,0a4.22,4.22,0,0,0-.7-.5c-1.95-1.36-3.93-2.61-6.37-2.59l0,0c-.06.79-.2,3.87-.19,4.75h0a8.28,8.28,0,0,1,5.64,8.17c0,3-4.25,8.14-4.67,8.57-.11.11-.25.19-.36.3s-.14.1-.08.18a8.2,8.2,0,0,0,3.79-2.82c.34-.5.64-1,.95-1.55l.48-.79s.41,0-.08,1.68c0,.06-.38,1,.44.13C29.65,27,34.82,17.58,24.78,12.21Z"/></g></g></g><g id="swiftstrike"><g id="_Group_4" data-name="&lt;Group&gt;"><path id="_Path_4" data-name="&lt;Path&gt;" d="M19,11.29a12.22,12.22,0,0,1,2.76-1.86A25.6,25.6,0,0,1,26,7.88c1-.26,2-.63,3.07-.81-.63,0-1.25,0-1.87.06a33.64,33.64,0,0,0-4.67.53,26.76,26.76,0,0,0-5.88,1.64,17.86,17.86,0,0,0-2.74,1.55l-.25.19c0-.1,0-.13.08-.17a10.92,10.92,0,0,0,.89-1.22c0-.05.1-.11,0-.16s-.13,0-.18,0a14.79,14.79,0,0,0-1.82,1.21,14.69,14.69,0,0,0-3.59,3.68A11.36,11.36,0,0,0,7.47,18.5a13.68,13.68,0,0,0-.18,3,7.48,7.48,0,0,0,.24,1.71A9.62,9.62,0,0,0,8.74,26.1c.32.48.6,1,.91,1.47a6.53,6.53,0,0,0,.65.86s.07.12.19.13A6.54,6.54,0,0,1,9.66,26l.07,0a11,11,0,0,0,1.9,2.25,13,13,0,0,0,3.55,2.53,1.89,1.89,0,0,0,.65.25,2.08,2.08,0,0,1,.66.16,26.18,26.18,0,0,0,4.25,1,13.09,13.09,0,0,0,2.51.26c.74,0,1.47,0,2.21,0a.31.31,0,0,0,.24,0c-1.3-.39-2.6-.71-3.86-1.16a13.75,13.75,0,0,1-3.53-1.77c1.36,1.06,8.46.38,9.51-.53-.24-.1-7.79-.86-9.51-4.61a6,6,0,0,1,2.3-1.1c.24-.06-4.65-.89-4.87-.89s-.32,0-.32.27q0,1.06,0,2.11c0,.07,0,.15,0,.28l-.87-.8-3.49-3.26-.42-.4a.19.19,0,0,1,0-.33l1.45-1.36,3-2.83.26-.23c.08.08.05.16.05.23,0,.69,0,1.38,0,2.07,0,.33,0,.33.39.33s2.56-.11,5.15-.25a5.63,5.63,0,0,1-1.32-1.2c.33-1.06,8-5.67,8.58-5.81,1.4-.32-7.79,0-9,.57-.13.07-.38.07-.43,0S18.88,11.39,19,11.29Z"/><path d="M31.24,18.83h-.07l-8-.12-.21,0V17.42a.93.93,0,1,0-1.86,0l-.05,6.39a.93.93,0,0,0,1.86,0V22.64l.21,0,8,.12h0a1.53,1.53,0,0,0,1.5-1.51v-.9A1.53,1.53,0,0,0,31.24,18.83ZM24.78,20.9l-.45.59a.34.34,0,0,1-.54,0l-.44-.59a.34.34,0,0,1,0-.41l.45-.59a.34.34,0,0,1,.54,0l.44.59A.34.34,0,0,1,24.78,20.9Zm2.28,0-.45.59a.34.34,0,0,1-.54,0l-.44-.59a.34.34,0,0,1,0-.41l.45-.59a.34.34,0,0,1,.54,0l.44.59A.34.34,0,0,1,27.06,20.92Zm2.28,0-.45.59a.34.34,0,0,1-.54,0l-.44-.59a.34.34,0,0,1,0-.41l.45-.59a.34.34,0,0,1,.54,0l.44.59A.34.34,0,0,1,29.33,20.93Z"/></g></g><g id="deflect"><g id="_Group_5" data-name="&lt;Group&gt;"><path d="M31.46,23,29.1,23l-.2,0h-.79l-.2,0-2.23,0a.72.72,0,0,0-.73.72v.18a.72.72,0,0,0,.72.73h1.09l-.1,7.92h0A1.34,1.34,0,0,0,28,33.82h.79a1.34,1.34,0,0,0,1.34-1.29h0v0h0v0h0l.1-7.85h1.22a.72.72,0,0,0,.73-.72v-.18A.72.72,0,0,0,31.46,23Zm-2.35,7.27-.52.39a.3.3,0,0,1-.36,0l-.51-.4a.3.3,0,0,1,0-.47l.52-.39a.3.3,0,0,1,.36,0l.51.4A.3.3,0,0,1,29.11,30.27Zm0-2.13-.52.39a.3.3,0,0,1-.36,0l-.51-.4a.3.3,0,0,1,0-.47l.52-.39a.3.3,0,0,1,.36,0l.51.4A.3.3,0,0,1,29.13,28.14Zm0-2.07-.52.39a.3.3,0,0,1-.36,0l-.51-.4a.3.3,0,0,1,0-.47l.52-.39a.3.3,0,0,1,.36,0l.51.4A.3.3,0,0,1,29.15,26.07Z"/><polygon points="24.96 21.1 21.32 12.45 23.25 12.25 19.2 6.17 18.87 12.71 20.5 12.54 21.67 19.52 20.18 20.04 15.44 14.7 17.24 13.63 9.69 7.82 12.84 16.22 14.5 15.24 18.12 20.77 7.61 24.48 8.11 24.84 19.18 22.39 20.41 24.25 10.77 32.37 11.15 32.61 24.37 24.75 21.75 21.81 24.96 21.1"/><polygon id="_Path_5" data-name="&lt;Path&gt;" points="26.67 21.98 26.67 9.88 30.5 6.17 30.23 21.98 28.42 20.85 26.67 21.98"/></g></g><g id="genji"><path d="M30.1,8.19c-.67.73-2.91,4.38-2.91,4.19a4.82,4.82,0,0,0-.47-2.12A11.51,11.51,0,0,0,20,7.36h0a11.51,11.51,0,0,0-6.7,2.9,4.82,4.82,0,0,0-.47,2.12c0,.18-2.24-3.47-2.91-4.19s1.48,7.1,1.37,7.63c-.53,2.58-.68,4.43-.51,4.15a16.13,16.13,0,0,1,1.6-2.47A46.32,46.32,0,0,0,20,24.05v0h0v0a46.32,46.32,0,0,0,7.62-6.55A16.13,16.13,0,0,1,29.24,20c.17.28,0-1.57-.51-4.15C28.62,15.28,30.77,7.46,30.1,8.19Z"/><path d="M20,25.88h0v0l4.36-3a10.05,10.05,0,0,0,.81-1.38c0-.09,1.81-1.9,1.85-2A2,2,0,0,0,27,19a41.36,41.36,0,0,1-7,5.81,43.32,43.32,0,0,1-7-5.7,1.25,1.25,0,0,0,0,.42c0,.08,1.81,1.89,1.85,2a10.06,10.06,0,0,0,.81,1.38l4.36,3v0Z"/><path d="M28,19.32s-2.31,2.25-2.49,2.44-.82,1.42-1,1.63-4.27,2.85-4.5,3c-.22-.14-4.34-2.79-4.5-3s-.81-1.44-1-1.63S12.07,19.3,12,19.3s-.92,1.47-1,1.56-.41,0-.41.1a19.23,19.23,0,0,0,1.49,3.29c.22,0,1-.13,1.12.09s1.23,3.72,1.43,3.93,4.9,4.07,5.33,4.33v0h0v0c.43-.26,5.14-4.13,5.33-4.33s1.35-3.71,1.43-3.93.9-.07,1.12-.09A19,19,0,0,0,29.39,21c0-.07-.32,0-.41-.1S28,19.32,28,19.32Z"/></g></svg>