<svg xmlns="http://www.w3.org/2000/svg" viewBox="0 0 40 40"><defs><style>.cls-1{fill-rule:evenodd;}</style></defs><title>hanzo</title><g id="dragonstrike"><g id="_Group_" data-name="&lt;Group&gt;"><g id="_Group_2" data-name="&lt;Group&gt;"><path id="_Compound_Path_" data-name="&lt;Compound Path&gt;" d="M18.74,24.61A2.37,2.37,0,0,0,20,24.8a1.86,1.86,0,0,0,1.21-.55,9.58,9.58,0,0,0,1.38-1.84,5.92,5.92,0,0,1,1.91-1.9,1.86,1.86,0,0,0,.91-1.58c0-.58-.21-.77-.76-.56l-.5.21A2.85,2.85,0,0,1,24.84,17l.2-.18c.06-.06.15-.12.13-.22s-.15-.07-.23-.08h-.07c-.57,0-.59-.1-.36-.65a2.22,2.22,0,0,1,.11-.21c0-.06.1-.11,0-.18s-.12,0-.19,0h0c-.13,0-.31.25-.38,0a.5.5,0,0,1,.29-.59.64.64,0,0,1,.46,0,4.3,4.3,0,0,0,1.1.18,1.27,1.27,0,0,0,.68-.15.61.61,0,0,1,.88.25,1.27,1.27,0,0,0-.24,0s-.12,0-.13.09.06.1.12.12.31,0,.42.19c-.42.16-.51.3-.41.77s.18.73.3,1.08a2.69,2.69,0,0,1,0,1.67,2.33,2.33,0,0,0,.07,1.5.9.9,0,0,0,.79.7,1.08,1.08,0,0,0,1.05-.57,9.07,9.07,0,0,1,1.37-1.85.74.74,0,0,0,0-1c-.06-.08-.23-.15-.15-.27s.22,0,.37,0c0-.23-.24-.27-.42-.32a.89.89,0,0,1,1-.05,1.84,1.84,0,0,0,.79.26,1.4,1.4,0,0,1,1.13.82.5.5,0,0,1,.08.22,2.52,2.52,0,0,1-.39,1.66,2.32,2.32,0,0,0-.67,1.25,3,3,0,0,1-.23-1.21c0-.25-.1-.24-.27-.16a1.13,1.13,0,0,0-.65,1.08.85.85,0,0,1-.27.73c-.15.14-.28.29,0,.42s.22.3.22.5a3.59,3.59,0,0,1-.52,1.67,6.4,6.4,0,0,1-.66,1.11,4.76,4.76,0,0,0-.92,2.93,3.54,3.54,0,0,1-2,3.17c-.17.1-.39.16-.52,0s0-.32.19-.45A5.15,5.15,0,0,0,28,30c.08-.12.22-.27-.07-.35-.12,0-.12-.15-.06-.25a.67.67,0,0,1,.13-.2,1.93,1.93,0,0,0,.52-1.83,7.68,7.68,0,0,1-1.71,3c-.08.09-.14.25-.29.2s-.08-.21-.09-.33a1.37,1.37,0,0,0-.14-.68c-.2,1.05-1.05,1.62-1.71,2.34a3,3,0,0,0,.21-1.12,3.61,3.61,0,0,1-1.18,1.05,4.91,4.91,0,0,0-1.35.75,2,2,0,0,1,.14-.75c.1-.29,0-.37-.27-.33s-.56.09-.84.13A9.94,9.94,0,0,1,15,30.37a10.64,10.64,0,0,1-5.41-8c0-.08,0-.16,0-.24-.27-1.15.39-1.94,1.08-2.71l0,0c.18-.12.36-.36.59-.23s.12.4.08.6a8.9,8.9,0,0,0,.48,4.67,3.79,3.79,0,0,0,1.34,1.84,6.28,6.28,0,0,0,5.2,1.33,5.17,5.17,0,0,0,2.46-1.16c.08-.07.22-.13.17-.26s-.17-.09-.27-.11a3.5,3.5,0,0,1-2-1.23A.18.18,0,0,1,18.74,24.61ZM27,23.7a3.21,3.21,0,0,0,.44-.62,3.55,3.55,0,0,0,.66-1.21c0-.17.09-.26-.17-.2a.61.61,0,0,1-.83-.61c0-.19,0-.38,0-.58s0-.12-.08-.13a.13.13,0,0,0-.11.06c-.23.52-.56,1-.76,1.56.23,0,.33-.19.55-.17a3,3,0,0,0-.39,1.15c0,.06,0,.14,0,.18s.1,0,.14-.07a1.19,1.19,0,0,1,.6-.3C27.12,23.07,26.94,23.35,27,23.7Zm3.14-1.86a1.28,1.28,0,0,0-1.82.88c0,.17-.11.43.1.47s.16-.23.21-.37c.26-.73.46-.88,1.24-.9C30,21.91,30.09,21.94,30.18,21.83Zm-.52.27c-.42,0-.64.24-.59.62,0,.09,0,.2.1.24s.16-.06.22-.12l.4-.41c.07-.07.22-.11.18-.21S29.77,22.11,29.66,22.1Z"/><path id="_Compound_Path_2" data-name="&lt;Compound Path&gt;" d="M21.13,15.11A3,3,0,0,0,19.89,15a1.59,1.59,0,0,0-1,.38,6.13,6.13,0,0,0-1.19,1.39,6.49,6.49,0,0,1-2.28,2.51,1.83,1.83,0,0,0-.93,1.64q0,.8.71.53a1.78,1.78,0,0,0,.56-.28A2.83,2.83,0,0,1,15,22.76l-.2.18c-.05.06-.12.11-.09.2s.11.06.18.07l.24,0c.44,0,.44,0,.31.46,0,.11-.09.21-.12.32s-.18.15-.07.26.19,0,.29,0l.28-.11c0,.6-.21.83-.76.69a4.71,4.71,0,0,0-1.11-.17,1.22,1.22,0,0,0-.65.15.62.62,0,0,1-.88-.2c0-.08.12,0,.18,0s.18,0,.18-.11-.1-.1-.18-.12a.78.78,0,0,1-.4-.18c.17-.08.38-.06.43-.28a1.09,1.09,0,0,0,0-.54c-.09-.35-.18-.7-.29-1a2.62,2.62,0,0,1,0-1.63,2.34,2.34,0,0,0,0-1.41c-.12-.4-.33-.75-.78-.8a1.06,1.06,0,0,0-1.09.55A10.12,10.12,0,0,1,9,20.89a.73.73,0,0,0,0,.94c.07.1.25.17.19.3s-.24-.05-.38,0c.06.22.26.26.5.33a1.08,1.08,0,0,1-1,0,2.15,2.15,0,0,0-.8-.26,1.38,1.38,0,0,1-1.12-.78.63.63,0,0,1-.11-.28,2.52,2.52,0,0,1,.41-1.66,2.15,2.15,0,0,0,.65-1.22,2.54,2.54,0,0,1,.24,1.16c0,.32.13.3.32.17.37-.26.71-.54.61-1.07a.76.76,0,0,1,.28-.73c.15-.13.25-.28,0-.39s-.23-.29-.23-.49A3.55,3.55,0,0,1,9,15.27a6.25,6.25,0,0,1,.66-1.11,5.17,5.17,0,0,0,.94-2.89,4.08,4.08,0,0,1,.25-1.46,3.77,3.77,0,0,1,1.2-1.41A3.66,3.66,0,0,1,12.66,8c.15-.07.35-.12.46.05s0,.31-.16.43a5.16,5.16,0,0,0-1.14,1.3c-.08.12-.18.26.08.32s.13.14.07.25a1.68,1.68,0,0,1-.12.2,1.88,1.88,0,0,0-.54,1.76c.14-.36.27-.69.41-1a4.75,4.75,0,0,1,.58-1L13,9.43l.16-.18c0-.05.1-.1.17-.08s.09.12.1.19a1.77,1.77,0,0,0,.14.82c.22-1,1-1.62,1.71-2.33a2.28,2.28,0,0,0-.18,1.06c.58-.95,1.64-1.11,2.51-1.69a1.84,1.84,0,0,1-.12.64c-.13.39-.08.46.34.38A11.1,11.1,0,0,1,20,8.05a9.57,9.57,0,0,1,4.82,1.32,10.69,10.69,0,0,1,5.45,8.05,3.61,3.61,0,0,1-1.19,3,.79.79,0,0,1-.29.18c-.18.08-.29,0-.31-.18a1.15,1.15,0,0,1,0-.34,8.82,8.82,0,0,0-.28-4.19,4.27,4.27,0,0,0-1.56-2.44,6.22,6.22,0,0,0-5.14-1.31A5.19,5.19,0,0,0,19,13.35c-.07.07-.19.13-.17.24s.16.1.26.12A3.19,3.19,0,0,1,21.13,15.11Zm-8,2.87a3.15,3.15,0,0,0,.39-1.15c0-.07,0-.14,0-.18s-.12,0-.17.08a1.34,1.34,0,0,1-.58.3c0-.33.21-.61.06-1a11.5,11.5,0,0,0-1.06,1.88c0,.19-.08.28.18.2a.59.59,0,0,1,.8.54c0,.14,0,.29,0,.44s-.08.29.07.33.16-.15.22-.25c.15-.28.3-.56.44-.84a1.26,1.26,0,0,0,.19-.53C13.44,17.78,13.35,18,13.12,18Zm-3.43,0a1.3,1.3,0,0,0,1.81-.87c0-.17.11-.44-.08-.49s-.18.23-.23.37c-.27.72-.46.86-1.25.89C9.86,17.85,9.77,17.82,9.69,17.94Zm.5-.28c.47,0,.72-.32.59-.73,0-.15-.12-.18-.24-.07l-.47.48c-.06.07-.22.09-.17.21S10.09,17.65,10.19,17.66Z"/></g></g></g><g id="scatterarrow"><g id="_Group_3" data-name="&lt;Group&gt;"><g id="_Group_4" data-name="&lt;Group&gt;"><path id="_Compound_Path_3" data-name="&lt;Compound Path&gt;" d="M16.51,24.29l.79-2.53.9-2.89L19,16.38l0-.09.09,0,1.08.49a.44.44,0,0,0,.19,0c.11,0,.25-.06.28-.32.15-1.29.31-2.57.47-3.86l.25-2q.18-1.44.36-2.88v-.1a2,2,0,0,0,0-.53l0-.39-.63.68-.73.79L16.2,12.85,15.2,14c-.1.11-.19.21-.17.34s.14.19.28.25l1.42.69.12.06,0,.15q-.34,1.2-.68,2.4Q15.27,21,14.4,24.09h0L12,23.35l-1-.32-2.69-.82-.45-.16L7.6,22a.35.35,0,0,0-.36.06.26.26,0,0,0,0,.37l.13.2.23.38.67,1.18.6,1.05.9,1.57,1,1.76,1.55,2.72,1,1.74a.27.27,0,0,0,.24.18h0a.28.28,0,0,0,.21-.25c.13-.41.26-.82.39-1.23l.56-1.81.86-2.78Zm-3.15,3.52c-.14.47-.28,1-.41,1.43l-.09.33-3.3-5.12,1.59,1.31,2.12,1.74A.23.23,0,0,1,13.37,27.81Zm.69-2.45q-.17.56-.33,1.13l-2-1.47L10.37,24l1.48.56,2.2.83Z"/><path id="_Path_" data-name="&lt;Path&gt;" d="M23.29,24.44,24.55,23l1.1-1.29,0,0,.05,0c.16.11.34.2.51.29l.31.17A.3.3,0,0,0,27,22l.2-.41.09-.17,2.55-5a.29.29,0,0,0,0-.31l0-.08-.15,0a.41.41,0,0,0-.23.08l0,0-3.82,2-2.44,1.3c-.1.05-.23.12-.24.26s.11.23.2.29l.15.1.52.36-.66.85-.61.81-2.72,3.59c0,.06-.06.06-.06.06H19.7l-1.27-.39L17.32,25a.34.34,0,0,0-.48.22c-.1.26-.19.48-.28.68a.38.38,0,0,0,0,.3.39.39,0,0,0,.24.2l.95.35,1,.37q-.76,1-1.5,2v0h0l-.61-.46-.51-.39a.41.41,0,0,0-.24-.1c-.09,0-.22,0-.29.26s-.11.31-.18.46a.36.36,0,0,0,.12.47l1.89,1.56a.37.37,0,0,0,.23.1.35.35,0,0,0,.26-.14l.65-.77.5-.59.88-1,1.35-1.59Z"/><path id="_Path_2" data-name="&lt;Path&gt;" d="M32.63,22.72a.41.41,0,0,0-.27,0l-1.07.37-2.86,1-.12,0c-.15,0-.37.08-.41.29s.15.35.26.43l.1.07,0,0c-.87.78-1.76,1.58-2.63,2.39-.16.15-.2.11-.33.07l-1.56-.48-1.06-.32a.37.37,0,0,0-.43.11l-.85.93a.27.27,0,0,0,.12.49l.5.19.41.16,2.9,1.09a.43.43,0,0,0,.15,0,.28.28,0,0,0,.23-.13,2,2,0,0,1,.4-.39l.16-.13,1.37-1.18,2-1.68,0,0,0,0,.29.22.27.21a.39.39,0,0,0,.24.1.34.34,0,0,0,.28-.2l1.2-2,.5-.85.21-.38.21-.36Z"/></g></g></g><g id="lunge"><path class="cls-1" d="M18.82,33.07c7.16,2,5,1,0-2.78-4.5-3.37-4.16-4.3-2.77-3.47s5,1.4,2.77-.35-5-4.11-1.73-4.51c7.33-.91,19.75-.59,19.75-1.53s-12.42-.69-19.75-1.6c-3.23-.4-.49-2.76,1.73-4.5S17.43,13.16,16,14s-1.73-.1,2.77-3.46c5-3.74,7.16-4.78,0-2.77S3.92,15.32,3.92,20.36,11.65,31.06,18.82,33.07Z"/></g><g id="stormarrows"><path d="M16.11,32.68c-.1-.55-.17-1.11-.32-1.65a2.82,2.82,0,0,0-.53-1.15c-.45-.48-.8-.33-.91.32-.15.86-.28,1.72-.43,2.58,0,.23-.1.46-.15.69h-.19c-.12-.64-.25-1.28-.36-1.93-.19-1.15-.39-2.29-.55-3.44a1.51,1.51,0,0,1,.15-.89q3.45-6,6.94-12c.36-.63.61-.63,1,0q3.48,6,6.94,12a1.27,1.27,0,0,1,.19.75c-.26,1.75-.56,3.49-.86,5.23a2.56,2.56,0,0,1-.26.49c-.2-1.19-.35-2.18-.55-3.16a4,4,0,0,0-.43-.9c-.31.3-.77.54-.91.91a11,11,0,0,0-.4,1.91,2.82,2.82,0,0,1-.22.43,7.09,7.09,0,0,0-.26-1.11c-.12-.27-.41-.72-.49-.7-.42.14-1,.22-1,.88,0,1,0,2.09,0,3.13,0,.6-.18.82-.79.79-1,0-1.94,0-2.91,0-.67,0-.84-.23-.81-.85,0-1,0-2,0-3,0-.71-.5-.81-.95-1-.09,0-.4.27-.48.47a7.54,7.54,0,0,0-.26,1.15Z"/><path d="M26.83,21.81a2.35,2.35,0,0,1-.23-.49,11.69,11.69,0,0,0-1.76-4.1c-1.38-2.31-2.7-4.65-4.05-7-.46-.79-.63-.78-1.1,0-1.7,2.91-3.42,5.8-5.07,8.73A10.59,10.59,0,0,0,14,21.07l-.21.65h-.19a25.43,25.43,0,0,0-.5-2.6,5,5,0,0,1,.74-4.29c2-3.29,3.91-6.69,5.85-10,.5-.87.67-.86,1.19,0,2.2,3.79,4.4,7.58,6.57,11.39a2.34,2.34,0,0,1,.24,1.36c-.16,1.25-.41,2.48-.64,3.72A4.32,4.32,0,0,1,26.83,21.81Z"/></g><g id="sonicarrow"><g id="_Group_5" data-name="&lt;Group&gt;"><path id="_Path_3" data-name="&lt;Path&gt;" d="M21.25,28.22v-3.9L23.4,24a.34.34,0,0,0,.28-.44,32.56,32.56,0,0,0-1.36-3.66,31.1,31.1,0,0,0-2-3.36.34.34,0,0,0-.28-.15h0a.34.34,0,0,0-.28.16c-.06.1-1.51,2.37-2.23,3.88a23.72,23.72,0,0,0-1.12,3.14.34.34,0,0,0,.28.43l2.15.3v3.92a.34.34,0,0,0,.34.34h1.7A.34.34,0,0,0,21.25,28.22Z"/><path id="_Path_4" data-name="&lt;Path&gt;" d="M20.05,6.71a13.53,13.53,0,0,0-1.73,27h.19a.67.67,0,0,0,0-1.32h0C12.65,31.55,8.09,26.58,8.09,21c0-5.93,5.14-10.4,12-10.4,6.59,0,12,5,12,11.09,0,5-4.74,9.86-10.36,10.63h0a.67.67,0,0,0,0,1.34h.15A13.53,13.53,0,0,0,20.05,6.71Z"/><path id="_Path_5" data-name="&lt;Path&gt;" d="M21.6,30.17l-.06,0a.62.62,0,0,0,.11,1.24h.15a9.84,9.84,0,1,0-3.54,0h.13a.62.62,0,0,0,.21-1.21l-.13,0a8.29,8.29,0,0,1-6.85-7.89c0-4.17,3.62-7.31,8.42-7.31,4.64,0,8.42,3.5,8.42,7.8C28.47,26.13,25.39,29.45,21.6,30.17Z"/></g></g><g id="hanzo"><path d="M28.47,21c0-.15-.77.12-.75,0s1.11-1.31,1.11-2.18c0-.22-1.8.46-1.58.14s1.49-1.79.56-1.26a9.36,9.36,0,0,1-1.18.59,9.34,9.34,0,0,0-.9-3.26,4.19,4.19,0,0,0-2.28-2h0c1.48-.69,1.2-1.09,1.2-1.09a2,2,0,0,1-.67,0,7,7,0,0,0-.87,0A3.94,3.94,0,0,0,25,9a4.26,4.26,0,0,1-1.26.51,8.63,8.63,0,0,0-1.8.86,2.35,2.35,0,0,0,.42-2,5.84,5.84,0,0,1,.07-2.06,5,5,0,0,0-4,3.36A6.43,6.43,0,0,1,18,8.72c-.23.24-.07,1.62-.07,1.62-.82-.87-2-.47-2.64-.47s-.76-.33-.71-.18c.85,2.32,1.76,3,2.31,3.22A4.33,4.33,0,0,0,14.27,15a9.34,9.34,0,0,0-.9,3.26,9.36,9.36,0,0,1-1.18-.59c-.93-.53.34.93.56,1.26s-1.58-.36-1.58-.14c0,.87,1.08,2.08,1.11,2.18s-.78-.18-.75,0a5.61,5.61,0,0,0,1.1,1.46l0,.27c-.11,0-.21,0-.22,0a.74.74,0,0,0,.17.4c-.15,1.1-.31,2.31-.45,3.55-.21,1.88-.3,2.66-.06,3.08a9,9,0,0,0,.3-1.41,27.94,27.94,0,0,1,1.23-4.14,3.19,3.19,0,0,1,.76,1c0,.24.69.19.24-.9a4.86,4.86,0,0,1-.29-1.83,38.76,38.76,0,0,1,3.07-5.39c.92-1.33,2-2.74,2.38-2.74s1,3.16.72,3.07-.24-2.46-.93-2.11S17.83,17.57,18,17.74a4.46,4.46,0,0,0,2,.82c1.31,0,2-1.42,3.46-1.46s1.81,2,2,3.26a8.13,8.13,0,0,1-.1,4c-.45,1.09.2,1.14.24.9a3.9,3.9,0,0,1,1.13-1.38c.71-.63.86-1.06.83-1.13s-.5,0-.57.06,0,0,.16-.19A6.59,6.59,0,0,0,28.47,21Z"/><path d="M24.27,28.57c-.11.07-.43.35-.42.22a2.66,2.66,0,0,0-.34-1.11,4.21,4.21,0,0,0-2.08-1,10.3,10.3,0,0,0-1.46.58,10.3,10.3,0,0,0-1.46-.58,4.21,4.21,0,0,0-2.08,1,2.66,2.66,0,0,0-.34,1.11c0,.13-.32-.15-.42-.22s-.77-.61.31,1,2,2.45,2.29,3,.34.79.43.71.11-.13.23-.24.14-.14.26,0a7.69,7.69,0,0,0,.77.77,7.69,7.69,0,0,0,.77-.77c.12-.12.14-.09.26,0s.14.16.23.24.12-.21.43-.71,1.21-1.39,2.29-3S24.38,28.5,24.27,28.57Zm-1.79,1.77c-.29.5-.49.94-.7.94C21,31.29,20.25,30,20,30s-1.06,1.28-1.82,1.28c-.21,0-.41-.45-.7-.94s-.73-.82-.67-1.47,0-.79.65-1a4.26,4.26,0,0,1,1.07-.35c.67,0,1,.28,1.46.28s.8-.28,1.46-.28a4.26,4.26,0,0,1,1.07.35c.62.22.58.24.65,1S22.79,29.83,22.49,30.34Z"/></g></svg>