<svg xmlns="http://www.w3.org/2000/svg" viewBox="0 0 40 40"><title>junkrat</title><g id="totalmayhem"><g id="_Group_" data-name="&lt;Group&gt;"><path id="_Compound_Path_" data-name="&lt;Compound Path&gt;" d="M22,24.77a20.88,20.88,0,0,1-5.86-.83,18.16,18.16,0,0,1-4.74-2.12,13.61,13.61,0,0,1-2.75-2.29.28.28,0,0,1-.09-.22c0-.19,0-.39.06-.58s.08-.17.2-.14l.75.15a1.36,1.36,0,0,0,1.34-.62,1,1,0,0,0-.33-1.24,3,3,0,0,0-1.18-.38c-.25,0-.26-.05-.17-.28A11.6,11.6,0,0,1,12,11.89c.11-.11.16-.1.26,0,.27.35.56.69.86,1a1.07,1.07,0,0,0,1.36.16A1.09,1.09,0,0,0,15,11.81a2.46,2.46,0,0,0-.67-1.1c-.33-.31-.32-.36.07-.58a11.25,11.25,0,0,1,2.51-1c.13,0,.18,0,.21.12.08.4.12.82.19,1.22a1.12,1.12,0,0,0,1.14,1,1.11,1.11,0,0,0,1-.92,8,8,0,0,0,0-1.47,2,2,0,0,0,0-.2c0-.14,0-.19.17-.19a11.46,11.46,0,0,1,7.68,2.57c.1.08.09.13,0,.22-.33.37-.7.69-1.06,1a1.18,1.18,0,0,0-.39,1.12,1,1,0,0,0,.78.84,1.09,1.09,0,0,0,1.14-.33,7,7,0,0,1,.7-.63c.15-.12.26-.27.42-.38s.16-.07.24,0A11.61,11.61,0,0,1,30.74,16a11.49,11.49,0,0,1,.74,4.73,7.21,7.21,0,0,1-.09.9c0,.19,0,.2-.24.15l-.68-.18a1.18,1.18,0,0,0-1.18.27,1,1,0,0,0-.16,1.23c.08.14,0,.19-.09.24a16.9,16.9,0,0,1-4.78,1.25A17.85,17.85,0,0,1,22,24.77ZM18.36,18.4a3.09,3.09,0,0,0-.47-1.5c-.06-.09-.09-.16,0-.23s.14-.14.06-.25-.18-.15-.29-.07-.19,0-.28,0A3,3,0,0,0,13.61,16c-.12.09-.19.08-.27,0l-.05-.06A.18.18,0,0,0,13,16a.64.64,0,0,0,.06.34c.05.08,0,.14,0,.21a3,3,0,0,0-.37,3.2c0,.09.05.15,0,.22a.29.29,0,0,0-.07.4.28.28,0,0,0,.37.08c.12-.08.18,0,.25.05a2.77,2.77,0,0,0,.94.68,3,3,0,0,0,3.08-.33.39.39,0,0,1,.28-.11c.15,0,.22-.11.21-.24a.32.32,0,0,1,.08-.22A3.11,3.11,0,0,0,18.36,18.4Zm4.39,3.05a.29.29,0,0,0,.46.25c.12-.09.17-.05.25,0a3,3,0,0,0,4.06.31.23.23,0,0,1,.24,0c.17.06.3-.06.24-.21a.25.25,0,0,1,.06-.28,3,3,0,0,0,.17-3.4c-.07-.11-.07-.18,0-.26a.22.22,0,0,0,.07-.33.25.25,0,0,0-.36,0c-.09.11-.15.07-.23,0A3,3,0,0,0,24,17.13c-.1.06-.15.07-.23,0a.29.29,0,0,0-.44,0,.28.28,0,0,0,0,.43c.11.1.07.15,0,.24a3,3,0,0,0-.7,1.83A3,3,0,0,0,23,21c0,.09,0,.14-.06.18A.27.27,0,0,0,22.75,21.45Z"/><path id="_Path_" data-name="&lt;Path&gt;" d="M20,31.61a8.63,8.63,0,0,1-1,0c-.19,0-.21,0-.18-.23l.45-3.58c.09-.74.19-1.48.24-2.22,0-.18.12-.18.24-.16a11.15,11.15,0,0,0,1.9.06c.49,0,1-.06,1.46-.1.21,0,.22,0,.19.2-.14.84-.26,1.68-.37,2.53l-.28,2.05c0,.36-.1.72-.14,1.08a.18.18,0,0,1-.16.18,11.4,11.4,0,0,1-1.45.21A6.58,6.58,0,0,1,20,31.61Z"/><path id="_Path_2" data-name="&lt;Path&gt;" d="M15,30.36l.14-1.08.33-2.53q.14-1.07.27-2.13c0-.11.07-.13.16-.1.67.17,1.34.32,2,.54a6.07,6.07,0,0,0,1,.23c.21,0,.23,0,.2.23-.17,1-.3,2-.43,3s-.25,1.87-.36,2.81c0,.14-.07.17-.21.15a11.76,11.76,0,0,1-3-.93C15.07,30.49,15,30.46,15,30.36Z"/><path id="_Path_3" data-name="&lt;Path&gt;" d="M11.44,27.63l.22-1.74c.11-.91.24-1.82.32-2.73,0-.32,0-.34.3-.16a14.36,14.36,0,0,0,2.6,1.2c.33.13.33.12.29.47l-.34,2.62c0,.18,0,.18-.19.11a1.1,1.1,0,0,0-1.3.25c-.28.28-.52.61-.78.91s-.16.18-.32,0l-.7-.7A.26.26,0,0,1,11.44,27.63Z"/><path id="_Path_4" data-name="&lt;Path&gt;" d="M23.83,28.51h-.09c-.28,0-.29,0-.25-.27.09-.82.19-1.64.28-2.45,0-.13,0-.25,0-.38a.13.13,0,0,1,.13-.14q1-.11,2-.28a5.59,5.59,0,0,0,.84-.19c.17-.06.2,0,.18.14q-.18,1.27-.36,2.55c-.1.71-.19,1.42-.28,2.14a.29.29,0,0,1-.15.23l-.65.38c-.11.07-.17.06-.23-.07a11.07,11.07,0,0,0-.5-1,1.18,1.18,0,0,0-.83-.59Z"/><path id="_Path_5" data-name="&lt;Path&gt;" d="M30.76,24.16l-.07.19A11.48,11.48,0,0,1,27,29.22s-.09.1-.14.07,0-.1,0-.15c.11-.88.22-1.77.33-2.65.06-.52.12-1,.17-1.56s0-.39.42-.52l1.65-.53c.12,0,.26,0,.36-.13s.06,0,.1,0l.75.27C30.72,24.06,30.78,24.07,30.76,24.16Z"/><path id="_Path_6" data-name="&lt;Path&gt;" d="M11,27.13a.75.75,0,0,1-.22-.24,11.48,11.48,0,0,1-2.12-5.4,8,8,0,0,1-.08-1.2s0-.11,0-.13.09,0,.12.07a18.46,18.46,0,0,0,2.65,2.12.4.4,0,0,1,.2.47c-.23,1.25-.36,2.52-.53,3.78Z"/><path id="_Path_7" data-name="&lt;Path&gt;" d="M14.84,12.12a.91.91,0,0,1-1.12.88,1.41,1.41,0,0,1-.81-.58c-.63-.84-1.22-1.7-1.83-2.55a.39.39,0,0,1,.1-.6l.84-.6a.43.43,0,0,1,.65.11l1.9,2.58A1.13,1.13,0,0,1,14.84,12.12Z"/><path id="_Path_8" data-name="&lt;Path&gt;" d="M18.43,11.06a.87.87,0,0,1-.9-.8c-.14-.71-.19-1.43-.27-2.15,0-.27-.05-.54-.09-.81a.36.36,0,0,1,.36-.47l.85-.09c.35,0,.5.1.54.45.1.94.22,1.88.31,2.82a1,1,0,0,1-.34.93A.83.83,0,0,1,18.43,11.06Z"/><path id="_Path_9" data-name="&lt;Path&gt;" d="M30.12,21.86a5.68,5.68,0,0,1,1.28.28l2,.62a.35.35,0,0,1,.25.48q-.14.45-.28.89a.4.4,0,0,1-.53.28l-2.73-.83a1.16,1.16,0,0,1-.65-.44A.84.84,0,0,1,29.68,22,.76.76,0,0,1,30.12,21.86Z"/><path id="_Path_10" data-name="&lt;Path&gt;" d="M23,29.73a.75.75,0,0,1,.55-.8.8.8,0,0,1,.9.24,5.27,5.27,0,0,1,.66,1.21c.27.59.52,1.18.78,1.77a.35.35,0,0,1-.2.54l-.87.38a.35.35,0,0,1-.5-.19l-1.21-2.69A1.57,1.57,0,0,1,23,29.73Z"/><path id="_Path_11" data-name="&lt;Path&gt;" d="M14.91,28.45a.92.92,0,0,1-.26.65c-.6.75-1.2,1.49-1.8,2.23a.39.39,0,0,1-.62.07l-.74-.58a.33.33,0,0,1-.06-.5c.64-.78,1.22-1.6,1.91-2.34a1,1,0,0,1,.75-.38A.81.81,0,0,1,14.91,28.45Z"/><path id="_Path_12" data-name="&lt;Path&gt;" d="M9.79,18.51a6.06,6.06,0,0,1-1.13-.2l-2-.4a.4.4,0,0,1-.34-.51q.08-.47.18-.93A.35.35,0,0,1,7,16.2c1,.23,1.95.36,2.9.63a1.18,1.18,0,0,1,.57.3.89.89,0,0,1,.11,1,.71.71,0,0,1-.59.35Z"/><path id="_Path_13" data-name="&lt;Path&gt;" d="M26.85,14.22a.84.84,0,0,1-.83-.76,1.18,1.18,0,0,1,.44-.92c.54-.51,1.11-1,1.67-1.49l.44-.39a.34.34,0,0,1,.55.05l.57.65a.39.39,0,0,1,0,.62c-.71.65-1.42,1.3-2.14,1.94A.91.91,0,0,1,26.85,14.22Z"/><path id="_Path_14" data-name="&lt;Path&gt;" d="M15.37,21.26a2.78,2.78,0,0,1-2.1-.94c-.09-.1-.09-.16,0-.24l1.82-1.35a.14.14,0,0,1,.21,0L17,20.48c.11.11,0,.16,0,.22A2.8,2.8,0,0,1,15.37,21.26Z"/><path id="_Path_15" data-name="&lt;Path&gt;" d="M17.3,16.6a.17.17,0,0,1-.08.1L15.44,18a.11.11,0,0,1-.17,0l-1.54-1.6c-.08-.08,0-.12,0-.17a2.76,2.76,0,0,1,3.45.26S17.3,16.54,17.3,16.6Z"/><path id="_Path_16" data-name="&lt;Path&gt;" d="M18.08,18.42a2.82,2.82,0,0,1-.51,1.68c-.08.11-.13.14-.24,0l-1.61-1.67c-.08-.08-.08-.13,0-.19L17.46,17c.1-.08.16-.06.22,0A2.64,2.64,0,0,1,18.08,18.42Z"/><path id="_Path_17" data-name="&lt;Path&gt;" d="M12.58,18.36a2.74,2.74,0,0,1,.57-1.55c.08-.11.13-.12.23,0l1.44,1.45c.09.09.1.14,0,.23l-1.73,1.25c-.13.09-.18.08-.24-.07A3,3,0,0,1,12.58,18.36Z"/><path id="_Path_18" data-name="&lt;Path&gt;" d="M25.52,22.43a2.7,2.7,0,0,1-2-1c-.07-.08-.08-.13,0-.2l1.93-1.41a.12.12,0,0,1,.19,0l1.69,1.78c.09.09,0,.14,0,.2A2.85,2.85,0,0,1,25.52,22.43Z"/><path id="_Path_19" data-name="&lt;Path&gt;" d="M25.75,16.91a2.64,2.64,0,0,1,1.82.76c.08.08.1.13,0,.21L25.8,19.2c-.1.08-.17.08-.25,0l-1.43-1.62c-.08-.09-.06-.15,0-.21A3,3,0,0,1,25.75,16.91Z"/><path id="_Path_20" data-name="&lt;Path&gt;" d="M28.41,19.6a2.79,2.79,0,0,1-.55,1.72c-.08.11-.13.12-.23,0L26,19.68c-.1-.1-.07-.15,0-.22l1.77-1.28c.1-.08.15,0,.2,0A2.62,2.62,0,0,1,28.41,19.6Z"/><path id="_Path_21" data-name="&lt;Path&gt;" d="M22.91,19.79a2.88,2.88,0,0,1,.65-1.91c.08-.1.14-.11.23,0l1.43,1.51c.1.1.1.16,0,.24l-1.83,1.29c-.11.08-.16.05-.21-.06A2.77,2.77,0,0,1,22.91,19.79Z"/></g></g><g id="riptire"><path id="_Compound_Path_2" data-name="&lt;Compound Path&gt;" d="M19.5,25.43a4.26,4.26,0,0,1-1.73.5,4.84,4.84,0,0,1-4.61-2.51,6.31,6.31,0,0,1-1-3.45,6.35,6.35,0,0,1,2.28-5.15,4.55,4.55,0,0,1,5-.54A6.81,6.81,0,0,0,17,19.85,6.81,6.81,0,0,0,19.5,25.43Zm13.82-5.8a.67.67,0,0,1-.31.13l-3.41,1.06-.3.09h0l-.16,0h0c-.64.21-1.37.47-2,.71-.69-.65-.79-2.08-.88-1.87A3.46,3.46,0,0,0,26.67,22c.13.24.51.14.56.13.64-.21,1.21-.35,1.8-.53A10.87,10.87,0,0,1,26.57,27l.75,1.49,1.11,2.28.06.15c-.08.07-.14,0-.19,0L25.9,29.39l0,0c-.6-.38-1.34-.81-2-1.15,0-.95,1.08-1.95.86-1.88a3.46,3.46,0,0,0-1.43,1.74c-.1.25.22.49.27.51l.61.39a9.67,9.67,0,0,1-4.68,1.47l-1,3.27c-.12-.05-.12-.16-.14-.24l-.59-1.78s0,0,0,0c-.21-.68-.49-1.49-.75-2.15.65-.69,2.09-.78,1.87-.87a3.46,3.46,0,0,0-2.22.39c-.24.13-.15.51-.13.56s.12.38.17.56a9.83,9.83,0,0,1-3.68-1.8l0,0a6.27,6.27,0,0,1-.62-.48c-.14-.05-.26,0-.55.16l-1,.53s-.1.07-.15,0,0-.1,0-.15l.5-1.4.13-.35A10.94,10.94,0,0,1,9,20.45c-.43-.14-.91-.27-1.24-.41L7.62,20c.35-.16.94-.32,1.35-.46A11,11,0,0,1,11.29,13l0-.07c-.17-.43-.33-.87-.49-1.3,0-.07-.1-.15,0-.21s.14,0,.21.06l1.18.57a9.89,9.89,0,0,1,5.15-2.73c.31-1,.64-2,1-3l0-.08c.11,0,.1.15.13.23L19,8.21l.1.29.21.65h0l.27.74c-.66.69-2.09.76-1.88.86a3.46,3.46,0,0,0,2.23-.38c.24-.12.15-.51.13-.56-.07-.21-.13-.42-.18-.62a9.7,9.7,0,0,1,4.74,1.69l.95-.6c.77-.5,1.56-1,2.33-1.48l.06,0c.05,0,.11-.09.17,0s0,.11,0,.17L27,11.2l-.6,1.28v0c-.18.41-.36.83-.51,1.21-.95.07-2.06-.84-2-.63a3.46,3.46,0,0,0,1.9,1.22c.26.07.46-.28.48-.33.17-.35.33-.68.49-1a10.9,10.9,0,0,1,2.27,5.44l4.06,1.12A.21.21,0,0,1,33.31,19.63Zm-10.08.21c0-.13,0-.3,0-.47s0-.49-.08-.73a7.68,7.68,0,0,0-.6-2,7,7,0,0,0-1.69-2.29,5.82,5.82,0,0,0-1.76-1.11,5.53,5.53,0,0,0-2-.38,5.36,5.36,0,0,0-2.68.7l-.4.25-.38.29A7.24,7.24,0,0,0,10.84,20a7.39,7.39,0,0,0,.29,2.08q.07.25.16.5A7.06,7.06,0,0,0,12,24a5.81,5.81,0,0,0,5,2.92l.45,0a5.17,5.17,0,0,0,1.81-.46l.41-.21a6.16,6.16,0,0,0,1.14-.83,7,7,0,0,0,1.25-1.5l.19-.33A8.39,8.39,0,0,0,23.23,19.83Z"/></g><g id="steeltrap"><g id="_Group_2" data-name="&lt;Group&gt;"><path id="_Compound_Path_3" data-name="&lt;Compound Path&gt;" d="M9.14,13a.47.47,0,0,0,.27-.24c.72-1,1.43-2.07,2.14-3.12a.26.26,0,0,1,.33-.13,2.47,2.47,0,0,0,.4.07c.12,0,.14.07.13.18,0,.49-.09,1-.13,1.46s-.11,1.22-.17,1.83c0,0,0,.09,0,.11s.06,0,.09-.07L14.53,10c0-.06.07-.16.17-.14a.93.93,0,0,1,.41.13s0,.09,0,.13c-.16,1.17-.15,2.35-.26,3.52,0,0,0,.08,0,.1s.08,0,.1-.07l1.57-2c.2-.26.41-.51.6-.77a.19.19,0,0,1,.28-.07c.12.05.23.08.22.26-.08.94-.1,1.88-.14,2.83q0,.13,0,.26s0,.08,0,.1.06,0,.08-.06l.87-1.1L19.32,12c.08-.1.13-.11.23,0a.47.47,0,0,1,.17.47c-.11,1.11-.21,2.22-.31,3.33,0,0,0,.08,0,.1s.08,0,.1-.07l1.6-2s.06-.14.15-.1.08.12.06.2q-.25,1.59-.46,3.19a.27.27,0,0,0,0,.23.11.11,0,0,0,.13,0,1.24,1.24,0,0,1,.79,0c.14.05.2,0,.25-.13.17-.46.36-.91.54-1.36,0-.11.1-.14.23-.16.32-.05.46.12.57.37l.77,1.84c0,.08,0,.17.17.17s.17-.08.21-.17c.31-.62.62-1.23.94-1.84,0-.08.05-.23.21-.21s.32,0,.4.24c.26.73.56,1.44.83,2.16.06.17.15.28.34.28a.76.76,0,0,1,.24.06c.12,0,.16,0,.19-.12.14-.58.29-1.17.43-1.75,0-.19,0-.17.24-.15a.58.58,0,0,1,.55.51c.15.58.35,1.14.53,1.71a.35.35,0,0,0,.18.22l.65.37c.11.06.17.07.21-.08.15-.54.32-1.07.48-1.61,0-.12.07-.12.17-.06a4.81,4.81,0,0,1,.68.59.23.23,0,0,1,.06.12c.1.47.17.95.24,1.42,0,0,0,.08,0,.11s.05-.07.06-.11l.13-.45c0-.05,0-.12.1-.12a.18.18,0,0,1,.19.08,3.09,3.09,0,0,1,.41,1.18c0,.45.11.89.12,1.35A6,6,0,0,1,33.12,23a1.18,1.18,0,0,1-.09.28c-.33.75-.63,1.52-1,2.27a6.33,6.33,0,0,1-1.15,1.71,8.61,8.61,0,0,1-1.15.9,9.65,9.65,0,0,1-1.91,1.1,8.45,8.45,0,0,1-2.15.59,12.28,12.28,0,0,1-3,0c-.84-.09-1.68-.16-2.52-.24l-3.86-.36c-.35,0-.7-.08-1.05-.08l-.15,0c-.25,0-.3-.09-.28-.33a.62.62,0,0,0-.32-.64,4.55,4.55,0,0,1-1.32-1.51.25.25,0,0,0-.24-.15h-.82a.26.26,0,0,1-.24-.13l-3-4.4c-.4-.58-.81-1.14-1.19-1.73a5.25,5.25,0,0,1-.78-3.72,9.17,9.17,0,0,1,1-3c.33-.62.64-1.26,1-1.89.12-.23.12-.23.36-.13s.37.17.27.55l-.21.8S9.16,13,9.14,13Zm-1,4.33c.1,0,.12-.06.16-.1l1.49-1.63a.31.31,0,0,1,.31-.11,3,3,0,0,1,.65.22c.09,0,.11.09.09.18q-.3,2-.6,4.08c0,.25-.07.49-.1.74,0,0,0,.09,0,.11s.06,0,.09-.07l0,0L11.85,19a.18.18,0,0,1,.24-.06l.59.2a.14.14,0,0,1,.11.19c0,.24-.07.47-.1.71l-.56,3.85s0,.07,0,.1l.07-.06a1.3,1.3,0,0,1,1.15-.51h0a.24.24,0,0,0,.18-.08,8.14,8.14,0,0,1,.71-.63c.07-.06.07-.1,0-.18A1.51,1.51,0,0,1,14,21.41a3.61,3.61,0,0,0,0-.95,1.06,1.06,0,0,1,.42-.94,2.43,2.43,0,0,1,.51-.33,6.65,6.65,0,0,1,2.53-.59,8.91,8.91,0,0,1,.93,0,.38.38,0,0,0,.32-.19c.06-.09-.05-.15-.1-.22-.33-.44-.66-.88-1-1.32a1.58,1.58,0,0,0-.4-.38L16.56,16a4.86,4.86,0,0,0-.81-.55,11.66,11.66,0,0,0-2.13-.72,8.89,8.89,0,0,0-2.5-.22,2.36,2.36,0,0,0-1.15.36,3.91,3.91,0,0,0-1.59,1.92C8.31,17,8.26,17.17,8.19,17.37Zm21.55,7.26c.07,0,.06-.07.07-.1l.3-1.43a1.08,1.08,0,0,0-.39-1,5.55,5.55,0,0,0-1.62-.74,24.5,24.5,0,0,0-4.79-.73c-.08,0-.12,0-.13.1a3.78,3.78,0,0,0,0,.71,1.57,1.57,0,0,1-.9,1.51,5.55,5.55,0,0,1-1.52.52.4.4,0,0,0-.19.09l-1,.92a.46.46,0,0,1-.51.1l-.36-.14c-.35-.12-.35-.12-.59.17a.14.14,0,0,0,0,.15c.27.82.51,1.65.82,2.46a.21.21,0,0,0,.22.16c.11,0,.15-.05.19-.14l.59-1.3.91-2c0-.06,0-.15.14-.14l.45,0c.05,0,.07,0,.09.08l1.47,3.72s0,.09.07.09,0-.06.06-.1l.48-1.25,1-2.68c0-.12.1-.18.23-.18a4.16,4.16,0,0,0,.47,0,.18.18,0,0,1,.19.12l.27.53,1.52,3s0,.11.08.1.05-.07.06-.11l.25-.83c.31-1.07.63-2.15.94-3.22a.2.2,0,0,1,.24-.18h.39c.11,0,.16,0,.18.15.06.28.13.56.2.85ZM17.33,18.89a.09.09,0,0,0-.11,0,6.08,6.08,0,0,0-1.11.22,2.39,2.39,0,0,0-.92.48.63.63,0,0,0,0,1,2,2,0,0,0,.56.41,5.32,5.32,0,0,0,1.42.48,8,8,0,0,0,3.56,0,2.64,2.64,0,0,0,1.08-.49.64.64,0,0,0,.08-1,2,2,0,0,0-.6-.44,6.13,6.13,0,0,0-1.79-.54s-.08,0-.1,0,0,0,.06,0a6.09,6.09,0,0,1,1.46.38,2.34,2.34,0,0,1,.81.49.58.58,0,0,1,0,.93,1.55,1.55,0,0,1-.4.24,5.41,5.41,0,0,1-1.86.38,8,8,0,0,1-3-.36,2.57,2.57,0,0,1-1.09-.61.58.58,0,0,1,0-.92,1.54,1.54,0,0,1,.28-.19,3.17,3.17,0,0,1,.82-.28Zm.1,0a.5.5,0,0,0,.3,0A.37.37,0,0,0,17.43,18.86Zm1.58,0c-.13,0-.13,0-.21,0A.29.29,0,0,0,19,18.88Zm-.74,0a.15.15,0,0,0-.16,0A.11.11,0,0,0,18.27,18.83Zm1,.05h-.06s-.06,0,0,0S19.19,18.93,19.22,18.88Zm-1.34-.07s0,0,0,0l0,0s0,0,0,0S17.9,18.81,17.88,18.81Zm10.25,1.78s0,0,0,0l0,0s0,0,0,0A0,0,0,0,0,28.13,20.59Z"/></g></g><g id="concussionmine"><path id="_Compound_Path_4" data-name="&lt;Compound Path&gt;" d="M15,29a4.89,4.89,0,0,1,.14-1.51,1,1,0,0,0-.07-.66,9.27,9.27,0,0,0-2.26-3.25,12.13,12.13,0,0,1-1.91-2.34,1.39,1.39,0,0,1-.2-.64c0-.38-.06-.75,0-1.13a1.72,1.72,0,0,0-.35-1.08l-.44-.59A1.18,1.18,0,0,1,9.61,17,3.39,3.39,0,0,0,8,13.84a.75.75,0,0,1-.35-.75.65.65,0,0,1,.73-.65,7,7,0,0,1,4.44,1.68,2.18,2.18,0,0,1,.76,1.41,7.73,7.73,0,0,0,.84,2.54c.32.61.6.69,1.21.36.27-.15.54-.31.83-.43s.57-.1.89.22c.62.61,1.07,1.37,1.63,2a6.36,6.36,0,0,1,.35.64A28.54,28.54,0,0,0,23.28,26c.27.26.27.35,0,.61s-.3.48,0,.8.65.69,1,1l1.2,1.28a.51.51,0,0,1,.08.74c-.52.72-.95,1.5-1.44,2.24a1.22,1.22,0,0,1-1,.61,6.4,6.4,0,0,1-3-.25,17.44,17.44,0,0,1-2.43-1.33,26.73,26.73,0,0,1-2.4-1.56.59.59,0,0,1-.3-.61A3.83,3.83,0,0,0,15,29Zm4.45-9c.54.92,1.06,1.85,1.63,2.75a23.61,23.61,0,0,0,2.87,3.38c.29.31.29.31,0,.6s-.35.34,0,.71l2.73,3.06c.2.22.35.25.59.07a5,5,0,0,0,.62-.54,52.22,52.22,0,0,1,3.91-3.61,2.74,2.74,0,0,0,.43-.44.51.51,0,0,0,0-.67c-.38-.52-.73-1.06-1.06-1.61-.07-.11-.15-.22-.28-.22-.34,0-.47-.28-.64-.49s-.19-.26-.29-.39c-.22-.28-.36-.3-.59,0-.52.59-1.13,1.08-1.67,1.65a2.79,2.79,0,0,1-1.41.73,1.18,1.18,0,0,1-1.14-.48,2.65,2.65,0,0,1-.34-1c-.05-.4-.05-.4-.46-.3a1.11,1.11,0,0,1-1-.13,2.3,2.3,0,0,1-1-1.77c0-.31-.13-.4-.41-.39a2.77,2.77,0,0,1-2.17-.9,1,1,0,0,0-.4-.25A1.45,1.45,0,0,0,19.45,20Zm1.2-8.37a9.77,9.77,0,0,0-.59,1.1,26,26,0,0,0-1.62,3.74,1.46,1.46,0,0,0,.49,1.78c.73.56,1.43.63,1.84-.39.14-.35,1.68-3.67,2.58-5.23a1.1,1.1,0,0,0,.16-.95,1.48,1.48,0,0,0-1.35-.87A1.59,1.59,0,0,0,20.65,11.64Zm4.08,5.25c.4-.74,1.24-2,1.62-2.76A1.15,1.15,0,0,0,26,12.73a1.87,1.87,0,0,0-1.43-.26c-.18,0-.68.68-.79.83a37,37,0,0,0-3.16,5.78.83.83,0,0,0,.21,1,1.55,1.55,0,0,0,1.57.24C23.13,20,24.11,18,24.73,16.89Zm-.85,5.78a.62.62,0,0,0,.71-.13,4.06,4.06,0,0,0,.68-.8,7.62,7.62,0,0,1,.68-1,14.21,14.21,0,0,0,2-3.36.5.5,0,0,0,.08-.29,2.53,2.53,0,0,0-.79-1.53.58.58,0,0,0-1,.13c-.3.45-.64.87-1,1.3-.76,1-1.36,2.13-2,3.2a2.92,2.92,0,0,0-.38,1A1.68,1.68,0,0,0,23.88,22.68Zm3.45,1.14a26.41,26.41,0,0,0,2.39-3.19.65.65,0,0,0,.15-.47,4,4,0,0,0-.59-1.43.57.57,0,0,0-.72-.24,2.86,2.86,0,0,0-1,.77,30.15,30.15,0,0,0-1.93,2.83,1.72,1.72,0,0,0-.29,1.73.87.87,0,0,0,.9.57A1.4,1.4,0,0,0,27.33,23.82ZM20.72,9.07h0a.09.09,0,0,1,0-.08.5.5,0,0,0-.18-.56,4,4,0,0,0-1-.66.49.49,0,0,0-.61.1,2.43,2.43,0,0,0-.42.51.24.24,0,0,1-.27.14c-.13,0-.11-.14-.15-.22a1.69,1.69,0,0,0-.7-1c-.34-.18-.66-.4-1-.61a.38.38,0,0,0-.33-.07.52.52,0,0,1-.16,0A10.06,10.06,0,0,0,13,7.08a15.05,15.05,0,0,0-1.59.6c-.13.05-.17.14-.17.29A1.25,1.25,0,0,0,12,9.17a1,1,0,0,1,.48.72c.09.37.35.48.65.58a.26.26,0,0,0,.35-.19c.06-.16.11-.33.15-.49a.29.29,0,0,1,.24-.23,12.14,12.14,0,0,1,1.44-.29.79.79,0,0,1,.7.21c.14.14.32.23.42.42a1.22,1.22,0,0,1-.16,1.37.21.21,0,0,1-.15.09,1.7,1.7,0,0,0-.57.16c-.11.05-.19,0-.27-.06l-.24-.17c-.21-.17-.3-.16-.45.06l-.45.65c-.09.13-.08.27.07.33a1,1,0,0,1,.6.93c0,.17,0,.32-.09.44s-.09.48-.14.73a3.41,3.41,0,0,0,0,.52.92.92,0,0,0,.48.81l.74.47a5.25,5.25,0,0,1,.92.66,1.06,1.06,0,0,0,.41.23c.12,0,.18,0,.22-.11C17.52,16.64,20.58,9.21,20.72,9.07Z"/></g><g id="junkrat"><path d="M29.68,20.83a1.87,1.87,0,0,0-.3-2c-1.18-1.33-1.95-2-1.44-3s.93-1.86.69-1.92-.11.37-1.18,1S26.16,16,26.12,16.17s-.44-.33-.35-.85A2.82,2.82,0,0,0,25,11.93c-1.73-1.43-.12-2.58,1.2-3.14,0,0,.27-.31-.35-.18a6.63,6.63,0,0,0-3.76,2c-.7.79-.22,1.17-.79.63a3.91,3.91,0,0,1-.1-3.88c.1-.13-1.36,0-2.13,2a6.17,6.17,0,0,0-.47,2.32c0,.45,0,.8-.28.11a9.54,9.54,0,0,1-1-2.64,5,5,0,0,1,.49-2.8c.21-.37-.41-.13-1.11,1a4.81,4.81,0,0,0-.85,2.32c0,.49-.11.59-.33.19s-.91-1.29-.84-.67-.46,1.41-.78,2.46a3.17,3.17,0,0,0,0,2.78s.82.82.24,1.15-.91.65-1,.95-.14.29-.2,0-.83-1.54-3.38-1.54c-1.27,0-1.31.11-1.12.15s2.7,1.3,2.23,2.76c-.56,1.75-.94,2.52-.19,3.39s1.5.68,1.08,1.43-.61,1-.51,1.34,1.09,1.25,1.17,1.48a4.25,4.25,0,0,0,.18.42c.19,0,0-.18.16-1s.54-1.09.72-1.09.36.06.68,1,.63,2.47.66,2.05-.26-3.45.24-4.57a2.7,2.7,0,0,0,.32-2.14,5.62,5.62,0,0,1,.18-2.32c.17-.57.18-1,.37-.79s.25.09.31,0,0-.34.48.28,1.78,1.18,2.13,1.46.37.31.33.59a2.06,2.06,0,0,0,.66,1.37c.44.4.36.32.39-.14a2.75,2.75,0,0,1,.35-1.49c.33-.46.18-.18.15.08a6.92,6.92,0,0,1-.13.94c-.06.17-.19.39.48-.08a4.87,4.87,0,0,0,1.68-2,5.9,5.9,0,0,0,.65-1.84c0-.32-.06-.57.23-.36a3.66,3.66,0,0,1,1.41,1.56A6,6,0,0,1,25.39,19c0,.24.08.42.12-.06a8.47,8.47,0,0,1,.08-.94c0-.24.16-.57.21-.06A18.06,18.06,0,0,1,26,21c-.07,1,.07,1.09.3,1s.49-.16.39.85-.2,3.61.19,2.5.77-1.66,1-1.7.67.52.62,1.37,0,.73.37.43A4.64,4.64,0,0,0,31,22.54C31.1,21.83,29.81,20.81,29.68,20.83Zm-.59,1.84c-.54.3-.26-.13-.11-.52a11.6,11.6,0,0,0,.69-1.28A1.46,1.46,0,0,1,29.09,22.67Z"/><path d="M9.23,13.24a3.41,3.41,0,0,1-.12-.69c0-.12,0-.47-.07-.29a3.91,3.91,0,0,0,.13,1.66C9.37,14.16,9.31,13.54,9.23,13.24Z"/><path d="M13.86,6.78c-.23.24.48.38.43-.87s-.48-1.67,0-2.55c.28-.51-.85.58-.83,2.54C13.46,6.63,14.09,6.54,13.86,6.78Z"/><path d="M18.45,5.46c0-.07-.35.27-.46.48s.14,0,.23-.08S18.5,5.53,18.45,5.46Z"/><path d="M20,7.46s0,.05.07,0l.11-.06c.15-.06.36-.16.56-.26a2.14,2.14,0,0,0,.39-.2.56.56,0,0,0,.21-.53,1.91,1.91,0,0,0,0-.24c0-.16-.13.18-.36.4l-.2.14a1.49,1.49,0,0,0-.38.26,1.79,1.79,0,0,0-.43.43S20,7.46,20,7.46Z"/><path d="M21.68,5.73c.26-.15.41-.55.39-1.36s-.11-.22-.3.48S20.81,6,21,6A1.93,1.93,0,0,0,21.68,5.73Z"/><path d="M28.24,7.48c.24-1.13.14-1.38,0-.89a4.52,4.52,0,0,1-1.45,1.65C26.72,8.29,28.07,8.31,28.24,7.48Z"/><path d="M20.91,32.38c0-.51-.74-.4-1.08-.42s-.36.65-.45,1,1.2.71,1.54.74A10.07,10.07,0,0,0,20.91,32.38Z"/><path d="M19.21,31.84c-.14-.07-1-.19-1.28-.28s-.26,0-.27.27a.48.48,0,0,0,.2.48c.16.14.78.44,1.26.71.15.08.14-.16.14-.28s0-.17.08-.46S19.36,31.92,19.21,31.84Z"/><path d="M17.1,31.29c-.26-.08-.27,0-.4.17s.44.42.69.58c0,0,.07,0,0-.21S17.36,31.38,17.1,31.29Z"/><path d="M16.39,30.55c0-.28-.16-.12-.34-.06s-.28.18-.19.35a1.47,1.47,0,0,0,.5.57c.15.1.27-.22.23-.29A1.49,1.49,0,0,1,16.39,30.55Z"/><path d="M22.22,31.83c-.44.32-1.15.2-1.08.42.17.48-.1,1.47,0,1.46.34,0,1.64-.35,1.54-.74S22.5,31.63,22.22,31.83Z"/><path d="M23.87,31.53a10.14,10.14,0,0,0-1,.29c-.14.07-.18.13-.13.43s.07.34.08.46,0,.37.14.28c.48-.27,1.1-.57,1.26-.71s0-.22-.05-.48S24.2,31.44,23.87,31.53Z"/><path d="M24.86,31.14c-.38.12-.49.17-.54.47a1.08,1.08,0,0,0,.12.59c.35-.23,1.16-.57,1-.83S25.24,31,24.86,31.14Z"/><path d="M26,30.47c-.18-.06-.3-.23-.34.06a1.49,1.49,0,0,1-.2.57c0,.07.07.39.23.29a1.47,1.47,0,0,0,.5-.57C26.28,30.65,26.18,30.53,26,30.47Z"/></g></svg>