<svg xmlns="http://www.w3.org/2000/svg" viewBox="0 0 40 40"><defs><style>.cls-1{fill-rule:evenodd;}</style></defs><title>lucio</title><g id="wallride"><g id="_Group_" data-name="&lt;Group&gt;"><path id="_Path_" data-name="&lt;Path&gt;" d="M33.87,20.95c-.59-.86-1.17-1.72-1.77-2.57s-.88-.86-1.71-.11a1.08,1.08,0,0,0-.14.15,1,1,0,0,1-.73.35c-.49,0-1,.11-1.47.11-1.05,0-1.44-.37-1.19-1.15.37-1.21,1.83-2.88,2.52-4a1.69,1.69,0,0,0,.24-.72c-.21-.06-.34,0-.49.06-.32,0-.43-.06-.44-.34a3,3,0,0,0-.57-1.88,9.59,9.59,0,0,0-2.69-2.08,4.53,4.53,0,0,1,1.39-.55L27,8.13a4.1,4.1,0,0,0-1.88-.49C22,7.41,14.72,9.32,12.49,13c-.47.79-.78,1.66-1.27,2.43-.55-.39-.33-1-.41-.86a22.92,22.92,0,0,0-3.44,12.2c-.92.15-1.28-.51-1.28-.35.06,2,2.26,4.29,4.75,4.93.4.1.54,0,.48-.3A11.82,11.82,0,0,1,11,29a1.14,1.14,0,0,1,.86-1.23c.68-.27,1.44-.62,2.17-.88.21-.07.38-.19.06-.36C13,26,13,25.22,13,24.16c0-1.76,3.1-12.19,10.24-12a3,3,0,0,1,2.32.77c.9,1.27-.26,3.42-1.06,4.71a5.72,5.72,0,0,0-.6,1.18c-.32,1,.14,1.52,1.41,1.76a8.76,8.76,0,0,0,2.43.26c-.32.28-.53.46-.72.65s-.35.28-.2.48.41.15.64.12c2-.23,4.1-.47,6.15-.68C34.1,21.36,34.06,21.22,33.87,20.95Z"/><path id="_Path_2" data-name="&lt;Path&gt;" d="M12,29.6c-.18-1.12.38-1.53,1.49-2,.26-.15.58-.24.81-.35a3.46,3.46,0,0,1,2.08-.31c.1,0,.22,0,.24.11s-.1.15-.19.2c-.71.35-1.4.74-2.14,1-.57.24-.78.55-.68,1A20.53,20.53,0,0,0,14,31.57c.1.31,0,.4-.42.34-1.41-.2-1.32-.18-1.48-1.26C12.1,30.3,12,29.95,12,29.6Z"/><path id="_Path_3" data-name="&lt;Path&gt;" d="M20.52,27.1c.08.2-.12.31-.31.39-.71.3-2.63,1.31-3.08,1.52s-.52.34-.44.77a18.82,18.82,0,0,0,.62,1.78c.13.51.27.54-.12.77A1.55,1.55,0,0,1,15.9,32a8.92,8.92,0,0,1-.74-2.66c0-.19.1-.31.27-.43a30.86,30.86,0,0,1,3.2-1.79A3.36,3.36,0,0,1,20.52,27.1Z"/><path id="_Path_4" data-name="&lt;Path&gt;" d="M30.31,11.06a5.83,5.83,0,0,0-1.7-2c-.22-.16-.07-.22.16-.24,1-.1,1.45.17,1.51.95A2.71,2.71,0,0,1,30.31,11.06Z"/></g></g><g id="soundwave"><g id="_Group_2" data-name="&lt;Group&gt;"><path id="_Path_5" data-name="&lt;Path&gt;" d="M8.51,29.35A.59.59,0,0,1,8,29.1,10.89,10.89,0,0,1,6.81,20a18,18,0,0,1,5.49-8.59.82.82,0,0,1,1.13-.08.81.81,0,0,1-.21,1.11A15.82,15.82,0,0,0,8.38,20a9.59,9.59,0,0,0,1.05,8,.86.86,0,0,1-.32,1.11A1,1,0,0,1,8.51,29.35Z"/><path id="_Path_6" data-name="&lt;Path&gt;" d="M26.62,29.24a.6.6,0,0,1-.48-.21.83.83,0,0,1,.26-1.11A15.87,15.87,0,0,0,31.62,20,9.83,9.83,0,0,0,31,12.81a.91.91,0,0,1,.42-1.1.72.72,0,0,1,1.07.13A11.16,11.16,0,0,1,33.19,20a18,18,0,0,1-5.92,9A1,1,0,0,1,26.62,29.24Z"/><path id="_Path_7" data-name="&lt;Path&gt;" d="M11.73,28.17a.61.61,0,0,1-.45-.18,8.25,8.25,0,0,1-1.62-8,14.41,14.41,0,0,1,5.82-7.93.74.74,0,0,1,1.08.1.89.89,0,0,1-.39,1.11A12.23,12.23,0,0,0,11.22,20a7,7,0,0,0,1.38,6.77.8.8,0,0,1-.19,1.1A1,1,0,0,1,11.73,28.17Z"/><path id="_Path_8" data-name="&lt;Path&gt;" d="M24.17,28a.58.58,0,0,1-.52-.27A.88.88,0,0,1,24,26.61,12.22,12.22,0,0,0,28.77,20a7.07,7.07,0,0,0-1.23-6.61.93.93,0,0,1,1.35-1.18A8.33,8.33,0,0,1,30.34,20a14.4,14.4,0,0,1-5.6,7.77A1,1,0,0,1,24.17,28Z"/><path id="_Path_9" data-name="&lt;Path&gt;" d="M14.63,26.27a.62.62,0,0,1-.4-.13A5.76,5.76,0,0,1,12.61,20a10.43,10.43,0,0,1,4.9-6.13.69.69,0,0,1,1,.21,1,1,0,0,1-.5,1.09A8.21,8.21,0,0,0,14.18,20a4.53,4.53,0,0,0,1.27,4.83.75.75,0,0,1-.08,1.09A1.06,1.06,0,0,1,14.63,26.27Z"/><path id="_Path_10" data-name="&lt;Path&gt;" d="M22.19,26.17a.58.58,0,0,1-.55-.33.93.93,0,0,1,.47-1.09A8.22,8.22,0,0,0,25.82,20a4.53,4.53,0,0,0-1.27-4.83.75.75,0,0,1,.08-1.09.88.88,0,0,1,1.15-.21A5.76,5.76,0,0,1,27.39,20a10.43,10.43,0,0,1-4.7,6A1,1,0,0,1,22.19,26.17Z"/><path id="_Compound_Path_" data-name="&lt;Compound Path&gt;" d="M18.78,24.56A3.38,3.38,0,0,1,15.45,20a6.37,6.37,0,0,1,5.77-4.55A3.38,3.38,0,0,1,24.55,20,6.37,6.37,0,0,1,18.78,24.56Zm2-7.53A4.17,4.17,0,0,0,17,20a2.21,2.21,0,0,0,2.18,3A4.17,4.17,0,0,0,23,20,2.21,2.21,0,0,0,20.8,17Z"/></g></g><g id="soundbarrier"><g id="_Group_3" data-name="&lt;Group&gt;"><path id="_Compound_Path_2" data-name="&lt;Compound Path&gt;" d="M19.39,29.49a4.91,4.91,0,0,1-3.26-1.61,10.57,10.57,0,0,0-3.58-2.18,4.12,4.12,0,0,1-2.45-3.26.72.72,0,0,1,.29-.81,2.87,2.87,0,0,0,1-1.93,11.68,11.68,0,0,1,1.09-3.1.88.88,0,0,1,.82-.49,4.15,4.15,0,0,1,3.19.89.92.92,0,0,0,1,.09,7.18,7.18,0,0,1,5,0,1,1,0,0,0,1-.12,4.17,4.17,0,0,1,3.2-.86.79.79,0,0,1,.73.43,12.81,12.81,0,0,1,1.23,3.57,2.23,2.23,0,0,0,.81,1.38,1,1,0,0,1,.35,1.24,4,4,0,0,1-2.49,3,10.1,10.1,0,0,0-3.47,2.12,4.93,4.93,0,0,1-3.26,1.61ZM16,20.55a3.9,3.9,0,0,1,0-.39,1.46,1.46,0,0,0-2.09-1.28A1.62,1.62,0,0,0,13,20.6a1.62,1.62,0,0,0,1.89,1.54C15.7,22.11,16,21.71,16,20.55Zm8,.07c0,1.12.32,1.53,1.19,1.52A1.6,1.6,0,0,0,27,20.44c0-1.09-.59-1.73-1.56-1.71S24,19.38,24,20.62Zm-4.08,3.16h.37a5.35,5.35,0,0,0,3.14-1.2c.16-.11.39-.28.26-.48s-.33,0-.48.09-.57.32-.85.48a4.34,4.34,0,0,1-3.64.49,12.16,12.16,0,0,1-1.91-1c-.16-.08-.37-.34-.52-.09s.13.37.29.48A5.21,5.21,0,0,0,19.92,23.78Z"/><path id="_Path_11" data-name="&lt;Path&gt;" d="M21.35,10.51a3.79,3.79,0,0,0,1,.15,8.56,8.56,0,0,1,5.86,3.83,15.87,15.87,0,0,1,1.24,2.17,1.51,1.51,0,0,0,1.18.92c.35.07.45.26.46.59,0,2.1.09,4.2.13,6.3,0,.38-1,1-1.27.8s-.12-.32-.06-.49c.2-.6.39-1.2.62-1.79a1.16,1.16,0,0,0-.29-1.44,3,3,0,0,1-1-2,11.4,11.4,0,0,0-1.08-3.43,7.45,7.45,0,0,0-5.29-4.24,19,19,0,0,0-4.68-.15A7.34,7.34,0,0,0,14,13.31a7,7,0,0,0-2.45,3.2,15.45,15.45,0,0,0-1,3.4,2.27,2.27,0,0,1-.76,1.48,1.34,1.34,0,0,0-.37,1.7c.23.54.4,1.11.59,1.67.05.15.14.32,0,.46s-.31,0-.46,0c-.88-.28-.88-.28-.86-1.23,0-1.88.09-3.75.12-5.63,0-.44.08-.72.59-.81a1.21,1.21,0,0,0,1-.83,13.36,13.36,0,0,1,.68-1.23,9.06,9.06,0,0,1,4.14-4.1,6.6,6.6,0,0,1,2.63-.75,2,2,0,0,0,.72-.12Z"/><path id="_Path_12" data-name="&lt;Path&gt;" d="M6.29,19.33c.17-.29,0-.74.33-.94a7.39,7.39,0,0,1,1.69-.5c.26-.07.23.16.23.31,0,2.05,0,4.11,0,6.16,0,.33-.13.39-.41.26-.11-.05-.23-.08-.34-.13C6.45,24,6.43,24,6.4,22.55a13.2,13.2,0,0,0-.1-2.13Z"/><path id="_Path_13" data-name="&lt;Path&gt;" d="M33.71,20.43a10.88,10.88,0,0,0-.09,2.49,1.28,1.28,0,0,1-.9,1.39c-1.21.54-1.2.56-1.21-.74,0-1.73,0-3.46-.05-5.19,0-.44.09-.61.53-.42a1.08,1.08,0,0,0,.29.08c.84.1,1.46.43,1.43,1.41Z"/></g></g><g id="ampitup"><path id="_Path_14" data-name="&lt;Path&gt;" d="M26.89,27.08l-4.61-3a1.29,1.29,0,1,1,1.42-2.15l4.49,3a8.82,8.82,0,1,0-1.3,2.24Z"/><g id="_Group_4" data-name="&lt;Group&gt;"><path id="_Path_15" data-name="&lt;Path&gt;" d="M33,21.48A13.06,13.06,0,0,0,21.79,8.57c-.19.49-.92,2.49-.92,2.49A10.46,10.46,0,0,1,27,29.28h0a1.29,1.29,0,0,0,1.71,1.92h0l.08-.07.06-.05A13.06,13.06,0,0,0,33,21.48Z"/><path id="_Path_16" data-name="&lt;Path&gt;" d="M19.29,11c-.25-.83-.46-1.69-.69-2.53A13,13,0,0,0,11,31l.08.08.06.06h0a1.29,1.29,0,0,0,1.73-1.89h0A10.46,10.46,0,0,1,19.29,11Z"/></g></g><g id="crossfade"><g id="_Group_5" data-name="&lt;Group&gt;"><path id="_Path_17" data-name="&lt;Path&gt;" d="M24.12,26,17.24,14a3.3,3.3,0,0,0-3-1.58h-.33l.51-1.92L10,13.65l2.74,3.12.53-2h.33a1.57,1.57,0,0,1,1.42.75l6.88,11.92a3.3,3.3,0,0,0,3,1.58h2.41l.62-2.33H25.54A1.58,1.58,0,0,1,24.12,26Z"/><path id="_Path_18" data-name="&lt;Path&gt;" d="M12.89,25.65a3.92,3.92,0,0,1-2.55,1.05h-2L7.7,29h2a7,7,0,0,0,4.55-1.88l4.5-4-1-1.79Z"/><path id="_Path_19" data-name="&lt;Path&gt;" d="M26.87,15.83a3.94,3.94,0,0,1,2.49-1.05l-.53,2,4.41-3.12-2.74-3.12L30,12.45a7,7,0,0,0-4.49,1.88l-4.88,4.38,1.09,1.76Z"/></g><g id="_Group_6" data-name="&lt;Group&gt;"><path id="_Path_20" data-name="&lt;Path&gt;" class="cls-1" d="M13.14,22.59H11l-.56,2.18a.42.42,0,0,1-.42.32H8.46a.53.53,0,0,1-.51-.64l.48-1.86H6.61A.53.53,0,0,1,6.1,22l.41-1.59A.42.42,0,0,1,6.94,20H9.09l.56-2.18a.42.42,0,0,1,.42-.32h1.54a.53.53,0,0,1,.51.64L11.64,20h1.82a.53.53,0,0,1,.51.64l-.41,1.59A.42.42,0,0,1,13.14,22.59Z"/></g><g id="_Group_7" data-name="&lt;Group&gt;"><g id="_Group_8" data-name="&lt;Group&gt;"><path id="_Path_21" data-name="&lt;Path&gt;" d="M27.53,18.14h-2c-.4,0-.73.48-.52.77L26.53,21a.48.48,0,0,1-.17.63l-2.65,2.09c-.36.28-.29.77.11.77h2a.58.58,0,0,0,.35-.13l3.46-2.73a.48.48,0,0,0,.17-.63l-2-2.73A.34.34,0,0,0,27.53,18.14Z"/></g><g id="_Group_9" data-name="&lt;Group&gt;"><path id="_Path_22" data-name="&lt;Path&gt;" d="M31.57,18.14h-2c-.4,0-.73.48-.52.77L30.57,21a.48.48,0,0,1-.17.63l-2.65,2.09c-.36.28-.29.77.11.77h2a.58.58,0,0,0,.35-.13l3.46-2.73a.48.48,0,0,0,.17-.63l-2-2.73A.34.34,0,0,0,31.57,18.14Z"/></g></g></g><g id="lucio"><path d="M14.18,27.12c0-.25-.1-.07-.15-.07a15.4,15.4,0,0,1-.58-1.49c-.16-.43-.29.76-.34,1.22a1.57,1.57,0,0,0,.74,1.11C14,27.89,14.17,27.37,14.18,27.12Z"/><path d="M25.64,30c0-.43,0-1.43,0-1.78s-.08-.87-.71-.87-2.92-.08-5.05-.08h0c-2.13,0-4.42.08-5.05.08s-.42.53-1.11.82a9.53,9.53,0,0,0,.07,1.78c0,.78,2.56,1.48,3,1.48.8,0,1.55-1.12,3.09-1.12s2.24,1.12,3,1.12C23.39,31.41,25.64,30.76,25.64,30Z"/><path d="M26.41,24.64c-.09-.05-.31.18-.2.28a1.62,1.62,0,0,1,.53,1.39c0-.65-.57-1.3-.64-1.16s-.41,1-.57,1.37.14,1,.29,1a25.75,25.75,0,0,1,0,3.44A10.84,10.84,0,0,0,26,32.09c0,.24-.21.46-.45.88a.78.78,0,0,0,0,.86c.09.17.13.17.26.14s1.71-1.08,2.24-1.42.51-.43.51-.61,0-.49,0-.68.07-.22.23-.39.16-.11.16-.42V26.36A17.53,17.53,0,0,0,26.41,24.64Z"/><path d="M14.52,22.19c-1.27.74-1.12,1.33-1.14,2.48a5.78,5.78,0,0,0,.53,1.58,1.78,1.78,0,0,0,.6.93c.2.09.19-.57.25-.86s0-.56.13-.43.29-.05.4-.14a6.57,6.57,0,0,0-.1-1.5c0-.42-.12-.57.08-.52a5.29,5.29,0,0,0,1.41,0,5.56,5.56,0,0,0,.27-.73,9.77,9.77,0,0,0-1.2-.93c-.23-.14-.31-.25-.11-.38s.67-1,.77-.82-.47.7-.4.81a2.37,2.37,0,0,0,.76.53,8.63,8.63,0,0,1,1.38,1.23c.14.12.56-1.09.65-1.25a5.21,5.21,0,0,0,.13-1c0-.35-.1-.31-.51-.4s-.18-.11,0-.4.29-.57.37-.55c.27.08,0,.54-.09.63s.36.23.58.31.15.1,0,.64a2.18,2.18,0,0,0,.11,1.24,7,7,0,0,0,.26.89c.07,0,1.06-.88,1.47-1.15a6.55,6.55,0,0,0,.84-.71c.14-.21-.31-.56-.77-.78s-.22-.26,0-.43.85-.42.94-.33-.73.42-.62.56c.39.47,1.08.78,1,1a7.27,7.27,0,0,1-1,1.15,1.87,1.87,0,0,0,.06,1,11.5,11.5,0,0,1,1.26-1c.83-.48,1.32-1.12,1.68-1.2s-.66,1.09-.77,1.13,0,.33,0,.92.57.14.79-.09.17.09.28.84a6.18,6.18,0,0,0,.38,1.7,5.22,5.22,0,0,0,.83-2,1.42,1.42,0,0,0-.72-1.63,1.83,1.83,0,0,0-1.59-2.23,2.82,2.82,0,0,0-.84-.91v-.2l.24.09c.36.11.37.06.37-1.48s-2.7-2.1-3.74-2.1-3.73.56-3.73,2.1,0,1.59.37,1.48c.19-.06.23-.11.41-.15v.27a2.75,2.75,0,0,0-.68.56c-.25.24-.66.22-1.06.62a1,1,0,0,0-.38,1.08C14.86,22.05,14.79,22,14.52,22.19Z"/><path d="M32.53,24.25c-.1-.71-.12-2-.68-2.14a19,19,0,0,0-2.52-6.66c-.6-4.34-2.37-9.07-5.86-9.07a3.22,3.22,0,0,0-3.39,2.25,3.22,3.22,0,0,0-3.39-2.25c-3.49,0-5.26,4.73-5.86,9.07A19,19,0,0,0,8.31,22.1c-.56.14-.58,1.43-.68,2.14S7.16,26,9,26.42c2,.47,2.27-.5,2.33-.78s.28-1.46.39-2c.06-.29.07-.43-.07-.56v0c2,.15,2.09-.82,2.11-1.1s.07-1.48.1-2.06c0-.38,0-.5-.31-.64,0,0,0,0,0-.07.07-.38.14-1.14.25-2.06.62-1,1.33-1.71,2.07-1.71a1.21,1.21,0,0,1,1.2.75,6.26,6.26,0,0,1,2.77-.73,5.78,5.78,0,0,1,3.16,1,1.24,1.24,0,0,1,1.29-1c.74,0,1.45.71,2.07,1.71.11.92.18,1.68.25,2.06,0,0,0,0,0,.07-.31.14-.33.26-.31.64,0,.57.08,1.77.1,2.06s.16,1.26,2.11,1.1v0c-.13.13-.12.27-.07.56.11.56.32,1.74.39,2s.34,1.25,2.33.78C33,26,32.64,25,32.53,24.25ZM16,11.6a4,4,0,0,0-1,.14c.36-.74.82-1.22,1.41-1.22s1,.66,1.12,1.51A3,3,0,0,0,16,11.6Zm8.08,0a3,3,0,0,0-1.5.44c.13-.86.44-1.51,1.12-1.51s1,.48,1.41,1.22A4,4,0,0,0,24.12,11.6Z"/></g></svg>