<svg xmlns="http://www.w3.org/2000/svg" viewBox="0 0 40 40"><title>mccree</title><g id="deadeye"><g id="_Group_" data-name="&lt;Group&gt;"><path id="_Compound_Path_" data-name="&lt;Compound Path&gt;" d="M21.95,7.36a.21.21,0,0,0-.2,0l-.36-.07h-.13l-.18,0-.26,0-.07,0L20,7.09c-.4,0-.79,0-1.19.08l-.06,0-.56.11a.21.21,0,0,0-.2,0C12.71,8.53,6.42,11.62,8.55,18a.3.3,0,0,0,0,.23,6.74,6.74,0,0,0,.71,1.15c1.39-.2,2.77-.39,4.17-.53,0-1.94.39-3.61,1.64-3.13a.45.45,0,0,1,.28.52,18.54,18.54,0,0,1,.07,2.44,25.94,25.94,0,0,1,2.95-.21,4.62,4.62,0,0,1-.29,1.89c-.39,0-.78.05-1.18.06a8.38,8.38,0,0,1-1.28.17l-.16,0c0,.83.13,1.66.13,2.48a.39.39,0,0,1-.12.29.35.35,0,0,1-.22.33,3.48,3.48,0,0,1-.87.32.43.43,0,0,1-.53-.3c-.05-.27-.23-1.41-.33-2.76l-.76.1c-.72.12-1.42.31-2.13.47a6.22,6.22,0,0,1-1,1.67c-.45.55-1,.9-.95,1.65,0,0,0,.08,0,.12.47.52.8,1.17,1.33,1.68,1.2,1.15,3.4,0,4.79-.24.25,0,.43.3.37.54-.23.93-.5,1.82-.71,2.73a15.52,15.52,0,0,0,4.81,3.5.78.78,0,0,0,.36.21l.17,0a.89.89,0,0,0,.79-.21v.05a15.43,15.43,0,0,0,5-3.59c-.21-.91-.48-1.8-.71-2.73-.06-.24.12-.58.37-.54,1.4.2,3.59,1.39,4.79.24.53-.51.86-1.16,1.33-1.68,0,0,0-.08,0-.12,0-.74-.49-1.1-.95-1.65a6.08,6.08,0,0,1-1.05-1.77c.55-1.19,1.55-2,2.11-3.2a.3.3,0,0,0,0-.23C33.58,11.62,27.29,8.53,21.95,7.36ZM21.1,25.51a1.42,1.42,0,0,1-.8-.53,1.55,1.55,0,0,1-.29-.29,2.1,2.1,0,0,1-.4.4,1.33,1.33,0,0,1-.7.41.4.4,0,0,1-.48-.41A10.74,10.74,0,0,1,19,22.47c.19-.51.44-1.11.9-1.27v0l.2,0v0c.46.15.71.75.9,1.27a10.74,10.74,0,0,1,.57,2.62A.4.4,0,0,1,21.1,25.51Zm7-3.91-.07,0-.51.43-.43.3c-.34.12-.68.24-1,.35a13.06,13.06,0,0,1-2.17.14,4.2,4.2,0,0,1-1.64-1,2.41,2.41,0,0,0-.24-.49s0-.08,0-.13l-.13-.06a2.27,2.27,0,0,0-.73-.59.8.8,0,0,1-.07-.14c.5-.58,1.51-.79,2.14-1.12h0a5.51,5.51,0,0,0,.68-.23c.7-.3,1.26-.81,2-1.08a3.1,3.1,0,0,1,2.05.14c.14.16.28.33.41.5a1.41,1.41,0,0,1,0,.15A4.26,4.26,0,0,1,28.15,21.6Z"/></g></g><g id="flashbang"><g id="_Group_2" data-name="&lt;Group&gt;"><path id="_Path_" data-name="&lt;Path&gt;" d="M33.63,15.72q-4.57.15-9.15-.07A7.57,7.57,0,0,0,23.7,15a1.91,1.91,0,0,1,0-.27c0-.26-.05-.91-.08-1.7a6.34,6.34,0,0,1,1.83,1.61l0,0c.09.15.33,0,.24-.16a8.61,8.61,0,0,0-2.15-2.63c0-.75-.06-1.51-.08-2.09a.29.29,0,0,0-.5-.2c-1.09,1.09-2.94,3-3.24,3.33a.58.58,0,0,1-1-.07l-.59-.73a2.56,2.56,0,0,1,1.15-.55.12.12,0,0,0,.09-.07l.29-.06.06,0c.14,0,.18-.25,0-.28l-.35,0h0a4.55,4.55,0,0,0-1.84.27c-.78-1-1.77-2.16-2.49-3.05a.18.18,0,0,0-.31.16c.19.65.42,1.49.64,2.28a3.58,3.58,0,0,0-.89.56,2.15,2.15,0,0,0-.85,1.2.16.16,0,0,0,.26.13,2.53,2.53,0,0,1,1.72-1c.2.74.36,1.36.41,1.63.08.42.07.8-.41,1a1.32,1.32,0,0,0-.34.26.29.29,0,0,1-.43,0c-.3-.24-.9-.86-1.35-1.34a.25.25,0,0,0-.43.22,15.61,15.61,0,0,1,.37,3.05,7.47,7.47,0,0,0-1.55,4l-.25.27a5.29,5.29,0,0,0-.63.57l-.5.42a8.61,8.61,0,0,1,.08-1.44,2.85,2.85,0,0,1,.19-1.45l0,0a2.94,2.94,0,0,1,.16-.49.12.12,0,0,0-.15,0,6,6,0,0,0-1.37,4.18L8.55,23C8,23.39,6,24.47,5.74,24.68c.51-.07,1-.15,1.49-.23h0L9.69,24c.3,1.41,1.75,2.62,2.85,3.39.1.07.2,0,.21-.12a1,1,0,0,1-.14-.19l-.14-.1a8.43,8.43,0,0,1-1.7-3.19l1.43-.27a7.51,7.51,0,0,0,1.89,3,1.55,1.55,0,0,1,.06.4,18.05,18.05,0,0,1-.48,3.28.31.31,0,0,0,.48.33c1.07-.69,3.12-2,3.54-1.8a1.26,1.26,0,0,0,.34.14,5.93,5.93,0,0,0,3.47-.35.51.51,0,0,1,.52,0l.83.53a7.86,7.86,0,0,1-2,.85.09.09,0,0,0-.07.09c-.13,0-.17.25,0,.27a4.79,4.79,0,0,0,3.08-.59l2.43,1.56a.25.25,0,0,0,.35-.32c-.68-1.27-1.3-2.58-1.88-3.9a2.56,2.56,0,0,1-.17-.49,7.54,7.54,0,0,0,1-1.19c.78.22,1.9.62,3,1l-.19.24h.06a4.83,4.83,0,0,1-.9.89.15.15,0,0,0,.11.27l.43-.12a1.87,1.87,0,0,0,1.34-1l1.6.59a.18.18,0,0,0,.17-.3L29.8,25.81a3.51,3.51,0,0,0,.06-2.3.15.15,0,0,0-.29,0,3.4,3.4,0,0,1-.38,1.6h0l0,.11c-1-.79-1.94-1.62-2.57-2.19a7.25,7.25,0,0,0,.2-2.91l.25-.11.06.08,0,.06h0a3.92,3.92,0,0,1,.62,2.5.12.12,0,0,0,.05.11.15.15,0,0,0,.28,0,6.09,6.09,0,0,0,0-3.33,63.52,63.52,0,0,1,5.66-3.35A.22.22,0,0,0,33.63,15.72Z"/></g></g><g id="combatroll"><g id="_Group_3" data-name="&lt;Group&gt;"><g id="_Group_4" data-name="&lt;Group&gt;"><path id="_Path_2" data-name="&lt;Path&gt;" d="M12,15.52a20.68,20.68,0,0,0-2.55,1A18.93,18.93,0,0,0,7.29,18a3,3,0,0,1,.6-1.14A34.27,34.27,0,0,1,12,12.22a21.55,21.55,0,0,1,3.7-3.09c.09-.05.23-.11.19-.24s-.18-.11-.29-.11a10.76,10.76,0,0,1-1.48-.17c-.09,0-.2,0-.25-.11s.13-.13.21-.16a15.71,15.71,0,0,1,6.47-.83,13.49,13.49,0,0,1,10.07,6.05,13.18,13.18,0,0,1,2.23,6.28,11.45,11.45,0,0,1-2.57,8.91,10.87,10.87,0,0,1-7.07,3.82,5.07,5.07,0,0,1-4.77-2.1,8.28,8.28,0,0,1-.92-1.42c-.16-.29-.29-.29-.46,0s-.42.65-.64,1c-.1.14-.16.35-.39.31s-.23-.26-.26-.43a11,11,0,0,1-.09-4c.09-.46.13-.93.22-1.38s.27-.56.7-.48A20.16,20.16,0,0,1,21,25.51c.14.06.28.15.27.33s-.16.24-.3.3c-.48.22-1,.42-1.43.65s-.4.26-.07.53a5,5,0,0,0,8.18-4,8,8,0,0,0-1.85-5.56,8.22,8.22,0,0,0-5.27-2.83,9.23,9.23,0,0,0-6.7,1.45,6.74,6.74,0,0,0-2.39,2.52,2.65,2.65,0,0,1-.15.25c-.06.09-.12.21-.25.17s-.1-.17-.1-.28A6,6,0,0,1,11.74,16Z"/><path id="_Path_3" data-name="&lt;Path&gt;" d="M7.11,13A4.47,4.47,0,0,1,12,10a23.49,23.49,0,0,0-4.69,3.19A.15.15,0,0,1,7.11,13Z"/></g></g></g><g id="mccree"><path d="M36,18.83c-.13-.67.61-1-1.93-.88-2.34.15-6.37.41-7.36-.1-.32.82-.43.71-.58.66s-.37,0,.16-1.6l.06-.16,0-.28-.13.4c-.53,1.58-.65,1.43-.83,1.37s-.37,0,.16-1.6a4.1,4.1,0,0,1,.61-1.38c-.13-.82-.24-1.63-.29-2.16-.12-1.22-.79-1.45-1.67-2.11a26.36,26.36,0,0,0-3.34-2,14.85,14.85,0,0,0-2.37.51,25.65,25.65,0,0,0-3.21,1.09c-.42.15-.82,1.25-1.48,2.59h0c.19,0,.36-.06.28,1.61s-.23,1.56-.42,1.55-.36.09-.28-1.58c0-.41,0-.72.07-.95l-.18.33c0,.17,0,.37,0,.61-.08,1.67-.23,1.56-.42,1.55s-.33.07-.29-1.17a2.1,2.1,0,0,1-1,.13,11.22,11.22,0,0,1-4.52-.75c-1.43-.67-2.59-1.41-2.76-1.07s-.49.8-.39.87.19.08.09.26-.16.32,0,.48,1.41,2.24,7.33,4.23a4.44,4.44,0,0,1-1.93.83A4.4,4.4,0,0,0,11.9,20a6.21,6.21,0,0,0-1.25,2.49s.6-.9,1-.88a7.09,7.09,0,0,0-.13,2.05l0,0a2.27,2.27,0,0,1,1.08-1.22,5.6,5.6,0,0,0,.37,1.8,6.9,6.9,0,0,0,2,1.3c.26,0-.16-.16-.3-.8a5.71,5.71,0,0,1-.24-1.65,5.8,5.8,0,0,0,.06-1.31c0-.46-.07-1.1.31-1.41a.07.07,0,0,0,0-.05A67.66,67.66,0,0,0,24.9,22.73a2.71,2.71,0,0,0-.44,1,11.8,11.8,0,0,1-.58,1.89s.24,0,.61-.36a1.28,1.28,0,0,1,.1,1.09A6.19,6.19,0,0,0,26,25a1.93,1.93,0,0,0,.95.92s-.31-.83-.19-1.12a4.86,4.86,0,0,0,2.54.9,16.81,16.81,0,0,1-1.69-1.9,3.68,3.68,0,0,0-.47-.86,12.09,12.09,0,0,0,3.65-.27C35.24,21.5,36.18,19.5,36,18.83ZM15.78,17.25c-.19,0-.34.14-.51-1.52s0-1.61.19-1.63.34-.11.51,1.56S16,17.23,15.78,17.25Zm.83-.08c-.19,0-.34.14-.51-1.52s0-1.61.19-1.63.34-.11.51,1.56S16.81,17.14,16.61,17.16Zm5-1.1c-.26.4-.89,1.7-1.92,1.54s-1.3-1.55-1.44-2a.59.59,0,0,1,.26-.73c.14-.13.15-.31.23-.67s.23-.36.37-.39a8.12,8.12,0,0,1,1.08.08,6.52,6.52,0,0,1,1.05.24c.13.07.27.12.26.47s-.06.54.05.7A.58.58,0,0,1,21.61,16.06ZM22.36,18c-.17-.09-.36-.07.4-1.55s.87-1.35,1-1.27.35.1-.41,1.59S22.54,18.07,22.36,18Zm1.77-.86c-.76,1.49-.85,1.32-1,1.23s-.36-.07.4-1.55.87-1.35,1-1.27S24.89,15.63,24.13,17.12Z"/><path d="M24.13,26.72a6.25,6.25,0,0,1-1.07-2A1.34,1.34,0,0,0,22,23.84c-.25-.1.06.32.14.51s-.33-.22-.43-.29-.43,0-.7,0-1,.09-1.79.07-.7,0-1.27,0-.58-.06-.81.16-.18.06-.12-.18.12-.51.12-.51a3.89,3.89,0,0,0-1.88,2.33c-.1.17-1,1-1.09,1.11s.7,0,1,0,.17.2.13.52-.15.48.29.43.39,0,.42.26,0,.41.21.32.14,0,.31.16,1,.85,1.08,1,.14.52.28.58.74-.23.93-.25.3.22.55.23a1.51,1.51,0,0,0,.65-.23c.23-.1.93.33,1,.36s.15-.26.2-.41.1-.17.42-.44a7.73,7.73,0,0,0,.85-1c.06-.09.07,0,.2.11s.14.07.22-.25.3-.26.61-.24.09-.26-.05-.66.58-.24,1.07-.24S24.63,27.2,24.13,26.72Zm-1.6-.44c-.28-.1-.89-.31-.83-.15a1.05,1.05,0,0,1,.12,1c-.25.47-.81,1.46-1.4,1.46s-.43-.29-.9-.29-.56.29-1,.29-1-.61-1.26-1.14-.21-.88-.08-1,0-.3-.35-.24-.54.15-.55-.27a.71.71,0,0,1,.21-.41c.36-.43.42-.62.66-.67a17,17,0,0,1,2.13-.12,11.85,11.85,0,0,1,2.84.15,2.64,2.64,0,0,1,.6,1.16C22.72,26.19,22.8,26.38,22.53,26.28Z"/><path d="M19.52,26.52c-.16,0-.77.11-1.1.12s-.07.16.16.3a5.54,5.54,0,0,1,.9,1,5.45,5.45,0,0,1,1-1c.32-.13.08-.11-.1-.12S19.68,26.53,19.52,26.52Z"/></g></svg>