<svg xmlns="http://www.w3.org/2000/svg" viewBox="0 0 40 40"><title>mei</title><g id="blizzard"><g id="_Group_" data-name="&lt;Group&gt;"><path id="_Path_" data-name="&lt;Path&gt;" d="M18.69,26q0-1,0-2c0-.12,0-.23,0-.34a1.27,1.27,0,0,0-.11-.6.32.32,0,0,1,0-.41l1-1.09a.23.23,0,0,1,.28-.08h0c.39-.15.51.21.69.4s.44.45.65.69.26.32,0,.52a.14.14,0,0,0,0,.14s0,.09,0,.12c-.15.29,0,.6,0,.9s0,.62,0,.93c0,.59,0,1.18,0,1.78,0,.12.07.15.15.19l2.32,1.31a.58.58,0,0,1,.24.19.13.13,0,0,0,.16.07.23.23,0,0,1,.22.08.2.2,0,0,0,.21.06.26.26,0,0,1,.33.18,3.21,3.21,0,0,1,.12.33c.11.37.22.74.34,1.1a.48.48,0,0,1-.05.32c-.12.39-.47.34-.73.41s-.64.16-1,.22-.35,0-.4-.21a.15.15,0,0,0-.12-.11c-.1,0-.19-.07-.22-.19a.12.12,0,0,0-.07-.07A8.76,8.76,0,0,1,21.23,30c-.37-.2-.74-.43-1.1-.66a.39.39,0,0,0-.45,0c-.7.43-1.41.84-2.11,1.26a.76.76,0,0,1-.36.15.13.13,0,0,0-.12.09.25.25,0,0,1-.18.16.19.19,0,0,0-.15.13c-.05.2-.2.23-.37.2l-1.07-.23L15,31c-.13,0-.18-.13-.27-.22-.28-.3-.06-.58,0-.84s.17-.64.29-.95.16-.31.38-.25a.17.17,0,0,0,.15,0s.06-.07.1-.07c.4-.06.64-.4,1-.55s.68-.37,1-.56l.83-.46a.38.38,0,0,0,.23-.4c0-.23,0-.45,0-.68Z"/><path id="_Path_2" data-name="&lt;Path&gt;" d="M8.72,22.79a.25.25,0,0,1-.29-.18c-.12-.35-.23-.71-.35-1.06,0-.06,0-.13,0-.18-.19-.27,0-.5.09-.73a.21.21,0,0,1,.15-.1l1.45-.33a.28.28,0,0,1,.38.19.19.19,0,0,0,.13.13c.1,0,.19.07.23.19a.1.1,0,0,0,.06.06,17,17,0,0,1,2.05,1.14,5.91,5.91,0,0,1,.55.33.4.4,0,0,0,.49,0L16,20.85a.44.44,0,0,1,.23-.09h.06c.08-.2.34-.21.43-.4a.27.27,0,0,1,.33-.18l1.51.34.09,0a.75.75,0,0,1,.19.64c-.12.39-.24.79-.36,1.18s-.11.33-.45.36a.34.34,0,0,0-.13.06s-.06.06-.1.07a11,11,0,0,0-1.43.8c-.49.25-1,.53-1.45.8a.57.57,0,0,0-.35.6c0,.75,0,1.5,0,2.25,0,.17-.06.36,0,.51s0,.45.12.64a.23.23,0,0,1,0,.29,1.69,1.69,0,0,1-.21.26c-.29.29-.57.6-.84.91-.08.09-.18.08-.28.1-.34.07-.47-.16-.65-.35l-.78-.85a.26.26,0,0,1,0-.39.2.2,0,0,0,.05-.21s0-.08,0-.1c.17-.26,0-.53,0-.79,0-.86,0-1.72,0-2.58a.31.31,0,0,0-.19-.32L9.58,23.19a.62.62,0,0,1-.26-.2.1.1,0,0,0-.1-.06.35.35,0,0,1-.32-.11A.17.17,0,0,0,8.72,22.79Z"/><path id="_Path_3" data-name="&lt;Path&gt;" d="M21.27,14.7q0,.69,0,1.39a.55.55,0,0,1,0,.28.13.13,0,0,0,0,.17.17.17,0,0,1,.06.17.32.32,0,0,0,.08.34.21.21,0,0,1,0,.27c-.08.1-.16.2-.25.3l-.77.83a.48.48,0,0,1-.32.12c-.45.07-.57-.31-.79-.53s-.38-.38-.56-.58a.41.41,0,0,1-.08-.51.94.94,0,0,0,.08-.66.93.93,0,0,1,0-.31c0-.76,0-1.53,0-2.29,0-.21,0-.41,0-.62s-.09-.14-.17-.19l-2.27-1.28a.69.69,0,0,1-.27-.22.13.13,0,0,0-.16-.06.2.2,0,0,1-.2-.07.23.23,0,0,0-.22-.07.25.25,0,0,1-.32-.19c-.12-.36-.24-.72-.34-1.08,0-.11-.07-.22-.11-.33s0-.22.06-.33c.1-.38.42-.33.67-.39s.69-.18,1-.24c.18,0,.32,0,.37.2a.2.2,0,0,0,.13.13S17,9,17,9c.25.29.64.35.95.57s.65.39,1,.59l1,.58a.3.3,0,0,0,.36,0l2.19-1.3a.72.72,0,0,1,.32-.13.14.14,0,0,0,.14-.1c0-.09.1-.12.18-.15s.13,0,.15-.13.2-.23.37-.2l1,.23L25,9c.13,0,.18.13.27.22.28.3.07.58,0,.84s-.18.64-.3.94-.16.31-.38.24a.15.15,0,0,0-.15,0c-.08.07-.15.14-.28.1a.11.11,0,0,0-.09,0,7.54,7.54,0,0,1-1.45.9c-.38.23-.77.44-1.15.65a.33.33,0,0,0-.2.35c0,.46,0,.92,0,1.39Z"/><path id="_Path_4" data-name="&lt;Path&gt;" d="M27.93,26.23v1.24a.62.62,0,0,1,0,.32.13.13,0,0,0,0,.17.18.18,0,0,1,.05.17.32.32,0,0,0,.08.34.21.21,0,0,1,0,.28l-.3.34-.71.77a.49.49,0,0,1-.3.12c-.41.09-.55-.25-.75-.45s-.44-.45-.64-.7-.2-.3,0-.47a.14.14,0,0,0,0-.14.39.39,0,0,1,.05-.32.1.1,0,0,0,0-.08,6.57,6.57,0,0,1,0-1.58c0-.47,0-.94,0-1.41a.41.41,0,0,0-.24-.41l-2.3-1.3a.7.7,0,0,1-.29-.23.13.13,0,0,0-.16-.06.21.21,0,0,1-.21-.07.23.23,0,0,0-.23-.07.25.25,0,0,1-.32-.19c-.16-.49-.31-1-.47-1.47v0a.79.79,0,0,1,.33-.53l1.49-.33a.27.27,0,0,1,.36.19.23.23,0,0,0,.16.14.23.23,0,0,1,.17.16.12.12,0,0,0,.07.07,12,12,0,0,1,1.93,1.06l1,.58c.1.06.17,0,.25,0,.62-.36,1.23-.74,1.85-1.09a8.06,8.06,0,0,1,.74-.39.87.87,0,0,0,.44-.38.27.27,0,0,1,.33-.18l1.15.26s.08,0,.12,0c.32,0,.43.21.56.42a.22.22,0,0,1,0,.18c-.15.49-.3,1-.46,1.45a.26.26,0,0,1-.35.2.16.16,0,0,0-.17,0,.28.28,0,0,1-.28.1.12.12,0,0,0-.09,0,13.42,13.42,0,0,1-1.92,1.16c-.25.15-.5.29-.76.43a.32.32,0,0,0-.18.33c0,.43,0,.87,0,1.3Z"/><path id="_Path_5" data-name="&lt;Path&gt;" d="M25.41,13.83c0-.44,0-.88,0-1.32,0-.26-.06-.51,0-.76a.14.14,0,0,0-.05-.13.25.25,0,0,1,0-.39q.38-.43.78-.85l.19-.21c.09-.11.21-.11.34-.14.41-.09.53.26.71.44s.45.46.66.71.19.29,0,.45a.16.16,0,0,0,0,.17.26.26,0,0,1-.05.27.12.12,0,0,0,0,.09A5.71,5.71,0,0,1,28,13.64c0,.54,0,1.08,0,1.61a.35.35,0,0,0,.21.36l2.12,1.2a.81.81,0,0,1,.34.26.12.12,0,0,0,.14.06.21.21,0,0,1,.22.07.21.21,0,0,0,.21.07.26.26,0,0,1,.34.2c.13.35.2.71.34,1.06,0,.1.06.21.1.31s0,.24-.05.36c-.11.35-.38.31-.62.37s-.74.17-1.11.25a.27.27,0,0,1-.35-.17.27.27,0,0,0-.16-.15s-.07,0-.09,0c-.23-.3-.62-.34-.91-.55s-.64-.38-1-.57l-.94-.56a.38.38,0,0,0-.44,0l-2.31,1.37a.67.67,0,0,1-.32.13.13.13,0,0,0-.14.11.2.2,0,0,1-.16.14.22.22,0,0,0-.17.16.25.25,0,0,1-.32.18l-1.13-.25-.26-.06c-.15,0-.21-.13-.31-.24-.28-.3,0-.57,0-.82s.17-.6.27-.89.14-.39.42-.31c.06,0,.12,0,.17-.07a.23.23,0,0,1,.22-.08.12.12,0,0,0,.11,0,10.23,10.23,0,0,1,1.67-1c.4-.24.81-.45,1.2-.69.09-.06.09-.13.09-.21,0-.46,0-.92,0-1.39Z"/><path id="_Path_6" data-name="&lt;Path&gt;" d="M12,13.87c0-.42,0-.84,0-1.25a.72.72,0,0,1,0-.32.15.15,0,0,0,0-.17.28.28,0,0,1,0-.25.25.25,0,0,0-.06-.21.26.26,0,0,1,0-.37l1-1.14h0a.69.69,0,0,1,.64,0l1,1c.14.15.24.31,0,.5s0,.12,0,.18a.23.23,0,0,1-.05.25.11.11,0,0,0,0,.13,1,1,0,0,1,.06.53c0,.79,0,1.57,0,2.36a.49.49,0,0,0,.29.51c.77.42,1.53.86,2.29,1.28a.68.68,0,0,1,.27.21.13.13,0,0,0,.14.07.26.26,0,0,1,.24.08.21.21,0,0,0,.23.06.23.23,0,0,1,.29.17c.12.36.24.72.34,1.08,0,.11.07.22.11.33s0,.23-.06.35c-.11.39-.44.33-.69.39s-.68.18-1,.23c-.18,0-.32,0-.37-.2a.2.2,0,0,0-.15-.13.26.26,0,0,1-.19-.17.11.11,0,0,0-.09-.08,3.81,3.81,0,0,1-1.06-.55c-.63-.34-1.22-.74-1.86-1.08-.11-.06-.17,0-.24,0L10.92,19a.86.86,0,0,1-.45.19c-.07,0-.09.05-.11.11a.21.21,0,0,1-.15.13.28.28,0,0,0-.22.22c0,.13-.17.16-.29.13l-1.15-.26-.3-.06c-.13,0-.18-.11-.26-.2-.26-.29-.08-.58,0-.84s.17-.61.28-.91.15-.37.41-.29a.14.14,0,0,0,.13,0,.32.32,0,0,1,.3-.11.1.1,0,0,0,.08,0,16.57,16.57,0,0,1,2.17-1.3l.54-.31a.26.26,0,0,0,.15-.26C12.06,14.76,12.06,14.31,12,13.87Z"/><path id="_Path_7" data-name="&lt;Path&gt;" d="M20,30.11a.33.33,0,0,1,.15.06l2,1.1a2,2,0,0,1,.32.23c.27.23.27.41,0,.61L21.17,33l-.53.35a.38.38,0,0,1-.33,0,2.79,2.79,0,0,1-.92-.46l-1.63-1.12c-.31-.21-.3-.38,0-.55l1.78-1A1.19,1.19,0,0,1,20,30.11Z"/><path id="_Path_8" data-name="&lt;Path&gt;" d="M19.82,6.63a.29.29,0,0,1,.19.06l1.86,1a2.25,2.25,0,0,1,.48.36.28.28,0,0,1,0,.48L21,9.45c-.15.1-.32.2-.46.31a.55.55,0,0,1-.56.06,4.14,4.14,0,0,1-1-.59c-.46-.3-.9-.61-1.35-.92a.85.85,0,0,1-.2-.17c-.1-.13-.1-.26.06-.35l2.08-1.11A.54.54,0,0,1,19.82,6.63Z"/><path id="_Path_9" data-name="&lt;Path&gt;" d="M8.42,25.51a11.46,11.46,0,0,1,0-1.46c.06-.35.22-.44.53-.29l1.91.94a.46.46,0,0,1,.26.32,4.17,4.17,0,0,1,0,1.44c0,.49-.07,1-.11,1.46a.63.63,0,0,1,0,.26c-.08.14-.18.2-.34.11L8.74,27.1a.56.56,0,0,1-.29-.55A6.13,6.13,0,0,0,8.42,25.51Z"/><path id="_Path_10" data-name="&lt;Path&gt;" d="M28.68,13.59c0-.42,0-.84,0-1.26a1.34,1.34,0,0,1,0-.29c.06-.25.22-.33.45-.22l1.26.62.72.36a.41.41,0,0,1,.24.33,2.94,2.94,0,0,1,.06.78c-.07.74-.11,1.48-.17,2.22,0,.3-.18.37-.43.21L29.1,15.26a.7.7,0,0,1-.41-.7c0-.32,0-.65,0-1Z"/><path id="_Path_11" data-name="&lt;Path&gt;" d="M28.6,25.65c-.1-.42.26-.6.55-.76.74-.4,1.5-.75,2.26-1.11.25-.12.4,0,.39.27q0,1.08-.07,2.17a.59.59,0,0,1-.32.55c-.59.33-1.16.69-1.74,1a2.35,2.35,0,0,1-.53.24.29.29,0,0,1-.42-.28C28.69,27.07,28.64,26.38,28.6,25.65Z"/><path id="_Path_12" data-name="&lt;Path&gt;" d="M11.36,12.49c0,.7,0,1.4-.06,2.1a.63.63,0,0,1-.34.6c-.58.32-1.14.67-1.7,1a2.17,2.17,0,0,1-.58.26.28.28,0,0,1-.37-.27c0-.75-.09-1.5-.14-2.24a.4.4,0,0,1,.16-.36A2.9,2.9,0,0,1,9,13.16l2-.94C11.24,12.08,11.39,12.19,11.36,12.49Z"/></g></g><g id="icewall"><path id="_Path_13" data-name="&lt;Path&gt;" d="M32.09,21.75C32.26,21.1,33.9,14,33.9,14L31,12.46l-.53.34-.78,1.3c-.54.92-1.06.77-1,.6L29.33,10,28.5,8.71H24.39l-1,.55-.71,1.55-.82,1.11-.62.1c-.07.21-1.1-2.06-1.1-2.06H16l-.42.5-.58,2c0,.21-.75-.27-.72-.44l-.12-.69-1.6.36L9.44,20.31l-1.23.9-2,7.44a1.49,1.49,0,0,0,1.47,2h6.8l2-7.37h-2c-.46,0-.53-.53-.11-.81L21,18.08a.52.52,0,0,1,.65,0l4.26,4.38c.27.28-.08.81-.54.81h-2l-2,7.37h6.44A3.76,3.76,0,0,0,31.21,28L32.54,23A1.53,1.53,0,0,1,32.09,21.75Z"/></g><g id="cryofreeze"><path id="_Compound_Path_" data-name="&lt;Compound Path&gt;" d="M29.5,24.14c-.33-.39-.6-.83-.95-1.19a1.94,1.94,0,0,1-.48-2c.5-2.29.86-4.57,1.27-6.86.19-1.06.36-2.11.56-3.17a.55.55,0,0,0-.22-.6c-1.59-1.27-3.19-2.55-4.77-3.84-.28-.23-.53-.18-.9.06-1,.67-2,1.32-3,2a2.23,2.23,0,0,0-.85.91c-.6,1.2-1.3,2.38-1.85,3.59a4.12,4.12,0,0,1-2.81,2.69,1.16,1.16,0,0,0-.79.79c-.83,2-1.74,4-2.53,6A4.69,4.69,0,0,1,10,25.14c-.17.09-.32.24-.49.35a.69.69,0,0,0-.4.84c.19.82.33,1.67.49,2.5a1,1,0,0,0,.42.66c.81.61,1.6,1.24,2.39,1.86s1.82,1.39,2.71,2.12c.29.23.53.24.85-.12.15-.17.32-.32.49-.48L18,31.23c.16.15,1,.92,1.12,1s.24.15.46,0S20.83,30.9,21,30.74h0c1.07,1.26,1.07,1.25,3,.61a1.33,1.33,0,0,0,.68-.47q2.36-3,4.73-6C29.66,24.56,29.69,24.36,29.5,24.14Zm-19,2.22c-.27-.12-.26-.28.06-.47l.07,0c.85-.56.87-.55,1.12.18a2.91,2.91,0,0,1,.15.92Zm7.26-5.48c-.68,1.58-1.4,3.15-2.1,4.73a13.63,13.63,0,0,0-.58,3.15c-.94-1.4-1.79-2.68-2.66-4a.67.67,0,0,1,0-.68l2.85-6.64a1.76,1.76,0,0,1,1-1.1c-.41,1.54-1.79,6.51-1.74,6.52,1.37-2.7,3.11-6,4.52-8.8a15.46,15.46,0,0,1-.21,4.16A11.45,11.45,0,0,1,17.79,20.87Zm2.09,9c-.14,0-.69-.52-.78-.62.19-.19,1.32-2,1.52-2.18.11.13.16,1.8.26,1.91A6,6,0,0,1,19.88,29.87Zm.74-14.17a8.37,8.37,0,0,1,.25-2.21c.15-1.27.42-2.55.61-3.82a.75.75,0,0,1,.43-.62Q23,8.43,24.06,7.78c.29-.18.48-.19.68,0C26,8.91,27.2,10,28.5,11.22Zm3.44,12a20.41,20.41,0,0,1,1.08-3c.23-.74.92-1.08,1.51-1.53.18-.14.28-.08.38,0l1.37,1.59Z"/></g><g id="mei"><path d="M31.47,23.25c-.18-.41-.17-.39,0-.4s.48.12-.32-.68-.5-.68-1.31-1.07-1.55-.69-1.34-.81.5-.09-.13-.42c-.36-.19-.75-.38-1-.5h0a6.9,6.9,0,0,0-1.29-5.28L26,14a9.82,9.82,0,0,0-1.13-2.64l.86,0c.17,0,.15.07.23.19a2.06,2.06,0,0,1,.13.55c0,.18.09.21.16.21a.94.94,0,0,0,.4,0c.13-.06.14,0,.14-.2s0-.31,0-.6l.13,0,0,0a1.1,1.1,0,1,0-.06-.85l-.1-.06c0-.23,0-.43,0-.54,0-.39-.35-.31-.64-.36s-.23.32-.24.71,0,.22-.24.23l-1.56.1-.58-.5a3.23,3.23,0,0,0-1.27-.67,1.68,1.68,0,0,0-1-1.48,3.35,3.35,0,0,0-2.56-.33c-.08,0-.32-.35-.84-1.06s-.38,1.85-.11,2.5-.66-.44-1-1.1-.5-.88-.52.57c0,1.23.08,1.57.38,1.93a5.71,5.71,0,0,0-1,.65c-1.93.11-3.46.2-3.83.2,0,0,0,0,0,.09v.42a0,0,0,0,0,0,0L15,11.78a4.49,4.49,0,0,0-.83,1.53A8.8,8.8,0,0,0,13.12,15a9.2,9.2,0,0,0-.53,5.22.16.16,0,0,1-.11.17,6.56,6.56,0,0,0-3,1.9c0,.07-.1.09.1.15s.36.08.11.19c-.45.2-1.67,1.81-1.34,1.72s.38-.12.24.19c-.94,2-.73,3.63-.53,3.38s.27-.25.41-.05c.88,1.27,2.36,2.53,2.18,2s.53,0,1.17.3a17.3,17.3,0,0,1,2.77,1.33c1,.66,3.65,2.35,3.42,2s-.61-.59,0-.42a10.7,10.7,0,0,0,2,.44,8.32,8.32,0,0,0,3.38-1.13c1-.47,1-.51.8-.24s-.46.46.2.19a15.9,15.9,0,0,0,3.72-2c1.22-1,1-.68.79-.27s-.68.92.08.4c1.73-1.19,2-2.56,2-2.06s-.13.91.19.25.37-.54.43-1.08.05-1.4.22-1.11.26.69.31-.12A8.53,8.53,0,0,0,31.47,23.25ZM15.59,18a18,18,0,0,0,2.32-1.14,3.69,3.69,0,0,1-1.08,1c2.11.24,5.11-1.71,5.11-1.71,0,.56-.66.88-1.21,1.07a.17.17,0,0,0,.05.32c2.23.07,3-.87,3.21-1.32a0,0,0,0,1,.07,0,9.89,9.89,0,0,0,.58,2.18l-.15,0a.52.52,0,0,0-.43-.17c-.86,0-2.11,0-2.53,0a1.32,1.32,0,0,0-.87.3c-.26.21-.16.26-.68.26s-.42-.05-.68-.26a1.32,1.32,0,0,0-.87-.3c-.43,0-1.68,0-2.53,0a.48.48,0,0,0-.46.22l-.07,0c0-.18.08-.32.11-.4A.16.16,0,0,1,15.59,18Zm8.17,1.77s0,.12,0,.47-.23.39-.56.53a4.71,4.71,0,0,1-1.25.14c-.56.05-.54-.13-.7-.42a4.72,4.72,0,0,1-.3-1.29c-.07-.46.38-.48.62-.49s.88,0,1.69,0S23.78,19.45,23.75,19.79Zm-4.69-.58a4.72,4.72,0,0,1-.3,1.29c-.16.29-.14.47-.7.42a4.71,4.71,0,0,1-1.25-.14c-.33-.14-.54-.18-.56-.53s0-.47,0-.47c0-.34-.27-1.05.53-1.06s1.45,0,1.69,0S19.13,18.75,19.06,19.21Zm5,5.5a2.2,2.2,0,0,0,.88-.6,1.84,1.84,0,0,1-.57.78,22.08,22.08,0,0,1-2.44,1.56s.4,0,.11.24A8,8,0,0,1,20.15,28a.12.12,0,0,1-.08,0c-.3-.14-2.13-1.18-1.8-1.2s.56,0,.35-.09a2.33,2.33,0,0,0-1.55-.45c-.34,0,0-.3.09-.32A3,3,0,0,0,15.5,25a.8.8,0,0,1-.56-.76,7.31,7.31,0,0,0-.63-1.2,5.8,5.8,0,0,0,1.49,1.63c-.19-.28-.39-1.41-.22-1a1.2,1.2,0,0,0,.6.61,8.38,8.38,0,0,1-.77-2.12,6.72,6.72,0,0,1-.17-2.93.58.58,0,0,0,.33,0c.11,0,.25.76.31,1.06a1,1,0,0,0,.84.78,15.13,15.13,0,0,0,2,.14c.3,0,.89-1.06.95-1.4a.39.39,0,0,1,.78,0c.06.34.65,1.35.95,1.4a15.13,15.13,0,0,0,2-.14,1,1,0,0,0,.84-.78c.05-.3.2-1,.31-1.06a1.17,1.17,0,0,0,.5-.19l.06.15c.27.67.23.89-.22,2.94S23.82,24.64,24,24.71Z"/></g></svg>