<svg xmlns="http://www.w3.org/2000/svg" viewBox="0 0 40 40"><title>mercy-icons</title><g id="valkyrie"><path d="M35.42,16.41c0,1.07-1.07,2.51-2.45,3.56a14.85,14.85,0,0,1-2.48,1.31,5.42,5.42,0,0,0,.9-1.45,7.61,7.61,0,0,0,.79-3.66,3.4,3.4,0,0,0-.13-1h0c0,.54-1.21,1.86-2.1,2.21a4.31,4.31,0,0,0,1.23-1.87C32,10.51,26,7.92,26,7.92c2.31,2.49,2.91,6.6-3.09,13.67a20,20,0,0,0-4.82,9.94,2.24,2.24,0,0,1,.13-.39l-.13.39a33.53,33.53,0,0,1,4.12-6.18A35,35,0,0,1,29,20.2,10.08,10.08,0,0,0,31,18.67a6,6,0,0,0,.53-.58.05.05,0,0,1,.09,0,10.55,10.55,0,0,1-2.19,3.24A10,10,0,0,1,26.79,23a23.27,23.27,0,0,0-2.86,1.68A14.24,14.24,0,0,0,19.43,30c2.81-3.23,5.49-3.5,11.25-5.6S35.42,16.41,35.42,16.41ZM22.1,28.34c2.88-.82,3.49.33,5.75.25,3.29-.12,4.87-3.31,4.87-3.31-2.15,1.14-3.61.84-5.91,1.27C22.93,27.29,22.1,28.34,22.1,28.34Zm-8.8-1.78c-2.3-.43-3.76-.14-5.91-1.27,0,0,1.58,3.19,4.87,3.31,2.26.08,2.87-1.07,5.75-.25C18,28.34,17.18,27.29,13.3,26.56Zm4.82,1.2a4.4,4.4,0,0,0-1.95-3.11A23.28,23.28,0,0,0,13.32,23a10,10,0,0,1-2.59-1.59,10.55,10.55,0,0,1-2.19-3.24.05.05,0,0,1,.09,0,6,6,0,0,0,.53.58,10.08,10.08,0,0,0,1.93,1.53,35,35,0,0,1,6.83,5.15c.22.25.44.51.65.77a6,6,0,0,0-1.36-4.53c-6-7.07-5.39-11.18-3.09-13.67,0,0-6,2.59-5.19,7.62a4.31,4.31,0,0,0,1.23,1.87C9.26,17,8,15.72,8.06,15.19h0a3.4,3.4,0,0,0-.13,1,7.61,7.61,0,0,0,.79,3.66,5.42,5.42,0,0,0,.9,1.45A14.85,14.85,0,0,1,7.14,20c-1.39-1-2.42-2.49-2.45-3.56,0,0-1,5.89,4.75,8C13.48,25.86,16,26.43,18.12,27.76Z"/></g><g id="angelicdescent"><path d="M32.06,8.12c-.56,0-.33-.28-.18-.53l.33-.54H32c-.3.18-.59.38-.89.54a55.64,55.64,0,0,0-10.85,7.47,1.36,1.36,0,0,0-.5,1.08,7.34,7.34,0,0,1,0,1.88c0,.18-.08.43-.3.44s-.2-.24-.26-.4A7,7,0,0,1,19,16.34a1.34,1.34,0,0,0-.21.14,44.8,44.8,0,0,1-4.93,4.46,1,1,0,0,0-.4.92c0,.73,0,1.47.08,2.2a5,5,0,0,1,0,1.1c0,.21-.07.43-.33.48s-.35-.15-.44-.31A4.72,4.72,0,0,1,12,23.1c0-.18.06-.38-.11-.54a1.74,1.74,0,0,0-.71.92.15.15,0,0,0-.08.06,5.7,5.7,0,0,0-.42,2.92A5.41,5.41,0,0,0,10.85,28c0,.12,0,.23,0,.35a11.46,11.46,0,0,1-2.37,3c.06.17,0,.37-.3.68s-.47.54-.69.83h.13l.13,0h.07a5.14,5.14,0,0,1,.55-.39,6.87,6.87,0,0,1,2.55-2.08,4.72,4.72,0,0,1,.51-.19h.07a6.32,6.32,0,0,0,1.17,0,7.51,7.51,0,0,0,2-.33l.53-.12a6.78,6.78,0,0,0,.79-.15h.12a1.94,1.94,0,0,0,.17-.24c-.28-.06-.51-.09-.74-.16s-.36-.15-.37-.38.12-.31.28-.4.57-.34.87-.47a2.28,2.28,0,0,1,1.56-.32c1,.3,1.53-.51,2.29-1-.35-.1-.62,0-.93-.14.91-.69,1.52-1.7,2.76-1.77a.49.49,0,0,0,.31-.18c.54-.66,1.07-1.34,1.6-2,.14-.18.1-.27-.12-.31s-.62-.1-.92-.17c-.15,0-.35-.07-.36-.25s.18-.24.32-.3A7.25,7.25,0,0,1,24.55,21a1.21,1.21,0,0,0,.86-.59c1-1.47,2-2.93,2.94-4.4.08-.12.22-.25.11-.42s-.24-.09-.38-.08-.42.13-.5-.13.16-.32.31-.43a1.45,1.45,0,0,1,.27-.17,5.39,5.39,0,0,0,2.66-2.91q.53-1.25,1-2.51c.12-.31.23-.62.32-.94C32.21,8.33,32.28,8.13,32.06,8.12ZM14.91,25.69c3.83-3.73,7.21-7.94,11.53-11.16A77.21,77.21,0,0,1,14.91,25.69Z"/></g><g id="resurrect"><path d="M14.32,15.49h2.92c.18,0,.24,0,.24.23,0,1,0,.93,0,2,.81-.06,1.66-.09,2.52-.09s1.73,0,2.55.09c0-1,0-.94,0-2,0-.19.06-.22.23-.22H25.7a.32.32,0,0,0,.22,0l-.07-.11L20.18,7.72a.2.2,0,0,0-.36,0L15.13,14l-1.06,1.42A.46.46,0,0,0,14.32,15.49Z"/><path d="M20,18.84c-7.08,0-12.82,1.56-12.82,3.49,0,1.53,3.59,2.82,8.6,3.3a.34.34,0,0,0,.37-.33h0a.33.33,0,0,0-.3-.33c-3.38-.34-5.73-1.08-5.73-1.94s3.12-1.82,7.36-2.06c0,1.88,0,4.43,0,5.53a7.75,7.75,0,0,0,.32,2,14.89,14.89,0,0,0,1.09,2.65,3.1,3.1,0,0,0,.76,1,.52.52,0,0,0,.72,0,3,3,0,0,0,.75-1c.23-.51.45-1,.69-1.52a6.63,6.63,0,0,0,.71-3.1c0-1.13,0-3.71,0-5.62,4.23.24,7.36,1.07,7.36,2.06s-2.35,1.6-5.73,1.94a.33.33,0,0,0-.3.33h0a.34.34,0,0,0,.37.33c5-.48,8.6-1.77,8.6-3.3C32.82,20.41,27.08,18.84,20,18.84Z"/></g><g id="guardianangel"><path d="M33.33,7.31l-.81.48-6.66,3.89L20.1,15l-4.2,2.45a1,1,0,0,0-.34.34q-1.17,1.88-2.41,3.72a9.34,9.34,0,0,0-.93,1.5c0,.06-.1.14-.06.19s.15,0,.21,0l2-.69c.27-.09.57-.13.71-.45,0-.05.1-.08.15-.11l1.55-1.05a.31.31,0,0,1,.41,0c.12.09.26.14.39.22a.3.3,0,0,0,.38,0c.91-.64,1.76-1.35,2.64-2,1.83-1.38,3.7-2.72,5.46-4.19q1.37-1.14,2.69-2.33c1-.94,2-1.93,3-2.9a5.39,5.39,0,0,0,1.12-1.36c.15-.29.34-.56.5-.84l.08-.14C33.46,7.22,33.39,7.27,33.33,7.31Z"/><path d="M25.65,19.16,21.79,20.4,17.08,21.9c-1.62.52-3.23,1-4.85,1.55a.91.91,0,0,0-.6.51,7.27,7.27,0,0,1-.92,1.63.39.39,0,0,0-.06.22c-.08.58-.06,1.16-.13,1.74A3.35,3.35,0,0,1,10,29.1a.2.2,0,0,0,0,.18c0,.14.06.28.09.42s0,.15.11.17a.45.45,0,0,1,.24.2.51.51,0,0,0,.47.23c.18,0,.35,0,.53,0,1.29,0,2.58.17,3.94.15a22.62,22.62,0,0,0,2.47-.12,1.65,1.65,0,0,0,.72-.14c.1-.06.3-.06.29-.17s-.21-.1-.33-.12l-3.31-.6-4.23-.78c-.06,0-.16,0-.16-.06s.09-.09.16-.1c.27,0,.54,0,.8-.1a.47.47,0,0,1,.51.15.53.53,0,0,0,.58.15L15,28.2c1.23-.2,2.46-.42,3.68-.74.82-.21,1.62-.49,2.43-.73a3.42,3.42,0,0,0,.91-.55s.06,0,0-.09-.06,0-.11-.05h-.19c-1.06,0-2.12.05-3.17.1l-1.36,0-4.56.16c-.07,0-.18,0-.21,0s.05-.16.12-.21a.47.47,0,0,1,.15-.08,5.39,5.39,0,0,0,.67-.27.74.74,0,0,1,.95.09.24.24,0,0,0,.29,0l3.82-1.79A42.94,42.94,0,0,0,23.87,21a6,6,0,0,0,1.91-1.63c0-.07.17-.13.11-.23S25.73,19.13,25.65,19.16Z"/><path d="M10.58,31.45a4.29,4.29,0,0,1-.88-2c0-.14-.11-.2-.25-.2a1.61,1.61,0,0,1-1-.45s-.11-.08-.08-.17l.42.06c.73.08,1.22-.14,1.28-1a10.86,10.86,0,0,0-.06-2.1c0-.19,0-.24.2-.25a1,1,0,0,0,.8-.51,37.18,37.18,0,0,0,2.33-4.12c.42-.85.82-1.72,1.27-2.56a14.23,14.23,0,0,0,.89-1.72s.05-.08,0-.12-.08,0-.12,0a1.45,1.45,0,0,0-.7.38,4.4,4.4,0,0,1-.59.53,30.25,30.25,0,0,0-2.81,2.38c-.76.72-1.47,1.49-2.17,2.26-.52.57-1,1.19-1.45,1.79a.55.55,0,0,0-.09.57c.15.44.24.9.38,1.41a1.85,1.85,0,0,1-.39-.39c-.11-.13-.19-.13-.27,0s-.21.39-.3.59a3.64,3.64,0,0,0-.43,2.34.38.38,0,0,1,0,.11,1.26,1.26,0,0,0,.21.85,7.38,7.38,0,0,0,.74.93,13.09,13.09,0,0,0,2.64,2,.46.46,0,0,0,.6-.11c.15-.15,0-.25-.07-.38A.69.69,0,0,0,10.58,31.45Z"/></g><g id="caduceusblaster"><g id="_Group_" data-name="&lt;Group&gt;"><path id="_Path_" data-name="&lt;Path&gt;" d="M21.78,22.95a.41.41,0,0,1-.07.19,11,11,0,0,1-.65,1c-.26.38-.46.79-.74,1.16s-.34.5-.52.74c-.06.07-.1.08-.17,0l-.83-.75c-.34-.3-.66-.62-1-.91-.15-.12-.26-.27-.42-.39l-.32-.2c-.35-.19-.71-.35-1.05-.56a6.68,6.68,0,0,0-1.93-.66c-.26-.07-.53-.12-.78-.2a2.74,2.74,0,0,0-.47-.05,4.87,4.87,0,0,0-.56-.06c-.31,0-.61-.08-.92-.07l-.07,0a1.71,1.71,0,0,1-.61-.51,10,10,0,0,1-.55-1.06c0-.1,0-.15.08-.18.81-.31,1.63-.57,2.45-.84l1.58-.5,1.37-.41a.29.29,0,0,1,.3.06,3.51,3.51,0,0,0,.4.32,2.62,2.62,0,0,0,1.74.35,4.44,4.44,0,0,0,1-.2.15.15,0,0,1,.17.05,3.38,3.38,0,0,1,.46.53c.18.25.38.48.58.71a7.34,7.34,0,0,1,.64.9c.2.31.42.62.63.93a1.57,1.57,0,0,1,.26.54Z"/><path id="_Path_2" data-name="&lt;Path&gt;" d="M22,23a1.79,1.79,0,0,1-.1.51,1.94,1.94,0,0,1-.11.38,1.65,1.65,0,0,0-.1.84,1.29,1.29,0,0,0,.36.74c.25.27.5.55.74.84s.53.65.83.94a2,2,0,0,0,1,.59,3,3,0,0,0,.7.08c.52,0,1,0,1.56,0a1.63,1.63,0,0,0,.61-.22.07.07,0,0,0,0-.08c0-.1,0-.19,0-.28s.06-.43,0-.64,0-.26,0-.39a3.28,3.28,0,0,0-.31-1.37c-.26-.55-.48-1.11-.72-1.66-.13-.29-.26-.57-.37-.87a.23.23,0,0,0-.12-.12l-.63-.34L25,21.61c-.15-.08-.16-.13-.09-.29a2.67,2.67,0,0,1,.48-.77.26.26,0,0,0,.05-.18c0-.38.09-.76.13-1.14,0-.1,0-.16.16-.17a16.53,16.53,0,0,0,1.78-.33c.07,0,.09,0,.12.07a.57.57,0,0,1,.05.22c0,.57,0,1.14,0,1.71a.32.32,0,0,0,0,.09c.3,1,.63,2.05,1,3.05a12.25,12.25,0,0,0,.89,1.87,1.23,1.23,0,0,0,.29.32,9.58,9.58,0,0,0,1.25.87c.39.23.42.23.83.07s.89-.31,1.33-.46.45-.08.68.2.32.41.47.61.08.31-.12.36l-.95.25c-.62.16-1.23.34-1.86.49s-1.26.3-1.9.41c-.33.06-.66.08-1,.12a12.37,12.37,0,0,0-1.32.18,4.87,4.87,0,0,1-.6,0c-.16,0-.33,0-.49,0-.44,0-.89,0-1.33.06a.67.67,0,0,1-.28,0,3.84,3.84,0,0,1-.86-.39,6.29,6.29,0,0,1-1.48-1.3c-.28-.29-.57-.56-.83-.86s-.66-.7-1-1c-.14-.14-.14-.17,0-.34.4-.62.79-1.26,1.22-1.87A3.08,3.08,0,0,0,22,23Z"/><path id="_Path_3" data-name="&lt;Path&gt;" d="M11,18.66c-1.26,0-2.52,0-3.78,0a.6.6,0,0,1-.51-.27s0-.08-.08-.11a.89.89,0,0,1-.31-.54c-.06-.21-.12-.42-.18-.63a.49.49,0,0,1,0-.15q0-1,0-2.1a1.41,1.41,0,0,1,.19-.53c0-.08.11,0,.17,0h2.4A.77.77,0,0,0,9.72,14a.28.28,0,0,1,.25-.12h.63c.1,0,.13,0,.13.14s0,.37,0,.55,0,.15.12.14c.53-.05,1.05,0,1.58,0a1.11,1.11,0,0,1,.45,0c.1,0,.13,0,.15-.12s.09-.36.12-.54.08-.16.2-.16h1.49c.2,0,.23,0,.23.24,0,.58,0,1.17,0,1.75q0,1.24,0,2.48c0,.05,0,.1,0,.15s0,.16-.14.15H11Z"/><path id="_Path_4" data-name="&lt;Path&gt;" d="M19.2,18.06a.72.72,0,0,1,.16-.21,2.5,2.5,0,0,0,.37-.53.92.92,0,0,0,.09-.41,3.4,3.4,0,0,0-.24-1.59,1.85,1.85,0,0,0-.47-.71,5.65,5.65,0,0,0-.65-.45.2.2,0,0,1,.13,0h2.86A1.38,1.38,0,0,0,22,14c.37-.18.76-.31,1.15-.47a1.58,1.58,0,0,0,.26-.12.52.52,0,0,1,.51,0c.46.17.5.2.73.63,0,.23.19.23.34.29,1.07.41,2.13.83,3.18,1.28a2.55,2.55,0,0,1,.72.47c.17.16.3.36.46.53a5.34,5.34,0,0,1,.71,1l.07.14c0,.12,0,.2-.12.22-.85.13-1.68.35-2.52.5l-1.7.33a.39.39,0,0,1-.32-.07l-1.22-.82a.29.29,0,0,0-.2-.06c-1.29.1-2.58,0-3.87.05a5.07,5.07,0,0,0-.77.13Z"/><path id="_Path_5" data-name="&lt;Path&gt;" d="M6.11,14.23a1.88,1.88,0,0,1,.35-1.32.42.42,0,0,1,.41-.19H7a.54.54,0,0,0,.42-.13l.21-.16a.8.8,0,0,1,.56-.21c.43,0,.85,0,1.28,0a.31.31,0,0,1,.25.1c.13.14.24.33.41.38a1.85,1.85,0,0,0,.57,0c2.43,0,4.87,0,7.3,0a12.84,12.84,0,0,1,2.1.16c.5.09,1,.15,1.5.26a4.5,4.5,0,0,1,.89.29s.08,0,.1.08-.06.05-.1.07l-.14.06a3,3,0,0,1-1.65.33c-1,0-2,0-3,0a2.25,2.25,0,0,0-2.08,1.24,2.18,2.18,0,0,0-.19,1.65,2.33,2.33,0,0,0,3.29,1.54A3.94,3.94,0,0,1,20,18.08c.86-.1,1.73,0,2.59,0h.61c.12,0,.15,0,.12.15a.43.43,0,0,1-.4.33c-.31,0-.61.06-.91.05-.07,0-.1,0-.11.1s0,0,0,0c0,.32,0,.32-.32.32h-.34c-.1,0-.19,0-.26-.08a.13.13,0,0,0-.12,0,2.51,2.51,0,0,0-.62,0,1.13,1.13,0,0,1-.3,0s-.1,0-.12,0a.13.13,0,0,0,0,.14l.45.63,1,1.35c.25.35.49.7.72,1.06a.28.28,0,0,1-.1.38c-.05,0-.06,0-.08-.05l-.88-1.36a7.18,7.18,0,0,0-.72-1,13.91,13.91,0,0,0-.94-1.1c-.13-.12-.12-.12-.28,0l-.12,0a4.73,4.73,0,0,1-1.43.15,2.19,2.19,0,0,1-1.5-.73.16.16,0,0,0-.18-.06l-.31.09c-.1,0-.16,0-.15-.11s0-.09,0-.13q0-2.15,0-4.29a.27.27,0,0,0-.29-.3H13.33c-.15,0-.3,0-.32.2,0,.06-.07.07-.12.07H11.45s-.07,0-.09,0a.8.8,0,0,0-.42-.2.8.8,0,0,0-.25-.05H9.9a.27.27,0,0,0-.25.1.86.86,0,0,1-.83.34c-.74,0-1.47,0-2.21,0a.62.62,0,0,1-.19,0A.23.23,0,0,0,6.11,14.23Z"/><path id="_Path_6" data-name="&lt;Path&gt;" d="M30.43,19.19a1,1,0,0,1-.09.4,1.49,1.49,0,0,0,0,.88,3.43,3.43,0,0,0,.45,1c.14.27.31.53.45.8a17.15,17.15,0,0,0,1,1.58c.18.28.39.55.56.84a2,2,0,0,1,.32,1.07c0,.16,0,.32,0,.48a.14.14,0,0,1-.09.15l-1,.45h0a.8.8,0,0,1-.82-.07,8.53,8.53,0,0,1-1.28-1,2.58,2.58,0,0,1-.38-.59,13.06,13.06,0,0,1-.71-1.62c-.32-.82-.59-1.65-.84-2.49a2.6,2.6,0,0,1-.09-.49c-.06-.61,0-1.22,0-1.83,0-.09,0-.13.11-.14l1.64-.34a.33.33,0,0,1,.34.11,1.54,1.54,0,0,0,.25.23A.66.66,0,0,1,30.43,19.19Z"/><path id="_Path_7" data-name="&lt;Path&gt;" d="M28.79,15.69A9.65,9.65,0,0,0,27.34,15c-.76-.31-1.52-.61-2.28-.91a.24.24,0,0,1-.14-.11,1.76,1.76,0,0,0-.3-.44.26.26,0,0,1-.06-.12.13.13,0,0,0-.1-.1,6.82,6.82,0,0,1-.67-.22.26.26,0,0,0-.22,0,5.28,5.28,0,0,1-.62.29s-.09.06-.14,0a1.14,1.14,0,0,0-.58-.3A8,8,0,0,0,21,12.86l-.69-.12a3.34,3.34,0,0,1,.89.05c.18,0,.36,0,.54.07s.07,0,.09-.07a4.27,4.27,0,0,0,.29-.48c.15-.35.45-.37.74-.33.84.12,1.66.38,2.49.54a1.69,1.69,0,0,1,1,.73l.65.85a.58.58,0,0,0,.29.15,6.25,6.25,0,0,0,1,.36,1.07,1.07,0,0,1,.31.05l.19.09a.26.26,0,0,1,.11.4A1.6,1.6,0,0,0,28.79,15.69Z"/><path id="_Path_8" data-name="&lt;Path&gt;" d="M9.48,18.83a2,2,0,0,0-.19,1.58,2.78,2.78,0,0,0,.28.64c.06.12,0,.17-.09.18h-2A2.79,2.79,0,0,1,7,21.19a.58.58,0,0,1-.41-.37,1.62,1.62,0,0,1-.14-.55,2.75,2.75,0,0,1,0-1c0-.05,0-.11.05-.16.1-.24.12-.24.38-.25.79,0,1.59,0,2.38,0A.52.52,0,0,1,9.48,18.83Z"/><path id="_Path_9" data-name="&lt;Path&gt;" d="M25.42,19.16c0,.33-.07.67-.12,1a.31.31,0,0,1-.43.27.35.35,0,0,1-.31-.26.23.23,0,0,0-.25-.18c-.3,0-.61,0-.91,0a1.88,1.88,0,0,1-.55,0,1.41,1.41,0,0,1-.54-.26.81.81,0,0,1-.22-.51c0-.11,0-.23,0-.34s0-.13.12-.15a4.66,4.66,0,0,1,.82,0,.29.29,0,0,0,.29-.14.85.85,0,0,0,.21-.42s0-.06.08-.06A4,4,0,0,0,24,18a.26.26,0,0,1,.19.07c.39.27.77.54,1.13.84C25.42,19,25.43,19,25.42,19.16Z"/><path id="_Path_10" data-name="&lt;Path&gt;" d="M14.31,18.85,13,19.27c-.51.16-1,.35-1.53.52l-1.42.5c-.18.06-.2.1-.13.28s.17.35.23.54c-.25.05-.32,0-.43-.16a2.1,2.1,0,0,1-.27-1.52,1.34,1.34,0,0,1,.13-.34s.07-.09.05-.14,0-.13.12-.13h4.59Z"/><path id="_Path_11" data-name="&lt;Path&gt;" d="M17.15,14.29l-.21.09a1.76,1.76,0,0,0-1.11,1.86,1.82,1.82,0,0,0,3.59,0,1.67,1.67,0,0,0-.55-1.57l-.14-.13a.4.4,0,0,1,.27.16,2.36,2.36,0,0,1,.61,1.31,2.46,2.46,0,0,1,0,1.17,1,1,0,0,1-.19.33,2.52,2.52,0,0,1-.81.68,2,2,0,0,1-1.69.06,1.88,1.88,0,0,1-1.3-1.63,3.65,3.65,0,0,1,0-.82A1.8,1.8,0,0,1,17.15,14.29Z"/><path id="_Path_12" data-name="&lt;Path&gt;" d="M29.29,16.16c.11,0,.21,0,.32,0a.79.79,0,0,0,.54-.38c.09-.14.09-.14.2,0a1.94,1.94,0,0,1,.29.6c.18.4.34.82.52,1.22a.81.81,0,0,1,0,.77,1.22,1.22,0,0,1-.59.41s-.08,0-.12,0l-.43-.41c-.07-.06-.05-.1,0-.15h0c.34-.25.35-.24.12-.68a5.78,5.78,0,0,0-.83-1.15S29.28,16.23,29.29,16.16Z"/><path id="_Path_13" data-name="&lt;Path&gt;" d="M23.43,20.14a5,5,0,0,1,.88,0,.16.16,0,0,1,.14.14.31.31,0,0,0,.3.26,1.68,1.68,0,0,0,.31.06c-.15.25-.28.48-.43.69a1,1,0,0,0-.19.32c-.06.23-.2.43-.27.66a.15.15,0,0,1-.17.11,1.34,1.34,0,0,1-.33-.09c-.08,0-.08-.11-.07-.18.07-.35,0-.7,0-1a1.38,1.38,0,0,0-.19-.86A.11.11,0,0,1,23.43,20.14Z"/><path id="_Path_14" data-name="&lt;Path&gt;" d="M6.68,21.26a1.54,1.54,0,0,1-.64-.1A.45.45,0,0,1,5.8,21a2.83,2.83,0,0,0-.23-.37c-.08-.1-.05-.22-.09-.32a1.62,1.62,0,0,1,.08-1.1.53.53,0,0,1,.58-.39h.13c.18,0,.19,0,.1.16a1.21,1.21,0,0,0-.13.45,3.73,3.73,0,0,0,.09,1.29A1.11,1.11,0,0,0,6.68,21.26Z"/><path id="_Path_15" data-name="&lt;Path&gt;" d="M29.49,16a.45.45,0,0,1-.45-.64.93.93,0,0,1,.38-.45c.09-.05.14,0,.21,0a.59.59,0,0,1,.47.45.64.64,0,0,1-.37.57A.62.62,0,0,1,29.49,16Z"/><path id="_Path_16" data-name="&lt;Path&gt;" d="M11.9,14.5h-.82c-.17,0-.18,0-.2-.18s0-.18,0-.27,0-.12.14-.1.13,0,.16.09.13.11.24.11H12.8c.16,0,.16,0,.12.16s0,.19-.25.19Z"/><path id="_Path_17" data-name="&lt;Path&gt;" d="M17.62,15.06a.95.95,0,1,1-1,.95A1,1,0,0,1,17.62,15.06Z"/></g></g><g id="caduceusstaff"><g id="_Group_2" data-name="&lt;Group&gt;"><path id="_Compound_Path_" data-name="&lt;Compound Path&gt;" d="M18.68,21.32H12.22a4.79,4.79,0,0,1-1.06-.12c-.59-.13-1.18-.25-1.77-.36A.55.55,0,0,1,9,20.49a3.06,3.06,0,0,1-.14-2.22.5.5,0,0,1,.5-.42c.65,0,1.27-.27,1.92-.34a6.85,6.85,0,0,1,1.42,0l13.12,1.3a3,3,0,0,1,.61.08,1.18,1.18,0,0,1,.84.79A1.2,1.2,0,0,1,26.64,21a3.74,3.74,0,0,1-1.73.34ZM11.46,17.8c-.12,0-.26,0-.26.21s.1.14.2.14.29,0,.29-.2S11.57,17.81,11.46,17.8Zm.08,3.15a.26.26,0,0,0-.26-.22c-.1,0-.18.05-.16.16s.14.21.28.22S11.55,21.05,11.54,20.95Z"/><path id="_Compound_Path_2" data-name="&lt;Compound Path&gt;" d="M25,28.05a1.37,1.37,0,0,1-.62-.33,1.28,1.28,0,0,0-.56-.27l-2.13-.59a.34.34,0,0,0-.29,0,.71.71,0,0,1-.61.05l-8.31-2.4a1.1,1.1,0,0,1-.49-.27c-.25-.24-.52-.47-.78-.69a.59.59,0,0,1-.23-.42.24.24,0,0,0-.21-.24c-.24-.07-.48-.17-.72-.24s-.19-.1-.16-.24a.8.8,0,0,0,0-.35.26.26,0,0,0-.29-.23H9.17c-.28,0-.38,0-.44-.3a.36.36,0,0,0-.31-.3c-.2,0-.4-.11-.59-.16a1.28,1.28,0,0,1-1-1.31,9.87,9.87,0,0,1,.07-1.21c.06-.59.41-.74.9-.89a3.61,3.61,0,0,1,.73-.1.31.31,0,0,0,.31-.24c.17-.5.24-.53.76-.43l.16,0c.4,0,.49-.07.37-.45v0c-.13-.4-.11-.43.3-.52l.39-.09c.21,0,.38-.11.4-.36s.12-.16.2-.22a6.45,6.45,0,0,1,2.6-1c1.41-.36,2.84-.66,4.26-1,1.1-.22,2.2-.44,3.32-.6.16,0,.32,0,.42.13s.13.09.23.07a18.46,18.46,0,0,1,2.4-.44c.1,0,.13-.07.18-.13a2.31,2.31,0,0,1,.87-.75s.09-.05.12,0,0,.08,0,.11a6.38,6.38,0,0,1-1.31,1.57,1.64,1.64,0,0,1-.62.21c-.49.15-1,.27-1.48.41a.58.58,0,0,1-.25,0c-.14,0-.17-.07-.12-.21.2-.55.1-.66-.47-.56a.48.48,0,0,0-.35.17.44.44,0,0,1-.27.13L18.71,14a.37.37,0,0,1-.21,0c-.31-.14-.59,0-.88.06s-.21.16-.24.31.06.23.17.3.21.06.3.15a1.78,1.78,0,0,1-.52.16,2.29,2.29,0,0,0-.75.31,2.88,2.88,0,0,1-.76.23c-.48.17-1,.07-1.48.23a12.45,12.45,0,0,0-2.44.8l-.3.18s-.1.06-.08.13.09.06.14.06h.55a.39.39,0,0,1,.37.17c.12.2.3.21.48.21.66,0,1.31,0,2,.05s1.61.08,2.41.1l.61,0a2.41,2.41,0,0,0,1.6-.36.46.46,0,0,1,.29,0,4.32,4.32,0,0,1,1.14.16,3.13,3.13,0,0,0,.87,0c.41,0,.61.22.55.62,0,.14,0,.15.13.16a.67.67,0,0,1,.45.24l-2-.2c-2.8-.28-5.6-.55-8.39-.84a7.13,7.13,0,0,0-2.42.16c-.38.09-.76.14-1.15.2a.46.46,0,0,0-.39.29,3.21,3.21,0,0,0-.07,2.43c0,.13.12.26.18.39a.51.51,0,0,0,.41.32c.8.14,1.58.31,2.37.49a2.07,2.07,0,0,0,.47,0H22.32a.94.94,0,0,1,.35,0s0,.05,0,.05c-.27,0-.38.13-.27.41a.12.12,0,0,1-.07.16,1.16,1.16,0,0,1-.59.17,4.33,4.33,0,0,0-1.22,0,1.53,1.53,0,0,1-1.37-.24,1.31,1.31,0,0,0-.86-.26l-2.6-.09c-.82,0-1.64-.09-2.46-.09-.09,0-.17,0-.26,0s-.38-.09-.51.15A.35.35,0,0,1,12,22a1.54,1.54,0,0,0-.5,0s-.1,0-.12.05,0,.1.07.13a6.24,6.24,0,0,0,1,.59,20.83,20.83,0,0,0,2.15.73,9.73,9.73,0,0,1,1.19.28,1.72,1.72,0,0,1,.63.33,1.75,1.75,0,0,0,.68.25c.18.06.23.1,0,.23a.39.39,0,0,0,.06.64,4.19,4.19,0,0,1,.52.29.24.24,0,0,0,.29,0,.79.79,0,0,1,.55-.06,8,8,0,0,1,1.94.62.17.17,0,0,1,.09.07c.14.32.47.29.72.38s.24,0,.23-.19a2.12,2.12,0,0,0-.05-.4c-.05-.2,0-.25.21-.22a1.68,1.68,0,0,1,.29.09c.56.2,1.12.42,1.69.6.22.07.32.25.45.4A6,6,0,0,1,25,28.05ZM11,16.69a.51.51,0,0,0,.32-.08,8.45,8.45,0,0,1,.89-.5.14.14,0,0,0,.1-.17c0-.24-.09-.48-.15-.72a.18.18,0,0,0-.2-.16,1.1,1.1,0,0,0-.75.63.54.54,0,0,1-.12.2,1.19,1.19,0,0,1-.77.33c-.09,0-.18,0-.17.16s0,.2.17.22Zm-.46,5.53h0a2.16,2.16,0,0,0-.31,0,.2.2,0,0,0-.18.19c0,.11.08.14.17.16l.38.13c.18.07.4.14.43.34.06.41.39.5.67.66.1.06.2,0,.22-.08a2.93,2.93,0,0,0,.1-.77c0-.18-.19-.24-.3-.35a.85.85,0,0,0-.91-.31A1.12,1.12,0,0,1,10.53,22.22Z"/><path id="_Path_18" data-name="&lt;Path&gt;" d="M38.79,20.79a3.76,3.76,0,0,1-.08.57.23.23,0,0,1-.18.2,4.31,4.31,0,0,1-1.72.23c-.67-.06-1.33-.17-2-.22s-1.14,0-1.7,0a6.43,6.43,0,0,0-2,.26c-.19.05-.28.05-.3-.19a2.64,2.64,0,0,0-.66-1.49c0-.05-.13-.1-.1-.18s.13,0,.2-.05a14.09,14.09,0,0,1,4.14,0c.61.1,1.22.17,1.83.25a2.3,2.3,0,0,0,.83,0,1,1,0,0,0,.77-1.23c0-.11-.06-.23.09-.28s.33,0,.39.13A9.74,9.74,0,0,1,38.79,20.79Z"/><path id="_Path_19" data-name="&lt;Path&gt;" d="M25.33,11.47a6.57,6.57,0,0,0-.74.67.39.39,0,0,1-.22.09l-2.08.39c-.13,0-.2,0-.23-.13s-.1-.17-.21-.12a2.93,2.93,0,0,1-.86.18c-2.42.45-4.84.9-7.22,1.53a7.31,7.31,0,0,1-1.07.22,3.22,3.22,0,0,0-1.12.54c-.28.14-.6.27-.7.64,0,.08-.12.09-.2.11l-.94.25c-.17,0-.24,0-.26-.19A.56.56,0,0,1,9.83,15c.76-.42,1.51-.86,2.28-1.27a3.46,3.46,0,0,1,1-.26c.79-.15,1.58-.27,2.37-.4l3-.51L22,12l3.17-.55Z"/><path id="_Compound_Path_3" data-name="&lt;Compound Path&gt;" d="M31.83,19.46c-.46,0-1.2.1-2,.18a.29.29,0,0,1-.28-.07,4.58,4.58,0,0,0-.89-.71,1,1,0,0,1-.23-.2c-.21-.24-.13-.47.2-.52a1.73,1.73,0,0,1,.61,0c.54.12,1.09.14,1.63.22l1.61.21,1.08.12a34.22,34.22,0,0,0,3.67.09.24.24,0,0,1,.27.23.71.71,0,0,1-.62.85,5.86,5.86,0,0,1-1.63-.12A23.08,23.08,0,0,0,31.83,19.46Zm5.38-.08c0-.15-.08-.24-.24-.23a.2.2,0,0,0-.21.23c0,.14.08.24.24.24S37.21,19.52,37.22,19.39Zm-8.32-1.08a.17.17,0,0,0-.16.18.15.15,0,0,0,.16.16.14.14,0,0,0,.17-.15A.18.18,0,0,0,28.89,18.31Z"/><path id="_Path_20" data-name="&lt;Path&gt;" d="M25.06,28.39a.44.44,0,0,1-.42,0l-6.55-1.62-4.2-1c-.57-.14-1.15-.28-1.71-.44A4.78,4.78,0,0,1,11,24.63c-.52-.32-1-.67-1.52-1a.54.54,0,0,1-.22-.6.3.3,0,0,1,.37-.21,6.62,6.62,0,0,1,1,.31.24.24,0,0,1,.15.2.81.81,0,0,0,.33.47,9.93,9.93,0,0,1,.78.7,1,1,0,0,0,.44.26q4.12,1.19,8.24,2.39a1.3,1.3,0,0,0,.94,0,.73.73,0,0,1,.49.05l1.94.55a1.09,1.09,0,0,1,.34.21A3.88,3.88,0,0,0,25.06,28.39Z"/><path id="_Path_21" data-name="&lt;Path&gt;" d="M24.57,17.88l-.76,0c-.15,0-.16-.07-.08-.18a1.17,1.17,0,0,1,1.05-.31,13.76,13.76,0,0,0,1.73.27.14.14,0,0,0,.09,0c.4-.3.76-.1,1.11.09a2.57,2.57,0,0,1,.4.33.13.13,0,0,1,0,.17c-.18.36,0,.61.28.79a14.63,14.63,0,0,1,1.21,1,2.63,2.63,0,0,1,.9,1.65.86.86,0,0,1,0,.17s0,.07-.05.07-.06,0-.07-.08a.84.84,0,0,1,0-.12,1.61,1.61,0,0,0-.68-1.37L29,19.64c-.08-.07-.17-.18-.28-.06s0,.2.08.28l.58.59a4.75,4.75,0,0,1,.52.65.91.91,0,0,1,.15.42.5.5,0,0,1-.41.62,1.08,1.08,0,0,1-1.23-.33c-.11-.11-.15-.2-.06-.35a1.65,1.65,0,0,0,.16-.37.74.74,0,0,0-.25-.81,2,2,0,0,1-.43-.44,9.45,9.45,0,0,0-1-1.11,2.71,2.71,0,0,0-2-.86h-.24Z"/><path id="_Path_22" data-name="&lt;Path&gt;" d="M5.35,20.73a14.14,14.14,0,0,1-1.64-.19c-.57-.07-1.14-.15-1.7-.25s-.63-.2-.69-.78a3.54,3.54,0,0,1,0-.62.32.32,0,0,1,.26-.33c.17,0,.34-.05.43.18s.3.23.48.25a10.21,10.21,0,0,0,1.42,0,.39.39,0,0,0,.37-.29.24.24,0,0,1,.24-.19,5.31,5.31,0,0,1,1.18.06c.16,0,.23.1.21.27A3.8,3.8,0,0,0,6,20.35a.31.31,0,0,1-.29.37Z"/><path id="_Path_23" data-name="&lt;Path&gt;" d="M23.48,21.59c.53,0,1,0,1.56,0a3.75,3.75,0,0,0,1.76-.41,1.4,1.4,0,0,0,.67-.91.63.63,0,0,1,.11-.29l.59.64a.39.39,0,0,1,.06.46c-.2.38-.3.82-.69,1.07a.78.78,0,0,1-.56.12c-.77-.13-1.55-.25-2.31-.44a3.83,3.83,0,0,0-.84,0A.36.36,0,0,1,23.48,21.59Z"/><path id="_Path_24" data-name="&lt;Path&gt;" d="M18.65,14.78a4.73,4.73,0,0,1-.9-.34c-.1,0-.1-.13,0-.17a.74.74,0,0,1,.48-.07,1,1,0,0,0,.62,0L21,13.66a.69.69,0,0,0,.4-.2.26.26,0,0,1,.19-.09c.07,0,.15,0,.2,0s0,.13,0,.2l-.14.28a.54.54,0,0,1-.41.31c-.76.17-1.51.37-2.26.57A1,1,0,0,1,18.65,14.78Z"/><path id="_Path_25" data-name="&lt;Path&gt;" d="M18.23,24.6l.66.2,1.89.63a1,1,0,0,1,.52.69c0,.11,0,.15-.14.12a.41.41,0,0,1-.31-.18c-.15-.27-.47-.24-.7-.35a5.66,5.66,0,0,0-1.73-.5c-.07,0-.15,0-.21,0-.3.2-.54,0-.79-.13s-.16-.22,0-.33S18,24.68,18.23,24.6Z"/><path id="_Path_26" data-name="&lt;Path&gt;" d="M5.16,17.66a2.2,2.2,0,0,1,.59.05.42.42,0,0,1,.32.41c0,.14,0,.29-.28.19a2.54,2.54,0,0,0-.89,0c-.24,0-.47,0-.66-.21a.62.62,0,0,0-.51-.15L2.43,18a.49.49,0,0,0-.36.15.45.45,0,0,1-.44.16c-.06,0-.16,0-.18-.06a.2.2,0,0,1,.1-.2A1,1,0,0,1,2,17.86Z"/><path id="_Path_27" data-name="&lt;Path&gt;" d="M27.92,16.64a.31.31,0,0,1-.28.17L27,16.9a.53.53,0,0,0-.41.26.3.3,0,0,1-.36.16l-1-.14c-.07,0-.18,0-.2-.08s.08-.16.16-.21a3.39,3.39,0,0,1,1-.31A7.41,7.41,0,0,1,27.92,16.64Z"/><path id="_Path_28" data-name="&lt;Path&gt;" d="M3.19,18.74H2.55c-.2,0-.34-.12-.34-.32s.19-.19.34-.2l1,0a1.36,1.36,0,0,1,.28,0c.12,0,.3,0,.27.2s0,.37-.29.37H3.19Z"/><path id="_Path_29" data-name="&lt;Path&gt;" d="M26.16,18.56a2.42,2.42,0,0,1-.71,0l-1.77-.18c-.07,0-.16,0-.18-.08s.08-.15.16-.18a.36.36,0,0,1,.16,0c.56.06,1.12,0,1.68.14A1.52,1.52,0,0,1,26.16,18.56Z"/><path id="_Path_30" data-name="&lt;Path&gt;" d="M6.55,19.46c0,.17,0,.33,0,.5s0,.19-.14.2-.22,0-.24-.13a3.5,3.5,0,0,1,.07-1.53c0-.14.17-.13.28-.12s.1.12.1.2c0,.29-.05.58-.08.87Z"/><path id="_Path_31" data-name="&lt;Path&gt;" d="M9.39,16.14c.25,0,.41,0,.44.3,0,.08.1.18,0,.22s-.26,0-.29-.1S9.37,16.29,9.39,16.14Z"/><path id="_Path_32" data-name="&lt;Path&gt;" d="M9.23,22.63c-.08-.22.11-.34.15-.51s.15-.06.19,0,.11.25,0,.34A1.89,1.89,0,0,1,9.23,22.63Z"/><path id="_Path_33" data-name="&lt;Path&gt;" d="M27.1,17.19a1.18,1.18,0,0,1,.54-.11c.06,0,.17,0,.16.09a.15.15,0,0,1-.19.13Z"/><path id="_Path_34" data-name="&lt;Path&gt;" d="M10.8,16.39a1.06,1.06,0,0,0,.67-.73c0-.18.23-.2.37-.25s.07,0,.09.06a.42.42,0,0,1-.15.56l-.53.31A.47.47,0,0,1,10.8,16.39Z"/><path id="_Path_35" data-name="&lt;Path&gt;" d="M11.74,23.12c0,.05,0,.23-.12.24a.27.27,0,0,1-.29-.24A.63.63,0,0,0,11,22.6s-.1,0-.07-.1a.17.17,0,0,1,.12-.07.66.66,0,0,1,.52.23C11.63,22.77,11.79,22.87,11.74,23.12Z"/></g></g><g id="mercy"><path d="M27.93,21.82c.12-.11,0-.15-.14-.5a6.83,6.83,0,0,1-.06-1.77,6.31,6.31,0,0,0,0-1.2.86.86,0,0,1,.14-.72c.14-.21.2-.73-.29-2.29-1.39-4.4-6-5.28-7.13-5.29s-1-.08-1.29.66-.56.61-1.26.25-1.32.45-2,1.12-.09.71.64,1.21.6.48.29.62a10.63,10.63,0,0,0-1.28.81c-.3.22-.37.07-.9-.13s-.5.15-1.83,1.51-1.9,1.94-2.29,5c0,0-.08.78-.26,2.24a8.21,8.21,0,0,1-2,4.26c-1,1.07-1.37,1.09-.28.7a19.9,19.9,0,0,0,5.4-3.51c.44.74.88,1.41,1.19,2l0,.06c-.94,2.22-.82,1.94.15.93l.22-.23h0a7.9,7.9,0,0,0,3.6,4.82c2.14,1.11,1.92,1,2.67,1a10.34,10.34,0,0,0,3.88-2.76c.82-1.29,1.91-3.43,1.1-3s-1.23.43-1.37,1.17S24.74,31,21.27,33c-1.39.82-4.53-3.23-4.53-3.84A1.28,1.28,0,0,0,16,27.92a4.26,4.26,0,0,1-.79-.55l.1-.11.18.06c.83.34,1.14.51,1.11-.1s.2-.54-.37-1a15.87,15.87,0,0,0,2.36-3.52,11,11,0,0,1,3.85-4.33c.28-.09.93.7.93.7.18.5.29.89.56-.09s1,1.78,2.07,3.37a3.72,3.72,0,0,0,.29.38c-.23.23.17,2,.24,2.39s.05.33-.1.49a4.57,4.57,0,0,1-1.3.9c-.39.22-.18.56-.11.89s.11.28.35.2l1.24-.46c.39-.15.38-.32.68-1a5.59,5.59,0,0,1,.87-1.33.8.8,0,0,0,.1-.38c.37.27.71.5,1,.67.81.55.12-.53-.34-1.11A5,5,0,0,1,27.93,21.82Z"/><path d="M29.81,22.58V16.82c0-2.57-2.43-8.73-9.26-8.73S12,14.49,11.71,15.6c0,0,0,.57.17.4a16.19,16.19,0,0,0,1.91-1.71c.2-.34,1.32-4.66,7-4.78,6.66-.14,7.82,7.29,7.89,8.2s-.06.71-.45,1.12-.3,1.39-.32,2,.37.21.65-.16.22,0,.15.44a13.17,13.17,0,0,0,0,1.58c0,.45.51.3.82.3S29.81,23,29.81,22.58Z"/><path d="M28.33,11.73a5.67,5.67,0,0,0,1.1-1.62c.17-.47-.16-.24-.29-.18a6.17,6.17,0,0,1-1.42.18c-.36,0-.56-.15-.37.15C27.82,11,28.18,11.78,28.33,11.73Z"/><path d="M22,7.55c.21.09.64.14,1,.28s.35-.05.46-.25.3-.58.65-1.15-1.36.42-2,.78C21.68,7.42,21.79,7.46,22,7.55Z"/><path d="M13.63,10.78s.31-.35.49-.52.12-.15,0-.27-.81-.39-1.46-.74.16.92.49,1.34S13.59,10.81,13.63,10.78Z"/></g></svg>