<svg xmlns="http://www.w3.org/2000/svg" viewBox="0 0 40 40"><defs><style>.cls-1{fill-rule:evenodd}</style></defs><title>moira</title><g id="damage"><path d="M22.43 28.65L32.59 33a.53.53 0 0 0 .71-.71l-4.36-10.16a.53.53 0 0 0-.84-.13l-5.8 5.8a.53.53 0 0 0 .13.85zm-4.86-17.89L7.41 6.4a.53.53 0 0 0-.71.71l4.36 10.17a.53.53 0 0 0 .84.13l5.8-5.8a.53.53 0 0 0-.13-.85zm-6.51 11.37L6.69 32.29a.53.53 0 0 0 .71.71l10.17-4.36a.53.53 0 0 0 .13-.84L11.9 22a.53.53 0 0 0-.84.13zm17.88-4.85l4.37-10.17a.53.53 0 0 0-.71-.71l-10.17 4.36a.53.53 0 0 0-.13.84l5.8 5.8a.53.53 0 0 0 .84-.12z"/><circle cx="20" cy="19.7" r="4.63"/></g><g id="heal"><g id="_Group_" data-name="&lt;Group&gt;"><path id="_Path_" data-name="&lt;Path&gt;" class="cls-1" d="M31 24.23h-7.64l-2 7.74a1.51 1.51 0 0 1-1.49 1.13H14.4a1.88 1.88 0 0 1-1.82-2.27l1.71-6.6H7.83A1.88 1.88 0 0 1 6 22l1.48-5.7A1.51 1.51 0 0 1 9 15.17h7.67l2-7.74a1.51 1.51 0 0 1 1.47-1.13h5.46a1.88 1.88 0 0 1 1.82 2.27l-1.71 6.6h6.46A1.88 1.88 0 0 1 34 17.44l-1.48 5.66A1.51 1.51 0 0 1 31 24.23z"/></g></g><g id="coalescence"><path class="cls-1" d="M26.43 14.32c2 1.85 2.4 5.68 3 5.87s.78-1.3.32-3.37c4.88 6.94 1.33 14.69-3.22 15.53-.36.07 1.27-1.16.76-1.65s-.83.26-1.37.73l-.29.27a9 9 0 0 1-2.68 1.59l-.35.13-.21.07a9 9 0 0 1-1.48.31h-1.99l-.56-.09a9.11 9.11 0 0 1-.89-.22L17 33.3l-.45-.18a9 9 0 0 1-.94-.48l-.29-.18a26.56 26.56 0 0 1-2.71-1.84c-.39-.26-1-.48-1.19.16s.49 1.05 1.29 1.74c-2.23-.54-4.22-3.06-4.22-3.06s1 .49 1.26.19-3.48-3.77-1.5-9.45c1 3 2 1.36 1.86-.32a6.43 6.43 0 0 1 2.71-4.78s-.76 2.26.61 2c1.11-.26 5.28-9.1 5.28-9.1s-2.43 6.86-3.07 8.39a15.62 15.62 0 0 1-2.33 3.72 8.4 8.4 0 0 0-.86 7.89 7.15 7.15 0 0 0 1.27 2.2l.13.14a8 8 0 0 0 1 .9l.41.29a8.13 8.13 0 0 0 .91.53 8 8 0 0 0 .74.32l.37.13.27.08.55.14a8.05 8.05 0 0 0 .8.13h1.93l.53-.07c.25 0 .51-.1.75-.16l.19-.05.37-.12a8.09 8.09 0 0 0 2.07-1.05l.38-.28.43-.36a8 8 0 0 0 1.92-2.61q.14-.31.26-.63c0-.13.09-.27.13-.4l.1-.36q.08-.33.14-.67a8.36 8.36 0 0 0 .07-2 14.78 14.78 0 0 0-1.91-5.68l-.56.58a25 25 0 0 1-2.28-4.34C21.22 9.41 20 6.17 20 6.17s5.21 9.18 5.69 9.71 1.06.82.7-1.57"/><path class="cls-1" d="M17.6 17.54c2-.75 5.7-.23 7.23 4.35a7.88 7.88 0 0 1 .05 4.81 6 6 0 0 0-.31-1.84c-.64 5.59-8.18 4.74-9.13 1 .16 2.44 2 3.81 4.87 4.52a5.59 5.59 0 0 1-5.44-3c-.89-1.83-1-7.05 3.81-7.68a4.49 4.49 0 0 1 4.51 2.08 4.31 4.31 0 0 0-3.92-3.32 5.1 5.1 0 0 0-2.94.53c1.09-2.3 3.46-12.16 3.46-12.16l3.4 11.27s-2.91-2.67-5.59-.6z"/></g><path class="cls-1" d="M13 34a17.78 17.78 0 0 1-3-7l2-3.22-.7-1.23s-1.93 1.72-2 1.47a3.24 3.24 0 0 0-1.42-2.15L8 21c-.4.15-1 .55-1.47.1-.14-.15.75-1.47.62-3.08v-.08A11.27 11.27 0 0 0 9.36 20l.91-2.88a4.39 4.39 0 0 1-1.82-1.6 2.56 2.56 0 0 0-1.32 1.78.76.76 0 0 0 0 .16 2.35 2.35 0 0 0 .06.43l-.35-.34a11.08 11.08 0 0 1-.22-2c-.69-.72-1.17-1.27-1.57-1.78a4.4 4.4 0 0 1-.1-.83 2.31 2.31 0 0 1 .71-1.59v.38c0 .67.11 1 .35 1.15a6.55 6.55 0 0 1 1.75-2.78c4.5.2 9.28-1.52 11.08-3.43a7 7 0 0 1-1.61 3.18 5.19 5.19 0 0 0 1.62-.56.34.34 0 0 1 0 .11 15.43 15.43 0 0 1-.43 1.87 20.73 20.73 0 0 0 2.89-.74l1 .76a22.11 22.11 0 0 0-8.1 6.12 2.73 2.73 0 0 1-1.36-.94 2.5 2.5 0 0 1-.41-.74l1.12-1.25c-.08-.22-1.85 1-1.79 1.24v.1a2.6 2.6 0 0 0 .24.52 4 4 0 0 0 2.59 1.73A12.33 12.33 0 0 1 17.78 15c-.28 2-.81 1.67-.81 2.69a1 1 0 0 0 0 .18 1.75 1.75 0 0 1 .6 0l.1-.07a2 2 0 0 1 2.58-1.6c.27.22.3-1.59.12-2.18.56-.52 3.87-.66 7.07 3.38-2.07 0-4.59.17-6.58 1.93 2.59-.82 3.69-1.12 8.23-.91 4.31.21 4.19-2.71 1.78-2.65a2.08 2.08 0 0 1 3 2.32c-1.21 4.5-13.48.55-17.86 6.31 4.93-3.61 16.29-.33 18.34-4.68-.7 7.87-16.19 2.85-21.27 10.37 4.14-4.6 16.3-1.8 19.76-5.6-3.44 4.19-7 4.14-11.87 5.36A25.25 25.25 0 0 0 13 34zM8.17 18a2.05 2.05 0 0 0 1-.52s-.09.73-.21.82a1 1 0 0 1-.63.09c-.12 0-.19-.39-.19-.39z" id="fade"/><path class="cls-1" d="M23.64 10.25a10.28 10.28 0 0 0-1.11-.4 3.06 3.06 0 0 0-.29-.33 3.23 3.23 0 0 0-.24-.26l-.28-.2-.34-.2-.38-.15-.2-.08-.42-.13h-.2l-.32-.07a5.86 5.86 0 0 0-.67-.08 6.35 6.35 0 0 0-.86 0h-.37a6.27 6.27 0 0 0-.66.12 5.59 5.59 0 0 0-1 .32l-.24.11-.2.1-.14.08-.27.17a4.8 4.8 0 0 0-.51.38 2.61 2.61 0 0 0-.33.34l-.13.18a2.61 2.61 0 0 0-.19.34l-.1.24-.06.18-.43.28a3.56 3.56 0 0 1 .06-.4c0-.1 0-.19.07-.29a3.15 3.15 0 0 1 .14-.39 2.82 2.82 0 0 1 .24-.43 3.25 3.25 0 0 1 .49-.56 8 8 0 0 1 .76-.6l.37-.24.22-.13a6.41 6.41 0 0 1 .78-.35 7.17 7.17 0 0 1 .92-.27l.43-.08a7.6 7.6 0 0 1 1-.08h.21a6.65 6.65 0 0 1 1 .09l.51.11a4.8 4.8 0 0 1 1.1.5l.22.13a4.17 4.17 0 0 1 .74.61 3.56 3.56 0 0 1 .24.28 3.36 3.36 0 0 1 .35.55c0 .07.06.14.09.21a2.65 2.65 0 0 1 .13.47h.06a10.43 10.43 0 0 1 2.81 1.87l.46.46a10.51 10.51 0 0 1 1 1.21v-.42c0-.11-.07-.43-.12-.64s-.06-.23-.09-.34l-.05-.17-.07-.24-.09-.26v-.08l-.09-.24-.08-.19-.06-.14-.11-.24-.15-.29-.19-.1v-.12l-.09-.16v-.08l-.14-.15-.06-.11-.08-.14-.06-.11-.06-.11-.07-.11-.21-.3-.09-.12-.2-.24-.16-.16-.25-.22-.27-.19a3.29 3.29 0 0 0-.53-.28 3.46 3.46 0 0 0-.49-.16L24 7.7h-.23l-.09-.1.1-.09h.49a4.76 4.76 0 0 1 1 .2l.17.06.14.06.24.1.32.17.14.08.36.26.09.07.06.05c.12.11.24.22.35.33l.19.21.08.1.14.18.06.1.09.15.08.15.06.13.07.15.06.15.1.28c0 .12.07.24.1.35v.24c0 .14.06.29.08.43s0 .17 0 .25v1.66q0 .39-.07.77.18.28.34.58a5.58 5.58 0 0 1 .71-.38 4.18 4.18 0 0 1 .5-.18l.35-.09.49-.07h.46a3.67 3.67 0 0 1 .67.07l.29.07a2.31 2.31 0 0 1 .61.3 1.91 1.91 0 0 1 .34.31 1.84 1.84 0 0 1 .3.46 2 2 0 0 1 .11.32 1.91 1.91 0 0 1 0 .25 2.52 2.52 0 0 1 0 .34v1.02a3.76 3.76 0 0 1-.08.4l-.06.21-.12.34a7.93 7.93 0 0 1-.44.98c-.09.17-.21.38-.32.56l-.16.26a11.71 11.71 0 0 1-.95 1.22l-.2.22-.36.37-.33.32-.18.16q-.36.32-.74.62l-.11.36.17.26c.09.15.18.31.26.47l.09.22a4.43 4.43 0 0 1 .15.44c0 .1.05.19.07.29a5 5 0 0 1 .11 1v.36a5 5 0 0 1-.15 1.44c0 .1-.08.2-.12.29a5.22 5.22 0 0 1-.51.86 4.87 4.87 0 0 1-.35.43 4.93 4.93 0 0 1-.44.42l-.29.22a5.59 5.59 0 0 1-.57.36 6 6 0 0 1-.67.31l-.32.12a6.22 6.22 0 0 1-1.24.27 5.45 5.45 0 0 1-1.68-.06 4.22 4.22 0 0 1-1.05-.35 3.68 3.68 0 0 1-.62-.39l-.25-.17q-.44.1-.89.16a3.32 3.32 0 0 1 .07.71 2.68 2.68 0 0 1-.36 1.34l-.14.2a2.16 2.16 0 0 1-.72.61 3 3 0 0 1-1.64.28h-.32l-.37-.08-.42-.13a5.93 5.93 0 0 1-1-.44l-.45-.28-.39-.29a8.75 8.75 0 0 1-.72-.63c-.18-.18-.36-.36-.52-.55l-.32-.4c-.1-.13-.2-.27-.29-.41l-.2-.33c-.09-.16-.18-.33-.27-.5s-.12-.26-.17-.39-.12-.32-.17-.48-.09-.3-.12-.45-.07-.33-.09-.49a10.46 10.46 0 0 1-2.17-3 10.37 10.37 0 0 1-1.05-4.52H9a2 2 0 0 1-.48-.07 2.43 2.43 0 0 1-.43-.16l-.25-.14a3.36 3.36 0 0 1-.45-.34 3.7 3.7 0 0 1-.48-.52l-.21-.31-.1-.17a4.16 4.16 0 0 1-.19-.4 4.62 4.62 0 0 1-.25-.82A5.48 5.48 0 0 1 6 15.88a6.22 6.22 0 0 1 .13-1.35q0-.18.09-.36L6.3 14a7.06 7.06 0 0 1 .33-.86 7.23 7.23 0 0 1 .57-1l.14-.2.26-.33a6.76 6.76 0 0 1 1.14-1.08l.3-.21a4.5 4.5 0 0 1 1.77-.74 3.31 3.31 0 0 1 .45 0h.38a3 3 0 0 1 .58.13 3.22 3.22 0 0 1 .57.25l.27.16v.13h-.13l-.1-.06-.1-.05-.16-.14a2.85 2.85 0 0 0-.51-.17 2.64 2.64 0 0 0-.47-.07h-.34a3.13 3.13 0 0 0-1 .25 4.61 4.61 0 0 0-1 .57 6 6 0 0 0-1.14 1.13 6.41 6.41 0 0 0-.46.69 6.31 6.31 0 0 0-.43.9 6.09 6.09 0 0 0-.25.84c0 .16-.07.32-.09.48a5.29 5.29 0 0 0 0 1.07v.53a4.73 4.73 0 0 0 .11.51 3.9 3.9 0 0 0 .16.47 3.2 3.2 0 0 0 .22.42l.12.19a3 3 0 0 0 .31.38 2.63 2.63 0 0 0 .41.35l.24.14.12.06a1.1 1.1 0 0 0 .26.07h.29q0-.43.12-.86a10.35 10.35 0 0 1 .92-2.78 10.46 10.46 0 0 1 1.89-2.66 2.07 2.07 0 0 0-.36-.6l-.14-.14-.21-.17a1.67 1.67 0 0 0-.32-.16 1.93 1.93 0 0 0-.52-.12 2.41 2.41 0 0 0-.67 0 5.07 5.07 0 0 0-1.27.49h-.19v-.12a5.2 5.2 0 0 1 1.5-.64h.35a2.63 2.63 0 0 1 .41 0 2.2 2.2 0 0 1 .56.13 2 2 0 0 1 .35.17l.24.18a2.39 2.39 0 0 1 .54.66 10.44 10.44 0 0 1 2.7-1.83 10.34 10.34 0 0 1 2.68-.83q.49-.08 1-.12h1.33q.49 0 1 .1a10.36 10.36 0 0 1 2.49.71zM13.77 28.5l.13.3c.07.15.14.29.22.43l.17.29c.1.15.19.31.3.45l.22.29.14.18.33.38a7.57 7.57 0 0 0 .62.6l.29.24.3.22a4.88 4.88 0 0 0 1.14.61l.34.11a3.29 3.29 0 0 0 .58.1 2.46 2.46 0 0 0 .81-.06 1.82 1.82 0 0 0 .42-.16 1.71 1.71 0 0 0 .31-.22l.15-.15a2.19 2.19 0 0 0 .5-1.3 2.93 2.93 0 0 0 0-.61 10.53 10.53 0 0 1-1.15.06 10.37 10.37 0 0 1-5.79-1.76zm15.17-4.11a10.46 10.46 0 0 1-6.7 5.52l.2.13a3.63 3.63 0 0 0 1.24.45 4.62 4.62 0 0 0 1.31 0l.44-.07.49-.12a5.72 5.72 0 0 0 .56-.2 5.38 5.38 0 0 0 .85-.45 4.68 4.68 0 0 0 .51-.38l.19-.17a3.9 3.9 0 0 0 .41-.45 4.3 4.3 0 0 0 .58-1c0-.11.08-.22.12-.33a4.12 4.12 0 0 0 .15-.74 4.07 4.07 0 0 0 0-.44v-.53a4.2 4.2 0 0 0-.09-.48c0-.12-.06-.24-.1-.36s-.06-.16-.09-.24l-.05-.11zm-19.5-2.16a10.35 10.35 0 0 0 .33 1.1l-.07.08a2.89 2.89 0 0 0-.23.31l-.11.18a3.22 3.22 0 0 0-.15.31l-.07.16a3.38 3.38 0 0 0-.11.34 4 4 0 0 0-.12.69v.23a4.34 4.34 0 0 0 0 .48 4.77 4.77 0 0 0 .08.62c0 .15.06.29.11.43a4.57 4.57 0 0 0 .33.81 4.23 4.23 0 0 0 .31.51 3.51 3.51 0 0 0 .92.89 3.18 3.18 0 0 0 .42.23 3 3 0 0 0 .65.21l.08.1-.11.08h-.11l-.31-.06a3.48 3.48 0 0 1-.5-.16 3.53 3.53 0 0 1-.5-.25 4.38 4.38 0 0 1-1.21-1.12 5.09 5.09 0 0 1-.49-.81 5.54 5.54 0 0 1-.28-.67 5.25 5.25 0 0 1-.16-.59 5.43 5.43 0 0 1-.09-.63v-.31a4.74 4.74 0 0 1 .1-1.07q0-.15.07-.29v-.15a4.06 4.06 0 0 1 .19-.45l.11-.21.22-.22a3.66 3.66 0 0 1 .26-.35l.11-.12.28-.26h.05zm16.67-8.57l-.35-.35a9 9 0 0 0-2.41-1.64A8.93 8.93 0 0 0 21 11q-.42-.07-.85-.1H19c-.28 0-.57 0-.85.09a8.92 8.92 0 0 0-2.33.69 9 9 0 0 0-4.24 4 8.93 8.93 0 0 0-.82 2.32 9.08 9.08 0 0 0-.1 3 8.94 8.94 0 0 0 .76 2.6 9 9 0 0 0 1.87 2.64l.12.12 12.71-12.69zm-2.86 9.75h-2.34c-.38 0-.54-.22-.44-.58l.26-1c.07-.26.16-.33.42-.33h4.74a.41.41 0 0 1 .43.55c-.08.34-.17.68-.27 1s-.16.32-.42.32zm6.53-1.57l.06-.07.16-.17.32-.38.3-.39.13-.18c.16-.22.31-.43.45-.66s.22-.36.32-.54l.11-.2.19-.38q.1-.22.19-.44l.09-.23.1-.27.12-.35c0-.1.06-.2.09-.3s0-.17 0-.26v-.96a1.48 1.48 0 0 0 0-.29 1.21 1.21 0 0 0 0-.14.93.93 0 0 0-.07-.17 1 1 0 0 0-.35-.37 1.65 1.65 0 0 0-.28-.14l-.19-.07H30.4a3.79 3.79 0 0 0-.93.16 4.85 4.85 0 0 0-.69.29 10.46 10.46 0 0 1 .88 6.62zm-15.1-5.92h.68a.23.23 0 0 0 .28-.21c.11-.45.23-.89.34-1.34s.19-.4.52-.4h1a.45.45 0 0 1 .48.62c-.1.38-.19.76-.3 1.14-.05.17 0 .2.16.19H19a.45.45 0 0 1 .47.62l-.27 1a.42.42 0 0 1-.48.38h-1.33c-.2 0-.28.07-.32.25-.1.44-.22.88-.34 1.32-.08.29-.17.36-.47.36h-1.08a.44.44 0 0 1-.47-.61c.09-.38.18-.75.3-1.12.06-.18 0-.21-.17-.2h-1.05c-.46 0-.63-.24-.52-.68l.26-1c.08-.28.18-.36.47-.36zm-2.51-3.42zm11.58-2.2zm0 0zm0 0z" id="bioticorb"/><path class="cls-1" d="M30.78 25.67A12 12 0 0 1 26 27.45a4.27 4.27 0 0 1-2-.25 2.12 2.12 0 0 1-1.34-1.78h-.1c-.15 0-.35-.35-.35-.35a1.69 1.69 0 0 1-.75-.08 2.16 2.16 0 0 1-.41-.32l-.48-.41a2.79 2.79 0 0 1-.58.22 6.44 6.44 0 0 1-1.2.1l-1.62.14a7.87 7.87 0 0 1-1 .28 8.35 8.35 0 0 1-1.54 0 3 3 0 0 1-.74-.28 3 3 0 0 1-1.08-.26.22.22 0 0 1-.13-.25c0-.11.23-.19.23-.19l.65-.23a1.31 1.31 0 0 1 .41-.31 2 2 0 0 1 .74-.2h1.51l1.1-.39.77-.34.34-.49v-.15a.61.61 0 0 1-.26 0c-.06 0-.08-.18-.08-.21a2.65 2.65 0 0 1 0-.36v-.29l.71-.11a4.93 4.93 0 0 1 .91-.22 10.22 10.22 0 0 0 1.36-.2h.21c.07 0 .5.26.5.26.3.17.45.19.5.11l-.57-.54v-.05s.19-.3 0-.42l-.18.19a.41.41 0 0 1-.12.13l-.17.11a1 1 0 0 1-.19.07 7.26 7.26 0 0 1-1.55.13l-.9.21-1 .14c-.13 0-.3.28-.54.37a4.85 4.85 0 0 1-1 .25 1.61 1.61 0 0 1-.6 0 .8.8 0 0 1-.34-.21l-.66.33h-.14c-.09 0-.25-.12-.16-.23a6.7 6.7 0 0 1 .56-.6 3.52 3.52 0 0 1 .58-.42 2.61 2.61 0 0 1 .48-.16l1.59-.72 2-.48 1.75-.26h.37l-.23-.14h-.13l-1 .09a9.92 9.92 0 0 1-1.61.23l-.45-.35c-.24-.2-.63-.4-.86-.61h-.76a3.26 3.26 0 0 1-1.45-.33 5.64 5.64 0 0 1-.78.18 1.63 1.63 0 0 1-.72 0 1.63 1.63 0 0 1-.57-.45 2 2 0 0 1-.11-.25h-.46s-.17 0-.18-.12.16-.16.27-.2a2.06 2.06 0 0 1 .38-.09l.84-.12 1.26-.15h.3s1.66-.15 1.95-.12a13.51 13.51 0 0 1 1.7.7l1.22.71.9.22h.23a.32.32 0 0 1 .16.08l.42.37a2.51 2.51 0 0 1 .46 0 1.44 1.44 0 0 1 .33.18l.53.67.58 1c.08.14.72-.14.72-.14a3.42 3.42 0 0 1 .49.43A32 32 0 0 1 28 24.21a16.17 16.17 0 0 0-2.64.34l-.52.25a4.19 4.19 0 0 1-1.22.28v.11a.17.17 0 0 1-.1.13h-.1a1.4 1.4 0 0 0 .9 1.21c1.73.7 4.19-.4 5.48-1.1l-.8-.09-.59-1v-.06A29.42 29.42 0 0 0 25.72 21a6.36 6.36 0 0 1 .69-.39 38.73 38.73 0 0 1 4.43-.61 3.47 3.47 0 0 1 .9.27l.16.34c.29.09 2.82.89 3.13 1a.28.28 0 0 1 .13.08.51.51 0 0 1-.19.82l-3.33 1.14-.18.26 3.89.51 2.59.21a1.32 1.32 0 0 0-.55-.45c-.4-.2-4.61-.6-4.61-.6l2-.75a15.63 15.63 0 0 1 3.55.6 4.08 4.08 0 0 1 1.37 1.59l-1.38-.16-3-.24-.36.18-3.39.88-.71-.1a.18.18 0 0 1-.12 0zm-7.42-.55s.1-.3.09-.23l.46-.07v-.25l-.23-.47-.27-.35-.45-.57-.05-.07.26-.14c0-.15-.43-.43-.43-.73s.55-.62.55-.62l.46-.15-.3-.47s-.67.24-.77.3a4.27 4.27 0 0 1-.88.11 7.62 7.62 0 0 1-.77-.48l-.93.12s.43.26.57.36.53.47.53.47.3.28.38.37.41.63.21 1-1.33.33-1.33.33h-.19l.2.23.82.71.18.16a.93.93 0 0 0 .71.17h.18a1.57 1.57 0 0 0 .34.38v-.16a.35.35 0 0 1 .23-.42.33.33 0 0 1 .4.24c0 .1.06.2.08.3zm-7.8-5.66a9.66 9.66 0 0 0-2 1.84c.22.85 1.35.68 1.39 1.12l-2.31-.19-.66.42a7.14 7.14 0 0 1-1.67.57l-2.67.11a5.72 5.72 0 0 1-1.64.29A7.58 7.58 0 0 0 4.42 23h-.15l-1.72-.78-.35-.42.18-.06 1.28.44a1 1 0 0 1 .53-.34 5.51 5.51 0 0 1 1.36.06l.68.29a5.61 5.61 0 0 0 1.69-.44l.63-.43.31-.82a3 3 0 0 0-.93-1.5l-.66-1.1a6.68 6.68 0 0 0-.3-1 13.47 13.47 0 0 0-1.08-1.75 7.8 7.8 0 0 1-1.82.17l-.54.4a3 3 0 0 1-.74.23c-.32 0-.54-.06-.63-.25-.64.61-1.16 1.16-1.73 1.71a.14.14 0 0 1-.17-.13 2.16 2.16 0 0 1 .36-.69 8.88 8.88 0 0 1 2-1.67h.19a3.86 3.86 0 0 1 .8-.53 7 7 0 0 1 1.17-.16 9.08 9.08 0 0 1 1.54-.16l.54.28.34.49h.28l1.84 2.36.54.25c.86.4 1.52.86 2.57 1.28.33.13 3 .65 3.12.67zm4 3.7a2.3 2.3 0 0 1-.46-.51l-.06-.33v-.33c0-.06.13 0 .22 0a2.7 2.7 0 0 1 .39.19l.24.18a7.13 7.13 0 0 1 .61.58c.12.15.18.27.14.33a1.89 1.89 0 0 1-.49.16 1.79 1.79 0 0 1-.6-.25zm.23-.36c-.21-.17-.41-.26-.45-.2s.09.24.3.41.41.26.45.2-.09-.24-.3-.41zm12.71-2.57l.13.3 3 .9.73-.93-2.44-.59-1.39.31zM28 19a13.57 13.57 0 0 0 2.15-.24c1.63-.25 2.92-.54 3-.54.33-.08 1.29-.43 1.75-.61h.5l.24.18h.46a.11.11 0 0 1 .08 0 .11.11 0 0 1 .08.09l.15.76a.13.13 0 0 1-.08.14l-2.33.95-2 .42a4 4 0 0 0-1.06-.33 37.21 37.21 0 0 0-4.54.64 7 7 0 0 0-.77.44 8.65 8.65 0 0 0-.67-.58 6.31 6.31 0 0 1-.16-.81 1.06 1.06 0 0 1 .1-.43c.06-.05.66-.35 1.2-.6l.44-.52.54-.24A7.65 7.65 0 0 0 28 19zm6.74.77l1.89.34 1.45-1.53-3.33 1.22zm-8.56-1.9l-.29.34a11 11 0 0 0-1.25.64 1.15 1.15 0 0 0-.16.6 5.47 5.47 0 0 0 .09.54 1.21 1.21 0 0 1-.39-.49 2.43 2.43 0 0 1 .26-1.09 13.29 13.29 0 0 1 1.68-.58zm-19 .25l-.38.17A2.49 2.49 0 0 0 6 19a7.91 7.91 0 0 0-1 .8v.1l.5-.15q.37-.23.73-.48a2.47 2.47 0 0 0 .44-.15l.5-.39.2-.07-.33-.54zm8.41 1.32zm2-1l.25.7.75-.17-.18-.12-.41-.22-.72-.55h-.11l.4.42zM4 15.57l-.27.21-.14.28-.16.07a11.09 11.09 0 0 0-1 2.29v.67l.16-.09a7.8 7.8 0 0 1 .79-2 .55.55 0 0 0 .47 0 1.41 1.41 0 0 0 .7-.54v-.2l.28-.17a6.73 6.73 0 0 0 1.25-.21l-.33-.46a9.3 9.3 0 0 1-1.8.15zm2.37.72l-.91.22a7.79 7.79 0 0 1-.89.69 7.28 7.28 0 0 0-1.27 1.11c-.23.28-.39.45-.4.56h.22c.5-.41 1-.81 1.53-1.16l.64-.1.62-.42.84-.19-.4-.7zm27.91 1.26h.05c-.37.14-1 .36-1.25.41-.61.14-4.21.74-4.87.73a6 6 0 0 1-.78-1.12l.54.15.08.52a.36.36 0 0 0 .18.26.34.34 0 0 0 .16 0l1-.14c.12 0 .16-.13.18-.21l.08-.43 1.48.17 3.11-.44zm-5.95.79a.14.14 0 0 1-.09-.11l-.11-.76 1.18.06.15.21-.09.42a.07.07 0 0 1-.06.06l-.93.14h-.08zM14.15 16a8.25 8.25 0 0 0 1.6.1s1.19-.08 1.33-.07 1.82.73 1.82.73l1.23.8.79.27-.18-.27-.5-.2-.46-.36-.33-.33-2.06-1.92-.39-.23h-.63c-.39 0-1.26.11-1.89.19l-.65.08h-.07a1 1 0 0 1-.31-.07h-.08a1.56 1.56 0 0 1-.42-.35 5.71 5.71 0 0 0-.81-.23 3.49 3.49 0 0 0-.69 0 .48.48 0 0 0-.19.14l1 .32a1.37 1.37 0 0 0-.08.34 1.25 1.25 0 0 0 .26.51 2.47 2.47 0 0 0 .38.33 3.8 3.8 0 0 0 1.36.26zm-1.45-2.8a2.58 2.58 0 0 0 .14.64 1.19 1.19 0 0 0 .16.25 1.94 1.94 0 0 0 .4.36h.08a.84.84 0 0 0 .26.06l.7-.08 1.35-.15L15 14l-.73-.31-.19-.34s-.32-.46-.49-.64a3.2 3.2 0 0 0-.52-.45 2.89 2.89 0 0 0-.56-.29c-.12 0-.25.13-.21.19l.48.72a.87.87 0 0 0-.1.36z" id="bioticgrasp"/><g id="moira"><path d="M12.2 28.43a51.61 51.61 0 0 0-1.74-4.92A32.68 32.68 0 0 0 8.3 20.8s1.07-.8 1.18-3.27a27.52 27.52 0 0 0 0-3.3l2.14-.85 1.27-3.09a6 6 0 0 0 2.42 0C16 10 18.13 7.63 19.9 6.92a11.67 11.67 0 0 1 3.45-.12 3.39 3.39 0 0 0 1.92-.36 3.88 3.88 0 0 1-1.16.8 7.71 7.71 0 0 0-1.17.81 5.5 5.5 0 0 0-1 2 4.14 4.14 0 0 1 2.69-.44c1.09.4 1.41.62 2.19.81a12.21 12.21 0 0 1 2.36 1.14 1.72 1.72 0 0 0 1.7.23 12.28 12.28 0 0 0 2.64-.79 30.82 30.82 0 0 1-4.38 3.07 6 6 0 0 0 .35 2 10.7 10.7 0 0 1 1 1.87s3.29-1.14 4-1.51a24.5 24.5 0 0 0-4.9 5.61s-.66.74-1.26 1.56a10.75 10.75 0 0 0-1.09 2.61l-.67 2.21a23.4 23.4 0 0 0 .2-3.61 1.1 1.1 0 0 0-.23-.48A5.75 5.75 0 0 0 26.3 22s-.1-.2-.55 0l.25-1s-1.34.41-1.91.66a2.85 2.85 0 0 1-.33.14s.15-.09.21-.56a2.9 2.9 0 0 1 .33-.93s-1.81.63-2.84 1a4.22 4.22 0 0 0-1.33.6v-.79l-1.58 1.48-4-2.29.22 1.48-2.19-.27a5.1 5.1 0 0 1 .3 1.08l-.57-.09a5.51 5.51 0 0 0-.22 2.36.49.49 0 0 1 0 .28c-.09.12-.34.53.11 3.28z"/><path d="M25.67 24.67a.7.7 0 0 0-.46 0 30.86 30.86 0 0 0-4.66 4.52 1.11 1.11 0 0 0-.12.37l-.15 1.05c0 .13.31.34.31.34a25 25 0 0 1 2.31 1.84 1.41 1.41 0 0 1 .36.75c0 .27.21.16.21.16a6.46 6.46 0 0 0 .76-.81 17.12 17.12 0 0 0 1.34-2.29 8 8 0 0 0 .82-3 6.21 6.21 0 0 0-.72-2.93zm-1.73 5.67a3.23 3.23 0 0 1-2-.12.61.61 0 0 0-.61 0l-.43.29.77-1a.58.58 0 0 1 .26-.2 7.33 7.33 0 0 1 1.58-.19 11 11 0 0 0 2-.4 3.21 3.21 0 0 1-1.56 1.62zm-6.75-3.1L15 25.35a.05.05 0 0 1 0-.07 1.58 1.58 0 0 1 .85-.44.22.22 0 0 1 .19 0 2.78 2.78 0 0 1 .3.39c.22.28.85 2.01.85 2.01zm3.81 0l2.14-1.89a.05.05 0 0 0 0-.07 1.58 1.58 0 0 0-.85-.44.22.22 0 0 0-.19 0 2.78 2.78 0 0 0-.3.39c-.19.28-.8 2.01-.8 2.01zm-8 4.59s-2.83-3.9-4.62-6a23.1 23.1 0 0 1 0-7.73l1.23-1.17.1 5.64a12.21 12.21 0 0 0 1.09 2.75 11.8 11.8 0 0 0 .86 1l.61 2.29a.4.4 0 0 1 0 .07 11.23 11.23 0 0 0 .25 1.53 10.82 10.82 0 0 0 .48 1.62zm12.75-.01s2.83-3.9 4.62-6a28.49 28.49 0 0 0 .12-5.47L29 22.78a9.78 9.78 0 0 1-1 2.49 11.8 11.8 0 0 1-.86 1l-.61 2.29a.4.4 0 0 0 0 .07 11.23 11.23 0 0 1-.25 1.53 10.82 10.82 0 0 1-.53 1.66z"/></g></svg>