<svg xmlns="http://www.w3.org/2000/svg" viewBox="0 0 40 40"><title>orisa</title><g id="halt"><circle cx="19.87" cy="20" r="5.04"/><path d="M13.57,25.57l0,0a10.44,10.44,0,0,1-2.69-5.76.21.21,0,0,0-.2.08c-.4.55-.77,1.11-1.13,1.68a8,8,0,0,1-1-3.5l0,0a3.57,3.57,0,0,0-.29,1.48c-.88-2.31-.5-5.2.31-7.61a7,7,0,0,0-1,1.39,10.62,10.62,0,0,0-1.05,3.06A8.87,8.87,0,0,0,8.1,23.55c.18.2.14.06.14.27a10.3,10.3,0,0,1-.84,1.25c-.09.13,0,.13.14.19a10.6,10.6,0,0,0,6,.6A.18.18,0,0,0,13.57,25.57Z"/><path d="M8.83,15.42l0-.07a10.78,10.78,0,0,1,2.72-4.62.22.22,0,0,0-.32,0,5.57,5.57,0,0,0-2,2,8.81,8.81,0,0,0-.61,2.45A.21.21,0,0,0,8.83,15.42Z"/><path d="M26.43,14.72l0,0a10.44,10.44,0,0,1,2.69,5.76.21.21,0,0,0,.2-.08c.4-.55.77-1.11,1.13-1.68a8,8,0,0,1,1,3.5l0,0a3.57,3.57,0,0,0,.29-1.48c.88,2.31.5,5.2-.31,7.61a7,7,0,0,0,1-1.39,10.62,10.62,0,0,0,1.05-3.06,8.87,8.87,0,0,0-1.69-7.16c-.18-.2-.14-.06-.14-.27a10.3,10.3,0,0,1,.84-1.25c.09-.13,0-.13-.14-.19a10.6,10.6,0,0,0-6-.6A.18.18,0,0,0,26.43,14.72Z"/><path d="M31.17,24.87l0,.07a10.78,10.78,0,0,1-2.72,4.62.22.22,0,0,0,.32,0,5.57,5.57,0,0,0,2-2,8.81,8.81,0,0,0,.61-2.45A.21.21,0,0,0,31.17,24.87Z"/><path d="M14.44,13.57l0,0a10.44,10.44,0,0,1,5.76-2.69.21.21,0,0,0-.08-.2c-.55-.4-1.11-.77-1.68-1.13a8,8,0,0,1,3.5-1l0,0a3.57,3.57,0,0,0-1.48-.29c2.31-.88,5.2-.5,7.61.31a7,7,0,0,0-1.39-1,10.62,10.62,0,0,0-3.06-1.05A8.87,8.87,0,0,0,16.46,8.1c-.2.18-.06.14-.27.14a10.3,10.3,0,0,1-1.25-.84c-.13-.09-.13,0-.19.14a10.6,10.6,0,0,0-.6,6A.18.18,0,0,0,14.44,13.57Z"/><path d="M24.59,8.83l.07,0a10.78,10.78,0,0,1,4.62,2.72.22.22,0,0,0,0-.32,5.57,5.57,0,0,0-2-2,8.81,8.81,0,0,0-2.45-.61A.21.21,0,0,0,24.59,8.83Z"/><path d="M25.29,26.43l0,0a10.44,10.44,0,0,1-5.76,2.69.21.21,0,0,0,.08.2c.55.4,1.11.77,1.68,1.13a8,8,0,0,1-3.5,1l0,0a3.57,3.57,0,0,0,1.48.29c-2.31.88-5.2.5-7.61-.31a7,7,0,0,0,1.39,1,10.62,10.62,0,0,0,3.06,1.05,8.87,8.87,0,0,0,7.16-1.69c.2-.18.06-.14.27-.14a10.3,10.3,0,0,1,1.25.84c.13.09.13,0,.19-.14a10.6,10.6,0,0,0,.6-6A.18.18,0,0,0,25.29,26.43Z"/><path d="M14.92,31.09a11,11,0,0,1-4.47-2.69.22.22,0,0,0,0,.32,5.57,5.57,0,0,0,2,2,8.8,8.8,0,0,0,2.45.61H15A.67.67,0,0,1,14.92,31.09Z"/></g><g id="fortify"><polygon points="20 19.78 26.04 28.74 33.62 28.74 20 8.77 6.38 28.74 13.88 28.74 20 19.78"/><polygon points="20 31.69 16.02 28.66 20 22.82 23.98 28.66 20 31.69"/><polygon points="9.45 21.24 6.42 25.65 3.31 21.24 9.45 21.24"/><polygon points="13.5 15.35 10.48 19.75 7.37 15.35 13.5 15.35"/><polygon points="17.64 9.46 14.61 13.86 11.5 9.46 17.64 9.46"/><polygon points="30.55 21.24 33.58 25.65 36.69 21.24 30.55 21.24"/><polygon points="26.37 15.35 29.39 19.75 32.51 15.35 26.37 15.35"/><polygon points="22.32 9.46 25.34 13.86 28.46 9.46 22.32 9.46"/></g><g id="protectivebarrier"><path d="M22.29,15.71l.46,0L20,10.8l-2.75,4.93.46,0Z"/><path d="M28.63,20.52l2.6-6.45-6.76,2A6.61,6.61,0,0,1,28.63,20.52Z"/><path d="M29,21.46l5.7,1.42V21.27A11.4,11.4,0,0,0,32,13.91Z"/><path d="M15.53,16.08l-6.76-2,2.6,6.45A6.61,6.61,0,0,1,15.53,16.08Z"/><path d="M5.69,23.51l5.44,4.92V22.29s0-.09,0-.14Z"/><path d="M34.31,23.51l-5.44-1.36s0,.09,0,.14v6.13Z"/><path d="M29.61,28.71C34.44,27.66,34.7,26,34.7,26h0V24.11Z"/><path d="M5.3,24.11V26h0s.26,1.71,5.09,2.76Z"/><path d="M23.5,15.64l8-2.38a10.5,10.5,0,0,0-7.5-3.18H20.4Z"/><path d="M16.5,15.64l3.1-5.56H16.05a10.5,10.5,0,0,0-7.5,3.18Z"/><path d="M11,21.46,8,13.91A11.4,11.4,0,0,0,5.3,21.27v1.61Z"/><path d="M19.89,26.9a4.87,4.87,0,0,0-1.77,3c1.16,0,2.36,0,3.55,0A4.89,4.89,0,0,0,19.89,26.9Z"/><path d="M22.29,16.41H17.71a5.89,5.89,0,0,0-5.89,5.89v6.77a21,21,0,0,0,5.19.78,8.33,8.33,0,0,1,2.44-3.5l.43-.34.43.34a7.24,7.24,0,0,1,2.33,3.47,34.1,34.1,0,0,0,5.53-.74V22.29A5.89,5.89,0,0,0,22.29,16.41Z"/></g><g id="supercharger"><path d="M19.47,18.28a16.09,16.09,0,0,1-5.78-1.2,6.86,6.86,0,0,1-1.43-.85,2.54,2.54,0,0,1-.63-3.55,9.07,9.07,0,0,1,7.31-4.61A10.4,10.4,0,0,1,24.28,9a6.13,6.13,0,0,1,1.11.72A15,15,0,0,1,27.67,12a3.68,3.68,0,0,1,.87,2.39,2.09,2.09,0,0,1-.65,1.49,6.22,6.22,0,0,1-2.61,1.53A17.84,17.84,0,0,1,19.47,18.28Zm4.25-6.23a1.41,1.41,0,0,0,.75-.43,1.06,1.06,0,0,0-.07-1.76,2.6,2.6,0,0,0-.4-.23,9,9,0,0,0-6.34-.73,8,8,0,0,0-2.19.87A1.13,1.13,0,0,0,15,11.29a2.35,2.35,0,0,0,1,.79c.11-.31,0-.57,0-.83s-.12-.57.14-.87a9.92,9.92,0,0,1,1.42,1.28c-.26.31-.7.29-.85.73a11.13,11.13,0,0,0,6.38,0c-.18-.42-.63-.39-.86-.73a8.58,8.58,0,0,1,1.48-1.28C23.93,11,23.67,11.5,23.72,12.05Z"/><path d="M15.52,23.73l-2.25-3.84c-.22,0-.2.27-.45.23-.25-.84-.48-1.7-.67-2.67a15.1,15.1,0,0,0,15.37,0,18.14,18.14,0,0,1-.6,2.64c-.27.08-.22-.21-.44-.26l-2.2,3.76-.14,0-1-2.73c-.24,0-.29.17-.38.28l-2.37,3.06c-.14.18-.27.38-.51.44s-.44-.2-.59-.39l-2.3-3a1.29,1.29,0,0,0-.45-.46C16.18,21.73,16,22.71,15.52,23.73Z"/><path d="M15.33,26.95a13.57,13.57,0,0,0,2,.86c.34,2.06,1.13,3,2.53,2.94s2.2-.92,2.52-2.89a12.67,12.67,0,0,0,2-.89c.63,1.13,0,3.26-1.27,4.47a4.72,4.72,0,0,1-5.72.55A4.59,4.59,0,0,1,15.33,26.95Z"/><path d="M13.88,22.23a1.33,1.33,0,0,1,.47.59l1.22,2.09a.75.75,0,0,0,.59.46c.3-.94.36-1.95.66-2.89l.13,0L19.39,26a1.67,1.67,0,0,0,1,0l2.51-3.66c.35,1.09.43,2.09.7,3,.35,0,.48-.23.6-.44.41-.68.8-1.36,1.2-2a1.58,1.58,0,0,1,.45-.58,4.59,4.59,0,0,1-.53,2.12,4.39,4.39,0,0,1-2.35,2,7.28,7.28,0,0,1-7.54-.85A4.2,4.2,0,0,1,13.88,22.23Z"/><path d="M30.6,26.79a1.46,1.46,0,0,1,.26-.74,12.13,12.13,0,0,0-.79-13.61,22.27,22.27,0,0,1-1.64-2.77A22.85,22.85,0,0,0,27.1,7.52a3.6,3.6,0,0,1-.46-.76c1.92.21,5.56,4.62,6.46,7.8A13.21,13.21,0,0,1,30.6,26.79Z"/><path d="M7.48,18.59a12.14,12.14,0,0,0,5,9.35,5.1,5.1,0,0,1,1.14-2.57,10.23,10.23,0,0,0,.53,3.85,10.26,10.26,0,0,0,2.22,3.18A11.37,11.37,0,0,1,9.72,28C7.72,25.38,6.67,21.06,7.48,18.59Z"/><path d="M24.52,33.28a9.34,9.34,0,0,0,1.83-2.87.92.92,0,0,1,.47-.4,14.31,14.31,0,0,0,7.29-8.79c0-.15,0-.35.25-.39.32.9-.72,4.49-2.25,6.73A14,14,0,0,1,24.52,33.28Z"/><path d="M5.58,18.48a14.41,14.41,0,0,1,2.08-6.29A13.65,13.65,0,0,1,13.83,6.7c.16.24,0,.39-.16.53a20.75,20.75,0,0,0-2.51,3.16,3.45,3.45,0,0,1-.67.67A15.07,15.07,0,0,0,6,18C5.92,18.19,5.93,18.4,5.58,18.48Z"/><path d="M25.47,30.08a9.94,9.94,0,0,0-.15-4c.46.12.58.52,1,.73A11.93,11.93,0,0,0,30,19.43C31.29,22.07,28.54,28.45,25.47,30.08Z"/><path d="M18,28a11,11,0,0,0,3.71,0,1.77,1.77,0,0,1-.83,1.9,1.93,1.93,0,0,1-2.24-.09A1.67,1.67,0,0,1,18,28Z"/><path d="M13.22,31.52,14,33a1.74,1.74,0,0,1,.05.26,13.76,13.76,0,0,1-6-5.21A16.71,16.71,0,0,0,13.22,31.52Z"/><path d="M21.33,9.47a8.17,8.17,0,0,1,.73,2.18,7.08,7.08,0,0,0-4.39,0,9.52,9.52,0,0,1,.74-2.18c.75.22.8,1.11,1.45,1.4C20.52,10.65,20.58,9.76,21.33,9.47Z"/></g><g id="orisa"><path d="M18.53,15.82c.1,1.59.59,1.65,1.47,1.65s1.38-.06,1.47-1.65c.16-2.56-.44-3.13-1.47-3.13S18.37,13.27,18.53,15.82Z"/><path d="M15.46,16c.91-.77.79-2.34,1.5-2.94a4.57,4.57,0,0,1,3-1.46,4.57,4.57,0,0,1,3,1.46c.7.61.59,2.17,1.5,2.94.28.24,2.25,1.55,1.43-.5a4.24,4.24,0,0,1,.11-1.67c.2-1-.21-1.5-1.55-2.81A7.33,7.33,0,0,0,20,9.11,7.33,7.33,0,0,0,15.47,11c-1.34,1.31-1.75,1.81-1.55,2.81A4.24,4.24,0,0,1,14,15.52C13.21,17.56,15.18,16.25,15.46,16Z"/><path d="M13,19c0-.26.25-.87.3-1.26s0-1,.06-1.53.22-.64.29-1.15-.06-.53-.37-1.27S11,15.86,10.64,16.58c-.56,1.08-.52,1.76-.22,1.86a3.06,3.06,0,0,1,1.3.66c.41.41.76,1,1,1S13,19.47,13,19Z"/><path d="M14.32,22.14c.1,0,3.05,1,3.38,1,.17,0,.27-.12.29-.29s.07-.33-.06-.38-2.72-.81-3.25-1-.48.1-.52.34C14.16,21.86,14.22,22.11,14.32,22.14Z"/><path d="M11.48,19.81c0-.74-.74-.9-1-.94s-.73.53-.84.72a3.32,3.32,0,0,0-.49.86c-.06.24.21.19.43.19a1.33,1.33,0,0,1,.86.55,13.59,13.59,0,0,1,1.28,2.19,6.37,6.37,0,0,1,.26,2.18c.06.41.86-.7,1-2.09a3.49,3.49,0,0,0-1.23-2.55C11.46,20.65,11.49,20.55,11.48,19.81Z"/><path d="M10.47,23.59a12.24,12.24,0,0,1-.44-2,.94.94,0,0,0-1.17-.7,18.69,18.69,0,0,0-1.46,1.82,24.92,24.92,0,0,1-2.32,1.94c-.31.24.8,2.28,1.59,2.85S6.4,28,5.29,26.7s-1.09-3-1.21-4-1.91,1.71-1.91,4.1a3.16,3.16,0,0,0,3.46,3.11c3.24-.26,6.07-3,5.75-4.46A6.69,6.69,0,0,0,10.47,23.59Z"/><path d="M28.28,19.1a3.06,3.06,0,0,1,1.3-.66c.3-.09.34-.78-.22-1.86-.37-.72-2.32-3.52-2.63-2.77s-.44.76-.37,1.27.24.62.29,1.15,0,1.24.06,1.53.29,1,.3,1.26c0,.44-.16,1.12.23,1.09S27.87,19.51,28.28,19.1Z"/><path d="M25.9,17.21c-1.17-1.37-4-1.39-4-.87C21.94,18,20.48,18,20,18s-1.94,0-1.94-1.65c0-.52-2.79-.5-4,.87s-.67,2.71-.89,2.94S13,20.6,13,21.33c0,1.14,0,1.18.27,1.18.57,0-.06-1.14.57-1.94A1.74,1.74,0,0,1,15.56,20a5.09,5.09,0,0,1,3.38,2.22,3.49,3.49,0,0,1,.52,2.32c0,.36,0,.45.54.45s.52-.09.54-.45a3.49,3.49,0,0,1,.52-2.32A5.09,5.09,0,0,1,24.44,20a1.74,1.74,0,0,1,1.73.59c.63.8,0,1.94.57,1.94.27,0,.27,0,.27-1.18,0-.73,0-.94-.21-1.18S27.07,18.58,25.9,17.21Z"/><path d="M22.3,23.19c.32,0,3.27-1,3.38-1s.16-.28.16-.28c0-.23,0-.51-.52-.34s-3,.88-3.25,1-.09.23-.06.38S22.13,23.21,22.3,23.19Z"/><path d="M26.27,22.55c0-.39-.29-.28-.55.35a2.13,2.13,0,0,1-2,1.37c-1.14,0-1.48-.21-1.7-.73s-.48-.78-.82-.41a1.24,1.24,0,0,0-.31,1.07c0,.7.16,1.32-.85,1.32s-.88-.63-.85-1.32a1.24,1.24,0,0,0-.31-1.07c-.33-.37-.6-.12-.82.41s-.56.73-1.7.73a2.13,2.13,0,0,1-2-1.37c-.26-.63-.53-.74-.55-.35s-.47.31-.47.5c0,.92,1.14,2.35,2.31,3.52a4.25,4.25,0,0,0,2.71,1.37c.23-1.15,1.79-1.56,1.71-1.59s1.56.32,1.71,1.59a4.26,4.26,0,0,0,2.71-1.37c1.17-1.17,2.29-2.6,2.31-3.52C26.74,22.86,26.29,22.94,26.27,22.55Z"/><path d="M29.6,21.18a1.33,1.33,0,0,1,.86-.55c.22,0,.49.06.43-.19a3.32,3.32,0,0,0-.49-.86c-.1-.19-.53-.75-.84-.72s-1,.2-1,.94,0,.84-.19,1.1a3.49,3.49,0,0,0-1.23,2.55c.09,1.39.89,2.49,1,2.09a6.37,6.37,0,0,1,.26-2.18A13.59,13.59,0,0,1,29.6,21.18Z"/><path d="M35.91,22.74c-.12.93-.1,2.67-1.21,4s-2.16,1.4-1.37.84,1.9-2.61,1.59-2.85a24.92,24.92,0,0,1-2.32-1.94,18.69,18.69,0,0,0-1.46-1.82.94.94,0,0,0-1.17.7,12.24,12.24,0,0,1-.44,2,6.69,6.69,0,0,0-.92,1.9c-.32,1.46,2.51,4.2,5.75,4.46a3.16,3.16,0,0,0,3.46-3.11C37.82,24.45,36,21.94,35.91,22.74Z"/><path d="M20,26.63a1.88,1.88,0,0,0-1.4,1.52c0,.57.8,1,1.4,1s1.4-.34,1.4-1A1.63,1.63,0,0,0,20,26.63Z"/></g></svg>