<svg id="hoverjets" xmlns="http://www.w3.org/2000/svg" viewBox="0 0 40 40"><title>pharah</title><path d="M20.21,24.93C12.93,24.93,7,26.81,7,29.13s5.9,4.2,13.18,4.2,13.18-1.88,13.18-4.2S27.49,24.93,20.21,24.93Zm0,5.9c-5.22,0-9.45-1.16-9.45-2.59s4.23-2.59,9.45-2.59,9.45,1.16,9.45,2.59S25.43,30.82,20.21,30.82Z"/><path d="M20.1,6.76A8.27,8.27,0,1,0,28.37,15,8.27,8.27,0,0,0,20.1,6.76Zm-.23,1.4,0,0a3.71,3.71,0,0,1,1.44,1.14,8.55,8.55,0,0,0-3.79.83,11,11,0,0,1-.3-1.33A6.9,6.9,0,0,1,19.87,8.15ZM16.19,9.59l.2-.19a3.52,3.52,0,0,1,.4-.31,12.55,12.55,0,0,0,.32,1.3,6.18,6.18,0,0,0-.95.69A3.17,3.17,0,0,1,16.19,9.59Zm1,4.1a8.21,8.21,0,0,1-.86-2,5.81,5.81,0,0,1,1-.77A16.49,16.49,0,0,0,18.17,13,9.5,9.5,0,0,0,17.15,13.69ZM21,12a8.35,8.35,0,0,0-2.43.77,15.94,15.94,0,0,1-.91-2.15,8.21,8.21,0,0,1,4-.8,9.33,9.33,0,0,1,1,2C22.2,11.85,21.63,11.93,21,12Z"/></svg>