<svg xmlns="http://www.w3.org/2000/svg" viewBox="0 0 40 40"><defs><style>.cls-1{fill:none;}.cls-2{fill-rule:evenodd;}</style></defs><title>reaper</title><g id="thereaping"><g id="_Group_" data-name="&lt;Group&gt;"><path id="_Compound_Path_" data-name="&lt;Compound Path&gt;" d="M16,20.54c-.1.34-.16.71-.24,1.07.7.13,1.5.17,2.15.36,0,.22,0,1.1,0,1.28.27.09,1.85,1,1.85,1s1.6-.87,1.85-1a12.54,12.54,0,0,0,0-1.33l2.15-.32c-.08-.38-.16-.75-.24-1.11.67-.89,1.3-1.82,2-2.7-.4-.66-.78-1.32-1.12-2-.11-.22-.22-.49-.36-.75L24,14.94a8.91,8.91,0,0,0-3.4-1.38l-.39,0c-1.74.08-4,.09-4.89,1.94-.39.84-.7,1.74-1,2.63C14.9,18.92,15.48,19.72,16,20.54ZM21.2,19.1a5.66,5.66,0,0,0,1-.84l.52-.44a2.75,2.75,0,0,1,.52-.4c.42-.17,1,0,1.51-.24.17.09-.5.17-.68.24-.31.39-.33.93-.6,1.31s-.69.58-1,.91c-.44-.09-1.13.12-1.51,0-.23-.07-.2-.25-.36-.36s-.42.05-.68,0C20.48,19.16,20.84,19.25,21.2,19.1Zm-1.33,1a15.43,15.43,0,0,1,.73,1.41c-.31.16-.5.44-.84.56a5.15,5.15,0,0,0-.73-.56c.17-.56.56-.91.73-1.47C19.82,20.07,19.86,20.09,19.87,20.13Zm-3.56-2.7a4.5,4.5,0,0,1,1,.84c.38.32.76.56,1,.84.43.05.79.17,1.23.2-.17.12-.39-.06-.64,0s-.18.3-.36.36c-.6-.09-1.08.12-1.51,0a4,4,0,0,1-1-.91c-.28-.4-.33-1-.56-1.31a2.61,2.61,0,0,1-.72-.2h0A5.41,5.41,0,0,1,16.31,17.43Z"/><path id="_Path_" data-name="&lt;Path&gt;" d="M30.19,7.5h0l-1.9-.37A13,13,0,0,0,25.73,6a1.79,1.79,0,0,0-.5-.11c.26.18.54.34.81.51a3.29,3.29,0,0,1,.78.59,1,1,0,0,1-.35-.11,6.87,6.87,0,0,0-2.38-1,.1.1,0,0,1,0-.07c0-.1.14-.06.24-.13a14,14,0,0,0-4.84-.09.75.75,0,0,0,.78,0,.8.8,0,0,1,.32-.09,3.29,3.29,0,0,1,1.31.3c.1,0,.23.09.21.23s-.16.13-.26.15a4.3,4.3,0,0,1-.8.07l-.9,0a.94.94,0,0,0-.44.08.72.72,0,0,1-.4.06h-.32c-.09,0-.22,0-.23.1s.12.11.2.14a2.45,2.45,0,0,1,.77.45.2.2,0,0,1-.15,0c-.45-.09-.88-.25-1.33-.32A1.6,1.6,0,0,0,17,6.88a5.33,5.33,0,0,1-.68.32c-.3.13-2.42.87-2.73,1a.39.39,0,0,1,.25.17.5.5,0,0,1,.21.12c.05,0,1.94-.57,2-.59l.39-.13a11.87,11.87,0,0,1,2.93-.43,1.45,1.45,0,0,0,.5-.06.39.39,0,0,1,.27,0c.15,0,.29.11.44.14a4.72,4.72,0,0,1,.94.29,1.23,1.23,0,0,0,.68.2,8.14,8.14,0,0,1,1.05-.06l.46.11a1.73,1.73,0,0,0,.35.2,3.3,3.3,0,0,1,.87.54l-.73-.14a5.8,5.8,0,0,0-1.89-.14c-.07,0-.19,0-.19.06s.12,0,.19.06a16.1,16.1,0,0,1,3.06.61h0a4.44,4.44,0,0,1,.35.49,9.42,9.42,0,0,1,.68,1.57v0A3.74,3.74,0,1,0,30.19,7.5Z"/><path id="_Path_2" data-name="&lt;Path&gt;" d="M31.09,19.75c0-.17.2-2.53.17-2.7a.51.51,0,0,1-.35.33c-.07,0-.34,2.27-.36,2.34s-.06.27-.1.4a11.87,11.87,0,0,1-1.16,2.63.4.4,0,0,0-.12.2,1.07,1.07,0,0,0-.13.33.39.39,0,0,1-.15.23c-.12.1-.24.19-.36.3a4.73,4.73,0,0,1-.75.64,1.23,1.23,0,0,0-.53.47c-.07.15-.15.3-.23.45-.34.17-.68.33-1,.47a4.05,4.05,0,0,0,.76-1.11c0-.07.12-.15,0-.2s-.11.08-.15.13a14.35,14.35,0,0,1-1.26,1.42,9.76,9.76,0,0,1-3.83.74,3.74,3.74,0,1,0,1.55,5.38c.07-.1.12-.21.18-.32a12.24,12.24,0,0,0,1-1.26A13.64,13.64,0,0,0,27,28.88a1.79,1.79,0,0,0,.36-.37c-.29.13-.57.28-.86.41a3.29,3.29,0,0,1-.91.35.89.89,0,0,1,.19-.18l.07,0L26,28.9a7.2,7.2,0,0,0,.66-.45,8.35,8.35,0,0,1,1.12-.78c.08,0,.16-.13.24-.08s0,.15,0,.27c.2-.22.4-.44.59-.67l.25-.13a1,1,0,0,0,.58-1,7.11,7.11,0,0,0,1.25-2.27c-.31.14-.26.31-.42.57-.06.1-.09.26-.15.36a3.3,3.3,0,0,1-.37.55c.49-1.29.75-2.7,1.22-4a.31.31,0,0,0-.05-.33c0-.22.05-.44.08-.66Z"/><path id="_Path_3" data-name="&lt;Path&gt;" d="M13.92,28.72l-.08-.22c-.1-.09-.2-.18-.3-.28a.62.62,0,0,1-.22-.67c0-.06,0-.12-.06-.17s-.82-1.16-.87-1.23a.39.39,0,0,0-.17-.36c-.08-.06-1.32-2.06-1.43-2.32a1.45,1.45,0,0,0-.25-.44.39.39,0,0,1-.1-.25c0-.15,0-.31,0-.46a4.74,4.74,0,0,1-.08-1,1.23,1.23,0,0,0-.07-.71,6.73,6.73,0,0,1-.38-1.73,3,3,0,0,1,.13-1c0,.21.08.41.12.62a5.8,5.8,0,0,0,.58,1.81c0,.06.05.18.13.15s0-.13,0-.2a10.08,10.08,0,0,1,.54-4.67,12.15,12.15,0,0,0,.93-1.5,3.74,3.74,0,1,0-6-3.85,1.13,1.13,0,0,0-.19.63c0,1.78,1.09,6.52,1.16,7.18a1.79,1.79,0,0,0,.09.51c.07-.31.11-.63.17-.94A6.58,6.58,0,0,1,7.63,17a.93.93,0,0,0,.14.14s0,.1,0,.15a4.82,4.82,0,0,0-.23,1.64,1.17,1.17,0,0,0,.18.59c0,.08,0,.18-.08.21s-.11-.1-.21-.17A14,14,0,0,0,9.15,24c.07-.34.07-.54-.12-.73s-.08-.17-.12-.28a4.34,4.34,0,0,1-.1-.71,46.75,46.75,0,0,0,3,4.12c.35.38,1.69,1.89,2.1,2.28Z"/></g></g><g id="deathblossom"><path id="_Compound_Path_2" data-name="&lt;Compound Path&gt;" d="M13.7,29.72A14,14,0,0,0,16,30a3.4,3.4,0,0,0,2.77-.9.5.5,0,0,0,.15-.22.25.25,0,0,0-.13-.36,2.49,2.49,0,0,0-.83-.2.43.43,0,0,1-.23-.06l.66-.27a2.35,2.35,0,0,0,1.2-1.14.23.23,0,0,0-.09-.34,1.11,1.11,0,0,0-.54-.17,3.61,3.61,0,0,0-2.31.36A4.09,4.09,0,0,1,13.4,27,9,9,0,0,1,11,26,5.34,5.34,0,0,1,9.6,25s-.1-.08-.1-.15.12,0,.17.07a3.9,3.9,0,0,0,2.61.54,7.71,7.71,0,0,0,1-.16.8.8,0,0,0,.25-.09c.25-.17.39-.3.17-.6a6,6,0,0,0-.69-.71,15,15,0,0,0-1.36-1c-.63-.48-1.2-1-1.87-1.46L9,21a1.06,1.06,0,0,0-.71-.1.24.24,0,0,0-.24.27c0,.16,0,.32,0,.48s-.17.32-.37.19a.44.44,0,0,1-.16-.16,4.31,4.31,0,0,1-.59-2.06,8.91,8.91,0,0,1,.19-1.09,10.12,10.12,0,0,0,.14-1.31,1.65,1.65,0,0,0-.2-.9.6.6,0,0,1,0-.62,6.82,6.82,0,0,1,1.2-1.63,7,7,0,0,1,.58-.55.74.74,0,0,1-.16.31A4.1,4.1,0,0,0,8,15.9a.84.84,0,0,0,.27.69A7.37,7.37,0,0,0,10.31,18a1,1,0,0,0,1.36-.53,1.8,1.8,0,0,0,.14-1.62,1.16,1.16,0,0,0-.32-.47.72.72,0,0,1-.22-.88,3.24,3.24,0,0,1,.42-.88,9.71,9.71,0,0,1,1.51-1.92l.51-.46c.06-.05.14-.11.2,0s0,.12-.06.17A5.32,5.32,0,0,0,13,13.26,2,2,0,0,0,13,14c.05.34.25.45.61.4a.89.89,0,0,0,.48-.31c.18-.18.33-.39.53-.57-.09.28-.19.55-.27.83a6.27,6.27,0,0,1-.6,1.61,6.08,6.08,0,0,1-.61.78,2.19,2.19,0,0,0-.76,2A4.92,4.92,0,0,0,13.28,21a9.47,9.47,0,0,0,1.19,1.07,30.46,30.46,0,0,0,2.92,2,.84.84,0,0,0,.2.11,15.11,15.11,0,0,0,2.36.63,9.56,9.56,0,0,0,1.36.06,3.81,3.81,0,0,1-1.6-.69.53.53,0,0,1,.28-.05,10.1,10.1,0,0,0,2.14-.29A16.32,16.32,0,0,0,24,23.37a2.51,2.51,0,0,0,.78-.47A4.83,4.83,0,0,0,26,21.56a5.35,5.35,0,0,1,.57-.75,14.53,14.53,0,0,0,.92-1.31,1,1,0,0,0,.16-.49,4.94,4.94,0,0,0-1.06-3.62,10.93,10.93,0,0,1-.73-1,4.82,4.82,0,0,1-.42-1,7.37,7.37,0,0,0-1.16-2.12s-.07-.07-.06-.13.1,0,.13.08.34.34.5.52a1.79,1.79,0,0,0,.88.48,12.66,12.66,0,0,1,3.38,1.36,12.09,12.09,0,0,1,2,1.64l.09.1a.26.26,0,0,1-.2-.06,9.17,9.17,0,0,0-1.73-.66c-.08,0-.18-.1-.25,0A.32.32,0,0,0,29,15a.61.61,0,0,0,.07.14s.11.07.06.14-.11,0-.16,0c-.28-.07-.37,0-.4.28a4.2,4.2,0,0,0-.08.64.61.61,0,0,0,.21.47,10.39,10.39,0,0,0,2.48,1.58,2.1,2.1,0,0,0,.62.24.67.67,0,0,0,.74-.44,2.19,2.19,0,0,0,.07-1.23,5.4,5.4,0,0,0-.35-1.17,1.31,1.31,0,0,1,.29.45,9.36,9.36,0,0,0,.92,1.61,1.77,1.77,0,0,1,.21.39c.3.72.71,1.39,1,2.11a.62.62,0,0,1,0,.63c-.15.23-.27.48-.43.7a3.35,3.35,0,0,0-.47,1.75c0,.52,0,1,0,1.55,0,.24,0,.48,0,.73A1.46,1.46,0,0,1,33,26.61c-.56.42-1.19.73-1.77,1.11l-.61.39a.27.27,0,0,1-.19.06,6.66,6.66,0,0,0,.82-.87c.21-.26.42-.51.62-.78A4.86,4.86,0,0,0,32.56,25a1.29,1.29,0,0,0,0-.55c-.06-.47-.11-.94-.21-1.4a1.6,1.6,0,0,0-.41-.77c-.11-.12-.22-.23-.32-.36a1.3,1.3,0,0,0-.91-.47,3,3,0,0,0-1.34.13,2.58,2.58,0,0,1,.9.22.32.32,0,0,1-.2.08,1.87,1.87,0,0,0-1.21.85,1.46,1.46,0,0,0-.12,1,1.7,1.7,0,0,0,.18.64.48.48,0,0,1,0,.45,5.22,5.22,0,0,1-1.55,1.92,11.68,11.68,0,0,1-1.21.88.49.49,0,0,1-.22.11c0-.06,0-.07.08-.09a1.67,1.67,0,0,0,.76-1.32,4.09,4.09,0,0,0-.05-1.14c-.09-.39-.21-.46-.61-.33a4.77,4.77,0,0,0-1.18.59,5.78,5.78,0,0,1-.89.49.42.42,0,0,0-.25.64,4.68,4.68,0,0,0,.81,1.23,3.68,3.68,0,0,0,.53.47c.39.29.39.56,0,.83a9.9,9.9,0,0,1-2,1,7.65,7.65,0,0,1-2.43.38,13.8,13.8,0,0,0-2.2.28c-.65.12-1.28.29-1.92.42a.29.29,0,0,1-.22,0c-.79-.48-1.68-.77-2.47-1.27A.3.3,0,0,1,13.7,29.72Zm14.55-9a3.35,3.35,0,0,0-.5.51,15,15,0,0,1-1.81,1.38.72.72,0,0,0-.22.21l-.55.87s-.08.07,0,.13a8.15,8.15,0,0,1,.95-.3,1.68,1.68,0,0,0,1.1-.76A7.58,7.58,0,0,0,28.24,20.71Z"/><path id="_Compound_Path_3" data-name="&lt;Compound Path&gt;" d="M20.42,12.21a5.46,5.46,0,0,1,2.19.61c.21.1.41.22.61.32a1.13,1.13,0,0,1,.52.56,15.53,15.53,0,0,0,.95,1.77.31.31,0,0,1,0,.41l-1.32,1.81a.4.4,0,0,0-.08.4,3.47,3.47,0,0,1,.11.48c0,.14,0,.23-.18.25-.43.06-.87.15-1.3.2-.17,0-.21.1-.2.25s0,.4,0,.59a.33.33,0,0,1-.21.33c-.4.21-.8.42-1.2.65a.3.3,0,0,1-.34,0l-1.21-.66a.32.32,0,0,1-.19-.32c0-.19,0-.38,0-.57s0-.23-.21-.25l-1.27-.19c-.19,0-.25-.13-.21-.3a3.69,3.69,0,0,1,.1-.45.35.35,0,0,0-.06-.35L15.74,16.1a.29.29,0,0,1,0-.3c.22-.63.46-1.26.71-1.88a2.5,2.5,0,0,1,1.82-1.46A11.68,11.68,0,0,1,20.42,12.21Zm-3.71,3.13a1.45,1.45,0,0,1,.23.5A2.15,2.15,0,0,0,17.69,17a.78.78,0,0,0,.64.2,4.54,4.54,0,0,1,.71,0,.28.28,0,0,0,.26-.15c.06-.1,0-.14-.07-.15a.5.5,0,0,1-.31-.09,15.65,15.65,0,0,1-1.21-1A1.34,1.34,0,0,0,16.71,15.34Zm6.84,0a1,1,0,0,0-.85.23c-.3.27-.62.51-.91.79a1.4,1.4,0,0,1-.77.46c-.1,0-.1.07,0,.15a.38.38,0,0,0,.37.16l.92,0a.26.26,0,0,0,.17-.08l.43-.37a1.23,1.23,0,0,0,.37-.55A2.62,2.62,0,0,1,23.55,15.37Zm-3.42,2.22-.52,1c0,.07-.06.15,0,.2.55.35.37.48.93,0h0c.11-.06.1-.14.06-.24C20.5,18.21,20.29,17.93,20.12,17.59Z"/><path id="_Path_4" data-name="&lt;Path&gt;" d="M30.1,29.07a.43.43,0,0,1-.18.18,3.25,3.25,0,0,0-.79.77.84.84,0,0,1-.65.39c-.39,0-.78.12-1.17.17a.68.68,0,0,1-.36,0c0-.1.09-.09.14-.11a3.18,3.18,0,0,0,1.47-1,.27.27,0,0,1,.17-.12A11,11,0,0,0,30.1,29.07Z"/><path id="_Path_5" data-name="&lt;Path&gt;" d="M10.95,28c.57.34,1.21.56,1.76.93,0,0,.1,0,.09.11s-.08,0-.12,0A1.16,1.16,0,0,1,11.8,29a3.67,3.67,0,0,1-.87-.88S10.9,28,10.95,28Z"/><path id="_Path_6" data-name="&lt;Path&gt;" d="M16.08,10.38l0,.1c-.14.26-.29.52-.43.79a.16.16,0,0,1-.26.08l-.29-.15c-.19-.1-.2-.21,0-.36a2.17,2.17,0,0,1,.49-.3l.46-.24C16,10.28,16.07,10.27,16.08,10.38Z"/></g><g id="shadowstep"><path d="M28.31,24.16l-.06,0h-.07l-1,.15-1.51.24,1.48.39c2,.52,2.66,1.12,2.66,1.51,0,1-3.81,2.31-10,2.31s-10-1.35-10-2.31c0-.38.66-1,2.53-1.48l1.24-.34-1.25-.29-.59-.14-.32-.08-.08,0c-1.84.48-4,1.34-4,2.73,0,2.38,6.45,3.66,12.51,3.66s12.51-1.28,12.51-3.66C32.32,25.5,30.14,24.64,28.31,24.16Z"/><path d="M16.6,14.84c0,.18-.09.37-.12.55l-.06.27,0,.16.16,0,.7.1a8.76,8.76,0,0,1,.92.15c0,.28,0,.8,0,.94v.1l.1,0c.15,0,1,.52,1.48.81l.08,0,.08,0s1.31-.71,1.51-.81l.08,0v-.09c0-.14,0-.67,0-1l1.62-.24.17,0,0-.17c-.06-.28-.12-.56-.18-.84l.71-1c.29-.4.57-.79.87-1.18l.07-.09-.06-.09c-.38-.63-.67-1.15-.91-1.64l-.11-.23-.19-.39-.1-.11,0,0a7.47,7.47,0,0,0-2.85-1.16h0l-.54,0c-1.44.06-3.24.14-3.94,1.68-.33.72-.59,1.49-.83,2.17l0,.08.05.07C15.77,13.65,16.2,14.26,16.6,14.84ZM23,12.78a1.76,1.76,0,0,1-.2.46,2,2,0,0,1-.39.38,3,3,0,0,0-.32.29,3.06,3.06,0,0,0-.56,0,1.74,1.74,0,0,1-.56,0s-.06,0-.09-.08l.23-.07a2.53,2.53,0,0,0,.65-.5l.24-.21.2-.17.22-.19.1-.09a1.46,1.46,0,0,1,.28-.21,1.3,1.3,0,0,1,.38-.07A2.7,2.7,0,0,0,23,12.78Zm-3.3,2.32c.07-.11.14-.23.2-.36L20,15a3.74,3.74,0,0,1,.28.52l-.19.15a1.6,1.6,0,0,1-.27.19,3.85,3.85,0,0,0-.41-.31l0,0A2.92,2.92,0,0,1,19.67,15.11Zm-1.92-2,.38.3a4.48,4.48,0,0,1,.46.38l0,0h.06l.23,0,0,0,0,.05a2.9,2.9,0,0,0-.63,0,1.47,1.47,0,0,1-.53,0,3.49,3.49,0,0,1-.73-.69,2.11,2.11,0,0,1-.24-.56,3.55,3.55,0,0,0-.13-.35l.34.08a1.83,1.83,0,0,1,.53.41Z"/><path class="cls-1" d="M16.8,26.55l.29.15-.26-.18Z"/><path class="cls-1" d="M22.55,26.74l.26-.19,0,0-.24.21Z"/><path d="M32.65,14.77l0-.08-.07-.16a.47.47,0,0,0-.1-.13l0-.06a1.26,1.26,0,0,1,0-.14l-.13-.43a.54.54,0,0,0-.08-.17.43.43,0,0,0-.08-.51l0,0-.14-.14-.16-.15-.1-.1-.11-.11-.06-.07v0a.56.56,0,0,0-.17-.32l-.68-.67a.4.4,0,0,0-.18-.1h0a.51.51,0,0,0-.58.16l-.1.09a.4.4,0,0,0-.37.12l-.39.4-.28.07-.15,0-.06,0-.14,0-.05.11a.35.35,0,0,0-.06.13l-.08.28,0,.17a.39.39,0,0,0-.14.1l-.78.78L27,14c-.28.27-.56.54-.83.82l-.33.33.92-1.71-.9.42-.24.11-.23.12-.23.12-.23.13-.2.14a.65.65,0,0,0-.17.22.44.44,0,0,0,0,.41h0a.45.45,0,0,0-.32.35l-.07.09v.16a.51.51,0,0,0,0,.11v0a.37.37,0,0,0,.13.2.38.38,0,0,0,.24.08h.08a.69.69,0,0,0,.23-.08.57.57,0,0,0,.17-.15.63.63,0,0,0,.09-.16l0-.12a.41.41,0,0,0,0-.12l.18.09L25,16l-.48.47-.18.16-.21.19-.13.12h0a.36.36,0,0,0-.14-.28.36.36,0,0,0-.43,0l-.14.12-.46.46-.16.16-.17.17,0,0-.12.11c-.17.19-.35.37-.54.55l-.12.12-.22.19a1.14,1.14,0,0,0-.33.45l-.18.42,0,0a4.87,4.87,0,0,0-.22.67.38.38,0,0,0,0,.1l0,.3.19,0v.05a.44.44,0,0,0,.06.18l-.2,0h-.35A.51.51,0,0,0,20,21l-.21.28h0L19.59,21a.51.51,0,0,0-.4-.23h-.36l-.2,0a.44.44,0,0,0,.06-.18v0l.18-.05v-.38a4.93,4.93,0,0,0-.22-.67l0,0L18.45,19a1.16,1.16,0,0,0-.36-.46l-.2-.18-.12-.12c-.18-.18-.36-.36-.54-.55l-.12-.11,0,0-.17-.18-.16-.16-.46-.46-.14-.12a.36.36,0,0,0-.43,0,.35.35,0,0,0-.14.27h0l-.13-.12-.21-.19-.17-.16L14.58,16l-.46-.46-.72-.71c-.27-.27-.55-.55-.83-.82l-.16-.16-.77-.77a.42.42,0,0,0-.14-.11l0-.17-.08-.25h0v0a.37.37,0,0,0-.06-.13l-.06-.1-.12,0-.08,0-.16,0-.28-.07-.39-.4a.4.4,0,0,0-.37-.12l-.1-.09a.51.51,0,0,0-.57-.17.41.41,0,0,0-.22.12l-.67.67a.56.56,0,0,0-.17.32v0L8,12.55l-.11.11-.1.1-.16.15L7.54,13l0,0a.43.43,0,0,0-.08.51.54.54,0,0,0-.08.17l-.13.43a1.25,1.25,0,0,1,0,.15l0,.06a.47.47,0,0,0-.1.13L7,14.68l0,.08a.54.54,0,0,0,0,.23,2,2,0,0,0,0,.29,1.36,1.36,0,0,1,0,.17v.07a.59.59,0,0,0,.18.41l.45.45.09.09.13.11a.39.39,0,0,0,.5,0l.06,0,0,0,0,0,.06.07L9.85,18l.39.39.07.06a.78.78,0,0,0,.15.16l0,0a.37.37,0,0,0,.2.08h0l.17,0H11l0,0,.32.33c.17.17.35.34.51.52s.27.28.4.41l.18.18a.49.49,0,0,0,.18.13l.06.05,0,0a.52.52,0,0,0,.15.24l.2.2a.4.4,0,0,0,.11.2l.11.11.17.18,0,.05.07.09.06.08.14.2.1.14L14,22l0,.07a1.18,1.18,0,0,0,.13.17l.17.17.34.35.71.72.37.37a.36.36,0,0,0,.38.1h0a1.06,1.06,0,0,0,.2-.07v0a.83.83,0,0,0,0,.43,1.64,1.64,0,0,0,.08.22l0,0a7.66,7.66,0,0,1,.36.9,1,1,0,0,1,0,.12v.09c0,.06,0,.13,0,.19a.86.86,0,0,1,0,.25v.05a1.43,1.43,0,0,1-.13.28h0a.42.42,0,0,0-.15.15.37.37,0,0,0-.11.36,1.23,1.23,0,0,0,.1.34.4.4,0,0,0,.24.21l.32.1h.12a.82.82,0,0,0,.22,0,1.38,1.38,0,0,0,.42-.19l.19-.12.17-.08.1,0a1.16,1.16,0,0,0,.42-.28L19,26.8a.57.57,0,0,0,.16-.28.38.38,0,0,0-.08-.34l0,0,0,0c0-.08,0-.16,0-.24s0-.16,0-.24v-.23c0-.14,0-.27,0-.41v-.09c0-.08,0-.15,0-.23v-.07a2.43,2.43,0,0,1,0-.35.5.5,0,0,0,0-.09c0-.24,0-.5-.05-.82a.92.92,0,0,0,0-.15,1.86,1.86,0,0,0,0-.2c0-.08,0-.15,0-.24l0-.08.08-.14a.43.43,0,0,0,0-.43A.86.86,0,0,0,19,22h.13l.1,0,.1,0a.39.39,0,0,0,.45-.06l0,0,0,0,0,0h0l0,0,0,0a.39.39,0,0,0,.44.06l.1,0,.09,0h.13a.85.85,0,0,0-.13.18.43.43,0,0,0,0,.43l.08.14,0,.08c0,.08,0,.16,0,.24a1.81,1.81,0,0,0,0,.19,1,1,0,0,0,0,.16q0,.45,0,.78a.55.55,0,0,0,0,.11,2.43,2.43,0,0,1,0,.36v.07c0,.08,0,.15,0,.23V25c0,.14,0,.27,0,.41v.23c0,.08,0,.16,0,.24s0,.16,0,.22l0,.05,0,0a.38.38,0,0,0-.08.35.6.6,0,0,0,.18.3l.12.1a1.17,1.17,0,0,0,.42.28l.1,0,.17.08.2.12a1.44,1.44,0,0,0,.44.19.78.78,0,0,0,.2,0h.15l.29-.1a.4.4,0,0,0,.24-.21,1.26,1.26,0,0,0,.1-.35.36.36,0,0,0-.11-.35.41.41,0,0,0-.15-.15h0a1.18,1.18,0,0,1-.13-.28v-.05a.86.86,0,0,1,0-.25c0-.06,0-.13,0-.19v-.09a1,1,0,0,1,0-.12,7.65,7.65,0,0,1,.36-.9l0,0a1.63,1.63,0,0,0,.08-.22.84.84,0,0,0,0-.43v0l.2.07h0a.36.36,0,0,0,.37-.1l.38-.38.71-.72.34-.35.17-.18a1.18,1.18,0,0,0,.13-.17l0-.07.12-.17.1-.14.14-.2.05-.08.07-.09,0-.05.17-.18.11-.11a.4.4,0,0,0,.11-.2l.2-.2a.52.52,0,0,0,.15-.24l0,0L27,20.3a.5.5,0,0,0,.18-.13l.18-.17c.14-.13.28-.27.41-.41s.34-.35.51-.52l.33-.33,0,0h.12l.17,0h0a.38.38,0,0,0,.21-.09l0,0a.76.76,0,0,0,.15-.16l.08-.07.39-.39,1.32-1.32.06-.08,0,0,0,0,.09.06a.38.38,0,0,0,.49,0l.12-.1.09-.09.45-.45a.59.59,0,0,0,.18-.4v-.07a1.38,1.38,0,0,1,0-.17,2,2,0,0,0,0-.29A.53.53,0,0,0,32.65,14.77ZM16.4,22.88a.18.18,0,0,0-.07-.11l-.1-.1a.09.09,0,0,0-.12,0s-.08,0-.08.09,0,0,0,0,0,0,0,0a.32.32,0,0,0-.12-.17,1.59,1.59,0,0,1-.29-.39s0,0-.05-.09A.29.29,0,0,1,15.7,22l.06,0,.5-.17a.12.12,0,0,1,.14,0l.28.25.11.11a0,0,0,0,1,0,.05s0,.08,0,.12a.28.28,0,0,1-.2.19l-.15,0h0s0,0,0,0,0,0,0,0a.35.35,0,0,0,.19,0,.66.66,0,0,0,.29-.09.1.1,0,0,1,0,0C16.75,22.76,16.57,22.82,16.4,22.88Zm.41,3.66,0,0,.26.18Zm6,0,0,0-.26.19h0ZM24,22.19a1.59,1.59,0,0,1-.29.39.32.32,0,0,0-.12.17s0,0,0,0,0,0,0,0,0-.07-.08-.09a.09.09,0,0,0-.12,0l-.1.1a.18.18,0,0,0-.07.11c-.18-.07-.35-.12-.52-.2a.1.1,0,0,1,0,0,.66.66,0,0,0,.29.09.35.35,0,0,0,.19,0s0,0,0,0,0,0,0,0h0l-.15,0a.28.28,0,0,1-.2-.19s0-.08,0-.12a0,0,0,0,1,0-.05l.11-.11.28-.25a.12.12,0,0,1,.14,0l.5.17.06,0a.29.29,0,0,1,.19.08S24.06,22.16,24,22.19Z"/><path d="M14.31,15.16a.56.56,0,0,0,.15.09l.05,0,.06.06h.24l.11,0a.36.36,0,0,0,.14-.11l.07-.09V15a.46.46,0,0,0,0-.24.45.45,0,0,0-.14-.18l-.15-.08-.13,0H14.6l-.14,0-.12.05a.42.42,0,0,0-.12.12l-.08.14,0,.13A.42.42,0,0,0,14.31,15.16Z"/><path d="M12.9,13.92a.8.8,0,0,0,.16.17,1,1,0,0,0,.19.12l.21.08.12,0,.15-.05.07,0a.43.43,0,0,0,.19-.12.35.35,0,0,0,0-.49l-.15-.13-.16-.12-.17-.1-.18-.09-.17,0a.37.37,0,0,0-.27.11.4.4,0,0,0-.1.17.5.5,0,0,0,0,.15.49.49,0,0,0,0,.15A.76.76,0,0,0,12.9,13.92Z"/></g><g id="wraithform"><path id="_Compound_Path_4" data-name="&lt;Compound Path&gt;" d="M28.57,27.65a2.33,2.33,0,0,1-.47.23,5.7,5.7,0,0,0-1.2.74,7.22,7.22,0,0,1-2.06,1.09,8.43,8.43,0,0,0-1.41.58,7.75,7.75,0,0,0-1.37,1.05.7.7,0,0,1-.14.11,6.06,6.06,0,0,1,.73-1.28l-1,.64a2.26,2.26,0,0,1-2.2.06,3,3,0,0,1-.73-.44,1.08,1.08,0,0,0-.28-.16c0,.07,0,.09,0,.12a6.47,6.47,0,0,0,.64.73.25.25,0,0,1,.06.08c0,.06.08.14,0,.19s-.12,0-.17-.06a1.73,1.73,0,0,0-.38-.14c-.54-.23-1.09-.43-1.61-.68s-1.28-.55-1.93-.79a9.07,9.07,0,0,1-2.48-1.32,8.46,8.46,0,0,0-.88-.54c-.18-.11-.18-.14,0-.25A5.49,5.49,0,0,0,13.2,26a3.08,3.08,0,0,0,.49-1s0-.06,0-.1a7.27,7.27,0,0,1-1.13,1.39l-.06.06c-.05,0-.1.13-.17.07s0-.12,0-.18a29.46,29.46,0,0,0,1.7-2.92c.35-.77.66-1.55.93-2.35a1.42,1.42,0,0,1,.31-.65c.26-.21.27-.52.42-.78a6.54,6.54,0,0,0,.41-.88c.17-.44.32-.9.49-1.34A9.16,9.16,0,0,1,17.36,16c0-.06.09-.12.09-.18,0-.3.22-.46.42-.62a5.23,5.23,0,0,1,1.42-.92,2.49,2.49,0,0,1,1.89.12,3.92,3.92,0,0,1,1.25.93,7.34,7.34,0,0,1,1.34,2.12c.1.22.11.46.2.68a18.57,18.57,0,0,1,.76,1.76,20.22,20.22,0,0,0,.92,2c.28.69.58,1.38.9,2.05a15.32,15.32,0,0,0,.94,1.58,8.73,8.73,0,0,1,.93,1.85A.41.41,0,0,0,28.57,27.65ZM23,25.29l-.17.12-.69.5c-.06,0-.12.09-.18,0s0-.13,0-.2l0-.07c.11-.35.24-.7.33-1.05a2.92,2.92,0,0,1,.62-1.17,5.26,5.26,0,0,1,.64-.56.38.38,0,0,0,.06-.62c-.21-.26-.21-.26-.38,0a1.31,1.31,0,0,1-.09.14,1.6,1.6,0,0,1-1.44.66.25.25,0,0,1-.19-.1.24.24,0,0,0-.38,0s-.08.11-.16.11a.91.91,0,0,1,.15-.37,2.45,2.45,0,0,1,.65-.59l1.18-.82c.06,0,.12-.09.13-.17a3.73,3.73,0,0,1,.13-.63.25.25,0,0,0-.05-.25c-.37-.38-.73-.78-1.12-1.14a1,1,0,0,0-.78-.31c-.52.06-1,.09-1.57.16a2.23,2.23,0,0,0-1.53.7,4.71,4.71,0,0,1-.57.53.29.29,0,0,0-.11.34,3.52,3.52,0,0,1,.12.51.34.34,0,0,0,.15.27c.36.24.7.51,1.07.74a3.6,3.6,0,0,1,.61.49.93.93,0,0,1,.29.55c-.09,0-.12-.08-.17-.12a.23.23,0,0,0-.36,0,.31.31,0,0,1-.28.12,1.58,1.58,0,0,1-1.45-.8c-.18-.28-.17-.29-.38,0a.37.37,0,0,0,.06.62l.45.36a2.16,2.16,0,0,1,.6.77c.23.56.39,1.16.57,1.74,0,.06,0,.13,0,.17s-.12,0-.17,0l-.74-.54s-.06-.07-.12,0a1.45,1.45,0,0,0,.34.58,5.78,5.78,0,0,1,.88,1.33A3.81,3.81,0,0,0,20,28.74c.27.23.36.24.62,0a3.28,3.28,0,0,0,1-1.17c.06-.16.15-.3.23-.46a8.22,8.22,0,0,1,.93-1.35A1.12,1.12,0,0,0,23,25.29Z"/><path id="_Compound_Path_5" data-name="&lt;Compound Path&gt;" d="M11.4,26.8a12,12,0,0,0,1-1.07,4.51,4.51,0,0,1-.94,1.47c-.17.2-.19.2-.41.09a12.85,12.85,0,0,0-2-.8c-.28-.08-.42-.23-.4-.5a1,1,0,0,0-.27-.88,1,1,0,0,1,.57.48.69.69,0,0,0-.27-.41c.08.06-4.55-2.74-2.92-2.65.28,0,.88,1.26,1.36,1.32s1.38-.19,1.56-.53a.54.54,0,0,0-.26-.74l-.06,0a2.72,2.72,0,0,1-.33-1A2.37,2.37,0,0,0,6.68,21c-2,.11,2-3.77,2-3.74.45-.43,1.69-2,2.13-1.81,0,0-1.59,3.95-1.65,3.17a1.84,1.84,0,0,0,.65,1.16c1.17,1.13.06-.85.49-.84,1.38,0,5.05-3.77,4.8-4.81,0,.06,0,.12,0,.2a4.87,4.87,0,0,0,.26-.7,17.28,17.28,0,0,0-.15-1.78c.2-.15,1.36.74,1.92.74,0,0-2.45-1.24-2.21-1.56.08-.11,2,1.91,3,.92-.79.79,1.94-1.87,1.57-.86-.17.47-1.1.56-1.1,1,1.38-.19,4.67-2.86,6.16-1,1.08,1.37,1.54,4.26,2,5.79a1,1,0,0,0,.78.68,3.84,3.84,0,0,0,2-.6,1.82,1.82,0,0,1,1.47.25,1.32,1.32,0,0,1,.6,1.2,21.18,21.18,0,0,0,.06,3,.19.19,0,0,0,.18.17,2.43,2.43,0,0,0,1.49.13q.23,0,.13.19c-.62,1-2,1.46-2.84,2.17a2,2,0,0,0-.77,1.79c0,.35.88,1.18.44,1.29l-.93.22a.12.12,0,0,1-.15-.08c-1.28-2.77-5-14.88-9.59-14.13-2.41.39-5.53,8.28-5.24,8.42a1.48,1.48,0,0,1,.14-.79,22.93,22.93,0,0,1-3,5.93C11.78,26.5,12.66,25,11.4,26.8Zm19-5.1a7.2,7.2,0,0,0,0-2.21q-.94-1.43-2,0A3.42,3.42,0,0,0,27.88,21a21.25,21.25,0,0,0,.59,2.13.78.78,0,0,0,.45.26,1.66,1.66,0,0,0,.83-.32,3.64,3.64,0,0,0,.37-1.32c.08-.18.11-.19.26-.06C30.47,21.54,30.23,21.58,30.38,21.7ZM12.74,20.62q-.18-1-1.09-.56a11.5,11.5,0,0,1-1,1.46,1,1,0,0,0-.88.23c-.65.73,1.26,1.56,1.66,1.34a2.32,2.32,0,0,0,.91-.85,5.14,5.14,0,0,0,.43-1.62C12.72,20.32,12.62,21.14,12.74,20.62Zm11.68-6.51a2.36,2.36,0,0,0-1.21-1.81q-1.26-.95-1.46.36c.47,1.05,1.66,1.13,2.3,2a.4.4,0,0,0,.44,0,1.55,1.55,0,0,0-.08-.57C24.42,14,24.39,14.19,24.42,14.11Z"/><path id="_Path_7" data-name="&lt;Path&gt;" d="M26.09,13.38a.32.32,0,0,1-.07-.21,4.46,4.46,0,0,1,0-1A.24.24,0,0,0,26,12a3.92,3.92,0,0,0-.75-1s-.09-.06-.06-.12a.12.12,0,0,1,.15-.05l.39.11.79.26a.66.66,0,0,1,.28,1.07l-.41.49A1.55,1.55,0,0,0,26.09,13.38Z"/><path id="_Path_8" data-name="&lt;Path&gt;" d="M13,15.94c0-.05,0-.11,0-.15.18-.23.24-.54.49-.73a3.17,3.17,0,0,0,.67-.72c0-.05.08-.13.16-.09s0,.11,0,.17a1.09,1.09,0,0,1-.23.39c-.33.38-.61.79-1,1.16,0,0-.07.08-.13.06S13,16,13,15.94Z"/><path id="_Path_9" data-name="&lt;Path&gt;" d="M19.46,24.77a2.58,2.58,0,0,1,0-.47s0-.11.07-.12.09.06.11.11L20,25.38a1.51,1.51,0,0,0,.19.36c.05.08.1.08.15,0a1.5,1.5,0,0,0,.19-.36l.35-1.06c0-.06,0-.15.11-.15s.07.1.07.15a4,4,0,0,1-.6,2.59c-.17.25-.23.24-.41,0a3.68,3.68,0,0,1-.59-1.61A2.53,2.53,0,0,1,19.46,24.77Z"/></g><g id="reaper"><path class="cls-2" d="M29.23,18.67c-.43-1.38-1.42-2.18-1.23-3.07A17.25,17.25,0,0,1,28.76,14s.31-.5.33-.4C29.3,13.46,26,9.17,25.6,8.8c-1.66-1.59-3.59-1.92-5.83-2a6.9,6.9,0,0,0-5.6,2A14.88,14.88,0,0,0,12.4,11c-.14.23-1.7,1.58-1.81,2.54,0,.08.6,1,.67,1.16A2.48,2.48,0,0,1,11.68,16c0,.46-1.52,2.51-1.22,2.8,0,.12.68.69.77.8.22.28.54.71.78,1,.41.46.28.47.89.39-.13.06.81.41.95.51a5.49,5.49,0,0,1,1.15.91,4.29,4.29,0,0,1,.55,1.52c.25.87.48,1.74.67,2.63a7.12,7.12,0,0,1,.41,1.39,10.45,10.45,0,0,1,.62,2.87c0,.5.37.77.91,1.34.24.26.65.66,1,1s.35.36.57.41c.73.17,1-.75,1.19-1.27.11-.15.38-.05.51-.12a1.54,1.54,0,0,0,.57-.52c.47-.56.43-.67.5-1.43a10.45,10.45,0,0,1,1-3.78c.21-.91.46-1.8.72-2.69h0l.16-.55a6.72,6.72,0,0,0-.82-2.62l-.33-.24a2.77,2.77,0,0,1-.33-.61,7.53,7.53,0,0,0-1-.25c-.09,0,.07-.16,0-.26s-.1-1-.11-1,.6.74.61-.07a4.07,4.07,0,0,0-.76-1.46c-.33-.39-.91-.65-1.11-1.14.19.19,1.38.9,1.4.94a7.85,7.85,0,0,1,.54.78.74.74,0,0,0,0,.15q.18.35.34.7c.59-.36,3.62-2.77,4.13-1.41a4.8,4.8,0,0,1-.63,2A4.74,4.74,0,0,1,23.75,20,10,10,0,0,0,24.93,22c.35-.26.63-.6,1-.85l.06,0c.19-.1.5-.1.59-.33.3,0,.52.14.68.09s.29-.5.79-.92.7-1,1.15-1.26a.24.24,0,0,1,0,.06h0a.22.22,0,0,0,0-.07A.1.1,0,0,0,29.23,18.67Zm-11.89.83a3.13,3.13,0,0,1-3-.06,1.9,1.9,0,0,1-1.08-1.16c-.11-.26-.67-1.24-.57-1.54s1-.45,1.31-.34a7.41,7.41,0,0,1,1.45.82c.55.33,1.11.63,1.68.9.22.1.44.19.66.28s.23-.23.3-.15a3.1,3.1,0,0,1-.22.67C17.66,19.37,17.85,19.3,17.34,19.5Zm3.52,4.35c.2-.65.24-1.32.44-2,0,0,.22,0,.25,0,.48.13.28,1.35-.07,2.85S20.53,28.28,20,28.4c-1,.24-1.52-2.25-1.63-2.89-.14-.82-1-2.8-.25-3.6.09-.09.13-.15.22-.1.2.8.43,1.6.67,2.38a10,10,0,0,0,.81,2.1C20,26.48,20.73,24.25,20.86,23.85Z"/></g></svg>