<svg xmlns="http://www.w3.org/2000/svg" viewBox="0 0 40 40"><title>reinhardt</title><g id="reinhardt"><path d="M27.87,21.35c.11-.17.1-.17,0-1.15s-.91-8.84-.94-9.12,0-.34-.55.55-.81,1.24-.82,1.68-.27,4.45-.26,4.67,0,.43-.7.72c0,0-.77-.42-1.36-.72s-.73-.15-.84-.9c0-.33-.36-3.68-.88-7A63.89,63.89,0,0,0,20,3a63.88,63.88,0,0,0-1.51,7.1c-.52,3.3-.83,6.65-.88,7-.1.75-.24.6-.84.9s-1.36.72-1.36.72c-.7-.29-.71-.5-.7-.72s-.25-4.24-.26-4.67-.28-.79-.82-1.68-.53-.82-.55-.55-.82,8.14-.94,9.12-.13,1,0,1.15.73,1.25.87,1.49.05.21-.21.41-.35.26-.37.44-.19,1.59-.25,2.12,0,.56.13.72l.63.59a3.22,3.22,0,0,1-.1.72c-.05.34.18.29.28.32a.35.35,0,0,0,.32-.1c.13-.09.17-.14.36,0a4.49,4.49,0,0,1,.58.67c.39.49.4,2.77.49,3.39a35.4,35.4,0,0,0,2.12,4.28,3.08,3.08,0,0,0,.89.81c.06,0,.72-.94.89-1.15s.12-.14.12-1.23,0-5.41,0-5.75-.16-.42-.35-.57L16.68,27c-.07-.06-1.61-.63-1.67-.65s0-.32,0-.47-.13-.53-.18-.78-.06-.41,0-.43.24.07.24.07c1.79.44,3.79,2.12,4.35,2.36s.58.18.58.18.06.05.58-.18,2.56-1.92,4.35-2.36c0,0,.18-.09.24-.07s0,.18,0,.43-.17.63-.18.78.07.44,0,.47-1.6.6-1.67.65l-1.81,1.54c-.19.15-.35.23-.35.57s0,4.66,0,5.75-.06,1,.12,1.23.84,1.15.89,1.15a3.08,3.08,0,0,0,.89-.81,35.4,35.4,0,0,0,2.12-4.28c.09-.62.09-2.9.49-3.39a4.49,4.49,0,0,1,.58-.67c.19-.17.23-.13.36,0a.35.35,0,0,0,.32.1c.1,0,.33,0,.28-.32a3.22,3.22,0,0,1-.1-.72l.63-.59c.16-.16.19-.19.13-.72s-.23-1.94-.25-2.12-.1-.24-.37-.44-.35-.17-.21-.41S27.76,21.52,27.87,21.35Z"/><path d="M23,26.76a15.71,15.71,0,0,0,1.43-.67c-.13-.2.29-.75.14-.75s-.46.14-2,1.12-2.16,1.3-2.53,1.3-1-.32-2.53-1.3-1.87-1.12-2-1.12.26.55.14.75.9.44,1.3.67c.18.11,1.39,1,1.77,1.29s.64.47.64.75,0,1.32.05,1.42.66.48.66.48.64-.37.66-.48.05-1.14.05-1.42.27-.43.64-.75S22.82,26.86,23,26.76Z"/></g><g id="firestrike"><path id="_Path_" data-name="&lt;Path&gt;" d="M24,19.6c2-.09,4-.42,6.05-.69,1.13-.15,2.26-.3,3.39-.48C32.55,14,31.73,9.25,30.81,7.69A18.94,18.94,0,0,0,29,10.89h0a14.27,14.27,0,0,0-5.22-2.78A19.09,19.09,0,0,0,20,7.34l-.58,0c-.31,0-.62,0-.93,0a15.94,15.94,0,0,0-2.79.64,10.12,10.12,0,0,0-1.94.8l-.08,0a.18.18,0,0,0,.19.07c.42-.1.84-.17,1.27-.24a.19.19,0,0,0,.11,0l.56-.1a14.88,14.88,0,0,1,2.83,0l-.34.07a.16.16,0,0,0-.13,0l-.66.2a14.47,14.47,0,0,0-1.82.6,16.06,16.06,0,0,0-5.08,2.71C8.54,13.82,7.56,16.43,6.85,19a4.79,4.79,0,0,0-.25.95.21.21,0,0,0,0,0,5.85,5.85,0,0,1,.7-1.21,4.79,4.79,0,0,1,.31-.46,9,9,0,0,1,2.54-2.47c-4.89,12,6.47,16.49,8.75,16.84,1.34.16.36-.39.29-.43-1.64-1.1-1.34-1.42-1.29-1.41l1,.34c.65.23,1.29.48,2,.67,3.22.58,5.36-.18,5.36-.28s-.12-.1-.2-.11-.36,0-.54,0a9,9,0,0,1-3.09-.72l-.54-.26a6.07,6.07,0,0,0,1.64-.27c.19-.09.23-.31.07-.36a.8.8,0,0,0-.2-.1c-.94-.44-8.06-2.59-8.07-8,0-.35-.06-.65-.07-.77a5.6,5.6,0,0,1,1.41-4.58,3.72,3.72,0,0,1,.73-.83.16.16,0,0,1,.27.15,5.08,5.08,0,0,0-.07,1.57,9.21,9.21,0,0,1,.69-.87,4.2,4.2,0,0,1,2.84-1.51,7.48,7.48,0,0,1,1.76,0,14.89,14.89,0,0,1,3.77.95l-.17.2A32.69,32.69,0,0,1,24,19.6Z"/></g><g id="charge"><g id="_Group_" data-name="&lt;Group&gt;"><path id="_Compound_Path_" data-name="&lt;Compound Path&gt;" d="M8.12,26.53a7.65,7.65,0,0,0,.76,2.73c-.11,0-.13-.08-.17-.14a6.85,6.85,0,0,1-.59-.9c-.28-.51-.54-1-.83-1.54a11,11,0,0,1-1.1-3.07A9,9,0,0,1,6,21.8a16.59,16.59,0,0,1,.16-3.12,13.09,13.09,0,0,1,1.47-4.3,14.68,14.68,0,0,1,3.27-3.87,13.47,13.47,0,0,1,1.66-1.27s.11-.11.16,0,0,.12,0,.17a11.58,11.58,0,0,1-.81,1.29.22.22,0,0,0-.07.18l.23-.2A15.85,15.85,0,0,1,14.49,9a21.9,21.9,0,0,1,5.36-1.73,26.71,26.71,0,0,1,4.25-.56c.57,0,1.14-.08,1.71-.06a28.75,28.75,0,0,0-2.8.85,21.39,21.39,0,0,0-3.88,1.63,11.18,11.18,0,0,0-2.51,2c-.11.1-.27.25-.22.38s.26,0,.39,0c1,0,2,0,3,0,.68,0,1.37,0,2.05,0-1.51.73-2.93,1.59-4.38,2.42,0,0,0,.05.06.06A25.82,25.82,0,0,1,22,15.49c.41.16.85.27,1.26.42,1.11.42,2.29.6,3.43.92.74.21,1.49.37,2.24.55.05,0,.12,0,.16.1-2,.24-4.09.28-6.15.7l1.89.31c1.57.25,3.15.48,4.72.75s3.38.77,5.07,1.15l.08,0c.05,0,.13,0,.13.09s-.08.08-.14.1c-1.86.61-3.72,1.2-5.57,1.82-.55.18-1.13.23-1.69.38-.88.25-1.8.34-2.68.59-.65.18-1.3.28-2,.43l3.09.5c0,.1-.12.1-.19.12-1.11.33-2.23.65-3.34,1s-2.2.63-3.29,1c-.5.15-1,.39-1.47.53a9.35,9.35,0,0,1-1.59.36c-.15,0-.16.06-.08.18.39.6.8,1.18,1.24,1.74a1.83,1.83,0,0,0,.36.32c.57.43,1.21.76,1.83,1.19A8.27,8.27,0,0,1,16,30.2a12,12,0,0,0,3.21,1.86c1.14.48,2.33.81,3.52,1.22-.08.07-.15,0-.22,0-.67,0-1.34,0-2,0a10.39,10.39,0,0,1-2.28-.27,21.18,21.18,0,0,1-3.88-1,1.69,1.69,0,0,0-.6-.17,1.59,1.59,0,0,1-.59-.27,12.08,12.08,0,0,1-3.23-2.67,11.29,11.29,0,0,1-1.73-2.37Zm5.24-1c0-.15,0-.22,0-.3q0-1.11,0-2.22c0-.28,0-.28.29-.28H17c.28,0,.28,0,.28-.28q0-1.79,0-3.57c0-.28,0-.28-.28-.28h-3.3c-.35,0-.35,0-.35-.34,0-.73,0-1.45,0-2.18,0-.07,0-.15,0-.24l-.23.25-2.76,3L9,20.45a.22.22,0,0,0,0,.35l.39.42,3.18,3.43Z"/></g></g><g id="earthshatter"><path id="_Compound_Path_2" data-name="&lt;Compound Path&gt;" d="M33.53,22.31l-.06,0h0a.32.32,0,0,0-.23.12l-.63.54-.87.74,0,0a.83.83,0,0,1-.35.21L26.53,25a2.1,2.1,0,0,1-.86.07c-.75-.11-1.51-.21-2.25-.31l-.16,0q1.13-2.16,2.25-4.33a.25.25,0,0,1,.19-.15L28,19.74,30,19.27a1.52,1.52,0,0,0,.76-.44c.58-.61,1.14-1.26,1.68-1.89l.75-.87a.46.46,0,0,0,.09-.48c-.13-.38-.27-.76-.46-1.19a.27.27,0,0,0-.25-.21.29.29,0,0,0-.26.21l-.42.77q-.89,1.61-1.77,3.22a.36.36,0,0,1-.29.22c-1.88.44-3.44.83-4.9,1.21a.64.64,0,0,0-.41.3l-1.55,2.55-.08.13-.23-.9L21.1,16s0-.06,0-.11l.64-.91.62-.88a.76.76,0,0,0,.15-.45,14.56,14.56,0,0,1,.12-1.52V12q.21-1.91.42-3.81l.14-1.28c0-.36,0-.45-.39-.53l-.13,0c-.13,0-.29.06-.32.35,0,.48-.11,1-.16,1.44L22,9.76c-.1.84-.19,1.67-.29,2.51a1.08,1.08,0,0,0,0,.14.34.34,0,0,1,0,.14l-.66.84,0,0h0l-.15-.94L20.66,11c-.19-1.17-.38-2.34-.57-3.51l0-.18a2.46,2.46,0,0,1,0-.85.26.26,0,0,0-.27-.33h-.06A14.05,14.05,0,0,0,13.29,8a.36.36,0,0,0-.21.44l.14.49a15.31,15.31,0,0,0,.57,1.8.84.84,0,0,0,.49.48l.82.37L16,12a.53.53,0,0,1,.29.31c.34.81.65,1.65.95,2.46l0,.09c.26.69.45,1.27.62,1.83a.34.34,0,0,1,0,.36c-.16.2-.31.41-.45.62l-.13.19c-.06.08-.07,0-.11,0l-3.47-.69a.24.24,0,0,1-.19-.13l-.09-.15a2.59,2.59,0,0,0-.38-.55c-.4-.41-.81-.8-1.22-1.18l-.31-.29a.34.34,0,0,1-.1-.19l0-.09a1.17,1.17,0,0,0-.16-.46c-.56-.83-1.06-1.57-1.55-2.35-.06-.1-.14-.22-.27-.22s-.2.1-.27.2a14.59,14.59,0,0,0-.83,1.28.34.34,0,0,0,.12.5L9,14l.71.49a5.09,5.09,0,0,1,.41.32c.13.11.27.23.42.33a4.65,4.65,0,0,1,1.41,1.3l.06.08,0,0c.15.21.31.41.47.61a11.1,11.1,0,0,1,.77,1.05.39.39,0,0,0,.35.17l.65,0,1.59,0a3.54,3.54,0,0,1,.76.1.36.36,0,0,1,.26.18A1.53,1.53,0,0,0,17,19l.09.11.62.85,1.58,2.14a.21.21,0,0,1,0,.17c-.08.57-.15,1.14-.22,1.71l-2-1.24a.66.66,0,0,0-.36-.11h0l-.82.06-2.81.19a.19.19,0,0,1-.1,0l-.24-.15-1.42-.86-.27-.17a3.07,3.07,0,0,0-1-.47L8,20.7l-1.24-.28-.16,0a.24.24,0,0,0-.2.09.35.35,0,0,0,0,.32c.15.58.28,1.19.43,2a.43.43,0,0,0,.45.4h0V23h0l.05.19h.73l2.57,0,.18,0,.86.23,1.37.36A2.78,2.78,0,0,0,14,24c.79-.07,1.6-.08,2.39-.09h.57a.34.34,0,0,1,.15,0l.35.17,1.4.68a.16.16,0,0,1,.1.13l.15.55c.19.71.39,1.44.61,2.15a.13.13,0,0,1,0,.14l-.87,1.2-.3.42a.4.4,0,0,0,.1.66l.36.26.61.43,1.5,1.06-.58.6-.15.15-.75.78a.27.27,0,0,0-.11.3.3.3,0,0,0,.31.18l.33,0,.22,0h.07a.27.27,0,0,0,.22-.09,1.14,1.14,0,0,1,.26-.2,1.68,1.68,0,0,0,.3-.22,1.08,1.08,0,0,0,.18-.26.72.72,0,0,1,.13-.18c.29-.26.56-.54.83-.81l.3-.3c.1-.1.18-.18.17-.3s-.1-.19-.22-.27l-2.07-1.43h0l.57-.51c.44-.39.88-.79,1.32-1.17l.32-.3a2.56,2.56,0,0,1,.81-.61,2.13,2.13,0,0,0,.27-.14l.09-.05.24-.13a3.29,3.29,0,0,0,1.22-.9h.07l.71.14.75.15a.72.72,0,0,0,.41,0l3.87-1.39.1,0,.09,0c.25.05.5.08.75.1l.52.06a.4.4,0,0,0,.5-.3,14.42,14.42,0,0,0,.56-2A.25.25,0,0,0,33.53,22.31ZM19.92,17.19l.5-.44.2,2.06-.57.45c0-.06,0-.11,0-.16C20,18.55,20,18,19.92,17.19Zm.24,6,0,0,.52.71a4.62,4.62,0,0,0,.68.75l0,0,0,0-.33.39-1-.65-.23-.15.31-1Zm1-1-.37-.64q-.29-.53-.61-1.05l0,0,0-.05a6.2,6.2,0,0,1,1-.9q.43,1.44.87,2.88l.31,1,0,.1a.09.09,0,0,1,0,.07l-.14.23L22.1,24A11.26,11.26,0,0,0,21.17,22.17Zm-.35,3.52-.36.66-.08,0a.82.82,0,0,1-.32-.13l0,0a8.38,8.38,0,0,1-.26-1A10.12,10.12,0,0,0,20.83,25.69Zm2,1c0-.31.05-.63.09-1l0-.22,1.16.14a.44.44,0,0,0,0,.17c0,.14,0,.23-.23.34s-.54.29-.79.43l-.25.14Zm-2.45,7h0Z"/></g><g id="barrierfield"><path id="_Compound_Path_3" data-name="&lt;Compound Path&gt;" d="M31.35,24.18a.45.45,0,0,1,0-.19c.08-.28.12-.57.2-.85q1.18-4.4,2.35-8.8c.1-.36.25-.73.33-1.09a.44.44,0,0,1,.07-.13L35,12a.57.57,0,0,0,.12-.36c0-.2,0-.43-.06-.61a6.64,6.64,0,0,1-.35-.67.79.79,0,0,0-.5-.48.5.5,0,0,0-.41,0l-1.06.48a.4.4,0,0,1-.21,0c-.39,0-.79-.07-1.19-.09l-1.76-.08c-.68,0-1.37,0-2.05-.06-.91,0-1.84,0-2.76,0-2.29,0-4.58,0-6.88,0-.77,0-1.54,0-2.3,0h-.06c-.57.05-1.12,0-1.68.08l-1.34.07a5.4,5.4,0,0,0-.64,0,.47.47,0,0,1-.32,0L10.86,10a.87.87,0,0,0-.94.18c-.26.25-.5.51-.78.73a2.24,2.24,0,0,0-.59.86.48.48,0,0,0,0,.26q.06.4.1.81a1.29,1.29,0,0,1,0,.43c-.06.28-.11.57-.19.85-.87,3.19-1.67,6.39-2.59,9.58a2.28,2.28,0,0,1-.33.72c-.12.17-.23.33-.34.51s-.28.34-.31.54a1.25,1.25,0,0,0,.07.83,3.72,3.72,0,0,1,.3.59.78.78,0,0,0,.53.5.43.43,0,0,0,.33,0l1-.46a.66.66,0,0,1,.35-.06l1.75.12,2,.09,1,0,3.74.05c1.5,0,3,0,4.54,0,1.12-.05,2.2,0,3.27,0,.28,0,.53,0,.76,0,.56,0,1.13-.05,1.69-.07l.56,0c.46,0,.91-.07,1.36-.09a.46.46,0,0,1,.26,0l.73.44a.94.94,0,0,0,.9-.19l1-.92a1.48,1.48,0,0,0,.26-.35,1.16,1.16,0,0,0,.17-.9A7.53,7.53,0,0,1,31.35,24.18Zm-4.82-5.05-1.09.45-.33-.28-3,.14-.28.33.09.35-.14.52-1.25.71-.32,0-.2.21-.55,2.05-.26.19.36.4-.76,1h-.94l-.23-1,.58-.4-.16-.19.55-2.05-.08-.21-.34,0-.87-.71.14-.52.28-.35-.1-.33-2.89-.14-.48.28-.85-.45.28-1,1.11-.45.23.45.23-.14,2.48,0,.45-.28-.11-.12.15-.38,1.73-1,.66-2.48.3-.24-.32-.38.68-1h1.08l.17,1-.53.38.17.24-.66,2.48,1.2,1-.05.38-.17.12.3.28,2.47,0,.15.14.47-.45.87.45Z"/></g></svg>