<svg xmlns="http://www.w3.org/2000/svg" viewBox="0 0 40 40"><title>roadhog</title><g id="wholehog"><g id="_Group_" data-name="&lt;Group&gt;"><path id="_Compound_Path_" data-name="&lt;Compound Path&gt;" d="M29.68,13.69c.16-.7.31-4.34.34-4.59.06-.41-.08-.56-.49-.48-.77.25-4.14,1.29-5.41,1.87a15.17,15.17,0,0,0-7.89-.14C15,9.77,11.6,8.73,10.82,8.48c-.4-.09-.54.07-.49.48,0,.23.15,3.22.29,4.31A9.69,9.69,0,0,0,7.21,20.5c0,5.86,5.7,10.6,12.72,10.6s12.72-4.75,12.72-10.6A9.58,9.58,0,0,0,29.68,13.69Zm-17.82,0c-.21,0-.2-.2-.21-.3-.09-.71-.17-1.42-.21-2.13a7.62,7.62,0,0,1-.1-1.33c0-.18,0-.32.28-.23,1.5.53,3.06.91,4.57,1.62C15.61,11.6,12.2,13.65,11.87,13.68Zm1.93,4.84c-.45,0-.79-.43-.79-1a.76.76,0,0,1,.72-.85.9.9,0,0,1,.83.94A1,1,0,0,1,13.8,18.52Zm6.09,7.91C17.13,26.42,15,24.49,15,22s2.19-4.34,5-4.34h0c2.77,0,4.94,1.93,4.94,4.38S22.7,26.43,19.89,26.43Zm6-7.91c-.45,0-.79-.43-.79-1a.76.76,0,0,1,.72-.85.9.9,0,0,1,.83.94A1,1,0,0,1,25.85,18.52ZM29,11.39c0,.71-.12,1.42-.21,2.13,0,.11,0,.33-.21.3s-3.75-2.08-4.34-2.37c1.51-.71,3.07-1.08,4.57-1.62.24-.09.26.05.28.23A7.62,7.62,0,0,1,29,11.39Z"/><path id="_Path_" data-name="&lt;Path&gt;" d="M21.83,19.53,20,21.2c-.65-.48-1.31-.94-2-1.39s-1.26.62-.61,1S18.49,21.62,19,22l-1.48,1.32a.63.63,0,0,0-.15.11l-.16.16c-.55.56.28,1.37.85.85L20,22.75c.49.38,1.28,1,1.74,1.36l.08.07.11.08c.55.4,1.25-.5.73-.95s-1.27-1-1.76-1.38l1.74-1.56C23.26,19.87,22.41,19,21.83,19.53Z"/></g></g><g id="chainhook"><path id="_Path_2" data-name="&lt;Path&gt;" d="M33,26.33a10.39,10.39,0,0,0-1.82-.8,26.65,26.65,0,0,1-5.9-4.68A1.2,1.2,0,0,1,25,19.72a1.22,1.22,0,0,0-.79-.18L24,19c-.15-.37-.31-.75-.5-1.12a30.54,30.54,0,0,0-1.82-3.12,37.51,37.51,0,0,0-3.92-4.85,2.25,2.25,0,0,0-1.14-.66L15,8.88l-.54-.12a1.55,1.55,0,0,0-.86,0,22.86,22.86,0,0,0-2.64,1.1,22.43,22.43,0,0,0-4.09,2.68,1.2,1.2,0,0,0-.48,1.16c0,.18,0,.36.06.54,0,.41.09.84.17,1.27a18.46,18.46,0,0,0,.59,2.66.83.83,0,0,0-.67,1,2.53,2.53,0,0,0,.43,1.28,1.23,1.23,0,0,0,.45.44.94.94,0,0,0,.76,0,2.8,2.8,0,0,0,.23.47.73.73,0,0,0-.42.72,2.06,2.06,0,0,0,.8,1.53l.2.13a.76.76,0,0,0,.79-.05l0,0a9.25,9.25,0,0,0,.62.71.76.76,0,0,0-.22.42.94.94,0,0,0,.29.72,2.23,2.23,0,0,0,.7.54l.12.06a.81.81,0,0,0,.78,0,.77.77,0,0,0,.28-.31,11.6,11.6,0,0,0,1.52.19l.92.06-.67-.63a1.48,1.48,0,0,0-.27-.2l-.08,0L13.43,25c-.25-.16-.49-.31-.72-.48h0a5.2,5.2,0,0,0,.54-.89l.15-.29.35-.65L13,22.9a1.2,1.2,0,0,0-.52.27l0,0-.35.28-.24.2a6.14,6.14,0,0,1-.87-1.4l.43-.32.25-.19a5.32,5.32,0,0,0,.58-.48l.41-.4-.56-.15a.71.71,0,0,0-.45,0h0l-1.07.32-.16-.56c-.1-.35-.21-.71-.3-1.07h0c.28-.13.55-.27.84-.42l.84-.43-.45-.31a.65.65,0,0,0-.53-.12l-1,.09A23.6,23.6,0,0,1,9.61,15a.3.3,0,0,1,.14-.27,9.15,9.15,0,0,1,.94-.67,12.93,12.93,0,0,1,3.7-1.64.8.8,0,0,1,.88.15l.23.24c.4.43.82.87,1.19,1.32a28.58,28.58,0,0,1,2.78,4.16A16.53,16.53,0,0,1,20.67,21l-.47.27-.46.27a.59.59,0,0,0-.35.41.59.59,0,0,0,.23.48l.43.42.87.85a.77.77,0,0,0,.72.2q.54-.12,1.11-.29a1,1,0,0,0,.74.58l.07,0,2.36,2.29c.91.88,1.62,1.91,2.49,2.81,1.45,1.51,2.8.75,4.21-.39C33.5,28.15,34.25,27.07,33,26.33Z"/></g><g id="takeabreather"><g id="_Group_2" data-name="&lt;Group&gt;"><path id="_Compound_Path_2" data-name="&lt;Compound Path&gt;" d="M22.94,32l1.16-.35.05,0c.29-.17.64-.33,1-.49s.61-.41.92-.6l.92-.73.17-.22a1.81,1.81,0,0,1,.33-.32s0,0,0,0c0-.22.15-.35.27-.49a5.31,5.31,0,0,0,.65-1.28,4.18,4.18,0,0,0,.4-1.35,4.94,4.94,0,0,0,.09-1.63,1.66,1.66,0,0,1,.14-.7c.26-1.08.55-2.16.8-3.25a6.29,6.29,0,0,0,.12-1,7.68,7.68,0,0,0,0-.87,3.31,3.31,0,0,0-.63-1.81,8.7,8.7,0,0,0-2.82-2.38,15,15,0,0,0-2.12-.95c-.25-.1-.48-.25-.83-.36.32.57-.13.8-.39,1.12a2.73,2.73,0,0,1-1.11.6,7,7,0,0,1-2.05.44,8.83,8.83,0,0,1-1.35.09,11.32,11.32,0,0,1-3.29-.52,3.5,3.5,0,0,1-1.23-.72,1.31,1.31,0,0,1-.4-1L11.7,14a9.67,9.67,0,0,0-2.16,1.31,7.06,7.06,0,0,0-.88.75,4.27,4.27,0,0,0-.82,1.18c-.11.27-.18.55-.29.82a1.32,1.32,0,0,0,0,.55c0,.45,0,.91.05,1.36a11.18,11.18,0,0,0,.32,1.56c.19.85.41,1.7.61,2.55a.64.64,0,0,1,0,.19,7.35,7.35,0,0,0,.61,3.42,7.88,7.88,0,0,0,1.09,1.63,5.66,5.66,0,0,0,1.42,1.19,9.77,9.77,0,0,0,3.46,1.53,10,10,0,0,0,1.33.32l.72.08c.49,0,1,.12,1.47.13.22,0,.45,0,.67,0A14.32,14.32,0,0,0,22.74,32,.28.28,0,0,1,22.94,32Zm-1.63-3.47c-.59,0-1.17,0-1.76.05-.2,0-.23.09-.22.25,0,.44,0,.88,0,1.31s0,.53-.53.55a15.42,15.42,0,0,1-3.17-.32.33.33,0,0,1-.3-.37c0-.49,0-1,0-1.46,0-.2-.06-.26-.26-.3a9.57,9.57,0,0,1-1.88-.43.49.49,0,0,1-.35-.51q0-.58,0-1.16h0c0-.42,0-.84,0-1.25s.17-.47.51-.36c.52.18,1.07.24,1.6.37.21.05.29,0,.28-.23,0-.52,0-1,0-1.55,0-.36.1-.49.45-.47q1.56.1,3.12.24c.33,0,.47.23.48.58s0,1,0,1.43c0,.24.08.31.31.3.6,0,1.19,0,1.79,0,.23,0,.43.08.44.34,0,.84,0,1.67,0,2.51C21.83,28.37,21.63,28.51,21.32,28.52Z"/><path id="_Path_3" data-name="&lt;Path&gt;" d="M13.94,12.05c0,.09.09.18.14.27s.14.25,0,.39a.1.1,0,0,0,0,.13,2.08,2.08,0,0,0,.69.91,7.79,7.79,0,0,0,2.32.77c.34.09.69,0,1,.09s.63,0,.94,0a4.72,4.72,0,0,0,1.05-.1c.29,0,.58-.11.88-.13a3.64,3.64,0,0,0,.92-.26,3.12,3.12,0,0,0,1.23-.67.93.93,0,0,0,.3-.89c0-.11,0-.2.08-.25s.15.07.2.12a5.35,5.35,0,0,0,1.36,1.07,4.9,4.9,0,0,0,1.14.36,4.22,4.22,0,0,0,1.14.14,7.85,7.85,0,0,0,1.54-.13,8.9,8.9,0,0,0,1.73-.82,9.86,9.86,0,0,0,1.13-.64,1,1,0,0,0,.43-.66c.07-.39.18-.76.26-1.15s.09-.6-.36-.78a.68.68,0,0,1-.31-.18A2.23,2.23,0,0,0,30.44,9a19.16,19.16,0,0,0-2-.38,1,1,0,0,0-.45,0,1.52,1.52,0,0,1-1-.08,2.81,2.81,0,0,0-1.18-.06A10.58,10.58,0,0,0,23.44,9c-.34.11-.71.37-.65.73,0,.06,0,.12.08.15a3.72,3.72,0,0,1,.64.46.9.9,0,0,1,.34.75,2.36,2.36,0,0,0,0,.46c0,.12-.1.17-.17.24a3.81,3.81,0,0,1-1.63.87,9.08,9.08,0,0,1-1.93.34,7.64,7.64,0,0,1-1.23.1,16,16,0,0,1-3.34-.41,7.46,7.46,0,0,1-1.33-.58L14,12Z"/><path id="_Path_4" data-name="&lt;Path&gt;" d="M21.14,8.6a4.23,4.23,0,0,1-2.43.48,3.44,3.44,0,0,1-2.32-.61,4,4,0,0,1,.06.86.2.2,0,0,1-.2.24,3.71,3.71,0,0,0-1.38.53c-.24.12-.27.4-.42.6s.06.1.09.16a1.35,1.35,0,0,0,.68.66,7.42,7.42,0,0,0,2.14.57,4.08,4.08,0,0,0,.92,0c.24,0,.46.07.7.05a10.47,10.47,0,0,0,3.21-.54,2.76,2.76,0,0,0,.8-.57c.16-.14,0-.63-.11-.78a3.58,3.58,0,0,0-1.65-.77c-.11,0-.09-.1-.09-.17C21.14,9.12,21.14,8.87,21.14,8.6Z"/><path id="_Path_5" data-name="&lt;Path&gt;" d="M18.59,8.36a4.57,4.57,0,0,0,1.77-.25c.09,0,.19-.07.2-.21s-.09-.18-.18-.23a1.94,1.94,0,0,0-.89-.24,5.37,5.37,0,0,0-2,.13c-.17.05-.39.12-.38.31s.19.25.37.3A4.11,4.11,0,0,0,18.59,8.36Z"/></g></g><g id="roadhog"><path d="M25.29,22.41c.48-.2.55-1.07.15-1.93s-1.11-1.4-1.6-1.2-.55,1.07-.15,1.93S24.81,22.61,25.29,22.41Z"/><path d="M14.64,22.41c.48.2,1.2-.33,1.6-1.2s.33-1.73-.15-1.93-1.2.33-1.6,1.2S14.16,22.2,14.64,22.41Z"/><path d="M30,28l-1.1-.58a.49.49,0,0,0-.29,0l-1.53-.81H27a15.84,15.84,0,0,0-.9-5.61.39.39,0,0,1,0-.11c-.07-.93.27-1.66-1.31-4.38s-3.25-2.86-5-2.76a6.34,6.34,0,0,0-6.07,6.64.41.41,0,0,1,0,.26,17,17,0,0,0-.9,6l-.06,0-1.53.81a.49.49,0,0,0-.29,0L9.8,28a.54.54,0,0,0-.17.76,6.21,6.21,0,0,0,.91,2.42,6.87,6.87,0,0,0,1.69,2.05.6.6,0,0,0,.77.27l1.1-.58a.46.46,0,0,0,.2-.23l1.52-.8a.57.57,0,0,0,.08-.07,8.92,8.92,0,0,0,4,.81,8.91,8.91,0,0,0,4-.8l.06.05,1.52.8a.46.46,0,0,0,.2.23l1.1.58a.6.6,0,0,0,.77-.27,7.07,7.07,0,0,0,1.66-2.05,6.61,6.61,0,0,0,.94-2.42A.54.54,0,0,0,30,28Zm-6.87-9.44c.71-.3,1.76.49,2.35,1.76s.49,2.54-.22,2.83-1.76-.49-2.35-1.76S22.41,18.87,23.12,18.57Zm-8.8,1.76c.59-1.27,1.64-2.05,2.35-1.76s.81,1.57.22,2.83-1.64,2.05-2.35,1.76S13.74,21.59,14.33,20.33Zm-1.25,9.5a7,7,0,0,0-1.54-2.06,6.49,6.49,0,0,1,1.65,2,6.84,6.84,0,0,1,.95,2.46A7.52,7.52,0,0,0,13.07,29.83Zm3.22,1.64-.21.11a.76.76,0,0,0,0-.69,3.72,3.72,0,0,0-.67-2.28,4,4,0,0,0-1.63-1.68.86.86,0,0,0-.28-.28l0,0a.74.74,0,0,1,1,.29,6.16,6.16,0,0,1,1.33,1.69,4.72,4.72,0,0,1,.77,1.92A.67.67,0,0,1,16.3,31.47Zm2.33-7.07c-.15-.28-.76,0-1.25.91-.27.5-.2-2.14,1.13-2.14.47,0,.81.44.81,1.11S18.78,24.68,18.63,24.4Zm1.27-4.71c-1.59,0-4.25,6.45-3.73,4.59.38-1.36,2.22-5.57,3.7-5.57s3.22,3.71,3.76,5.57S21.48,19.7,19.89,19.7Zm2.52,5.62c-.49-.89-1.1-1.19-1.25-.91s-.69.56-.69-.12.35-1.11.81-1.11C22.61,23.18,22.69,25.81,22.41,25.32Zm2.05,3.42a3.7,3.7,0,0,0-.71,2.16.76.76,0,0,0,0,.69l-.21-.11a.67.67,0,0,1-.26-.94A4.72,4.72,0,0,1,24,28.61a6.16,6.16,0,0,1,1.33-1.69.74.74,0,0,1,1-.29l0,0a.86.86,0,0,0-.28.28A5.19,5.19,0,0,0,24.47,28.74Zm2.23,1.2a7.15,7.15,0,0,0-1,2.29,6.36,6.36,0,0,1,.92-2.35,8,8,0,0,1,1.68-2.12A9.09,9.09,0,0,0,26.69,29.94Z"/><path d="M19,12.87c-.18.34-.22.49-.21.58s.39,0,1.41,0,1.42.09,1.37-.11-.09-.34-.09-.34a.18.18,0,0,0,0-.17,2.58,2.58,0,0,0,.92-.69,15.79,15.79,0,0,0,1.3-2.31c.54-.93-.24-.19-.54,0s-.16-.19-.24-.49a2.66,2.66,0,0,0-.3-.89,1.88,1.88,0,0,1,0-1.53c.12-.55,0-.34-.41,0S21.14,7.8,21,8s0-.19-.39-1.15-.55-1.06-.5-.22-.9,1.64-1.78,2.57A1.82,1.82,0,0,0,18,11.24c.09.2-.76.09-1.27-.12s-.15.28.09,1.05C17.15,13.36,18.09,12.89,19,12.87Z"/></g></svg>