<svg version="1.1"
     baseProfile="full"
     width="200px" height="200px"
     xmlns="http://www.w3.org/2000/svg"
     viewBox="5 3 30 34" preserveAspectRatio="xMidYMid meet">
	<g fill="white">
		<path d="M14.6 13.7c-1.2.2-2.1 1.1-2.4 2.3 1-1.3 2.8-.1 4 .6.7.4 1.5.7 2.4.7-.9-.2-1.7-.7-2.3-1.4-.5-.5-1.1-1-1.8-1.4-.2-.5.1-.8.1-.8zm-5.1-2.3c.6-1.9 1.9-3.5 3.6-4.5h-1.2c-4.1 3.1-4.1 8.4-4.1 8.4L9.2 17c0-3.7.7-4.6.7-4.6l-.4-1zm11 13.6v-.1c.8-.8 1.3-1.7 1.6-2.8-.3.3-.6.5-.8.8-.3.4-.7.8-1.2 1-.5-.2-.9-.6-1.2-1-.3-.3-.5-.6-.8-.8.2 1.1.8 2 1.6 2.8v.1c-.8 0-1.7.1-2.5.3H23c-.9-.3-1.7-.4-2.5-.3z"></path>
		<path d="M26.2 24.7l-.8 2.9c-.7.8-1.4 1.6-2.2 2.3-.9.7-2.6 1.7-3.2 1.6-.6.1-2.3-.9-3.2-1.6-.8-.7-1.5-1.5-2.1-2.3l-.8-2.9-1.6-1.7c-.3 1.3-.7 7-.7 7 1.6 3.1 6 5.6 6.9 6.1.5.3 1 .4 1.5.4s1-.2 1.5-.4c.9-.5 5.4-3 6.9-6.1 0 0-.4-5.7-.7-7l-1.5 1.7zM23.8 16c-.6.7-1.4 1.2-2.3 1.4.8 0 1.6-.3 2.4-.7 1.1-.8 2.9-1.9 4-.6-.2-1.2-1.2-2.1-2.4-2.3 0 0 .3.2.2.8-.8.4-1.4.8-1.9 1.4z"></path>
		<path d="M28.7 12c-.9-2.8-3.4-4.8-6.3-5.1 0 0-.2-.7-2.4-.7s-2.4.7-2.4.7c-2.9.3-5.4 2.3-6.3 5.1l-.7.6c-.6 1.1-.6 5-.6 5l1.5 1.8.9 1.1.6-.5-1.2-1.5V18l.6.8.6-.5-1.2-1.6c0-2.7.8-3.9.8-3.9l-.1-.4c1-3.8 5.1-4.3 5.1-4.3l1.1 1.9c.5-.1.9-.1 1.4-.1.5 0 .9 0 1.4.1l1.1-1.9s4 .5 5.1 4.3l-.1.4s.8 1.2.8 3.9L27 18.4l.6.5.6-.8v.5L27 20l.6.5.9-1.1 1.5-1.8s0-3.9-.6-4.9l-.7-.7zM16.6 4.8l1.1.5c.7-.3 1.5-.4 2.3-.3.8 0 1.6.1 2.3.3l1.1-.5c.6.1 1.1.4 1.6.7h1.3c-2.5-2.1-6.3-2-6.3-2s-3.7-.1-6.3 2H15c.5-.3 1.1-.6 1.6-.7z"></path>
		<path d="M32.2 15.2s0-5.3-4.1-8.4h-1.2c1.7 1.1 2.9 2.7 3.6 4.5l-.3 1s.7 1 .7 4.6l1.3-1.7z"></path>
	</g>
</svg>