<svg xmlns="http://www.w3.org/2000/svg" viewBox="0 0 40 40"><defs><style>.cls-1{fill-rule:evenodd;}</style></defs><title>sombra</title><g id="opportunist"><polygon class="cls-1" points="15.06 10.09 13.37 10.09 13.37 8.39 12.04 8.39 12.04 10.09 10.34 10.09 10.34 11.41 12.04 11.41 12.04 13.11 13.37 13.11 13.37 11.41 15.06 11.41 15.06 10.09"/><polygon class="cls-1" points="22.36 7.73 20.67 7.73 20.67 6.03 19.34 6.03 19.34 7.73 17.65 7.73 17.65 9.05 19.34 9.05 19.34 10.75 20.67 10.75 20.67 9.05 22.36 9.05 22.36 7.73"/><polygon class="cls-1" points="29.33 9.81 27.64 9.81 27.64 8.12 26.31 8.12 26.31 9.81 24.61 9.81 24.61 11.14 26.31 11.14 26.31 12.83 27.64 12.83 27.64 11.14 29.33 11.14 29.33 9.81"/><path d="M33,14.2c-1,.4-2.06.77-3.09,1.08a10.65,10.65,0,0,1,1,4.66A10.93,10.93,0,1,1,9.89,15.86c-.54-.19-2.53-1.09-3-1.29A14.2,14.2,0,1,0,33,14.2Z"/><path d="M12.08,19.83c0-.91,0-1.82,0-2.73a.64.64,0,0,1,.38-.61l1.44-.69,5.53-2.64a1.21,1.21,0,0,1,1.11,0l6.9,3.29a.78.78,0,0,1,.48.76c0,1.78,0,3.57,0,5.35a.87.87,0,0,1-.45.77c-.65.37-1.34.67-2,1-.19.09-.27,0-.28-.18s0-.19,0-.29,0-.12-.12-.08l-.68.32a.15.15,0,0,0-.09.14s0,.09,0,.14q0,.58,0,1.17a.31.31,0,0,1-.17.3L23,26.34c-.13.06-.22,0-.23-.15s0-.57,0-.85a.9.9,0,0,0,0-.29.17.17,0,0,0-.19-.14.19.19,0,0,0-.17.18,1.45,1.45,0,0,0,0,.2c0,.39,0,.79,0,1.18a.3.3,0,0,1-.2.31c-.27.11-.52.25-.78.38s-.31,0-.32-.19c0-.42,0-.83,0-1.25a.58.58,0,0,0,0-.12c0-.08-.06-.15-.15-.15s-.14.07-.16.15a1.17,1.17,0,0,0,0,.23c0,.3,0,.6,0,.9s0,.4,0,.6a.29.29,0,0,1-.16.27.86.86,0,0,1-.94,0,.28.28,0,0,1-.16-.26c0-.45,0-.9,0-1.34a1.36,1.36,0,0,0,0-.38c0-.08-.06-.16-.17-.15s-.13.09-.15.16a1.83,1.83,0,0,0,0,.43c0,.32,0,.65,0,1s-.1.24-.27.18l-.12-.05a4.59,4.59,0,0,0-.67-.33.31.31,0,0,1-.23-.33c0-.37,0-.74,0-1.11a1,1,0,0,0,0-.3c0-.09-.09-.16-.19-.15a.19.19,0,0,0-.17.19c0,.06,0,.12,0,.19,0,.3,0,.6,0,.9s-.1.22-.24.16l-1.08-.52a.33.33,0,0,1-.19-.32c0-.39,0-.78,0-1.17a.29.29,0,0,0-.2-.31c-.19-.08-.37-.17-.56-.26s-.14,0-.15.09,0,.19,0,.29-.1.25-.27.17l-1-.46-1-.48a.93.93,0,0,1-.53-.87c0-.89,0-1.78,0-2.67Zm5.41-.16a3.86,3.86,0,0,0-.09-.73,2.38,2.38,0,0,0-.8-1.39,1.34,1.34,0,0,0-1.53-.16,1.79,1.79,0,0,0-.68.6A3.26,3.26,0,0,0,14,21.19a1.92,1.92,0,0,0,.84,1,1.27,1.27,0,0,0,1,.14,1.82,1.82,0,0,0,1-.73A3.32,3.32,0,0,0,17.49,19.68Zm8.71.26a3.35,3.35,0,0,0-.06-.66,2.76,2.76,0,0,0-1-1.71,1.39,1.39,0,0,0-1.23-.29,1.61,1.61,0,0,0-1,.8,3.07,3.07,0,0,0-.37,2.25A2.77,2.77,0,0,0,23.5,22a1.53,1.53,0,0,0,.75.35,1.42,1.42,0,0,0,1.35-.59A2.84,2.84,0,0,0,26.2,19.94ZM20.52,24h.08a.3.3,0,0,0,.26-.47.63.63,0,0,0-.26-.28L20.1,23a.24.24,0,0,0-.21,0l-.45.22a.64.64,0,0,0-.31.32.28.28,0,0,0,.19.44.59.59,0,0,0,.38,0,.77.77,0,0,1,.61,0A.43.43,0,0,0,20.52,24Z"/></g><g id="stealth"><path d="M26.13,22.12l-.76,0a.77.77,0,0,1-.49.19l-1,.06c-1.74.34-3.51.55-5.26.84-1,.17-2,.38-3,.6a5.3,5.3,0,0,0-.18.62,13.05,13.05,0,0,1-1.26,3c-.14.29-.3.56-.46.84s-.26.15-.41.13-.21-.06-.22-.19a1.55,1.55,0,0,1,0-.65c.12-.39.42-.74.25-1.24a.55.55,0,0,0,.53,0c.12-.06.12-.16.12-.27a.16.16,0,0,0-.15-.18,3.32,3.32,0,0,1-1-.38,1.59,1.59,0,0,1-.79-.51.27.27,0,0,0-.43,0,2.56,2.56,0,0,1-.54.43.73.73,0,0,0-.33.59,2.8,2.8,0,0,1-.3,1,.75.75,0,0,1-.52.5.69.69,0,0,0-.3,1.07c0,.06.1.1.09.2a3.7,3.7,0,0,1-.32.94c-.18.37-.27.76-.47,1.12a1.32,1.32,0,0,0-.09.21c1.37-.69,2.75-1.38,4.14-2q1.49-.69,3-1.34l.17-.31c.07-.12.12-.26.31-.32l-.17.5a80,80,0,0,1,8.37-3c.73-.22,1.58-.5,2.48-.78A15.26,15.26,0,0,0,26.13,22.12Z"/><path d="M29.41,13.53a1.24,1.24,0,0,0,.17.43,2.15,2.15,0,0,1,.37.84c0,.1,0,.2,0,.3l.41,0L31.45,15v0a1.48,1.48,0,0,1,.16-.79,7.17,7.17,0,0,0,.39-1,.89.89,0,0,1,.58-.64c.17,0,.38-.09.34-.35s.11-.67-.3-.86c-.2-.09-.4-.25-.3-.52a.36.36,0,0,0-.18-.48,2.38,2.38,0,0,1-.49-.41.47.47,0,0,0-.28-.15L29.9,9.5c-.06,0-.13,0-.16,0s0,.12.08.17a1.58,1.58,0,0,0,.67.39c.08,0,.25.08.17.17s0,.33.08.44a.48.48,0,0,1-.15.78.76.76,0,0,0-.39.44,3.19,3.19,0,0,1-.19.39c0,.08-.09.2-.19.2s-.13-.13-.16-.22a1.55,1.55,0,0,0-.46-.73c-.14-.13-.29-.09-.28.08a3,3,0,0,0,.24,1.26A2.18,2.18,0,0,1,29.41,13.53Z"/><path d="M31.49,15.58,30,15.7A10.2,10.2,0,0,0,30,17c0,.07,0,.16-.11.1a2.05,2.05,0,0,1-.68-.7,2.47,2.47,0,0,0-.25-.54h0c-3.93.37-8.25,1-11.87,2.75a3.19,3.19,0,0,1,0,.66,3.2,3.2,0,0,0,0,.72c0,.27.06.54.1.81,0,0,0,0,0,.06a47.32,47.32,0,0,1,8.47-.28,1.37,1.37,0,0,1,.06-.47,15.73,15.73,0,0,0,.5-1.67c.08-.32.16-.34.43-.13s.64.45.94.71.94.64,1.37,1,1,1.06,1.57,1.55a.87.87,0,0,0,1.34-.28A3.92,3.92,0,0,0,32,18.08,11.26,11.26,0,0,1,31.49,15.58Z"/><path d="M16.07,12.77a1.23,1.23,0,0,0,1.22.23c-.11.35-.23.66-.31,1a.74.74,0,0,0,.22.79c.13.12.42.16.36.38s-.25.29-.38.43l-.14.11a.16.16,0,0,0-.08.17.9.9,0,0,1-.17.74.72.72,0,0,0,0,.68,6,6,0,0,1,.21.65c3.57-1.72,7.78-2.34,11.69-2.71a1,1,0,0,1,0-.3.47.47,0,0,0-.08-.27,2.09,2.09,0,0,0-1.41-1.11c-.11,0-.23,0-.29-.16a1,1,0,0,0-.43-.43.32.32,0,0,1-.11-.51,13.78,13.78,0,0,0,.94-1.86c.08-.17,0-.26-.14-.28s-.4-.06-.61-.06a19,19,0,0,0-2.18-.28c-.22,0-.24-.13-.16-.29a1,1,0,0,0,.06-.84,1.67,1.67,0,0,1-.12-.74,2.57,2.57,0,0,0-.72-1.81,1.26,1.26,0,0,1-.45-1c0-.21-.12-.33-.3-.42a2.84,2.84,0,0,1-.75-.45.89.89,0,0,0-1.11-.16,2.12,2.12,0,0,0-.48.32,13.35,13.35,0,0,0-1.14,1.16,6.34,6.34,0,0,0-1.43,2.76,1.12,1.12,0,0,0,.07.79,4.35,4.35,0,0,1,.33,1.35,1,1,0,0,1-.25.83,3.86,3.86,0,0,1-.46.44,1.41,1.41,0,0,1-1.81.09.85.85,0,0,0-.4-.2A2.65,2.65,0,0,0,16.07,12.77Z"/><path d="M24.92,27.46c-3.2.64-6.36,1.48-9.5,2.39,0,.07-.07.13-.17.07h0l-2.16.64c-1.67.5-3.34,1-5,1.57-.14.28-.17.28-.52.17l-.42.14h0a.31.31,0,0,0,.17.45l.24.1c.22.07.3.18.19.41a.29.29,0,0,0,0,.33c.21.24.12.41-.08.59a.29.29,0,0,0,0,.49l.74.6c.07.05.17.09.16.19a.28.28,0,0,0,.1.28q1.45-.79,2.91-1.55A7.77,7.77,0,0,0,10.7,34c-.13,0-.24-.11-.21-.3s.18-.14.29-.13a.57.57,0,0,0,.65-.42.53.53,0,0,1,.6-.4.51.51,0,0,0,.51-.27c.09-.15.19-.29.28-.44.23-.4.43-.44.81-.19s.52.2.72-.2c0-.09.09-.1.18-.07s.2.23.11.4a8.12,8.12,0,0,0-.44,1l1.57-.8A97.05,97.05,0,0,1,27.86,27C26.88,27.1,25.89,27.26,24.92,27.46Z"/></g><g id="hack"><polygon points="5.92 21.55 5.92 25.62 9.44 27.65 12.96 25.62 12.96 21.55 9.44 19.52 5.92 21.55"/><polygon points="30.56 6.59 27.04 8.62 27.04 12.69 28.97 13.8 25.57 21.36 23.45 20.13 17.7 23.45 17.7 30.09 23.45 33.41 29.2 30.09 29.2 23.45 26.07 21.65 29.48 14.1 30.56 14.72 34.08 12.69 34.08 8.62 30.56 6.59"/><polygon points="19.65 12.97 22.67 14.72 26.19 12.69 26.19 8.62 22.67 6.59 19.15 8.62 19.15 12.61 16.46 14.36 13.44 12.61 9.92 14.64 9.92 18.71 13.44 20.74 16.96 18.71 16.96 14.73 19.65 12.97"/></g><g id="emp"><path d="M5.84,19c0-1.63,0-3.26,0-4.89A1.14,1.14,0,0,1,6.53,13L9.11,11.8,19,7.08a2.17,2.17,0,0,1,2,0Q27.17,10,33.36,13a1.39,1.39,0,0,1,.86,1.37c0,3.19,0,6.38,0,9.57a1.55,1.55,0,0,1-.8,1.38c-1.16.66-2.39,1.2-3.6,1.77-.33.16-.49,0-.51-.33,0-.17,0-.35,0-.52s-.07-.21-.21-.14l-1.22.57a.26.26,0,0,0-.16.25c0,.08,0,.17,0,.25q0,1,0,2.09a.55.55,0,0,1-.31.53c-.65.32-1.29.64-1.95.94-.23.11-.4,0-.41-.27,0-.51,0-1,0-1.53a1.61,1.61,0,0,0-.06-.51.31.31,0,0,0-.34-.25.34.34,0,0,0-.31.32,2.6,2.6,0,0,0,0,.35c0,.7,0,1.41,0,2.11a.55.55,0,0,1-.35.56c-.48.2-.94.45-1.4.68s-.56.05-.58-.34c0-.74,0-1.49,0-2.23a1,1,0,0,0,0-.22c0-.14-.11-.27-.28-.27s-.25.12-.29.27a2.09,2.09,0,0,0-.07.41c0,.54,0,1.07,0,1.61,0,.36,0,.71,0,1.07a.52.52,0,0,1-.28.48,1.54,1.54,0,0,1-1.69,0,.51.51,0,0,1-.28-.47c0-.8,0-1.6,0-2.4a2.43,2.43,0,0,0-.07-.68c0-.15-.12-.29-.31-.28s-.24.15-.28.29a3.28,3.28,0,0,0-.08.77c0,.58,0,1.16,0,1.73,0,.32-.18.43-.49.31l-.21-.1a8.22,8.22,0,0,0-1.2-.58.56.56,0,0,1-.4-.59c0-.66,0-1.32,0-2a1.86,1.86,0,0,0-.06-.54c-.05-.17-.16-.29-.34-.27a.34.34,0,0,0-.31.34c0,.11,0,.22,0,.33,0,.54,0,1.07,0,1.61,0,.27-.19.4-.44.28-.65-.3-1.29-.61-1.93-.93a.6.6,0,0,1-.33-.58c0-.7,0-1.39,0-2.09a.51.51,0,0,0-.36-.56c-.34-.14-.67-.3-1-.46s-.25-.05-.26.16,0,.35,0,.52c0,.33-.18.44-.48.3l-1.71-.82q-.88-.41-1.73-.86a1.66,1.66,0,0,1-1-1.56c0-1.6,0-3.19,0-4.79Zm9.69-.28a6.91,6.91,0,0,0-.16-1.3A4.26,4.26,0,0,0,13.94,15a2.4,2.4,0,0,0-2.74-.29A3.2,3.2,0,0,0,10,15.75a5.84,5.84,0,0,0-.63,5.71,3.43,3.43,0,0,0,1.5,1.79,2.27,2.27,0,0,0,1.7.26,3.25,3.25,0,0,0,1.87-1.31A6,6,0,0,0,15.53,18.76Zm15.59.47A6,6,0,0,0,31,18,4.94,4.94,0,0,0,29.29,15a2.48,2.48,0,0,0-2.21-.52,2.87,2.87,0,0,0-1.82,1.43,5.5,5.5,0,0,0-.66,4,5,5,0,0,0,1.68,3,2.74,2.74,0,0,0,1.34.62,2.54,2.54,0,0,0,2.42-1A5.09,5.09,0,0,0,31.12,19.22ZM21,26.51h.14a.53.53,0,0,0,.46-.84,1.13,1.13,0,0,0-.46-.5c-.29-.15-.6-.29-.89-.44a.42.42,0,0,0-.38,0l-.81.39a1.14,1.14,0,0,0-.55.58.51.51,0,0,0,.34.78,1.06,1.06,0,0,0,.67,0,1.38,1.38,0,0,1,1.09,0A.78.78,0,0,0,21,26.51ZM8.27,19h0c0-.25,0-.5,0-.75A.26.26,0,0,0,8.14,18a.27.27,0,0,0-.29.07L7,18.67c-.25.2-.25.35,0,.55l.88.69C8,20,8,20,8.15,20a.24.24,0,0,0,.12-.22C8.27,19.49,8.27,19.24,8.27,19ZM15,24.44a6.64,6.64,0,0,0,0-.92c0-.25-.13-.3-.34-.19a10,10,0,0,0-1,.59c-.22.15-.23.28,0,.44s.7.55,1.06.81c.17.12.29.06.3-.16A2.88,2.88,0,0,0,15,24.44ZM16,19.08a5.09,5.09,0,0,0,0,.81c0,.28.14.32.36.16l.33-.22c.18-.14.37-.27.54-.42s.22-.37,0-.53-.63-.5-1-.74c-.17-.12-.29,0-.3.16A6.42,6.42,0,0,0,16,19.08Zm9,5.18a2.93,2.93,0,0,0,0,.72c0,.24.13.31.32.17q.54-.39,1.06-.81c.18-.14.16-.29,0-.42a10.89,10.89,0,0,0-1-.61c-.21-.11-.31-.06-.34.17A4.67,4.67,0,0,0,25,24.26ZM24,19a6,6,0,0,0,0-.7c0-.25-.14-.31-.34-.16l-.84.65c-.29.23-.28.4,0,.65s.57.4.85.6.24.1.3-.12A3.77,3.77,0,0,0,24,19Zm8.07-1c-.21,0-.29.11-.29.28a9.94,9.94,0,0,0,0,1.42c0,.2.18.27.34.14l.87-.68c.24-.2.24-.34,0-.54s-.5-.37-.75-.56A.28.28,0,0,0,32,18.05ZM15,14.06h0c0-.17,0-.35,0-.52a1.31,1.31,0,0,0-.1-.53c0-.09-.11-.19-.22-.13a4.74,4.74,0,0,0-1,.63.26.26,0,0,0,0,.4,7.81,7.81,0,0,0,1.09.84c.15.1.25,0,.26-.15S15,14.24,15,14.06Zm10.1,0c0,.16,0,.32,0,.48s0,.19.07.24.19,0,.27-.06c.31-.23.61-.45.91-.69s.24-.36,0-.58a6.85,6.85,0,0,0-.77-.48c-.22-.15-.31-.12-.39.14A4.09,4.09,0,0,0,25.05,14Zm5.57,9.74c0-.16,0-.3,0-.43s-.11-.21-.24-.12l-1,.79a.21.21,0,0,0,0,.35,8.47,8.47,0,0,0,.9.71c.17.12.28.07.33-.13C30.64,24.56,30.55,24.16,30.63,23.79Zm-21.25,0c.07.38,0,.79.08,1.2,0,.19.14.24.3.14a6.61,6.61,0,0,0,.94-.73.2.2,0,0,0,0-.32c-.35-.28-.7-.55-1.05-.82-.11-.08-.22-.06-.23.11ZM30.75,13.64c0-.18,0-.37,0-.56s-.11-.23-.25-.13c-.32.23-.64.46-.94.72s-.17.33,0,.47l.83.59c.16.11.26.06.3-.12A9.36,9.36,0,0,0,30.75,13.64Zm-21.49,0a9,9,0,0,0,.07,1c0,.18.13.22.28.12s.57-.39.85-.6.21-.31,0-.45-.63-.5-1-.73c-.13-.09-.23,0-.24.12S9.27,13.43,9.26,13.61Z"/></g><g id="translocator"><path class="cls-1" d="M27.68,26.48l-.63.48c1.36.44,2.19,1,2.19,1.65,0,1.41-4.14,2.55-9.24,2.55S10.76,30,10.76,28.61c0-.63.83-1.21,2.21-1.65l-.56-.5c-2.45.75-4,1.87-4,3.11,0,2.27,5.19,4.11,11.59,4.11s11.59-1.84,11.59-4.11C31.59,28.33,30.08,27.23,27.68,26.48Z"/><path d="M29.46,11.53l-3-1.71-5,5v4.81h3l-.78.73-3.15,2.92-.39.35a.2.2,0,0,1-.32,0l-1.32-1.21-2.74-2.54-.23-.22s1.36,0,3,0V13.6l5.33-5.33-3-1.72a1.66,1.66,0,0,0-1.66,0l-8.63,5A1.66,1.66,0,0,0,9.71,13v10a1.66,1.66,0,0,0,.83,1.43l8.63,5a1.66,1.66,0,0,0,1.66,0l8.63-5a1.66,1.66,0,0,0,.83-1.43V13A1.66,1.66,0,0,0,29.46,11.53Z"/></g><g id="sombra"><path d="M20.93,14.48c1-1.41,2.95,0,3.38.39s.61.46.54.27a5.18,5.18,0,0,1,.11-2c.15-.54.31.62.62.5s.48-.92.72-1.81c.17-.6-.09-.7-.16-.72h.1c.59,0,.53.92.9.58a11.6,11.6,0,0,0,.91-3.41c.11-.76-.14-.9-.26-1.7s-1.17-.68-1.4-.67-.48,0-1-.79-1.19-1.35-5,1.63-6.32,7-6.32,9.93c0,3.1,2.35,4.18,2.35,7.23a3.93,3.93,0,0,1-3.77,4c-2.42,0-4.09-1-4.47-1.72s0,.86.16,1.32-1.11-.41-2-1.15c-.69-.61,1.19,4.36,7,4.51,1.35,0,2.52-.88,2.06-.18a10.82,10.82,0,0,1-3.69,3.08c-.58.24-1.48.33-.87.42a4.88,4.88,0,0,0,1.6-.05c.41-.11-.76.68-1.76,1.14s-2.58.7-.49.57a15.1,15.1,0,0,0,8.88-4.81c2-2.19,2.64-6.91,1.19-10C18.57,17.35,19.89,15.89,20.93,14.48Z"/><path d="M29.83,17.8a1.12,1.12,0,0,0-1.33,0,1.38,1.38,0,0,1-.69.38A5.16,5.16,0,0,0,26,19.56c-.34.49.71.05,1.1-.27A2,2,0,0,1,28.34,19c.26,0,.19-.18.24-.3s.31,0,.48,0,.08-.07.24-.12a1.79,1.79,0,0,1,.91.12C30.62,18.82,30.52,18.25,29.83,17.8Z"/><path d="M24.37,19.56a5.16,5.16,0,0,0-1.79-1.37,1.38,1.38,0,0,1-.69-.38,1.12,1.12,0,0,0-1.33,0c-.69.45-.79,1-.38.88a1.79,1.79,0,0,1,.91-.12c.16,0,.08.12.24.12s.42-.08.48,0,0,.27.24.3a2,2,0,0,1,1.22.26C23.67,19.61,24.71,20,24.37,19.56Z"/><path d="M27,24.44c-.2,0-.41.34-.68.34s-.54-.34-.81-.34a.44.44,0,0,0-.34.21.1.1,0,0,1-.16,0,.44.44,0,0,0-.34-.21c-.27,0-.54.34-.81.34s-.48-.34-.68-.34a.34.34,0,0,0-.27.14.14.14,0,0,0,0,.2,3.34,3.34,0,0,1,.52.5c.41.48,1.64.46,1.64.46s1.24,0,1.64-.46a3.34,3.34,0,0,1,.52-.5.14.14,0,0,0,0-.2A.34.34,0,0,0,27,24.44Z"/><circle cx="29.93" cy="19.52" r="0.23"/><path d="M29.48,12.76c.33-.29.47-.16.64-.16s.37-.52.77-1a.68.68,0,0,0,0-1c-.22-.29-.27-.34-.58-.16a14.38,14.38,0,0,0-2.12,2.19c-.08.14.15.34.33.53S29.16,13,29.48,12.76Z"/><path d="M32.18,13.1c-.17-.27-.21-.33-.51-.2a12.91,12.91,0,0,0-2.09,1.76c-.08.12.1.32.24.5s.57,0,.89-.25.43-.1.59-.08.37-.43.78-.82A.61.61,0,0,0,32.18,13.1Z"/></g></svg>