<svg xmlns="http://www.w3.org/2000/svg" viewBox="0 0 40 40"><title>torbjorn</title><g id="scrapcollector"><g id="_Group_" data-name="&lt;Group&gt;"><path id="_Compound_Path_" data-name="&lt;Compound Path&gt;" d="M36.36,19.58c-.43-.92-.42-.92-1.39-1.17l-.24-.06a4,4,0,0,1-1.65-.86.77.77,0,0,1-.28-1.13c.09-.2,0-.32-.18-.4a9.8,9.8,0,0,1-1.28-.71.59.59,0,0,0-.47-.09,4.9,4.9,0,0,1-2.39-.09.64.64,0,0,1-.47-.45.74.74,0,0,1,.2-.91c.14-.14.39-.28.26-.56a5.16,5.16,0,0,1-.38-1.54,1.35,1.35,0,0,0-.55-1,9.63,9.63,0,0,0-.92-.77c-.21-.12-.44-.26-.69-.08-.51.38-1.11.62-1.61,1-.1.08-.15,0-.24,0A11.44,11.44,0,0,0,22,10a.46.46,0,0,1-.35-.34c-.17-.46-.35-.92-.52-1.38a.55.55,0,0,0-.46-.38,16.38,16.38,0,0,0-1.69-.09.58.58,0,0,0-.62.43c-.18.41-.38.81-.58,1.22,0,.07-.06.15-.16.16s-.42.08-.63.11a19.52,19.52,0,0,0-2.65.67.48.48,0,0,1-.52-.08l-1-.9a.38.38,0,0,0-.42-.07,12.11,12.11,0,0,0-1.88.92c-.2.1-.23.23-.15.43.17.42.32.84.48,1.26,0,.12.09.22,0,.33-.43.36-.84.75-1.29,1.09s-.57.4-.25,1c.11.21.07.26-.16.26s-.49-.1-.66,0a1,1,0,0,1-.84.18c-.54-.06-1.08-.09-1.63-.13a.27.27,0,0,0-.31.17c-.29.55-.58,1.1-.89,1.64a.38.38,0,0,0,0,.52A11.8,11.8,0,0,0,6,18.34c.27.23.61.47.61.88,0,.25,0,.51,0,.77,0,.6,0,1.23-.77,1.45a.83.83,0,0,0-.16.09c-.51.29-1,.59-1.5.93-.08.05-.12.09-.06.16.26.27.22.64.36,1,.2.46.25,1,.68,1.34s1.07.85,1.58,1.3a.8.8,0,0,0,.92.15c.42-.16.88-.22,1.3-.39a.87.87,0,0,1,1.13.35.3.3,0,0,1,.06.37c-.28.63-.54,1.27-.82,1.91a.23.23,0,0,0,.07.32c.4.33.79.68,1.2,1a3.18,3.18,0,0,0,.79.57c.68.24,1.36.48,2,.75a.3.3,0,0,0,.41-.12l1.33-1.56a.59.59,0,0,1,.61-.18c.63.09,1.26.17,1.89.22.4,0,.49-.11.43-.52s-.06-.63-.08-.95c0-.1,0-.22.14-.24s.16.07.19.16a9.85,9.85,0,0,1,.37,1,2.47,2.47,0,0,0,.36.84c.29.41.63.78,1,1.16a.53.53,0,0,0,.6.18c.73-.18,1.41-.51,2.14-.68.11,0,.2-.07.2-.23,0-.32,0-.64,0-1h0c0-.31,0-.62,0-.92a.4.4,0,0,1,.2-.38c.93-.63,1.87-1.26,2.79-1.9a.41.41,0,0,1,.42,0c.42.15.87.23,1.27.39s.76.1,1-.34c.09-.18.21-.18.38-.11a5.44,5.44,0,0,0,1,.32c.45.08.9,0,1.35.06s.4-.1.42-.37.13-.37.39-.45a4.71,4.71,0,0,1,2,.06c.53.07,1.19-.19,1.28-.6.15-.63.25-1.28.41-1.91.25-1,.26-2.07.58-3.07A.65.65,0,0,0,36.36,19.58Zm-17.7,3.25a5.75,5.75,0,0,1-2,.42c-.29,0-.33.11-.21.37A5.32,5.32,0,0,1,17,25a4.33,4.33,0,0,1-.79-.9,4.74,4.74,0,0,1-.3-.39,1,1,0,0,0-1-.51c-.19,0-.38-.12-.56-.2A5.89,5.89,0,0,0,13,22.47a.29.29,0,0,1-.11-.05A6.46,6.46,0,0,1,11.24,21a3.73,3.73,0,0,1-.66-1.52,4.38,4.38,0,0,1,1-3.64c.16-.21.3-.21.47,0l1.46,2a.54.54,0,0,1,0,.58c-.15.35-.29.7-.45,1a2.36,2.36,0,0,0-.23,1.1A3.15,3.15,0,0,0,13,21.92a11.58,11.58,0,0,1,.19-1.48,4,4,0,0,1,.45-1.13,3.68,3.68,0,0,1,.73-1.2.17.17,0,0,0,0-.25l-.11-.15c-.07-.1-.19-.21-.11-.33s.22,0,.32,0a.68.68,0,0,0,.74-.12A5.75,5.75,0,0,1,17,16.39c.09,0,.18-.07.26,0s0,.2,0,.28a20.52,20.52,0,0,1-.9,2.09c-.18.35-.29.74-.44,1.11a.34.34,0,0,0,0,.32l.33.62a.28.28,0,0,0,.17.16c.38.11.74.28,1.13.4a1.89,1.89,0,0,1,1.13.69.79.79,0,0,0,.15.15C19.05,22.43,19,22.71,18.66,22.83ZM19,13.89a1.47,1.47,0,0,0-1,1,1,1,0,0,1-.87.79,5.78,5.78,0,0,0-1.7.91c-.33.2-.41.19-.62-.13-.42-.64-.83-1.27-1.24-1.91-.25-.39-.22-.42.16-.67A10.15,10.15,0,0,1,17,12.49a8,8,0,0,1,1.41-.08,5.4,5.4,0,0,1,2.84.52,5.71,5.71,0,0,1,1.66,1.2c.11.11.13.19-.06.22l-1.24.22a.62.62,0,0,1-.33-.07c-.56-.2-1.12-.4-1.67-.62A.85.85,0,0,0,19,13.89ZM30.91,25.1a5.3,5.3,0,0,1-1.89,0c.35,0,1.11,0,1.46-.09a2.48,2.48,0,0,0,.88-.31.9.9,0,0,0,.39-1.22,2.54,2.54,0,0,0-.59-.82,7.2,7.2,0,0,0-1.43-1.06.27.27,0,0,1-.15,0,2.47,2.47,0,0,1-1-.21.29.29,0,0,1-.1-.4l0-.05a15.17,15.17,0,0,0-5-1.32h0a6.61,6.61,0,0,1-2.21,2.16A2.13,2.13,0,0,1,21,22a.29.29,0,0,1-.23,0l0,0a1.79,1.79,0,0,1-1-1.52c0-.46.49-1,.88-1.17A4.42,4.42,0,0,1,23,18.95a15.33,15.33,0,0,1,7.21,2.16,6,6,0,0,1,1.55,1.26A1.6,1.6,0,0,1,30.91,25.1Z"/></g></g><g id="moltencore"><path d="M7.2,16.8l2,1A10.67,10.67,0,0,0,9,20.38l3.39-1.3A7.44,7.44,0,0,1,19,12.71c.25,0,.5,0,.74,0a7.41,7.41,0,0,1,3.46.86l.43-2.87a1,1,0,0,0,.11-.39L23.89,8a1,1,0,0,0-.76-1l-1.44-.3a1,1,0,0,0-1.1.61l-.78,2.11h-.08c-.35,0-.71,0-1.07.05a10.75,10.75,0,0,0-2,.4L15.35,8a1,1,0,0,0-1.22-.31l-1.31.66a1,1,0,0,0-.48,1.16l.74,2.2a10.82,10.82,0,0,0-2.23,2.4,1,1,0,0,0-.35-.13l-2.3-.36a1,1,0,0,0-1.07.66L6.7,15.65A1,1,0,0,0,7.2,16.8Z"/><path d="M32.58,18.81l-2.25-.43A10.74,10.74,0,0,0,29.17,15l1.59-1.45a1,1,0,0,0,.15-1.25l-.82-1.22a1,1,0,0,0-1.21-.33l-2.09,1-.17.11a10.69,10.69,0,0,0-2-1.32l-.53,3.56a7.43,7.43,0,0,1-.19,12.17L26.32,28a1,1,0,0,0,.18.16l2,1.26a1,1,0,0,0,1.24-.17l1-1.11a1,1,0,0,0,0-1.26L29.2,25.15a10.7,10.7,0,0,0,1-2.76l2.19-.21a1,1,0,0,0,.87-.91l.07-1.47A1,1,0,0,0,32.58,18.81Z"/><path d="M23,26.78a7.38,7.38,0,0,1-2.52.72c-.25,0-.5,0-.74,0h0a7.4,7.4,0,0,1-7.38-6.7c0-.23,0-.47,0-.7l-2.7,1a1,1,0,0,0-.33.09l-2.09,1a1,1,0,0,0-.49,1.16l.45,1.4a1,1,0,0,0,1.07.65l2-.35a10.7,10.7,0,0,0,2.36,3L11.78,30a1,1,0,0,0,.36,1.2l1.24.79a1,1,0,0,0,1.24-.18L16,30.19a10.75,10.75,0,0,0,3.5.66l.63,2a1,1,0,0,0,1.07.66l1.45-.24a1,1,0,0,0,.8-1l0-2.09a10.71,10.71,0,0,0,2.5-1.31Z"/><path d="M17.12,17.35l4.46-1.61.14-.05,1.06-.38a5.72,5.72,0,0,0-7.43,8.52l6-2.15q.5-.18.3-.74v0a.54.54,0,0,0-.67-.39l-2.35.85a1.94,1.94,0,0,1-1.44,0,1.69,1.69,0,0,1-.94-1.06l-.3-.83a1.47,1.47,0,0,1,0-1.35A2.29,2.29,0,0,1,17.12,17.35Z"/><path d="M21.67,25.52a5.71,5.71,0,0,0,2.47-9l-1.88.68h0l-4.13,1.49a.42.42,0,0,0-.28.29.7.7,0,0,0,0,.44v0q.2.57.71.38L20.9,19a2.29,2.29,0,0,1,1.42-.15,1.49,1.49,0,0,1,.9,1l.27.76a1.68,1.68,0,0,1,0,1.41,2,2,0,0,1-1.12.91l-5.66,2A5.71,5.71,0,0,0,21.67,25.52Z"/></g><g id="armorpack"><g id="_Group_2" data-name="&lt;Group&gt;"><path id="_Compound_Path_2" data-name="&lt;Compound Path&gt;" d="M13.8,25.76c-.23-.64-2-5.26-2.09-5.53a.81.81,0,0,0-.44-.47c-.84-.33-1.74-.48-2.59-.78a.35.35,0,0,1-.23-.23c-.28-.81-.56-1.62-.86-2.42-.15-.41-.3-.81-.44-1.22a.32.32,0,0,1,0-.19c.13-.5.26-1,.38-1.51a.32.32,0,0,1,.25-.24c1.14-.39,2.21-.93,3.32-1.38a7,7,0,0,0,.63-.31,1,1,0,0,1,1.17,0l2,1.46,1.57,1.11a.26.26,0,0,0,.23.06A10.24,10.24,0,0,0,19,13.3a.26.26,0,0,0,.14-.2c.16-.62.33-1.24.48-1.87.2-.8.39-1.6.58-2.4a1,1,0,0,1,.84-.78c.74-.16,1.45-.41,2.17-.63a18.34,18.34,0,0,0,2-.65.32.32,0,0,1,.34.05c.41.28.82.57,1.22.87a.41.41,0,0,1,.14.2c.43,1.17.87,2.35,1.32,3.52a.48.48,0,0,1,0,.47c-.33.55-.74,1-1.08,1.59-.2.33-.5.65-.43,1.09,0,0,0,.11,0,.14.2.56,1.69,4.72,2,5.57a2.16,2.16,0,0,0,1,.62c.48.12,1,.15,1.46.32a.65.65,0,0,1,.43.43c.44,1.16.74,2.36,1.18,3.51a.67.67,0,0,1,0,.49,14.74,14.74,0,0,1-1.14,2.55,1.28,1.28,0,0,1-.6.46,20.12,20.12,0,0,1-2.44,1.11c-.09,0-.18.08-.26,0a8.67,8.67,0,0,0-1.29-.91,13,13,0,0,1-1.22-1,.36.36,0,0,0-.34-.08A26.49,26.49,0,0,0,21,29.45a.28.28,0,0,0-.14.2,11.46,11.46,0,0,1-.35,1.83,6.22,6.22,0,0,0-.34,1.31c0,.09-.09.11-.16.14a17.83,17.83,0,0,1-2.89.78,1.24,1.24,0,0,1-.65-.08,14.13,14.13,0,0,1-2.36-1.15.61.61,0,0,1-.28-.34q-.7-1.78-1.4-3.55a.55.55,0,0,1,.07-.51,10.48,10.48,0,0,1,.88-1.14A2.39,2.39,0,0,0,13.8,25.76ZM16.14,21a17.91,17.91,0,0,0,.75,2.1.61.61,0,0,0,.29.33c.55.3,1.1.59,1.66.85A29,29,0,0,1,22,25.84c.22.14.38.06.47-.2a12.52,12.52,0,0,1,.64-1.57c.51-1.06,1-2.12,1.45-3.22a1,1,0,0,0,0-.71c-.24-.71-.48-1.43-.75-2.13-.38-1-.79-2-1.14-3a.63.63,0,0,0-.45-.47c-.24-.06-.5-.17-.7,0a5.39,5.39,0,0,1-1.14.72.94.94,0,0,1-.83.12,1.43,1.43,0,0,0-1.52.32c-.22.21-.5.35-.64.64,0,0-.09.07-.14.08a4.92,4.92,0,0,1-1.59.31.77.77,0,0,0-.73,1c.06.15.1.3.16.45Z"/><path id="_Path_" data-name="&lt;Path&gt;" d="M23,17.27c.13.49.43.92.57,1.41a5.76,5.76,0,0,1,.27,1.69,5.42,5.42,0,0,1-.53,2.12,10.31,10.31,0,0,1-.76,1.41c-.15.25-.43.4-.57.66a.16.16,0,0,1-.2.07,6.21,6.21,0,0,0-.72-.11,7.5,7.5,0,0,1-1.58-.59,6.54,6.54,0,0,1-1.39-.87,5.07,5.07,0,0,1-.93-1.15,8.09,8.09,0,0,1-.71-1.8,3.06,3.06,0,0,1-.22-1.2c0-.21.14-.37.17-.56s.09-.09.16-.09a3.49,3.49,0,0,0,1.81-.85,3.1,3.1,0,0,1,1.54-.57,4,4,0,0,0,1.62-.33l.13-.06c.12-.05.21-.23.34-.16a1.3,1.3,0,0,1,.48.29C22.61,16.8,22.87,17,23,17.27Z"/></g></g><g id="buildturret"><path id="_Compound_Path_3" data-name="&lt;Compound Path&gt;" d="M23,14.35a1.73,1.73,0,0,1,1.11-.58c1.16.15,2.32.24,3.48.35l1,.1,2.24.22a.51.51,0,0,1,.36.15.64.64,0,0,0,.43.19,5.69,5.69,0,0,0,2,.23c.37-.13.31-1.12.35-1.44s0-.5-.42-.55-.95-.08-1.42-.15a1.19,1.19,0,0,0-.76.05,1.4,1.4,0,0,1-.89.16c-.79-.11-1.58-.17-2.37-.26L26,12.59l-1.79-.2c-.27,0-.38-.28-.64-.33-.6-.12-.44-.44-.5-1s-.28-.35-.64-.42a3,3,0,0,1-1.32-.57.86.86,0,0,0-.39-.15c-.48-.1-1-.19-1.42-.31A13.56,13.56,0,0,0,17,9.32c-.65-.06-1.94.24-2.49-.14S13.11,7.89,12.32,8c-.31,0-.55-.09-.86,0s-.81.34-1.23.5a1,1,0,0,0-.56.63c-.14.36.8.61,1,.58s1,.65.59.84a2.18,2.18,0,0,1-.94.33c-.23,0-.57.26-.76.37-.5.28-1.11.15-1.63.4L7.29,12a1.85,1.85,0,0,0-.67.7c-.2.28.23.81-.14,1s-.22,1.13-.11,1.54c.06.25.15.51.48.57.5.1.16,1.41.56,1.7a5.53,5.53,0,0,0,1,.69,9.79,9.79,0,0,0,2.92.82l.31,0,1.07-3H11.31a.52.52,0,0,1-.25-1l4.55-3.36a1,1,0,0,1,1.49.21l2,3.16a.64.64,0,0,1-.57,1H16.78l-1.19,3.33a.77.77,0,0,1-.73.51H11.95a.4.4,0,0,1-.29-.12l-.71-.09c-.52-.07-.94.46-1.29.77a5,5,0,0,0-.76.73c-.41.56-1.25,1.94-1.06,2.67.06.25.35.2.11.47l-.33.37c-.18.2-.62.68-.12.77a4.77,4.77,0,0,0,1.74.25c.31-.09.48-.44.53,0s1.23.54,1.48.28.13.17.13.2c-.06.46-.14.93-.19,1.39s-.06.7-.09,1.06a.27.27,0,0,0,.18.32c.68.2.05,1.66-.05,2.08a.52.52,0,0,0,.15.87l1.66.37c.62.14.95-.9,1.22-1.34.12-.19.15-.68.41-.72s.4-.38.57-.56,0-.36,0-.65a.64.64,0,0,0-.35-.52c-.44-.27-.19-1.09,0-1.47a7.14,7.14,0,0,1,.7-1.15,4.63,4.63,0,0,0,.42-1.71c.07-.37.51,0,.69.13a.4.4,0,0,0,.28.07c.65-.13,1.32-.08,2-.24H19c.24,0,.48.14.71,0,.38-.16,1,.66,1.12.92s1.18.85.69,1c-.21.08-.4,0-.49.27s-.4.48-.41.72,0,.39-.05.58,0,.22.19.26l.86.16c.29,0,.29,0,.43-.21,0-.07.08-.15.18-.12s.41.08.46.33.71.29.94.33l1.33.23c.44.07.44-.63.53-.94s.14-.7-.16-.72a.39.39,0,0,1-.3-.2,4,4,0,0,0-.33-.42.52.52,0,0,1-.11-.67,1.05,1.05,0,0,0,.06-.75,9.55,9.55,0,0,0-1-2.41c-.21-.36-.46-.69-.69-1a.7.7,0,0,0-.52-.32c-.31,0-.61-.1-.91-.16a1.16,1.16,0,0,0-.95.19s-.21.27-.3.25a.53.53,0,0,1,0-.31,1.38,1.38,0,0,0-.38-1.09c-.43-.45-.45-1.5-1.22-1.44l-.07,0,.07,0a.88.88,0,0,1,.4,0c.29,0,.65.16.86-.11l.62-.8c.28-.36.1-.26.55-.33.26,0,.34-.35.6-.34.78,0,1.55.16,2.32.22s1.56.16,2.35.24c1.06.11,2.15.31,3.22.31a1.42,1.42,0,0,1,1,.33,2.49,2.49,0,0,0,1.35.3c.48,0,1,.1,1.45.16.67.09.61-1.3.66-1.7a1.64,1.64,0,0,0,0-.34c0-.23-.1-.31-.33-.34L33,16.18c-.55-.06-1.77-.43-2.23,0a.65.65,0,0,1-.51.17l-1.71-.18-1.66-.18-1.79-.19-2.24-.24c-.37,0-.73-.17-.35-.55A2.14,2.14,0,0,0,23,14.35Zm-11,9.14c-.21.21-.19.48-.25.74s0,.28-.14.32c-.34.09-.72-.6-.73-.85,0-.45.47-.7.74-1C11.75,22.83,12.17,23.4,12.08,23.49Z"/></g><g id="torbjorn"><path d="M20.92,9c.16.06.35-.2.9-.4A10.61,10.61,0,0,0,23.74,8c.43-.27-.09-.28-.41-.48s-.16-.84-.19-1.17-.19.13-.29.08-.28.24-.65.62-.89,1-1.53,1.61C20.53,8.79,20.76,8.92,20.92,9Z"/><path d="M21.84,13.05a4.34,4.34,0,0,0,2.71.83c1,0,1.8-1.09,2.34-2.41s.21-.94-.15-.61a2.86,2.86,0,0,1-1.65.76c-.64,0-1.07-.46-1.6-.94s-1.2,0-1.37.16a13.55,13.55,0,0,1-1.17.77l-.39.21C20.17,12,21,12.44,21.84,13.05Z"/><path d="M26.25,24.07c2.44.33,2.18.82,2.56.2a17.42,17.42,0,0,1,1.4-1.76c.25-.25.57-.67.57-2.07s-2.17-3.57-2.33-3.75-.19-.16.4-.8a8.07,8.07,0,0,0,1.29-2.45c.22-.63,0-.38-1-.38A6.37,6.37,0,0,1,27.18,13c-.18-.14-.19-.94-.46-.09s-1.58,1.4-2.75,1.4a4.21,4.21,0,0,1-1.88-.37c-.37-.12.3.78.51,1.08s.16.29.1.46-.17-.1-.44-.43-.77-.94-1.12-1.41-.88-.31-1.14-.31-.8-.15-1.14.31S18,14.71,17.74,15s-.37.6-.44.43-.12-.16.1-.46.89-1.19.51-1.08a4.21,4.21,0,0,1-1.88.37c-1.17,0-2.48-.55-2.75-1.4s-.28,0-.46.09a6.37,6.37,0,0,1-1.91.06c-1,0-1.25-.25-1,.38a8.07,8.07,0,0,0,1.29,2.45c.59.65.57.62.4.8S9.23,19,9.23,20.43s.32,1.82.57,2.07a17.42,17.42,0,0,1,1.4,1.76c.38.62.11.14,2.56-.2s3.34-.07,3.67.06.39.21.95-.23A3.56,3.56,0,0,0,20,21.55a3.56,3.56,0,0,0,1.63,2.35c.55.44.62.36.95.23S23.81,23.73,26.25,24.07Z"/><path d="M27.63,26.82c.11-.3.41-1,.58-1.45s.16-.35-.28-.43-1.18-.3-2.06-.5a8.56,8.56,0,0,0-3,.26c-.42.11.86,1,1.32,1.39A6.91,6.91,0,0,0,27,27C27.45,27.13,27.52,27.12,27.63,26.82Z"/><path d="M32.74,30.41c-.13-.26-1-2.23-1.29-2.78-.17-.36-.37-.46-.85-.5a2,2,0,0,0-.13-.48c-.2-.52-.33-.42-.69-.15a3.79,3.79,0,0,0-.66.6,4,4,0,0,0-.53.06c.31-.69,1.16-1.25,1.78-1.86s.22-1.18,0-1.63-.48,0-1.13.76a9.63,9.63,0,0,0-1.31,2.92,3.85,3.85,0,0,0-.42.2,4.63,4.63,0,0,0-1.38-.29c-1-.14-.92.11-1,.48s.4.59,1,1a1.57,1.57,0,0,0-.3,1.42c.15.21,1,2.27,1.3,2.78s1.06,1.29,3.48.13S32.87,30.67,32.74,30.41Zm-4,.78c-.19.47-.57.17-1.32-.14s-1.11-.34-.95-.88,1.06-.06,1.34.07C28.21,30.43,28.9,30.71,28.71,31.18Zm1.66-1c-.17.48-.57.19-1.32-.11s-1.12-.31-1-.85,1.05-.09,1.34,0C29.86,29.44,30.55,29.7,30.38,30.18Zm1.79-.3c-.23.46-.59.12-1.3-.26s-1.08-.43-.87-1,1.06,0,1.32.18S32.4,29.43,32.17,29.88Z"/><path d="M16.26,8a10.61,10.61,0,0,0,1.92.61c.55.2.74.46.9.4s.39-.2.25-.34C18.68,8,18.16,7.42,17.79,7s-.55-.67-.65-.62-.26-.41-.29-.08.13,1-.19,1.17S15.83,7.71,16.26,8Z"/><path d="M15.45,13.88a4.34,4.34,0,0,0,2.71-.83c.82-.62,1.67-1,1.28-1.22L19,11.63c-.49-.3-.81-.51-1-.66a3.06,3.06,0,0,0,.63-.39c.19-.19.2-.17.2-.36s0-.43,0-.62.08-.12-.13-.36a4,4,0,0,0-1.52-.57c-.42-.07-.52,0-1,.17s-.38.7-.39.9a4.11,4.11,0,0,0,.06.69c0,.14.29.29.48.39-.47.44-.88.84-1.47.81a2.86,2.86,0,0,1-1.65-.76c-.36-.33-.69-.71-.15.61S14.46,13.88,15.45,13.88Zm2.67-4a.33.33,0,1,1-.33.33A.33.33,0,0,1,18.12,9.83Zm-2.05-.24a.52.52,0,1,1,.52.52A.52.52,0,0,1,16.07,9.59Z"/><path d="M17.09,24.69a8.56,8.56,0,0,0-3-.26c-.88.2-1.63.42-2.06.5s-.44,0-.28.43.48,1.16.58,1.45.17.31.6.2a6.91,6.91,0,0,0,2.79-.93C16.23,25.74,17.51,24.8,17.09,24.69Z"/><path d="M13.86,27.25a4.63,4.63,0,0,0-1.38.29,3.85,3.85,0,0,0-.42-.2,9.63,9.63,0,0,0-1.31-2.92c-.65-.72-.94-1.21-1.13-.76s-.61,1,0,1.63,1.48,1.17,1.78,1.86a4,4,0,0,0-.53-.06,3.79,3.79,0,0,0-.66-.6c-.35-.28-.49-.37-.69.15a2,2,0,0,0-.13.48c-.47,0-.68.15-.85.5-.26.56-1.16,2.52-1.29,2.78S6.93,31.85,9.35,33s3.23.38,3.48-.13,1.14-2.56,1.3-2.78a1.57,1.57,0,0,0-.3-1.42c.59-.36,1-.68,1-1S14.81,27.11,13.86,27.25ZM9.13,29.63c-.71.38-1.08.71-1.3.26s.43-.8.85-1,1.11-.71,1.32-.18S9.85,29.25,9.13,29.63Zm.49.55c-.17-.48.52-.74,1-.93.28-.12,1.19-.58,1.34,0s-.22.56-1,.85S9.8,30.66,9.62,30.18Zm3,.86c-.74.32-1.13.62-1.32.14s.5-.75.93-1c.28-.13,1.17-.61,1.34-.07S13.35,30.73,12.6,31Z"/></g></svg>