<svg xmlns="http://www.w3.org/2000/svg" viewBox="0 0 40 40"><title>tracer</title><g id="pulsebomb"><g id="_Group_" data-name="&lt;Group&gt;"><path d="M33.14,16.46h0c-.08-.25-.16-.51-.23-.77a8.78,8.78,0,0,0-.5-1.46c-.17-.36-.34-.72-.5-1.09l0-.05a.28.28,0,0,0-.45-.13l-.22.11-.18.09-2.49,1.39-.07-.17a1.68,1.68,0,0,0-.2-.41l.64-.36.87-.49.38-.21c.3-.16.61-.33.91-.51a.34.34,0,0,0,.17-.22.29.29,0,0,0-.06-.23c-.15-.2-.29-.41-.43-.61a8.35,8.35,0,0,0-.92-1.19l-.23-.22a4.31,4.31,0,0,1-.56-.6,1,1,0,0,0-1-.4l-.32,0-.7,0c-.91,0-1.83,0-2.73,0H22.52c-2.14,0-4.36,0-6.53,0-.64,0-1.3,0-1.93,0H12.83l-.47,0c-.19,0-.38,0-.58,0h0a1,1,0,0,0-.87.32,6.57,6.57,0,0,1-.62.65A8.36,8.36,0,0,0,9.1,11.3l-.41.58a.33.33,0,0,0,.11.55l1.11.62.69.39.88.5c-.12.19-.22.38-.33.58l-.25-.15L10.23,14l-1.8-1a.31.31,0,0,0-.25,0,.29.29,0,0,0-.17.17l-.07.17c0,.1-.09.2-.14.29a12.74,12.74,0,0,0-.9,2.39l-.11.36A1.18,1.18,0,0,0,7,17.36c.87,1.3,1.67,2.68,2.45,4,.35.6.7,1.21,1.06,1.81.5.83,1,1.67,1.53,2.66l.81,1.43.88,1.54.21.37c.41.73.84,1.49,1.2,2.27a1,1,0,0,0,.61.61,17.37,17.37,0,0,0,3.48.6h.05a.37.37,0,0,0,.26-.09.4.4,0,0,0,.1-.31c0-.39,0-.78,0-1.17v-.9c0-.41,0-.81,0-1.22l.18,0a1.33,1.33,0,0,0,.5,0c0,.58,0,1.16,0,1.74v1.55a.28.28,0,0,0,.36.32,3.13,3.13,0,0,1,.39,0l.25,0,.28,0a6.54,6.54,0,0,0,.76-.09l.71-.17c.29-.07.6-.15.9-.2a1.19,1.19,0,0,0,.9-.72c.09-.18.18-.36.26-.53s.19-.41.3-.61c.47-.86,1-1.72,1.43-2.58l.08-.14,1.23-2.18,1.46-2.53.24-.41c.45-.78.91-1.55,1.37-2.32l.32-.53c.44-.74.9-1.5,1.4-2.21A1,1,0,0,0,33.14,16.46ZM12.5,15.31l-.08-.05-.06,0,0-.08c.1-.16.2-.33.3-.52l.15.07.13.06.08-.12a8.2,8.2,0,0,1,13.7,0l.1.15.18-.13,0,0,0,0a2.64,2.64,0,0,1,.19.39l.08.19,0,0-.14.08.07.14a8.11,8.11,0,0,1,.85,3.63,8.21,8.21,0,0,1-7.66,8.18h-.15v.15s0,.06,0,.1,0,0,0,0a.4.4,0,0,1-.16,0l-.15,0-.39-.05a.57.57,0,0,0,0-.1v-.14H19.4a8.2,8.2,0,0,1-7.69-8.18,8.12,8.12,0,0,1,.84-3.62l.06-.13Z"/><path d="M25.94,16.06c0-.38,0-.44-.32-.62l-.18-.12,0,0a.73.73,0,0,0-.56-.18,1.24,1.24,0,0,0-.28,0h-.2a.9.9,0,0,0-.57.16l-.22.14a2.82,2.82,0,0,1-.56.32,6.33,6.33,0,0,0-1.11.6l-.13.08a.31.31,0,0,0-.11.47q.53.89,1,1.79a.3.3,0,0,0,.17.15h.06a.32.32,0,0,0,.16,0l.16-.09.31-.18c.19-.1.37-.22.55-.34a4.15,4.15,0,0,1,.78-.44,1.7,1.7,0,0,0,.83-.71,1.31,1.31,0,0,0,.25-.83Z"/><path d="M14.8,17.79a1.59,1.59,0,0,1,.55.28,4.29,4.29,0,0,0,1,.63l.35.19a.38.38,0,0,0,.18.05h.07a.35.35,0,0,0,.2-.18c.11-.2.23-.4.35-.6l.28-.48.44-.74c.16-.28.09-.39-.13-.53a10.48,10.48,0,0,0-.94-.53,10.1,10.1,0,0,1-.92-.51l-.08-.05a1.27,1.27,0,0,0-.64-.27l-.72,0a.51.51,0,0,0-.31.08l-.54.35a.35.35,0,0,0-.19.32,1.27,1.27,0,0,1,0,.24,1.44,1.44,0,0,0,0,.34.71.71,0,0,1,0,.08.51.51,0,0,0,.06.33l.1.16A1.83,1.83,0,0,0,14.8,17.79Z"/><path d="M21.28,22.4c0-.13,0-.26,0-.39a.3.3,0,0,0-.33-.33H18.86c-.29,0-.39.05-.4.35v.12a6.09,6.09,0,0,0,0,.95,4.76,4.76,0,0,1,0,1,2.11,2.11,0,0,0,.29,1.27,1.38,1.38,0,0,0,.51.53,1,1,0,0,0,.58.2,1,1,0,0,0,.58-.21l.1-.05a.56.56,0,0,0,.28-.25l.12-.24a1.72,1.72,0,0,0,.29-1,4.4,4.4,0,0,1,0-1.12A4.35,4.35,0,0,0,21.28,22.4Z"/><path d="M21.8,18.66v0a1.9,1.9,0,0,0-.91-1.29.33.33,0,0,0-.5.12l-.06.1-.22.37-.49.83a.37.37,0,0,0,0,.31.45.45,0,0,0,.27.26.36.36,0,0,0,.51-.2l.2-.34.28-.48a.42.42,0,0,1,.07.1A1.76,1.76,0,0,1,21,19v.1a1,1,0,0,1-.41.84,1.32,1.32,0,0,1-1.09.17,1,1,0,0,1-.66-.44,1.16,1.16,0,0,1,0-1.15.34.34,0,0,0-.18-.51.36.36,0,0,0-.54.16,1.93,1.93,0,0,0-.2.75h0a1.84,1.84,0,0,0,.46,1.4,2.24,2.24,0,0,0,1.54.63,2,2,0,0,0,.81-.17,1.81,1.81,0,0,0,1.1-1.34A2,2,0,0,0,21.8,18.66Z"/><path d="M25.67,18.28l-.18,0a6.09,6.09,0,0,1-.86.08h-.19l0,.19a4.57,4.57,0,0,1-2.71,4.73l-.18.08.1.17a2.63,2.63,0,0,1,.2.4l0,0,.08.12.07.14.07.15.15-.07a2,2,0,0,0,.39-.22l.33-.22a3.51,3.51,0,0,0,.59-.44,8.62,8.62,0,0,0,.61-.64l.07-.08a5.08,5.08,0,0,0,.71-1l0-.1a.26.26,0,0,1,0-.09,1.59,1.59,0,0,0,.35-.7,2.53,2.53,0,0,1,.12-.34,1.94,1.94,0,0,0,.14-.75v-.1a7.81,7.81,0,0,0,0-1.17Z"/><path d="M15.27,19.09c0-.15,0-.29,0-.44V18.5l-.15,0-.68-.14h0l-.4.06v.13a5.64,5.64,0,0,0,0,1.32,5.49,5.49,0,0,0,.51,1.63,3.8,3.8,0,0,0,.27.45l.14.21a5.67,5.67,0,0,0,.67.9l.17.18c.13.15.27.3.42.43a5.4,5.4,0,0,0,1.09.72l.09.05.09,0,.16,0,.07-.15.08-.13,0-.13c0-.07,0-.15,0-.22A1.75,1.75,0,0,1,18,23.5l.07-.16-.16-.07A4.63,4.63,0,0,1,15.27,19.09Z"/><path d="M16.7,14.9l.11.23,0,0,.14.13.1.1.12-.08a4.61,4.61,0,0,1,5.3,0l.12.09.1-.11a1.76,1.76,0,0,1,.34-.29l.05,0,0-.1L23,14.79h0l.16,0a2.1,2.1,0,0,1,.09-.25l0-.12-.09-.08a1.84,1.84,0,0,0-.43-.3l-.36-.18a3.92,3.92,0,0,0-.8-.34,8.85,8.85,0,0,0-1.11-.2l-.2,0h0a4.37,4.37,0,0,1-.64,0,5.31,5.31,0,0,0-.6,0l-.26,0a3,3,0,0,0-.61.1l-.23.07a2.64,2.64,0,0,0-.77.31,1.33,1.33,0,0,1-.23.11,1.3,1.3,0,0,0-.38.21l-.09.08.1.23Z"/></g></g><g id="recall"><path d="M22,23.54c-.71-1.1-1.43-2.2-2.15-3.29-.29-.44-.59-.89-.88-1.31L32.62,11.8l-2-3-15,7.71a.93.93,0,0,0-.39.44.88.88,0,0,0,0,.66l2.18,3.57-.06,0L13.43,24,12,22.09H12a1.38,1.38,0,0,0-1.58,1.13L7.32,31v0A1.39,1.39,0,0,0,8.49,32.6l8.58-.2a1.38,1.38,0,0,0,1.58-1.15v-.07L17,28.83l.92-.79,1.85-1.58.77-.64c.41-.34.77-.63,1.29-1.12A.91.91,0,0,0,22,23.54Z"/></g><g id="blink"><path d="M31.11,29.94c-1.15-.7-2.32-1.39-3.45-2.06-2-1.16-4-2.37-5.95-3.65a2.71,2.71,0,0,0-3.08,0c-2.11,1.18-4.35,2.2-6.51,3.19-1.77.81-3.6,1.65-5.36,2.57a2.52,2.52,0,0,0-1.28,1.54,1,1,0,0,0,.15.84l.05.07h6.41a49.68,49.68,0,0,0,5.19-2.46,2.58,2.58,0,0,1,2.84,0,25.67,25.67,0,0,0,4.2,2.43l0,0h6.74l0,0a1.53,1.53,0,0,0,.59-1.22A1.5,1.5,0,0,0,31.11,29.94Z"/><path d="M31.46,22.55C30.7,22,29.92,21.49,29.16,21a56.18,56.18,0,0,1-5.58-4.09,2.39,2.39,0,0,0-2.89,0c-2.2,1.36-4.55,2.55-6.81,3.71-1.2.61-2.44,1.25-3.65,1.9-.79.45-1.51,1.51-1.38,2a.37.37,0,0,0,.38.28h5.5l.07,0a48,48,0,0,0,4.57-2.3,2.29,2.29,0,0,1,2.65,0,23,23,0,0,0,3.55,2.35l0,0h5.82a.6.6,0,0,0,.57-.46A1.76,1.76,0,0,0,31.46,22.55Z"/><path d="M12.49,17.72h4.87l0,0c1.69-.91,2.5-1.37,4-2.3a2,2,0,0,1,2.43,0,23.22,23.22,0,0,0,2.89,2.37l0,0h1.37l3.6,0h.07l0,0a1.43,1.43,0,0,0,.51-1.09,1.52,1.52,0,0,0-.56-1.15c-.7-.59-1.32-1.11-1.9-1.59a40.59,40.59,0,0,1-4.46-4.1,2.15,2.15,0,0,0-2.75,0C19.93,11.69,17,13.39,14.23,15l-.68.4c-1,.6-1.49,1.58-1.11,2.21Z"/></g><g id="tracer"><path d="M33.06,20.36a3.51,3.51,0,0,1-.84-1.67c-.29-.82-1.15-2.53-1.53-3.33-1-2.13-.26.16,0,1l.06.21c-.87-1.32-2.37-2.62-6.7-4.91-6.63-3.5-7.88-3.32-10.18-4.9s-.91-.64-.57.16,1,4.49,2.33,5.39,4,2.33,3,1.93a13.1,13.1,0,0,1-2.9-1.53c-.7-.51-.95-.51.84,1.21s1.52,1.45,1.77,1.63,1.73.75-.66.17-4.77-1.14-6.35-1.55A12.62,12.62,0,0,1,7.7,12.87c-.77-.51-2.48-2.08,0,.64s3.74,4.32,4.93,5,5,.76,1.41,1.11a12,12,0,0,1-5.43-.39c-1.55-.28-3.11-.8-1.93-.1S9.33,22,11.36,22.25s2.06.32.79.24-1.81-.22-.39.2a18.33,18.33,0,0,1,2.46.93A2.57,2.57,0,0,1,16,25.51a5.66,5.66,0,0,0-1.77,1.71c-.58.78-1.11,1.45-1.49,2.07-.18.29,2.09-.56,3.63-1.18.07.57.14,1.12.21,1.61.13,1.08.17,1.33.31-.18s.08-1,.16-.55.17,1.1.24.18c0-.34.08-.91.14-1.5l.21-.1h0A7.3,7.3,0,0,0,18,29.28c.38,1.13.9,2.8,2.29,2.8s3-1.27,3.72-1.27h0c.76,0,2.34,1.27,3.72,1.27s1.9-1.67,2.29-2.8.8-3.82-.8-3.82-3,2.47-5.19,2.47h0a5.31,5.31,0,0,1-3.11-1.45c2.44-.53,4.84-.55,6.38-.87a6.12,6.12,0,0,0,3.28-1.73c0,.05,0,.11,0,.16.35,1.63-.1,3.58-.45,5.66s.32-.43.52-1.13.06.41,0,1.24.27-.35.58-1.26,2.08-6.58,2.27-7.18S33.57,20.88,33.06,20.36Zm-9.87,8.46a2.68,2.68,0,0,0,.67.08h.25a2.68,2.68,0,0,0,.67-.08c1.89-.4,3.06-2.16,4.32-2.16,1.1,0,.54,1.65.36,2.65s-.66,2-1.83,2-2.7-1.47-3.64-1.47h0c-.94,0-2.47,1.47-3.64,1.47s-1.64-1-1.83-2a8.11,8.11,0,0,1-.29-2,13.19,13.19,0,0,1,1.32-.47C20.56,27.26,21.63,28.49,23.18,28.82Z"/></g></svg>