<svg xmlns="http://www.w3.org/2000/svg" viewBox="0 0 40 40"><defs><style>.cls-1{fill-rule:evenodd;}</style></defs><title>widowmaker</title><g id="venommine"><path d="M24.44,29.51l-1.66-2.86a1.54,1.54,0,0,0-.81-.59L21.81,26a1.54,1.54,0,0,1-.91-.78.48.48,0,0,0-.43-.33c-.56,0-1.13,0-1.69,0a.47.47,0,0,0-.38.23,2,2,0,0,1-1.1.9l-.39.19a1.26,1.26,0,0,0-.51.51L13.92,31a.49.49,0,0,0,.13.76h0l0,0-.06.73.38-.62A6.07,6.07,0,0,1,24.89,32l.33.55v-.64s0-.08.12-.18a.4.4,0,0,0,.07-.57Z"/><path d="M15.6,26.07a.88.88,0,0,0,.09-.51s0-.07,0-.11,0-.32,0-.48a1.72,1.72,0,0,1,.23-1.26.47.47,0,0,0,0-.55l-.17.06h0l.15-.09-.18-.31c-.11-.18-.21-.37-.31-.56a1.19,1.19,0,0,0-1.08-.82h-.15c-.23,0-.44-.15-.66-.33l-.24-.18a2,2,0,0,0-1.16-.38H12c-.5,0-1,0-1.52,0H7.28a.51.51,0,0,0-.6.47.17.17,0,0,1,0,.07l-.11.26h.3A6.2,6.2,0,0,1,13,27.49a6,6,0,0,1-.82,3l-.13.23.26,0a.44.44,0,0,1,.14,0,.44.44,0,0,0,.19,0c.21,0,.31-.17.38-.3l1-1.72Z"/><path d="M32.61,20.94a.44.44,0,0,0-.51-.37H26.9a1.18,1.18,0,0,0-.71.3L26,21l-.14.09a1.7,1.7,0,0,1-1.24.42.56.56,0,0,0-.58.33L24,22a4.81,4.81,0,0,1-.32.53,1.2,1.2,0,0,0-.08,1.64c.07.08,0,.23,0,.39a3.14,3.14,0,0,0,.47,2.28c.53.82,1,1.69,1.49,2.53l.64,1.12,0,.05c.08.15.19.35.45.35a.68.68,0,0,0,.3-.08l0,0h.31l-.16-.27a6,6,0,0,1-.9-3.14,6.21,6.21,0,0,1,6.14-6.12h.29l-.07-.23A.55.55,0,0,1,32.61,20.94Z"/><path d="M15.12,11.32l1.29,2.23a1.56,1.56,0,0,0,.81.6l.2.09a1.57,1.57,0,0,1,.9.79.51.51,0,0,0,.07.12c.21.27.92.3,1.21.3s1.12,0,1.28-.38A2.31,2.31,0,0,1,22.24,14a1.42,1.42,0,0,0,.7-.64q1-1.74,2-3.46l.45-.78c.11-.18.3-.52-.13-.78l-.08.14h0l.06-.16-.16-.17L25,8.35a6.08,6.08,0,0,1-10.66,0l-.13-.23L14,8.36a.37.37,0,0,1-.09.08.41.41,0,0,0-.12.61Z"/><path d="M6.69,19.16a.46.46,0,0,0,.52.42h5.2a1.33,1.33,0,0,0,.81-.36l.2-.14a1.66,1.66,0,0,1,1.18-.41h.09a.55.55,0,0,0,.5-.33l.07-.14a4.07,4.07,0,0,1,.3-.51,1.2,1.2,0,0,0,.08-1.64c-.11-.13-.07-.34,0-.55l0-.11a2.6,2.6,0,0,0-.37-1.85c-.57-.92-1.12-1.88-1.65-2.81l-.6-1,0,0c-.08-.14-.19-.34-.43-.34a.61.61,0,0,0-.29.08l-.06,0L12,9.47l.11.2a6,6,0,0,1,.79,3,6.21,6.21,0,0,1-6.09,6.12H6.44l.22.28A.26.26,0,0,1,6.69,19.16Z"/><path d="M23.62,14.65v.22a2.44,2.44,0,0,1-.31,1.73c0,.06-.18.24.21,1,.09.18.56,1.06.92,1.06h0a2.27,2.27,0,0,1,1.63.58l.23.15a1.2,1.2,0,0,0,.7.2h5a.48.48,0,0,0,.56-.48.14.14,0,0,1,0-.07l.22-.29H32.4a6.2,6.2,0,0,1-6.12-6.12,6,6,0,0,1,.83-3l.07-.17L27,9.35a.54.54,0,0,0-.3-.11c-.23,0-.34.19-.43.36l-2.51,4.34A1.22,1.22,0,0,0,23.62,14.65Z"/><path d="M19.64,16h0a4.27,4.27,0,0,0-3.05,1.25,4.15,4.15,0,0,0-1.21,3,4.28,4.28,0,0,0,4.28,4.24,4.23,4.23,0,1,0,0-8.46Zm0,7.78v-.18a3.41,3.41,0,0,1-3.4-3.38,3.3,3.3,0,0,1,1-2.36,3.41,3.41,0,0,1,2.44-1,3.37,3.37,0,0,1,0,6.74v.18Z"/><path d="M22.33,20.15a2.67,2.67,0,0,0-2.7-2.65h0a2.71,2.71,0,0,0-1.94.8,2.64,2.64,0,0,0-.77,1.89,2.72,2.72,0,0,0,2.72,2.7,2.72,2.72,0,0,0,2.69-2.73Z"/></g><g id="infrasight"><g id="_Group_" data-name="&lt;Group&gt;"><path id="_Compound_Path_" data-name="&lt;Compound Path&gt;" class="cls-1" d="M29.7,18c0-.24-.05-.48-.07-.72a1.14,1.14,0,0,0-.18-.57c-.22-.32-.42-.65-.64-1a29.14,29.14,0,0,0-3-3.47,26.66,26.66,0,0,0-4-3.22,3.76,3.76,0,0,0-2-.62,3.86,3.86,0,0,0-1.19.17,5.94,5.94,0,0,0-1.77.91,15.37,15.37,0,0,0-2.39,2q-1.25,1.22-2.4,2.52a20.7,20.7,0,0,0-1.36,1.65c-.29.41-.55.83-.83,1.24a.58.58,0,0,0-.11.31c0,.32,0,.64-.06,1a1.07,1.07,0,0,0,.08.48c.31.8.63,1.59.92,2.4a1.7,1.7,0,0,0,.68.8,1.07,1.07,0,0,0,.43.23l1.52.27a.66.66,0,0,1,.35.15l3.15,2.84a4.13,4.13,0,0,0,1.87,1.05,3.29,3.29,0,0,0,.87.14,8.34,8.34,0,0,0,1.25-.16,2.2,2.2,0,0,0,1-.52l3.94-3.49a.32.32,0,0,1,.18-.09l.64-.08A3.67,3.67,0,0,0,27.91,22a1.53,1.53,0,0,0,.75-.7,20.76,20.76,0,0,0,1-2.81A1.27,1.27,0,0,0,29.7,18Zm-15.4,1.51a1.08,1.08,0,1,1,1.09-1.08A1.08,1.08,0,0,1,14.29,19.51Zm5.52,5.11A2.63,2.63,0,1,1,22.47,22,2.63,2.63,0,0,1,19.81,24.62Zm5.39-5.11a1.08,1.08,0,1,1,1.09-1.07A1.08,1.08,0,0,1,25.2,19.51Z"/><path id="_Compound_Path_2" data-name="&lt;Compound Path&gt;" class="cls-1" d="M32.7,23.41c-.11-.41-.17-.83-.31-1.22a8.4,8.4,0,0,0-.83-1.69c-.15-.24-.29-.37-.58-.27a.8.8,0,0,1-.21,0,.45.45,0,0,0-.31.16,24.62,24.62,0,0,1-1.87,1.71,1.65,1.65,0,0,1-.67.44c-.45.1-.89.21-1.35.29A1.46,1.46,0,0,0,26,23a18,18,0,0,0-2,1.46c-.85.72-1.67,1.49-2.46,2.28a1,1,0,0,0-.31.48.54.54,0,0,1-.53.46,5.41,5.41,0,0,1-2,0,.37.37,0,0,1-.25-.17,4.63,4.63,0,0,0-.72-.94c-.51-.46-1-.94-1.5-1.42-.2-.19-.39-.39-.61-.56-.67-.52-1.34-1-2-1.54a.58.58,0,0,0-.23-.12c-.58-.13-1.15-.26-1.74-.35a.42.42,0,0,1-.22-.1L9.56,20.85c-.12-.11-.29-.18-.35-.34a.47.47,0,0,0-.46-.29l-.17,0a.23.23,0,0,0-.26.1c-.23.29-.47.58-.71.86a2.9,2.9,0,0,0-.44.68c-.27.57-.44,1.18-.67,1.76a.27.27,0,0,0,0,.18,11.09,11.09,0,0,0,.57,1.64c.27.61.48,1.25.79,1.84.43.83.9,1.65,1.38,2.46a.78.78,0,0,0,.18.21l1,.81a7.46,7.46,0,0,0,1.9,1.22,2,2,0,0,0,1.56,0A5.1,5.1,0,0,0,15,31.23c.77-.59,1.55-1.18,2.31-1.78a3.88,3.88,0,0,1,2.54-.83,7.43,7.43,0,0,1,1.92.47,1.1,1.1,0,0,1,.32.19c.48.41.95.83,1.46,1.2a12.26,12.26,0,0,0,1.92,1.27,4.63,4.63,0,0,0,1.39.34,3,3,0,0,0,1.17-.47,20.38,20.38,0,0,0,2.59-2.23.89.89,0,0,0,.17-.25c.17-.4.35-.8.51-1.2s.47-1,.64-1.55c.25-.75.46-1.51.7-2.25A1.21,1.21,0,0,0,32.7,23.41Zm-23,1.2a3.2,3.2,0,0,1-.45.23.61.61,0,0,1-.74-.23A1.23,1.23,0,0,1,8.5,23a.61.61,0,0,1,.75-.16,1.55,1.55,0,0,1,.71.54.89.89,0,0,1,.14.48A.78.78,0,0,1,9.65,24.61Zm4.74,4.9a2.08,2.08,0,1,1,2.09-2.08A2.08,2.08,0,0,1,14.39,29.51Zm10.71,0a2.08,2.08,0,1,1,2.1-2.08A2.08,2.08,0,0,1,25.1,29.51Zm6.09-5a.65.65,0,0,1-.88.26,2.1,2.1,0,0,1-.59-.37.71.71,0,0,1-.22-.52,1.1,1.1,0,0,1,.73-1l.07,0a.7.7,0,0,1,1,.48A1.3,1.3,0,0,1,31.19,24.53Z"/></g></g><g id="grapplinghook"><g id="_Group_2" data-name="&lt;Group&gt;"><rect id="_Path_" data-name="&lt;Path&gt;" x="7.6" y="18.85" width="12.58" height="2.96"/><g id="_Group_3" data-name="&lt;Group&gt;"><path id="_Compound_Path_3" data-name="&lt;Compound Path&gt;" class="cls-1" d="M31.55,15.79a2.2,2.2,0,0,0-.25-.84,1.56,1.56,0,0,0-.58-.59L20.76,9a5.89,5.89,0,0,0-1.65-.5A2.63,2.63,0,0,0,17.41,9l-5.78,6,5.31-3.48a3.44,3.44,0,0,1,1.42-.29,4,4,0,0,1,1.55.51l4.85,4.16a2.37,2.37,0,0,0-1.13,1.85v0l-2.48,1.07v1.26h0v.44h0v1.26l2.48,1.07s0,0,0,0a2.37,2.37,0,0,0,1.13,1.85l-4.85,4.16a4,4,0,0,1-1.55.51,3.43,3.43,0,0,1-1.42-.29l-5.31-3.48,5.78,6a2.63,2.63,0,0,0,1.71.47,5.89,5.89,0,0,0,1.65-.5l10-5.35a1.56,1.56,0,0,0,.58-.59,2.2,2.2,0,0,0,.25-.84V23.36s-.63-.81-1.3-1.51l-.53-.29V19.1l.53-.29c.68-.7,1.3-1.51,1.3-1.51Zm-5.69.5a1.57,1.57,0,1,1-1.57,1.57A1.58,1.58,0,0,1,25.87,16.28Zm0,8.1a1.57,1.57,0,1,1,1.57-1.57A1.58,1.58,0,0,1,25.87,24.38Z"/><circle id="_Path_2" data-name="&lt;Path&gt;" cx="25.87" cy="22.81" r="1"/><circle id="_Path_3" data-name="&lt;Path&gt;" cx="25.87" cy="17.87" r="1"/></g></g></g><g id="widowmaker"><g id="_Group_4" data-name="&lt;Group&gt;"><path id="_Compound_Path_4" data-name="&lt;Compound Path&gt;" class="cls-1" d="M29.7,18c0-.24-.05-.48-.07-.72a1.14,1.14,0,0,0-.18-.57c-.22-.32-.42-.65-.64-1a29.14,29.14,0,0,0-3-3.47,26.66,26.66,0,0,0-4-3.22,3.76,3.76,0,0,0-2-.62,3.86,3.86,0,0,0-1.19.17,5.94,5.94,0,0,0-1.77.91,15.37,15.37,0,0,0-2.39,2q-1.25,1.22-2.4,2.52a20.7,20.7,0,0,0-1.36,1.65c-.29.41-.55.83-.83,1.24a.58.58,0,0,0-.11.31c0,.32,0,.64-.06,1a1.07,1.07,0,0,0,.08.48c.31.8.63,1.59.92,2.4a1.7,1.7,0,0,0,.68.8,1.07,1.07,0,0,0,.43.23l1.52.27a.66.66,0,0,1,.35.15l3.15,2.84a4.13,4.13,0,0,0,1.87,1.05,3.29,3.29,0,0,0,.87.14,8.34,8.34,0,0,0,1.25-.16,2.2,2.2,0,0,0,1-.52l3.94-3.49a.32.32,0,0,1,.18-.09l.64-.08A3.67,3.67,0,0,0,27.91,22a1.53,1.53,0,0,0,.75-.7,20.76,20.76,0,0,0,1-2.81A1.27,1.27,0,0,0,29.7,18Zm-15.4,1.51a1.08,1.08,0,1,1,1.09-1.08A1.08,1.08,0,0,1,14.29,19.51Zm5.52,5.11A2.63,2.63,0,1,1,22.47,22,2.63,2.63,0,0,1,19.81,24.62Zm5.39-5.11a1.08,1.08,0,1,1,1.09-1.07A1.08,1.08,0,0,1,25.2,19.51Z"/><path id="_Compound_Path_5" data-name="&lt;Compound Path&gt;" class="cls-1" d="M32.7,23.41c-.11-.41-.17-.83-.31-1.22a8.4,8.4,0,0,0-.83-1.69c-.15-.24-.29-.37-.58-.27a.8.8,0,0,1-.21,0,.45.45,0,0,0-.31.16,24.62,24.62,0,0,1-1.87,1.71,1.65,1.65,0,0,1-.67.44c-.45.1-.89.21-1.35.29A1.46,1.46,0,0,0,26,23a18,18,0,0,0-2,1.46c-.85.72-1.67,1.49-2.46,2.28a1,1,0,0,0-.31.48.54.54,0,0,1-.53.46,5.41,5.41,0,0,1-2,0,.37.37,0,0,1-.25-.17,4.63,4.63,0,0,0-.72-.94c-.51-.46-1-.94-1.5-1.42-.2-.19-.39-.39-.61-.56-.67-.52-1.34-1-2-1.54a.58.58,0,0,0-.23-.12c-.58-.13-1.15-.26-1.74-.35a.42.42,0,0,1-.22-.1L9.56,20.85c-.12-.11-.29-.18-.35-.34a.47.47,0,0,0-.46-.29l-.17,0a.23.23,0,0,0-.26.1c-.23.29-.47.58-.71.86a2.9,2.9,0,0,0-.44.68c-.27.57-.44,1.18-.67,1.76a.27.27,0,0,0,0,.18,11.09,11.09,0,0,0,.57,1.64c.27.61.48,1.25.79,1.84.43.83.9,1.65,1.38,2.46a.78.78,0,0,0,.18.21l1,.81a7.46,7.46,0,0,0,1.9,1.22,2,2,0,0,0,1.56,0A5.1,5.1,0,0,0,15,31.23c.77-.59,1.55-1.18,2.31-1.78a3.88,3.88,0,0,1,2.54-.83,7.43,7.43,0,0,1,1.92.47,1.1,1.1,0,0,1,.32.19c.48.41.95.83,1.46,1.2a12.26,12.26,0,0,0,1.92,1.27,4.63,4.63,0,0,0,1.39.34,3,3,0,0,0,1.17-.47,20.38,20.38,0,0,0,2.59-2.23.89.89,0,0,0,.17-.25c.17-.4.35-.8.51-1.2s.47-1,.64-1.55c.25-.75.46-1.51.7-2.25A1.21,1.21,0,0,0,32.7,23.41Zm-23,1.2a3.2,3.2,0,0,1-.45.23.61.61,0,0,1-.74-.23A1.23,1.23,0,0,1,8.5,23a.61.61,0,0,1,.75-.16,1.55,1.55,0,0,1,.71.54.89.89,0,0,1,.14.48A.78.78,0,0,1,9.65,24.61Zm4.74,4.9a2.08,2.08,0,1,1,2.09-2.08A2.08,2.08,0,0,1,14.39,29.51Zm10.71,0a2.08,2.08,0,1,1,2.1-2.08A2.08,2.08,0,0,1,25.1,29.51Zm6.09-5a.65.65,0,0,1-.88.26,2.1,2.1,0,0,1-.59-.37.71.71,0,0,1-.22-.52,1.1,1.1,0,0,1,.73-1l.07,0a.7.7,0,0,1,1,.48A1.3,1.3,0,0,1,31.19,24.53Z"/></g></g></svg>