<svg xmlns="http://www.w3.org/2000/svg" viewBox="0 0 40 40"><defs><style>.cls-1{fill-rule:evenodd;}</style></defs><title>winston</title><g id="winston"><path d="M15.77,13.58l-3-.21c-1.06,0-1.83-.21-1.87.41a8,8,0,0,0,0,1.86.93.93,0,0,0,.91.75,20.94,20.94,0,0,0,4.35.06c.82-.22,1-.51,1-1.17S17.34,13.69,15.77,13.58Z"/><path d="M27.3,13.37l-3,.21c-1.57.11-1.3,1-1.31,1.7s.14,1,1,1.17a20.94,20.94,0,0,0,4.35-.06.93.93,0,0,0,.91-.75,8,8,0,0,0,0-1.86C29.13,13.16,28.36,13.34,27.3,13.37Z"/><path d="M29.2,7.9c-4.1,0-7.34,3.67-9.2,3.67S14.9,7.9,10.8,7.9s-3.86,5.65-3.86,6.86S8,18.29,9.56,20.56s1.71,3.45,1.16,3.84-1.24.75-.85,3.11S11.7,32,12.58,32s.42-.24.6-.42.58-1.11,6.82-1.11,6.65.93,6.82,1.11-.29.42.6.42,2.33-2.15,2.71-4.51-.29-2.71-.85-3.11-.39-1.57,1.16-3.84,2.62-4.58,2.62-5.79S33.3,7.9,29.2,7.9ZM17.55,29.53a11.87,11.87,0,0,0-4.26.95c-1,.43-.88.14-1.06-.09a.2.2,0,0,1,0-.2,1.61,1.61,0,0,1,0-.17A1.16,1.16,0,0,1,12.85,29c.23-.09.59-.28.65.28h0c1.15-.59,3.52-.42,4.66-.4.89,0,1.58,0,1.59.41S19.4,29.46,17.55,29.53Zm-1.67-10.2a4,4,0,0,0,.43.94c.31.48.36.57.32.68s0,.21-.07.22a.62.62,0,0,1-.36-.07c-.11-.08-.57-.58-.83-.88s-.1-.13-.26-.46.07-.79.18-1.07.11-.28.4-.09a.25.25,0,0,1,.1.34A.84.84,0,0,0,15.87,19.33ZM19.55,22c-.22.09-.37-.55-.55-.77s-.24-.15-1.08-.95c-.35-.33-.23,0-.18.14s.11.64.14.8-.63-.43-1.07-1.37-.15-1.31.39-1.73.88.33,1.09.65l1.31,2a1,1,0,0,1,.14.29,4.85,4.85,0,0,1,.06.59C19.83,21.91,19.77,21.9,19.55,22Zm8.14,8.36c-.18.23,0,.51-1.06.09a11.88,11.88,0,0,0-4.26-.95c-1.85-.06-2.24.05-2.23-.31s.7-.39,1.59-.41c1.15,0,3.52-.19,4.66.4S27.88,30.12,27.7,30.35ZM24.32,18.59c.29-.2.29-.2.4.09s.34.74.18,1.07,0,.16-.26.46-.72.8-.83.88a.62.62,0,0,1-.36.07s0-.1-.07-.22,0-.21.32-.68a4,4,0,0,0,.43-.94.84.84,0,0,0,.08-.4A.25.25,0,0,1,24.32,18.59ZM23.2,19.85c-.43.94-1.09,1.54-1.07,1.37s.08-.63.14-.8.18-.47-.18-.14c-.84.79-.86.7-1.08.95s-.33.86-.55.77-.28-.08-.25-.37a4.85,4.85,0,0,1,.06-.59,1,1,0,0,1,.14-.29l1.31-2c.21-.32.57-1,1.09-.65S23.63,18.91,23.2,19.85Zm7.23-3.52c-.06.41-.25.75-1.26,1a24.16,24.16,0,0,1-6,.22c-1.5-.21-1.41-.79-1.44-1.12a2,2,0,0,1,0-.25v0c-.07-.3-.33-.72-1.73-.72-1.16,0-1.54.32-1.67.57l-.06.29h0v.06c-.07.31.14,1-1.45,1.18a24.16,24.16,0,0,1-6-.22c-1-.24-1.2-.57-1.26-1a14.17,14.17,0,0,1-.08-3.46c.21-1,.89-1,1.49-1s3.48.33,5.34.6,2,.84,2.4,1.45A5.68,5.68,0,0,1,20,13.77a6,6,0,0,1,1.28.19h0c.43-.61.54-1.18,2.4-1.45s4.74-.62,5.34-.6,1.28-.06,1.49,1A14.17,14.17,0,0,1,30.43,16.34Z"/></g><g id="jumppack"><g id="_Group_" data-name="&lt;Group&gt;"><g id="_Group_2" data-name="&lt;Group&gt;"><path id="_Path_" data-name="&lt;Path&gt;" d="M35.43,10.61c-.19,0-6.93-.28-10.77,1.21a.69.69,0,0,0-.44.75l0,.08c.51.14,3.48.66,3.17,1.07S24.91,16,23.89,17a30.15,30.15,0,0,0-5.18,7.18,1.31,1.31,0,0,0-.11.27,21.09,21.09,0,0,0-8.69-9c-.08,0-.16.05-.11.14a5.52,5.52,0,0,1,.76,2.7c-.2-.07-4-1.93-5.72-2a.18.18,0,0,0-.08.33c1.78,1,7.1,4.74,7.86,6.9a12.78,12.78,0,0,0-1.93,0c-.14,0-.22.2-.09.27a18.48,18.48,0,0,1,6,5.8,5.39,5.39,0,0,0,3.81.09q.21-.45.44-.9c2-6.22,8.21-10.6,9.86-11,0,0,.5,0,1.06,3.11h0a.48.48,0,0,0,.72-.21,64.34,64.34,0,0,0,3-9.38C35.58,11.2,35.71,10.77,35.43,10.61Z"/><path id="_Path_2" data-name="&lt;Path&gt;" d="M4,20.11a.17.17,0,0,0,0,.33A27,27,0,0,1,9.8,23.27,5.14,5.14,0,0,0,4,20.11Z"/></g></g></g><g id="barrierprojector"><g id="_Group_3" data-name="&lt;Group&gt;"><g id="_Group_4" data-name="&lt;Group&gt;"><g id="_Group_5" data-name="&lt;Group&gt;"><g id="_Group_6" data-name="&lt;Group&gt;"><path d="M21.35,17.91c-.2-.32-.48-.76-1.62-.68a6.46,6.46,0,0,1-1,0c-1.11-.09-1.3.47-1.35.54-.5.74-.24.39-.75,1.12-.41.58-.5.92-.22,1.43.36.67.49.87.91,1.58a.81.81,0,0,0,.7.41h2.1a1.26,1.26,0,0,0,1.12-.7c.47-.79.28-.39.71-1.2A1.46,1.46,0,0,0,22,18.93C21.49,18.14,21.74,18.56,21.35,17.91Z"/></g><g id="_Group_7" data-name="&lt;Group&gt;"><path d="M25.2,14.12c-.68,0-1,0-1.72-.06a.63.63,0,0,0-.58.35c-.29.59-.47.81-.81,1.46A1.06,1.06,0,0,0,22.14,17l1,1.42a1.91,1.91,0,0,0,1.41.84c.49,0,.36,0,.85,0,0,0,0,0,0,0h1.06a1,1,0,0,0,.93-.67A9.91,9.91,0,0,0,27.94,17a.8.8,0,0,0-.15-.72c-.5-.61-.88-1-1.41-1.64A1.64,1.64,0,0,0,25.2,14.12Z"/></g><g id="_Group_8" data-name="&lt;Group&gt;"><path d="M15.34,14.14l-2.31.1a.17.17,0,0,0-.12.05q-1,1.06-1.92,2.21a.45.45,0,0,0-.1.38,11.53,11.53,0,0,0,.53,2,.55.55,0,0,0,.5.36h1.16s0,0,0,0a9.79,9.79,0,0,0,1.39-.07.46.46,0,0,0,.32-.2c.54-.79,1-1.38,1.55-2.14a.82.82,0,0,0,0-.86,5.32,5.32,0,0,1-.7-1.53C15.6,14.21,15.53,14.13,15.34,14.14Z"/></g><g id="_Group_9" data-name="&lt;Group&gt;"><path d="M27,21.61a.58.58,0,0,0-.51-.29H25.08a.72.72,0,0,0-.61.31l-.77,1.23a.53.53,0,0,0,0,.56c.25.4.5.82.73,1.23a.57.57,0,0,0,.5.29H26.4a.58.58,0,0,0,.49-.27c.32-.5.45-.72.73-1.2a.82.82,0,0,0,0-.78C27.35,22.22,27.28,22.13,27,21.61Z"/></g><g id="_Group_10" data-name="&lt;Group&gt;"><path d="M14.32,21.72a.85.85,0,0,0-.77-.38h-.92a.8.8,0,0,0-.79.47,5.44,5.44,0,0,0-.41.8,1,1,0,0,0,0,.9,6.07,6.07,0,0,0,.58,1,.71.71,0,0,0,.78.35,4.73,4.73,0,0,1,1,0,.69.69,0,0,0,.66-.37c.27-.51.28-.5.57-1a.8.8,0,0,0-.09-.88A9.65,9.65,0,0,1,14.32,21.72Z"/></g><g id="_Group_11" data-name="&lt;Group&gt;"><path d="M31.11,17.94a.72.72,0,0,0-.54-.35l-.9-.06a.61.61,0,0,0-.69.38,7.57,7.57,0,0,1-.46,1.42.93.93,0,0,0,.09.88,11.79,11.79,0,0,1,.89,1.62.59.59,0,0,0,.53.4h1.24a.51.51,0,0,0,.5-.4,7.83,7.83,0,0,0,.31-1.31,1.28,1.28,0,0,0,0-.68A7.93,7.93,0,0,0,31.11,17.94Z"/></g><g id="_Group_12" data-name="&lt;Group&gt;"><path d="M8,22.28H9a.56.56,0,0,0,.58-.39,9.67,9.67,0,0,1,.86-1.69,1.53,1.53,0,0,0,.06-.9,5.46,5.46,0,0,1-.35-1.37c0-.14-.05-.38-.56-.38a4.16,4.16,0,0,0-.76.06c-.3,0-.55.42-.62.53a8.93,8.93,0,0,0-.79,1.64.87.87,0,0,0-.06.4A9.33,9.33,0,0,0,7.61,22,.39.39,0,0,0,8,22.28Z"/></g><g id="_Group_13" data-name="&lt;Group&gt;"><path d="M20.34,25.69a.47.47,0,0,0-.43-.28h-.85a.44.44,0,0,0-.46.25l-.33.56a.53.53,0,0,0,0,.61l.37.56a.49.49,0,0,0,.55.24,1.53,1.53,0,0,1,.48,0,.6.6,0,0,0,.68-.29c.18-.3.12-.18.3-.48s.13-.44-.13-.86Z"/></g><g id="_Group_14" data-name="&lt;Group&gt;"><path d="M31.24,25.64c-.05-.31-.1-.46-.49-.44h-.13a.55.55,0,0,0-.47.35,2.75,2.75,0,0,1-.25.46,1,1,0,0,0-.14.72c0,.19,0,.22.08.41s.11.32.34.3l.51,0c.13-.22.25-.46.39-.67a1.13,1.13,0,0,0,.19-1C31.25,25.74,31.25,25.69,31.24,25.64Z"/></g><g id="_Group_15" data-name="&lt;Group&gt;"><path d="M9.3,25.53c-.13-.36-.29-.6-.67-.53a1.88,1.88,0,0,1-.26,0c-.18,0-.22.1-.2.32a1.49,1.49,0,0,1,0,.48,1,1,0,0,0,.1.75l.48.87a.22.22,0,0,0,.18.13,3.59,3.59,0,0,0,.38,0c.31,0,.37-.31.39-.43a4.93,4.93,0,0,1,.09-.57.56.56,0,0,0-.13-.49A2.14,2.14,0,0,1,9.3,25.53Z"/></g><g id="_Group_16" data-name="&lt;Group&gt;"><path d="M33.71,21.34c0-.4-.06-.42-.38-.43-.1,0-.15,0-.16.13a8.31,8.31,0,0,1-.3,1.43.34.34,0,0,0,0,.16A7.92,7.92,0,0,1,33,24.09a.13.13,0,0,0,.06.13.37.37,0,0,0,.44-.18,9.89,9.89,0,0,0,.21-2C33.74,21.84,33.73,21.59,33.71,21.34Z"/></g><g id="_Group_17" data-name="&lt;Group&gt;"><path d="M6.63,21.5c0-.09,0-.16-.15-.14s-.14,0-.16.07c0,.36-.05.72-.07,1.14s0,.72.08,1.1.08.57.13.86a.18.18,0,0,0,.2.15c.12,0,.11-.09.11-.17a8.54,8.54,0,0,1,0-.85,2.79,2.79,0,0,0,0-1.1A4,4,0,0,1,6.63,21.5Z"/></g></g><path d="M33.39,19.51l0-.15a13,13,0,0,0-.91-2.54A13.62,13.62,0,0,0,7.55,16.7c-.17.35-.33.71-.48,1.08a12.92,12.92,0,0,0-.52,1.67c0,.1,0,.16.06.15s.3,0,.37-.23.15-.38.23-.57a1.51,1.51,0,0,1,.38-.12,13.88,13.88,0,0,1,1-1.83h0a9.44,9.44,0,0,1,1.56-.15.47.47,0,0,0,.41-.2A25.91,25.91,0,0,1,12.83,14c-.12-.32-.24-.64-.35-1l.21-.13,0,.14a4.35,4.35,0,0,0,.34.71.13.13,0,0,0,.05,0l0,.06h0l2.44-.15h.05c.07-.12.17-.24.23-.33s.31-.47.48-.69l.18-.23v0l0,0a.09.09,0,0,1,0-.07l.07-.07a2.62,2.62,0,0,1,.54-.59.08.08,0,0,1,0-.08,1.39,1.39,0,0,1,.31-.12h0a1,1,0,0,1,.29-.09,21.51,21.51,0,0,1,2.64,0l.09,0a1.08,1.08,0,0,0,.73-.14h0l.06,0h.35l-.07.08a.14.14,0,0,1,0,.05h0a2.06,2.06,0,0,0-.29.27l0,.05h0l-.19,0h0l-.06,0h-.15c-.18,0-.36,0-.54,0h-.05l-1.37,0-1,0a1.07,1.07,0,0,0-.62.3l-.35.36c-.14.22-.26.44-.39.66s-.28.48-.41.73A2.25,2.25,0,0,1,16,14a14.08,14.08,0,0,0,1,2,.79.79,0,0,0,.72.35,13.11,13.11,0,0,1,3,0,.85.85,0,0,0,.81-.43c.31-.64.85-1.48,1.15-2a.53.53,0,0,1,.47-.27c.62,0,2,0,2.42.08a.5.5,0,0,0,.49-.27,10.92,10.92,0,0,0,.48-1.05l.22.12a4.12,4.12,0,0,1-.32.82,3,3,0,0,1-.13.3l-.07.16a.26.26,0,0,0,0,.29c.68.74,1.29,1.39,1.92,2.2a1.28,1.28,0,0,0,.6.33l1.67.09c.28,0,.44-.1.42-.38,0-.07,0-.12,0-.19l.25.35s0,.08,0,.12a.55.55,0,0,0,.09.28,15.72,15.72,0,0,1,1.39,2.49.22.22,0,0,0,.19.15l.52.06C33.36,19.62,33.42,19.61,33.39,19.51Z"/></g></g></g><g id="primalrage"><g id="_Group_18" data-name="&lt;Group&gt;"><path id="_Compound_Path_" data-name="&lt;Compound Path&gt;" class="cls-1" d="M33.22,21.21c.08.62.16,1.24.23,1.86.05.44.09.89.16,1.32a.68.68,0,0,1-.29.77,1.15,1.15,0,0,0-.46.72c-.12.37-.26.74-.4,1.11-.08.21-.29.29-.48.38a.9.9,0,0,0-.38.39c-.46.76-.37,1.58-1.2,2a5.15,5.15,0,0,1-1.43,0c-1,0-1.91-.14-2.85-.26a18.56,18.56,0,0,1-4.06-.91,4.21,4.21,0,0,1-2.78-2.18c-.27-.66-.58-1.3-.89-1.94a1.75,1.75,0,0,0-1.63-.93c-.28,0-.35.23-.44.43-.15.35-.28.71-.41,1.06a1.64,1.64,0,0,1-2.09,1.08,16.73,16.73,0,0,1-4.45-1.85,11.31,11.31,0,0,1-2.23-1.43c-.39-.77-.46-2.89-.75-3.71a.36.36,0,0,1,.15-.46c.29-.21.57-.43.86-.65A.6.6,0,0,1,8,17.88c-.06.42.26.55.55.73A1.51,1.51,0,0,1,9,19l-.14.3,1,.35,3.36,1.07c1.12.36,2.27.65,3.34,1.11a21,21,0,0,0,3.69.88c1.45.34,2.91.58,4.38.81s2.71.45,4.06.66a12.73,12.73,0,0,0,2.08.26.71.71,0,0,0,.75-.59,3.62,3.62,0,0,0,.14-1.33.8.8,0,0,1,.47-.83,1.32,1.32,0,0,0,.43-.37C32.79,21.13,33,21.11,33.22,21.21ZM9.94,20.65h0a1,1,0,0,0-.82-.27c-.34,0-.46.05-.37.4a18.31,18.31,0,0,1,1.45,1.14c.27-.34.28-.45.09-.67.06,0,.13,0,.1-.09.18-.13.11-.3.07-.46a.55.55,0,0,0-.35-.07l.23.48C10.15,21,10.09,20.8,9.94,20.65Zm12.34,3.53a.32.32,0,0,1,.27.14,1.1,1.1,0,0,0,.85.58s0,0,.06.06-.15.08-.14.2a1.76,1.76,0,0,1,.69,0,1,1,0,0,0,1.13-.22c.2-.18.48-.16.78-.29-1-.22-2-.39-3-.53a2.13,2.13,0,0,0-.81-.07,13.23,13.23,0,0,0-2.28-.25c.37.39.51.91,1.08,1.07s.89.49,1.44.41c0-.18-.28-.16-.3-.36.21.06.36.23.57.27,0,0,0-.08,0-.11C22.73,24.68,22.48,24.45,22.28,24.18Zm.06,2.47h0s.09-.08.07-.14a13.62,13.62,0,0,1-1.14-.89c.51.18.88.66,1.5.68-.08-.31.21,0,.25-.15a8.05,8.05,0,0,0-2.58-1.37,3.68,3.68,0,0,1,.19.94,1.8,1.8,0,0,0,.8,1.41,1.49,1.49,0,0,0,.67.36.91.91,0,0,1,.43-.23c0-.19.17-.35.09-.55S22.44,26.66,22.34,26.65Zm3.19.34a.85.85,0,0,1,.31,0c1.2.4,2.4.79,3.58,1.24a.56.56,0,0,0,.54-.09c.13-.14.14-.27.22-.45.25-.55.45-1.12.73-1.63a.46.46,0,0,0-.47-.18l-.6.05A30.36,30.36,0,0,1,26,26a.78.78,0,0,0-.74.84A.22.22,0,0,0,25,27a.31.31,0,0,1-.34.2c-.08,0-.17,0-.26,0,.09.26.2.52.29.79a.4.4,0,0,0,.35.28,14.77,14.77,0,0,0,3.37.38,3.91,3.91,0,0,0,1.21-.21c-.37-.16-1-.41-1.35-.55Zm-14.79-3.2c-.08-.15-.15-.33-.43-.22.15.14.23.29.43.22,0,.3.25.34.45.47,0-.13,0-.24,0-.34.22.11.23.33.27.53a9.41,9.41,0,0,0,2.84.8,1,1,0,0,0,1-.48,2.73,2.73,0,0,0,.32-1.25.91.91,0,0,0-.49-.92c-.47-.28-.91-.69-1.59-.48.12-.15.27-.07.32-.17a1,1,0,0,0-1.33,0,.51.51,0,0,1,.25-.43,2.24,2.24,0,0,0-.73-.31c0,.13-.19.1-.27.19-.1.36.36.36.4.65l-.12.2.16.12-.07,0a5.21,5.21,0,0,0,.48,1.06c-.18,0-.32,0-.41.09s.1.25.05.42c-.32-.13-.25-.45-.41-.65.13-.06.19.14.32,0-.15-.17-.19-.43-.4-.59-.12.08,0,.19-.1.25s-.17-.19-.31-.24-.31-.08-.34.18c.32.2.17.55.27.83-.22.09-.23-.2-.39-.18s0,.2-.1.29Zm19.6,2-.07,0a22.5,22.5,0,0,0-2.9-.8,3.37,3.37,0,0,0-1.79,0c-.36.11-.45.44-.77.63A12.37,12.37,0,0,0,30.35,25.75Zm-8,1.88a13.33,13.33,0,0,0,2.31.62,1.15,1.15,0,0,0-.18-.4c-.17-.07-.38-.08-.46-.29a2.69,2.69,0,0,0-.32-.46.37.37,0,0,0-.37-.16C22.89,27,22.73,27.36,22.36,27.62ZM8.9,21.38c0-.12,0-.27-.17-.36-.11.57,0,1.38.38,1.46l.44-.42c-.05-.12-.2-.15-.18-.29s.2-.06.3-.16C9.36,21.62,9.22,21.25,8.9,21.38Zm2.49-.4a2.5,2.5,0,0,0-.73-.23c0,.28-.11.54,0,.77s.22,0,.29.11a.22.22,0,0,0,.27.06.3.3,0,0,0,.07-.34c-.19-.07-.4.06-.59-.09C10.88,21,11.24,21.31,11.39,21Z"/><path id="_Path_3" data-name="&lt;Path&gt;" class="cls-1" d="M30.52,22.09a12.22,12.22,0,0,1-1.4-.37c.11-.27.19-.52.31-.75.48-1,.88-2,1.31-3s.82-1.83,1.17-2.77a10.09,10.09,0,0,0,.68-2.41,1.77,1.77,0,0,0-.46-1.42c-.44-.51-.88-1-1.32-1.54-.23-.27-.21-.47.06-.71a.44.44,0,0,1,.7,0c.48.59.95,1.19,1.43,1.78a2.83,2.83,0,0,1,.42,2.57c-.44,1.95-1.17,3.81-1.78,5.7-.27.84-.58,1.66-.91,2.47C30.67,21.81,30.6,21.93,30.52,22.09Z"/><path id="_Path_4" data-name="&lt;Path&gt;" class="cls-1" d="M12.6,17.68c.13-.5-.2-.6-.46-.75a.51.51,0,0,1-.26-.72c.07-.19.24-.23.4-.28.61-.2,1.24-.38,1.84-.6.92-.34,1.84-.64,2.78-.92,1.11-.34,2.21-.7,3.34-.95a2.41,2.41,0,0,1,2.17.47c.4.33.85.6,1.28.9a1.16,1.16,0,0,1,.29.28,1.39,1.39,0,0,1-.17.62c-.22.12-.35,0-.52-.13a8.85,8.85,0,0,0-1.75-1.35,1,1,0,0,0-.72-.07A9.91,9.91,0,0,0,18.6,15q-1.11.48-2.2,1c-.65.3-1.29.64-1.95.94S13.27,17.4,12.6,17.68Z"/><path id="_Path_5" data-name="&lt;Path&gt;" class="cls-1" d="M13.13,23l2.18.84,0,.09-2.18-.84Z"/><path id="_Path_6" data-name="&lt;Path&gt;" class="cls-1" d="M12.81,23.5a.72.72,0,0,1,.56.34A.93.93,0,0,1,12.81,23.5Z"/><path id="_Path_7" data-name="&lt;Path&gt;" class="cls-1" d="M14.1,24.78a1.39,1.39,0,0,1-.52-.56l.57.49Z"/><path id="_Path_8" data-name="&lt;Path&gt;" class="cls-1" d="M11.73,23.86c.14,0,.17.09.22.2C11.8,24.05,11.76,24,11.73,23.86Z"/><path id="_Path_9" data-name="&lt;Path&gt;" class="cls-1" d="M13.71,23.43c0,.08-.08.09-.16.08S13.62,23.42,13.71,23.43Z"/><path id="_Path_10" data-name="&lt;Path&gt;" class="cls-1" d="M14.92,22.69c0-.06.07-.06.11,0S15,22.69,14.92,22.69Z"/><path id="_Path_11" data-name="&lt;Path&gt;" class="cls-1" d="M22.34,26.65a1.38,1.38,0,0,1-.76.06,2.09,2.09,0,0,1,.77-.05Z"/><path id="_Path_12" data-name="&lt;Path&gt;" class="cls-1" d="M9.6,20.9c.11,0,.16,0,.14.15S9.59,21,9.6,20.9Z"/><path id="_Path_13" data-name="&lt;Path&gt;" class="cls-1" d="M9.94,20.65l0,.27a.18.18,0,0,1,0-.27Z"/></g></g></svg>