<svg xmlns="http://www.w3.org/2000/svg" viewBox="0 0 40 40"><title>zarya</title><g id="energy"><g id="_Group_" data-name="&lt;Group&gt;"><g id="_Group_2" data-name="&lt;Group&gt;"><g id="_Group_3" data-name="&lt;Group&gt;"><g id="_Group_4" data-name="&lt;Group&gt;"><path d="M15,19.62H13.12a10.3,10.3,0,0,1-.88-1.87c.29-.7.79-1.24,1.1-1.92a5.29,5.29,0,0,1,2-.23,6.76,6.76,0,0,1,1,1.81A14.23,14.23,0,0,1,15,19.62Z"/></g><g id="_Group_5" data-name="&lt;Group&gt;"><path d="M23.52,17.21c.34-.57.62-1,.89-1.48a.4.4,0,0,1,.32-.24,8.53,8.53,0,0,1,1.59.11.84.84,0,0,1,.68.55c.24.54.67,1,.9,1.55a6.2,6.2,0,0,1-.38,1,8.76,8.76,0,0,1-.46,1c-.71,0-1.44,0-2.22,0A19.66,19.66,0,0,1,23.52,17.21Z"/></g><g id="_Group_6" data-name="&lt;Group&gt;"><path d="M20.17,11.9H18.85a.61.61,0,0,0-.54.25L17,14a.62.62,0,0,0,0,.76c.38.65.75,1.31,1.18,1.92a18.05,18.05,0,0,0,3.79.06c.56-.64.87-1.48,1.48-2.1a.71.71,0,0,0-.15-.64q-.52-.68-1-1.37h0l0,0h0l-.24-.34a.72.72,0,0,0-.65-.33H20.17Z"/></g><g id="_Group_7" data-name="&lt;Group&gt;"><path d="M30.7,22.26a.8.8,0,0,1-1,.35c-.32-.53-.43-1.14-.71-1.71.39-.5.34-1.22.86-1.65l.82.17A3.43,3.43,0,0,1,31.14,21c0,.32-.23.58-.31.89C30.8,22,30.72,22.15,30.7,22.26Z"/></g><g id="_Group_8" data-name="&lt;Group&gt;"><path d="M10.27,23c-.79,0-1-.11-1.2-.85a4.23,4.23,0,0,0-.33-.83.81.81,0,0,1,0-.75,8.43,8.43,0,0,0,.37-1.11.43.43,0,0,1,.37-.35l.75-.15a1,1,0,0,1,.32.26A9.77,9.77,0,0,0,11,20.56a1,1,0,0,1,0,.68c-.12.49-.4.93-.51,1.43C10.52,22.8,10.4,22.88,10.27,23Z"/></g><g id="_Group_9" data-name="&lt;Group&gt;"><path d="M14,10.82c.74-.23,1.44-.29,2.13-.44a.67.67,0,0,1,.66.17,7.48,7.48,0,0,1,.57.53,1,1,0,0,1-.18.76c-.37.52-.72,1-1.12,1.54a1.29,1.29,0,0,1-1.08.5,5.32,5.32,0,0,1-1.09,0c-.23,0-.35.25-.61.24-.62-.29-.64-.94-.75-1.54,0-.21.13-.35.27-.48A10.88,10.88,0,0,0,14,10.82Z"/></g><g id="_Group_10" data-name="&lt;Group&gt;"><path d="M22.65,11.34a3.73,3.73,0,0,0,.71,1.2h0l0,0a5.07,5.07,0,0,1,.64.95,1.87,1.87,0,0,0,1.13.36,2.57,2.57,0,0,1,1.51.28A1.37,1.37,0,0,0,27.11,12a4.68,4.68,0,0,1-1-1.19c-.81-.28-1.64-.29-2.46-.55A1.56,1.56,0,0,0,22.65,11.34Z"/></g><g id="_Group_11" data-name="&lt;Group&gt;"><path d="M17.66,9.94l.08.13a10.71,10.71,0,0,0,1.12,1h2.68a.79.79,0,0,0,.26-.09l.71-1a1.79,1.79,0,0,0-1.25-1.13c-.86,0-1.72,0-2.57,0A4.74,4.74,0,0,0,17.66,9.94Z"/></g><g id="_Group_12" data-name="&lt;Group&gt;"><path d="M9.63,17.39a1.44,1.44,0,0,1-.44-1.45,6.17,6.17,0,0,1,.9-1.71,1.53,1.53,0,0,1,1.28-.59,1.24,1.24,0,0,1,.26,1.51c-.36.72-.8,1.4-1.2,2.1C10.17,17.38,9.88,17.24,9.63,17.39Z"/></g><g id="_Group_13" data-name="&lt;Group&gt;"><path d="M28.5,13.72a1.5,1.5,0,0,1,1.61.8c.18.35.4.67.57,1a1.75,1.75,0,0,1-.1,1.72,6.24,6.24,0,0,1-.81,0c-.44-.28-.59-.78-.84-1.18s-.34-.76-.56-1.11a.73.73,0,0,1,0-.88A1.69,1.69,0,0,0,28.5,13.72Z"/></g></g><g id="_Group_14" data-name="&lt;Group&gt;"><path id="_Path_" data-name="&lt;Path&gt;" d="M30.11,14.53c.18.35.4.67.57,1a1.93,1.93,0,0,1,.09.21,1.93,1.93,0,0,0-.09-.21C30.5,15.19,30.29,14.87,30.11,14.53Z"/><path id="_Path_2" data-name="&lt;Path&gt;" d="M30.85,16.17s0-.09,0-.13S30.85,16.13,30.85,16.17Z"/><path id="_Path_3" data-name="&lt;Path&gt;" d="M9.51,15.19a6,6,0,0,1,.34-.6h0a6,6,0,0,0-.34.6Z"/><path id="_Path_4" data-name="&lt;Path&gt;" d="M30.82,16l0-.14Z"/><path id="_Path_5" data-name="&lt;Path&gt;" d="M30.86,16.25s0,.07,0,.1,0,0,0-.06S30.86,16.26,30.86,16.25Z"/><path id="_Path_6" data-name="&lt;Path&gt;" d="M6.6,19.52a13.22,13.22,0,0,0,.58,3.86c.47.33.76,0,.93-.62A5.8,5.8,0,0,0,8.26,22a2.25,2.25,0,0,0-.16-.36,1.51,1.51,0,0,1-.21-.76A1.77,1.77,0,0,1,8,20.28L8.1,20a5.69,5.69,0,0,0,.23-.69v-.1a.5.5,0,0,1,.14-.37,11.48,11.48,0,0,1,.19-1.51,2.29,2.29,0,0,1-.27-1.07h0a1.79,1.79,0,0,1,.09-.59,6.88,6.88,0,0,1,1-1.91,2.24,2.24,0,0,1,1.57-.87,11.7,11.7,0,0,1,.86-.88,1.73,1.73,0,0,1,.34-.41l0,0a10,10,0,0,0,1.13-1.23l.14-.19.23-.07a10.93,10.93,0,0,1,1.48-.32l.37-.07a11.7,11.7,0,0,1,1.62-.5,6.16,6.16,0,0,1,1-.94l.21-.17h2.85A2.38,2.38,0,0,1,23,9.35l.59.18.23.07a8.26,8.26,0,0,0,1.06.23,8.43,8.43,0,0,1,1.43.33l.3.1.13.29a2.47,2.47,0,0,0,.57.67l.31.31a2,2,0,0,1,.42.69c.24.23.48.48.7.74a2.26,2.26,0,0,1,2,1.23c.07.14.16.29.25.44s.22.38.33.59a2.4,2.4,0,0,1,.26,1.07,2.78,2.78,0,0,1-.37,1.32l-.07.12q.08.53.12,1.07a3.53,3.53,0,0,1,.09.39,4,4,0,0,1,.5,1.82,1.87,1.87,0,0,1-.24.84,1.38,1.38,0,0,0-.09.21,1.9,1.9,0,0,1-.1.29l0,.06,0,.11-.07.11h0a1.54,1.54,0,0,0,.09.47.77.77,0,0,0,1.13.44,13,13,0,0,0,.43-1.7A13.29,13.29,0,1,0,6.6,19.52Z"/><path id="_Path_7" data-name="&lt;Path&gt;" d="M28.78,27.21a1.38,1.38,0,0,1-.17.67l.74.46A1.69,1.69,0,0,1,30.1,28a13.36,13.36,0,0,0,1.6-2.43,2.92,2.92,0,0,1,0-.55h0a5,5,0,0,0-.79-.46,2.52,2.52,0,0,1-.65.47A12.7,12.7,0,0,1,28.78,27.21Z"/><path id="_Path_8" data-name="&lt;Path&gt;" d="M27,29.09l-.54.47a.89.89,0,0,0-.1.45c0,.75.5.67,1,.46.3-.21.59-.42.88-.65l.19-.15.06-.13L28,29A2,2,0,0,1,27,29.09Z"/><path id="_Path_9" data-name="&lt;Path&gt;" d="M10.17,27.45l0,0c.32-.26.12-.69-.06-1.05l-.05-.1a.53.53,0,0,1,0-.4c-.11-.22-.21-.43-.32-.65a3.44,3.44,0,0,0-1-.15c-.57,0-.48.62-.3,1.07s.42.69.65,1,.63.53,1,.38A.74.74,0,0,0,10.17,27.45Z"/><path id="_Path_10" data-name="&lt;Path&gt;" d="M12.89,30a1,1,0,0,0,0-.16l-.14-.15c-.3-.32-.6-.66-.89-1-.44-.12-.87-.21-1-.05a1,1,0,0,0-.06.65,13.37,13.37,0,0,0,1.34,1.1l.06,0a1.08,1.08,0,0,0,.36,0Z"/></g></g><g id="_Group_15" data-name="&lt;Group&gt;"><g id="_Group_16" data-name="&lt;Group&gt;"><rect id="_Path_11" data-name="&lt;Path&gt;" x="18.75" y="29.41" width="2.67" height="1.34"/><path id="_Path_12" data-name="&lt;Path&gt;" d="M21.42,22.19a2.41,2.41,0,0,0,0-.25,2.62,2.62,0,0,0-1.33-2.14,2.62,2.62,0,0,0-1.33,2.14,2.41,2.41,0,0,0,0,.25v6.28h2.67Z"/></g><g id="_Group_17" data-name="&lt;Group&gt;"><rect id="_Path_13" data-name="&lt;Path&gt;" x="14.72" y="31.74" width="2.67" height="1.34"/><path id="_Path_14" data-name="&lt;Path&gt;" d="M17.39,24.52a2.41,2.41,0,0,0,0-.25,2.62,2.62,0,0,0-1.33-2.14,2.62,2.62,0,0,0-1.33,2.14,2.41,2.41,0,0,0,0,.25v6.28h2.67Z"/></g><g id="_Group_18" data-name="&lt;Group&gt;"><rect id="_Path_15" data-name="&lt;Path&gt;" x="22.8" y="31.74" width="2.67" height="1.34"/><path id="_Path_16" data-name="&lt;Path&gt;" d="M25.47,24.52a2.41,2.41,0,0,0,0-.25,2.62,2.62,0,0,0-1.33-2.14,2.62,2.62,0,0,0-1.33,2.14,2.41,2.41,0,0,0,0,.25v6.28h2.67Z"/></g></g></g></g><g id="gravitonsurge"><g id="_Group_19" data-name="&lt;Group&gt;"><path id="_Compound_Path_" data-name="&lt;Compound Path&gt;" d="M31.06,21.06c2.11-2.85,2.74-5.41,1.59-6.56a2.12,2.12,0,0,0-1.56-.56c-1.9,0-4.73,1.6-7.2,4.07l-.55.57c-.1-4.87-1.11-9.67-2.91-9.67-1.59,0-2.47,3.66-2.78,7.18-1.12-.79-2.22-1-2.95-.56a1.52,1.52,0,0,0-.37.33,8.12,8.12,0,0,0-4-1.37,2.59,2.59,0,0,0-1.91.69c-1.12,1.12-.87,3.35.64,5.85-1.22.16-2,.63-2.23,1.32-.46,1.47,1.78,3.45,5.34,4.72v.26l0,.14h0c.46,1.79,3.94,3.12,8.19,3.12s7.72-1.33,8.19-3.12h0v-.41c0-.11,0-.22,0-.32,3.1-1.29,4.89-3,4.47-4.38C32.92,21.7,32.19,21.24,31.06,21.06Zm-4.31-2.74a.34.34,0,0,1,.21.06c.32.25.08,1.43-.84,2.94A8.2,8.2,0,0,0,24.22,20,4.83,4.83,0,0,1,26.75,18.32Zm2.39,5c.39-.39.77-.8,1.12-1.21.23.08.48.21.54.41.15.47-.67,1.39-2.5,2.28-.05-.17-.12-.35-.18-.52C28.48,23.92,28.82,23.6,29.15,23.27Zm.82-8a1,1,0,0,1,.72.24c.75.75-.31,3.23-2.38,5.53l-.78.12c1.07-1.9,1.3-3.4.59-4a1,1,0,0,0-.66-.21c-1,0-2.47,1-3.94,2.65l-.07,0c.31-.37.64-.72,1-1.05C26.41,16.63,28.63,15.3,30,15.3ZM27.39,22l-.33.31-.13-.17,0-.07Zm-12.57-.81c-.16.14-.31.29-.45.44a17.26,17.26,0,0,0-2.44-.55c-1.64-2.08-2.3-4.22-1.53-5,.57-.57,2-.36,3.52.53A6.86,6.86,0,0,0,14.82,21.22ZM12.47,25l0,.17c-2-.86-3.05-1.93-2.85-2.49a.7.7,0,0,1,.36-.35A16.83,16.83,0,0,0,11.42,24C11.76,24.34,12.11,24.67,12.47,25Zm1.35-2.67c-.12.16-.24.32-.35.49l-.4-.38-.29-.29C13.12,22.16,13.47,22.22,13.82,22.3Zm3.63-2.67a8.3,8.3,0,0,0-1.34.64,5.65,5.65,0,0,1-.72-2.62,14.54,14.54,0,0,1,1.29,1.14C16.95,19.07,17.21,19.35,17.45,19.63Zm.06-1.17-.27-.28a16.91,16.91,0,0,0-1.55-1.37l.13-.1c.38-.22,1-.05,1.75.43C17.54,17.58,17.52,18,17.51,18.47Zm2,.68a8.6,8.6,0,0,0-1.2.22l-.06-.07c0-.52,0-1.05,0-1.57A8.8,8.8,0,0,1,19.51,19.15Zm-1.16-2.48c.28-3.75,1-5.31,1.37-5.31.5,0,1.44,2.67,1.47,7.78-.26,0-.52,0-.77,0h-.1L20.27,19A11,11,0,0,0,18.35,16.67Z"/></g></g><g id="projectedbarrier"><g id="_Group_20" data-name="&lt;Group&gt;"><g id="_Group_21" data-name="&lt;Group&gt;"><g id="_Group_22" data-name="&lt;Group&gt;"><path d="M21.77,15.81V14.2a8.67,8.67,0,0,1,1.57-.74c.59.25,1,.66,1.62.92a4.45,4.45,0,0,1,.19,1.71,5.69,5.69,0,0,1-1.52.88A12,12,0,0,1,21.77,15.81Z"/></g><g id="_Group_23" data-name="&lt;Group&gt;"><path d="M23.8,23l1.25.75a.34.34,0,0,1,.2.27,7.18,7.18,0,0,1-.1,1.34.71.71,0,0,1-.47.57c-.46.21-.83.56-1.3.76a5.22,5.22,0,0,1-.83-.32,7.37,7.37,0,0,1-.87-.39c0-.59,0-1.21,0-1.87A16.54,16.54,0,0,1,23.8,23Z"/></g><g id="_Group_24" data-name="&lt;Group&gt;"><path d="M28.27,20.13a.14.14,0,0,0,0-.07c0-.35,0-.69,0-1a.52.52,0,0,0-.21-.45l-1.52-1.14a.53.53,0,0,0-.64,0c-.55.32-1.1.63-1.62,1a15.19,15.19,0,0,0-.05,3.19c.54.47,1.25.73,1.77,1.24a.6.6,0,0,0,.54-.12l1.15-.86h0l.28-.21a.6.6,0,0,0,.28-.55c0-.29,0-.57,0-.86Z"/></g><g id="_Group_25" data-name="&lt;Group&gt;"><path d="M19.55,29a.67.67,0,0,1-.29-.83c.44-.27,1-.36,1.44-.6.42.33,1,.28,1.39.72l-.15.69a2.89,2.89,0,0,1-1.34.39c-.27,0-.49-.2-.75-.26C19.76,29.08,19.65,29,19.55,29Z"/></g><g id="_Group_26" data-name="&lt;Group&gt;"><path d="M19,11.8c0-.66.09-.81.71-1a3.56,3.56,0,0,0,.7-.28.68.68,0,0,1,.63,0,7.09,7.09,0,0,0,.93.31.36.36,0,0,1,.3.31l.13.63a.84.84,0,0,1-.22.27,8.22,8.22,0,0,0-1.16.44.84.84,0,0,1-.57,0c-.42-.1-.78-.34-1.2-.43C19.1,12,19,11.92,19,11.8Z"/></g><g id="_Group_27" data-name="&lt;Group&gt;"><path d="M29.18,15c.19.62.24,1.21.37,1.79a.56.56,0,0,1-.14.56,6.29,6.29,0,0,1-.45.48.8.8,0,0,1-.64-.15c-.44-.31-.88-.61-1.29-.95a1.09,1.09,0,0,1-.42-.91,4.48,4.48,0,0,1,0-.92c0-.2-.21-.29-.2-.51.25-.52.79-.54,1.29-.63.17,0,.29.11.4.22A9.16,9.16,0,0,0,29.18,15Z"/></g><g id="_Group_28" data-name="&lt;Group&gt;"><path d="M28.74,22.22a3.14,3.14,0,0,0-1,.6h0l0,0a4.27,4.27,0,0,1-.8.54,1.57,1.57,0,0,0-.3,1,2.16,2.16,0,0,1-.24,1.27,1.15,1.15,0,0,0,1.79.36,3.94,3.94,0,0,1,1-.86c.24-.68.25-1.38.46-2.07A1.31,1.31,0,0,0,28.74,22.22Z"/></g><g id="_Group_29" data-name="&lt;Group&gt;"><path d="M29.92,18l-.11.07A9,9,0,0,0,29,19c0,.75,0,1.5,0,2.26a.67.67,0,0,0,.08.22l.8.6a1.51,1.51,0,0,0,.95-1.05c0-.72,0-1.45,0-2.16A4,4,0,0,0,29.92,18Z"/></g><g id="_Group_30" data-name="&lt;Group&gt;"><path d="M23.65,11.27a1.21,1.21,0,0,1,1.22-.37,5.19,5.19,0,0,1,1.44.76,1.29,1.29,0,0,1,.5,1.08,1,1,0,0,1-1.27.22c-.61-.3-1.17-.67-1.77-1C23.66,11.72,23.77,11.47,23.65,11.27Z"/></g><g id="_Group_31" data-name="&lt;Group&gt;"><path d="M26.74,27.14a1.27,1.27,0,0,1-.68,1.35c-.29.15-.56.33-.86.48a1.47,1.47,0,0,1-1.45-.08,5.25,5.25,0,0,1,0-.68c.24-.37.65-.49,1-.71s.64-.29.94-.47a.62.62,0,0,1,.74,0A1.42,1.42,0,0,0,26.74,27.14Z"/></g></g><g id="_Group_32" data-name="&lt;Group&gt;"><path d="M22.66,19.59l-3.1-5.18c-.2-.33-.8-.13-.91.31l-.51,1.9H9.37a1.27,1.27,0,0,0-1.15.91L6.95,22.27a.68.68,0,0,0,.67.91h8.76l-.51,1.9c-.12.44.37.64.75.31l5.88-5.18A.51.51,0,0,0,22.66,19.59Z"/></g><g id="_Group_33" data-name="&lt;Group&gt;"><path id="_Path_17" data-name="&lt;Path&gt;" d="M26.06,28.5c-.29.15-.56.33-.86.48l-.18.08L25.2,29C25.5,28.83,25.77,28.65,26.06,28.5Z"/><path id="_Path_18" data-name="&lt;Path&gt;" d="M24.68,29.13h0Z"/><path id="_Path_19" data-name="&lt;Path&gt;" d="M25.5,11.17a5.09,5.09,0,0,1,.5.28h0a5.08,5.08,0,0,0-.5-.28Z"/><path id="_Path_20" data-name="&lt;Path&gt;" d="M24.85,29.1l.12,0Z"/><path id="_Path_21" data-name="&lt;Path&gt;" d="M24.61,29.13h0Z"/><path id="_Path_22" data-name="&lt;Path&gt;" d="M21.86,8.71a11.12,11.12,0,0,0-3.25.49c-.28.4,0,.64.53.78a4.88,4.88,0,0,0,.62.13,1.89,1.89,0,0,0,.31-.13,1.27,1.27,0,0,1,.64-.18,1.49,1.49,0,0,1,.51.1l.23.08a4.79,4.79,0,0,0,.58.19h.08a.42.42,0,0,1,.31.12,9.66,9.66,0,0,1,1.27.16,1.93,1.93,0,0,1,.9-.23h0a1.51,1.51,0,0,1,.49.08,5.79,5.79,0,0,1,1.61.85,1.89,1.89,0,0,1,.74,1.32,9.85,9.85,0,0,1,.74.72,1.45,1.45,0,0,1,.34.29l0,0a8.46,8.46,0,0,0,1,1l.16.12.06.19A9.2,9.2,0,0,1,30,16l.06.31a9.85,9.85,0,0,1,.42,1.37,5.18,5.18,0,0,1,.79.8l.14.17v.22q0,.31,0,.63c0,.51,0,1,0,1.55a2,2,0,0,1-1,1.48c0,.17-.09.33-.15.5l-.06.19a7,7,0,0,0-.19.89,7.1,7.1,0,0,1-.28,1.2l-.09.25-.24.11a2.08,2.08,0,0,0-.56.48l-.26.26a1.65,1.65,0,0,1-.58.35c-.2.21-.41.4-.62.59a1.9,1.9,0,0,1-1,1.68l-.37.21c-.16.09-.32.19-.5.28a2,2,0,0,1-.9.22,2.34,2.34,0,0,1-1.11-.31l-.1-.05q-.45.07-.9.1l-.33.08A3.39,3.39,0,0,1,20.6,30a1.57,1.57,0,0,1-.71-.2l-.18-.08a1.6,1.6,0,0,1-.25-.09l-.05,0-.09,0-.09-.06h0a1.29,1.29,0,0,0-.39.07.64.64,0,0,0-.37.95,11,11,0,0,0,1.43.36,11.18,11.18,0,1,0,2-22.19Z"/><path id="_Path_23" data-name="&lt;Path&gt;" d="M15.39,27.38a1.16,1.16,0,0,1-.57-.14l-.39.62a1.42,1.42,0,0,1,.29.63,11.24,11.24,0,0,0,2,1.35,2.45,2.45,0,0,1,.46,0v0a4.19,4.19,0,0,0,.38-.67,2.12,2.12,0,0,1-.4-.55A10.69,10.69,0,0,1,15.39,27.38Z"/><path id="_Path_24" data-name="&lt;Path&gt;" d="M13.8,25.89l-.4-.45a.75.75,0,0,0-.38-.08c-.63,0-.57.42-.39.85.17.25.35.5.54.74l.13.16.11.05.49-.4A1.7,1.7,0,0,1,13.8,25.89Z"/><path id="_Path_25" data-name="&lt;Path&gt;" d="M15.18,11.72v0c.22.27.58.1.89-.05l.08,0a.45.45,0,0,1,.34,0l.55-.27a2.9,2.9,0,0,0,.12-.87c0-.48-.52-.4-.9-.25s-.58.35-.85.55-.44.53-.32.82A.63.63,0,0,0,15.18,11.72Z"/><path id="_Path_26" data-name="&lt;Path&gt;" d="M13.07,14h.13l.12-.12c.27-.26.56-.5.86-.75.11-.37.18-.73,0-.81a.86.86,0,0,0-.54,0,11.25,11.25,0,0,0-.92,1.13l0,.05a.91.91,0,0,0,0,.31Z"/></g></g></g><g id="particlebarrier"><g id="_Group_34" data-name="&lt;Group&gt;"><g id="_Group_35" data-name="&lt;Group&gt;"><path id="_Compound_Path_2" data-name="&lt;Compound Path&gt;" d="M33,16.66c0-.12-.07-.24-.1-.36h0v0h0A14.69,14.69,0,0,0,32,13.9a14,14,0,0,0-1.89-2.77A10.8,10.8,0,0,0,27.77,9,16.08,16.08,0,0,0,26.1,8a16,16,0,0,0-2.6-1A7.44,7.44,0,0,0,22,6.61a19.49,19.49,0,0,0-3.88,0,12.13,12.13,0,0,0-3,.73,14.8,14.8,0,0,0-3,1.59c-.67.45-1.22,1-1.86,1.51-.32.24-.47.65-.76.95a10.63,10.63,0,0,0-2.1,3.28A11.44,11.44,0,0,0,6.66,17a11.92,11.92,0,0,0-.31,2.1A14.76,14.76,0,0,0,6.49,22a15.18,15.18,0,0,0,1,3.55,13.16,13.16,0,0,0,1.23,2.16c.37.53.79,1,1.17,1.52A12.52,12.52,0,0,0,12,31.06a4.28,4.28,0,0,0,.92.61A18.87,18.87,0,0,0,16.08,33c.53.14,1.07.28,1.61.37a22,22,0,0,0,3,.09,5.72,5.72,0,0,0,1.68-.15,17.27,17.27,0,0,0,2.43-.73,21.67,21.67,0,0,0,2.14-1,12.28,12.28,0,0,0,2.25-1.74,12.45,12.45,0,0,0,1.43-1.6,12.55,12.55,0,0,0,1.5-2.46,8.78,8.78,0,0,0,1-3c0-.23.16-.37.2-.56.11-1,.06-2,.09-3A9.92,9.92,0,0,0,33,16.66Zm-1.19,6a4.36,4.36,0,0,0-.69,1.5c-.09.23-.1.5-.32.69a2.17,2.17,0,0,1-1,2.15c-.55.48-1,1-1.54,1.56-.25.25-.18.6-.32.9a3.44,3.44,0,0,1-1.44,1.44,15,15,0,0,1-1.75.82.61.61,0,0,1-.5-.06,1.49,1.49,0,0,0-1.37,0,.64.64,0,0,1-.3.06,6.34,6.34,0,0,0-1.71.42,2.45,2.45,0,0,1-1.78,0,3.89,3.89,0,0,0-1.51-.35c-.49,0-.9-.31-1.39-.27-.29,0-.59,0-.77.25a8.67,8.67,0,0,1-2.72-1.27c-.57-.35-.7-1-1-1.54a10.28,10.28,0,0,0-2.14-2.4c-.61-.5-.41-1.29-.71-1.92s-.32-1-.51-1.55a4,4,0,0,0-.91-1.1,3.87,3.87,0,0,1-.06-1.16c0-.72,0-1.44,0-2.15a1,1,0,0,1,.37-.9,2.09,2.09,0,0,0,.74-1.17,19.94,19.94,0,0,0,.66-2.48,1.43,1.43,0,0,1,.62-.91c.68-.55,1.26-1.2,1.86-1.78.31-1,.63-1.91,1.7-2.3a9,9,0,0,0,1-.59c.86-.44,1.69-.13,2.68-.1.21-.16.63-.08,1-.14a8,8,0,0,1,1.65-.66,1.85,1.85,0,0,1,1.1.13A14.36,14.36,0,0,1,23,8.49a3.29,3.29,0,0,1,2.87.17,7.52,7.52,0,0,1,1.34.83A2.74,2.74,0,0,1,28,10.81a3.64,3.64,0,0,0,1.64,2,2.83,2.83,0,0,1,1.22,2,14.3,14.3,0,0,0,.37,1.59,3.93,3.93,0,0,0,.24.63h0a3.62,3.62,0,0,0,.86,1.16.83.83,0,0,1,.2.67c0,.82,0,1.64,0,2.46A2,2,0,0,1,31.82,22.62Z"/><path id="_Path_27" data-name="&lt;Path&gt;" d="M23.18,21.71a1.17,1.17,0,0,1-.42.42c-.76.44-1.51.9-2.28,1.33a1,1,0,0,1-1,0c-.75-.42-1.49-.87-2.24-1.3a1,1,0,0,1-.53-1c0-.77,0-1.54,0-2.3a1.06,1.06,0,0,1,.55-1.05c.76-.48,1.56-.88,2.32-1.35a.77.77,0,0,1,.79,0c.59.33,1.16.69,1.74,1l.74.43a.71.71,0,0,1,.38.73C23.1,19.65,23.18,20.67,23.18,21.71Z"/><path id="_Path_28" data-name="&lt;Path&gt;" d="M13.75,24.11a8.07,8.07,0,0,1,2.6-1.47c1.1.65,2.14,1.17,3.12,1.87,0,.82,0,1.63,0,2.45a.68.68,0,0,1-.48.6c-.7.33-1.43.62-2.19.94A14.82,14.82,0,0,1,14.32,27a1,1,0,0,1-.44-.83A15.93,15.93,0,0,1,13.75,24.11Z"/><path id="_Path_29" data-name="&lt;Path&gt;" d="M13.74,15.74a9.65,9.65,0,0,1,.35-2.8l2.63-1.56c.79.14,1.51.74,2.39.9l.36.42c0,.8,0,1.61,0,2.43a.44.44,0,0,1-.2.39,21,21,0,0,1-3.18,1.74C15.36,16.69,14.46,16.38,13.74,15.74Z"/><path id="_Path_30" data-name="&lt;Path&gt;" d="M20.39,15.29V12.6A14.43,14.43,0,0,1,23,11.37c1,.41,1.74,1.1,2.69,1.54A7.42,7.42,0,0,1,26,15.76a9.47,9.47,0,0,1-2.53,1.47A19.94,19.94,0,0,1,20.39,15.29Z"/><path id="_Path_31" data-name="&lt;Path&gt;" d="M13.3,23.32c-.77-.62-1.45-1.12-2.15-1.59a10.34,10.34,0,0,1,0-3.45,10.89,10.89,0,0,0,1-.76c.31-.3.76-.39,1-.73A1,1,0,0,1,14,17c.5.35,1,.65,1.56,1a.57.57,0,0,1,.33.48c0,1.07,0,2.15,0,3.27A13.81,13.81,0,0,1,13.3,23.32Z"/><path id="_Path_32" data-name="&lt;Path&gt;" d="M23.73,22.63c.75.46,1.36.83,2,1.19a.54.54,0,0,1,.32.43,11.35,11.35,0,0,1-.15,2.12,1.12,1.12,0,0,1-.74.9c-.72.33-1.32.89-2.06,1.2a8.24,8.24,0,0,1-1.31-.5,11.65,11.65,0,0,1-1.37-.61c0-.94,0-1.92,0-3A26.14,26.14,0,0,1,23.73,22.63Z"/><path id="_Path_33" data-name="&lt;Path&gt;" d="M28.85,20.07a.17.17,0,0,0,0-.08c0-.41,0-.81,0-1.22a.61.61,0,0,0-.24-.53L26.81,16.9a.62.62,0,0,0-.76,0c-.64.38-1.29.74-1.9,1.17a17.84,17.84,0,0,0-.06,3.74c.63.55,1.47.86,2.08,1.46a.7.7,0,0,0,.63-.14q.67-.51,1.36-1h0l0,0h0l.33-.24a.71.71,0,0,0,.33-.65c0-.34,0-.67,0-1Z"/><path id="_Path_34" data-name="&lt;Path&gt;" d="M17.86,30.84a1.24,1.24,0,0,1-.54-1.54c.82-.5,1.77-.67,2.67-1.11.77.61,1.9.53,2.57,1.33l-.27,1.27a5.35,5.35,0,0,1-2.48.73c-.5,0-.9-.36-1.38-.48C18.24,31,18,30.87,17.86,30.84Z"/><path id="_Path_35" data-name="&lt;Path&gt;" d="M17.28,10.41c0-1,.15-1.26,1.11-1.57a5.53,5.53,0,0,0,1.08-.43,1.06,1.06,0,0,1,1-.05,11,11,0,0,0,1.45.49.56.56,0,0,1,.46.49l.2,1a1.31,1.31,0,0,1-.34.42,12.76,12.76,0,0,0-1.8.69,1.3,1.3,0,0,1-.89,0c-.64-.16-1.21-.52-1.86-.67C17.49,10.74,17.38,10.59,17.28,10.41Z"/><path id="_Path_36" data-name="&lt;Path&gt;" d="M12.75,15.8l-1.9,1.4a.66.66,0,0,1-.81,0,2.3,2.3,0,0,1-.68-.66c.13-.7.26-1.43.42-2.15.09-.38.44-.59.7-.85a5.9,5.9,0,0,1,.94-.85.66.66,0,0,1,.72-.08,4.34,4.34,0,0,0,.85.3A7.58,7.58,0,0,1,12.75,15.8Z"/><path id="_Path_37" data-name="&lt;Path&gt;" d="M13.05,26.85a3.33,3.33,0,0,1-1.1.49c-.32,0-.5-.23-.73-.37A2.9,2.9,0,0,1,9.6,24.57a3.25,3.25,0,0,0-.27-1.15c.38-.35.62-.84,1.2-.89a10.52,10.52,0,0,1,2.24,1.65A9.54,9.54,0,0,1,13.05,26.85Z"/><path id="_Path_38" data-name="&lt;Path&gt;" d="M29.91,14c.23.73.29,1.42.44,2.1a.66.66,0,0,1-.17.66,7.39,7.39,0,0,1-.53.56.94.94,0,0,1-.75-.18c-.51-.36-1-.71-1.52-1.11a1.28,1.28,0,0,1-.5-1.07,5.26,5.26,0,0,1,0-1.08c0-.23-.25-.34-.23-.6.29-.61.93-.63,1.52-.74.2,0,.34.13.47.26A10.75,10.75,0,0,0,29.91,14Z"/><path id="_Path_39" data-name="&lt;Path&gt;" d="M29.4,22.52a3.68,3.68,0,0,0-1.19.7h0l0,0a5,5,0,0,1-.94.63A1.85,1.85,0,0,0,26.88,25a2.54,2.54,0,0,1-.28,1.5,1.36,1.36,0,0,0,2.11.43,4.62,4.62,0,0,1,1.17-1c.28-.8.29-1.63.54-2.43A1.54,1.54,0,0,0,29.4,22.52Z"/><path id="_Path_40" data-name="&lt;Path&gt;" d="M9,22.38a4,4,0,0,1-1.05-1V18.59a4.12,4.12,0,0,1,1-1c.9.21,1.23.61,1.23,1.48,0,.53,0,1.06,0,1.59A1.25,1.25,0,0,1,9.62,22,6.21,6.21,0,0,1,9,22.38Z"/><path id="_Path_41" data-name="&lt;Path&gt;" d="M30.79,17.59l-.13.08a10.58,10.58,0,0,0-1,1.11c0,.88,0,1.76,0,2.65a.78.78,0,0,0,.09.26l.94.7a1.77,1.77,0,0,0,1.12-1.24c0-.85,0-1.7,0-2.54A4.69,4.69,0,0,0,30.79,17.59Z"/><path id="_Path_42" data-name="&lt;Path&gt;" d="M12.28,11.5a2.51,2.51,0,0,1,1.19-1.73c1-.53,1.91-1.18,3.12-.49A1.18,1.18,0,0,1,16,10.81c-.66.34-1.31.69-2,1.05A1.44,1.44,0,0,1,12.28,11.5Z"/><path id="_Path_43" data-name="&lt;Path&gt;" d="M23.11,9.52A1.66,1.66,0,0,1,24.78,9a7.11,7.11,0,0,1,2,1,1.77,1.77,0,0,1,.69,1.48,1.43,1.43,0,0,1-1.74.3c-.83-.41-1.61-.92-2.42-1.39C23.13,10.15,23.29,9.8,23.11,9.52Z"/><path id="_Path_44" data-name="&lt;Path&gt;" d="M27.37,28.11A1.76,1.76,0,0,1,26.43,30c-.41.21-.78.47-1.19.67a2.05,2.05,0,0,1-2-.11,7.32,7.32,0,0,1,0-.95c.33-.52.91-.69,1.39-1s.89-.4,1.3-.66a.86.86,0,0,1,1,0A2,2,0,0,0,27.37,28.11Z"/><path id="_Path_45" data-name="&lt;Path&gt;" d="M15,30.86c-1.13-.64-2.41-1-2.63-2.5a1.16,1.16,0,0,1,1.18-.56,4,4,0,0,1,1,.42c.57.36,1.16.69,1.78,1a1.59,1.59,0,0,1,.31,1.27A2.83,2.83,0,0,1,15,30.86Z"/></g></g></g><g id="zarya"><path d="M26.25,21.52c-.09.07-.17.19-.11.07a3.26,3.26,0,0,0,.16-.6c0-.2,0-.14-.16-.35a6.33,6.33,0,0,0-.85-.8c-.36-.33-.75,0-1,.47s-.05.63.25,1.13a5.92,5.92,0,0,1,.64,2.22,29.68,29.68,0,0,1-.16,3c0,1.12,1-.79,1.19-2a20.08,20.08,0,0,0,.24-2.91C26.42,21.35,26.34,21.45,26.25,21.52Z"/><path d="M10.08,19.26a8.59,8.59,0,0,1-1.45-2c-.27-.4-.17.57-.14,1.11a9.1,9.1,0,0,0,0,1.12,5.49,5.49,0,0,1,.08,1.72,4.27,4.27,0,0,0-.08,1.58A21.33,21.33,0,0,0,9.45,26c.33.91.41,0,.35-.59a8.8,8.8,0,0,1,0-1.48c0-.44-.26-.37-.46-.4s-.12-.16.17-.07.29-.3.33-.69a6.5,6.5,0,0,1,.73-1.86C11.08,19.87,10.8,19.89,10.08,19.26Z"/><path d="M31.75,13.12a22.5,22.5,0,0,1-2.56,1c-.72.24-.42,0,.61-.65s2.26-2.83,3-4.61.52-2.53.34-2.28-.91.86-3.17,2.91-6.46,1.76-7.19,1.76,1-.92,1.78-2.6-.85,0-2.28.48-1.78.08-4.23.31a9.36,9.36,0,0,0-5.14,2.53c-1.13.9-.16-1.35.62-2.66s.16-.89-1.54.38a6.83,6.83,0,0,0-2.9,4.25,14.73,14.73,0,0,0-.27,2c-.09.89.29,1.06.75,1.64A27.52,27.52,0,0,0,11.81,20c.61.54.44.12.27-.61a1.17,1.17,0,0,1,.3-1.23c.22-.33.64.67,1.25,1.42s2,1.9,3,1.8,3.24-1.82,3.67-2.16-.28.65-.65,1.17,0,.55.8.25a8,8,0,0,0,2.26-1.44c.38-.35.09.72.1,1.1s.28.3.83-.15a8.23,8.23,0,0,0,1.29-1.55c.14-.2.42.19.72.51a13.52,13.52,0,0,0,1,1.07,5.52,5.52,0,0,1,1.18,2.46c.34,1,.42.69.45.33a14.34,14.34,0,0,0,.19-2.34,4.57,4.57,0,0,0-1.07-3.08c-.46-.5-.2-.38,1.32-.74a6.78,6.78,0,0,0,3.85-3.33C33.57,11.84,32.39,12.78,31.75,13.12Z"/><path d="M15.64,25.64c-.21-.19-.68-.73-1.13-1.24s-.36-.58-.21-.94.32-1.07.5-1.61.18-.39,0-.51-.27.11-.57.38-.91.71-1.25,1-.31.21-.72,0-.8-.43-1.2-.67-.26.23-.12.45l.75,1.27c.39.66.24.73.15,1.25s-.3,1.44-.63,3.17c-.21,1.09-.2,1.11-.09,1.2s.15-.19.31-.57,1.23-2.25,1.49-2.84.37-.47.74-.4,1.65.43,2,.52S15.85,25.83,15.64,25.64Z"/></g></svg>