<svg xmlns="http://www.w3.org/2000/svg" viewBox="0 0 40 40"><defs><style>.cls-1{fill-rule:evenodd;}</style></defs><title>zenyatta</title><g id="transcendence"><g id="_Group_" data-name="&lt;Group&gt;"><path id="_Compound_Path_" data-name="&lt;Compound Path&gt;" class="cls-1" d="M9,15.51c.25-.12.42,0,.56.28a.33.33,0,0,0,.17.18,4.76,4.76,0,0,1,2.52,1.27c.67.06,1.21-.37,1.86-.4a8.51,8.51,0,0,0,2,.47c.07-.21.15-.42.24-.62a3.3,3.3,0,0,1,.23-.45l-.06,0L16,16a1.1,1.1,0,0,0-1.13.13.82.82,0,0,1-1.11,0,.65.65,0,0,0-.32-.17,13.64,13.64,0,0,1-1.9-.58c-.63-.17-1.26-.38-1.84-.56-.13-.19,0-.37-.16-.53a6.43,6.43,0,0,0-1.46-.43A1.71,1.71,0,0,0,8,14.1a2.78,2.78,0,0,0-.12.35c-.14.49-.15.5-.68.55a1.57,1.57,0,0,0-.77.2c-.06.21-.09.45-.34.57a.55.55,0,0,0,.64.18l1.63-.32A2.44,2.44,0,0,0,9,15.51Zm-.34-1c-.15.12-.25.16-.37.07C8.39,14.41,8.51,14.47,8.69,14.54Z"/><path id="_Compound_Path_2" data-name="&lt;Compound Path&gt;" class="cls-1" d="M13.68,20.53A4.88,4.88,0,0,0,15,19.7a7.64,7.64,0,0,0,.81-1.64l.06-.15c-.51.25-1,.52-1.53.78a.94.94,0,0,0-.58.79.87.87,0,0,1-.82.82.65.65,0,0,0-.34.1,13.42,13.42,0,0,1-1.78,1l-1.67.94C9,22.25,8.9,22,8.7,22l-1.27.71c-.13.49.35.71.37,1.09s-.63.67-.68,1.22c.24.08.18.35.23.56a.52.52,0,0,0,.49-.3l1.33-2A.62.62,0,0,1,9.61,23c.09,0,.2.2.4.09a4.94,4.94,0,0,1,2.7-.93C13.2,21.7,13.25,21,13.68,20.53ZM8.07,23.19C8,23,8,23,8.28,22.85,8.24,23,8.22,23.16,8.07,23.19Z"/><path id="_Compound_Path_3" data-name="&lt;Compound Path&gt;" class="cls-1" d="M24.55,14.06a7.25,7.25,0,0,1,1.2-.47.7.7,0,0,0,.54-.63,3.85,3.85,0,0,1,.41-1.18,7.56,7.56,0,0,1,.77-1.14c-.1-.55-.08-.59.38-.77a1,1,0,0,0,.31-.18,2.81,2.81,0,0,1,.67-.39c.36-.17.71-.36,1.08-.53a.65.65,0,0,0,.35-.47A1.07,1.07,0,0,1,29.62,8c-.51,0-.78.51-1.25.53s-.52-.49-.93-.5a5.12,5.12,0,0,0-.88,1.2c0,.24.22.32.19.51A8.78,8.78,0,0,1,25.9,11a17.22,17.22,0,0,1-1.34,1.93.78.78,0,0,0-.21.41.79.79,0,0,1-.84.71,1,1,0,0,0-.9.52c-.17.26-.33.53-.51.79l0,0a6.42,6.42,0,0,0,1,.52A11.34,11.34,0,0,0,24.55,14.06Zm2.91-5.19h0a.22.22,0,0,1,.14-.18c.06,0,.09,0,.12.09s-.14.13-.25.1h0l0,0Z"/><path id="_Compound_Path_4" data-name="&lt;Compound Path&gt;" class="cls-1" d="M33.52,15.16a2.07,2.07,0,0,0-.76-.16c-.48,0-.5-.07-.64-.53a.91.91,0,0,0-.33-.61,7,7,0,0,0-1.43.46c-.08.17,0,.34-.13.49a8.15,8.15,0,0,1-1.38.42,18.2,18.2,0,0,1-2.29.71.85.85,0,0,0-.41.21.79.79,0,0,1-1.06,0,1.15,1.15,0,0,0-1.18-.13l-.47.17a1.37,1.37,0,0,1,.24.34,4,4,0,0,1,.27.74,8.18,8.18,0,0,0,1.87-.46c.67,0,1.2.49,1.87.38A4.8,4.8,0,0,1,30.26,16c.28-.53.34-.55.85-.37a.79.79,0,0,0,.3,0,2.75,2.75,0,0,1,.77.1c.39.1.78.17,1.17.25a.5.5,0,0,0,.59-.25C33.54,15.7,33.71,15.32,33.52,15.16Zm-2.25-.54c.16-.17.26-.18.38,0C31.54,14.75,31.43,14.62,31.27,14.62Z"/><path id="_Compound_Path_5" data-name="&lt;Compound Path&gt;" class="cls-1" d="M32.16,23.78a1.83,1.83,0,0,1,.28-.51.52.52,0,0,0,.07-.57L31.22,22l-.41.36c-1.06-.73-2.26-1.21-3.35-1.9a1,1,0,0,0-.43-.17.87.87,0,0,1-.82-.81.94.94,0,0,0-.58-.79l-1.52-.78a3.09,3.09,0,0,0,.72,1.54.16.16,0,0,1,0,.18,5.5,5.5,0,0,0,1.4.9c.45.48.49,1.18,1,1.61a3.84,3.84,0,0,1,1.42.27,8.77,8.77,0,0,1,1.34.68c.17.07.24-.15.4-.11s.32.13.36.28.29.43.45.62a2.74,2.74,0,0,1,.25.39c.21.36.44.71.67,1.06a.47.47,0,0,0,.55.24c-.27-.3.14-.4.13-.63C32.76,24.45,32.23,24.25,32.16,23.78Zm-.45-.89c.15,0,.22.06.31.21C31.8,23.14,31.8,23.14,31.72,22.89Z"/><path id="_Compound_Path_6" data-name="&lt;Compound Path&gt;" class="cls-1" d="M29,29.5,28.93,29c.17-.41.6-.67.46-1.2A8,8,0,0,0,28,27a47,47,0,0,0-2.37-4.59,1.86,1.86,0,0,1-1-2.43c0-.18-.16-.33-.21-.53a8.37,8.37,0,0,1-.9-2.44c-.28-.81-.78-.89-1.49-1.18a.64.64,0,0,1-.22-.15.41.41,0,0,1-.29-.21,6.45,6.45,0,0,1-.63-1,.61.61,0,0,1,.09-.77A2.16,2.16,0,0,0,21.44,12q0-.26-.05-.52a1.21,1.21,0,0,0-1.15-1.08c-1-.09-1.5.37-1.59.86a2.68,2.68,0,0,0,.4,2.53.48.48,0,0,1,.16.47,4.51,4.51,0,0,1-1,1.58l-.05-.05-.12.09a2.08,2.08,0,0,1-.51.13,1.44,1.44,0,0,0-1,1.07,17.55,17.55,0,0,1-.74,1.78c-.09.19-.17.39-.25.59s-.23.43-.22.66a1.88,1.88,0,0,1-1,2.4A47.39,47.39,0,0,0,12,27a5.52,5.52,0,0,0-1.44.83c-.09.52.36.77.49,1.17l-.12.45-.58.45c-.18.14-.45.26-.26.57.25.08.38-.24.63-.19,0,.18-.16.35,0,.55a28.72,28.72,0,0,1,2-2.38,16.26,16.26,0,0,0,1.64,1.26,1.83,1.83,0,0,0,2,.11c.51-.26,1-.51,1.55-.76a1.34,1.34,0,0,1,.87-.23,28.91,28.91,0,0,1,0,3c.26,0,2.4,0,2.53,0a23.53,23.53,0,0,1,0-3,2.4,2.4,0,0,1,1,.33l1.55.75a1.65,1.65,0,0,0,1.69-.1,10.38,10.38,0,0,0,1-.71l.77-.62c.74.75,1.34,1.58,2,2.37.16-.22-.07-.4,0-.58.22,0,.34.27.59.22a.32.32,0,0,0,0-.36ZM11.38,28.33c-.09-.13-.08-.19.12-.21A.2.2,0,0,1,11.38,28.33ZM17.54,23l-.49.12c-.33.34-.29.81-.44,1.26A23.87,23.87,0,0,1,14,25.76a1.67,1.67,0,0,1,.32-.62,27.07,27.07,0,0,0,1.45-2.53.71.71,0,0,0,.12-.44,1.75,1.75,0,0,1,.17-1.11c.22-.6.48-1.19.74-1.78.06-.13.12-.31.33-.22a.17.17,0,0,1,.06.19.74.74,0,0,0,.18.72,2.79,2.79,0,0,1,.55.82c.12.15.28.05.39.21Zm1,.18c-.09-.26,0-.39.17-.56C18.87,22.83,18.78,23,18.56,23.13Zm2.64-.44c.19.15.19.15.2.44C21.23,23,21.14,22.89,21.2,22.69Zm2.14,1.62c-.15-.38-.11-.85-.35-1.15s-.36-.11-.55-.22c-.31-.58-.47-1.28-.78-1.91.12-.16.25-.09.37-.18a2.78,2.78,0,0,1,.49-.74.87.87,0,0,0,.27-.85c0-.12,0-.19.16-.21s.15.09.18.17a14.78,14.78,0,0,1,.82,2,1.55,1.55,0,0,1,.12.91.8.8,0,0,0,.15.54,29.78,29.78,0,0,0,1.63,2.79c0,.06.06.12.1.19A8.38,8.38,0,0,1,23.35,24.3Zm5.25,4c-.13,0-.09-.09-.14-.14C28.63,28.13,28.69,28.17,28.6,28.3Z"/><path id="_Compound_Path_7" data-name="&lt;Compound Path&gt;" class="cls-1" d="M10.08,8.79l2.21,1.14a.54.54,0,0,1,.28.38c0,.07-.12.19,0,.39a.81.81,0,0,0,.08.13A4.5,4.5,0,0,1,13.69,13a.66.66,0,0,0,.51.54,6.5,6.5,0,0,1,1.22.49,11.4,11.4,0,0,0,1.47,1.8.88.88,0,0,1,.19-.11c.22-.09.66-.12.84-.33l-.07-.12-.51-.79a1,1,0,0,0-.86-.49.81.81,0,0,1-.87-.74.57.57,0,0,0-.16-.32,13.73,13.73,0,0,1-1.14-1.62c-.38-.52-.74-1-1.1-1.55,0-.22.24-.3.19-.53a5.82,5.82,0,0,0-.86-1.18c-.43,0-.61.4-1,.5-.46-.05-.73-.54-1.26-.53a1.06,1.06,0,0,1-.61.28A.71.71,0,0,0,10.08,8.79Zm2.23-.09c.13,0,.16.08.18.18h0l0,0,0,0h0c-.09,0-.19.05-.25-.06A.12.12,0,0,1,12.31,8.7Z"/></g></g><g id="discordorb"><g id="_Group_2" data-name="&lt;Group&gt;"><path id="_Compound_Path_8" data-name="&lt;Compound Path&gt;" d="M16.38,32.57c.12-.06.23,0,.38,0-.27-.07-.5-.13-.73-.18a5.81,5.81,0,0,1-1.43-.55s-.12,0-.09-.1.09,0,.13,0a6.63,6.63,0,0,0,2.11.33,8.18,8.18,0,0,0,1.85-.09,4.29,4.29,0,0,0,2.72-1.47,10.54,10.54,0,0,0,.75-1,1.62,1.62,0,0,0,.18-.39l-.07,0A6.63,6.63,0,0,1,20,30.49h0c-.06,0-.14.09-.19,0s.06-.11.11-.15a6.51,6.51,0,0,0,.76-.57,4.72,4.72,0,0,0,1.2-1.55,1.41,1.41,0,0,0,.15-.62,1.62,1.62,0,0,1,.06-.34,2.51,2.51,0,0,0-.07-1,3.29,3.29,0,0,0-1.33-2,6.51,6.51,0,0,0-3-1.33c-1-.17-2.07-.35-3.08-.61a7.83,7.83,0,0,1-4.44-2.79,6,6,0,0,1-1.27-3.27,7.79,7.79,0,0,1,1.88-5.75,6.84,6.84,0,0,1,3.06-2.07,18,18,0,0,1,2.54-.75,11.82,11.82,0,0,1,4.63,0A12.55,12.55,0,0,1,30.19,15a11.41,11.41,0,0,1,1.06,3.8,12.48,12.48,0,0,1-3.16,9.86A12.67,12.67,0,0,1,20,32.77a12.53,12.53,0,0,1-3.4-.12l-.15,0ZM19.68,14h-4c-.18,0-.26,0-.29.23-.17,1-.35,2-.53,3,0,.15,0,.2.17.2h8.15a.18.18,0,0,0,.21-.18c.18-1,.35-2,.54-3,0-.18,0-.21-.19-.21Z"/></g></g><g id="harmonyorb"><g id="_Group_3" data-name="&lt;Group&gt;"><path id="_Compound_Path_9" data-name="&lt;Compound Path&gt;" d="M33.16,20.22a12.49,12.49,0,0,1-.56,3.87,11.32,11.32,0,0,1-.66,1.7,12.77,12.77,0,0,1-1.83,2.81,10.65,10.65,0,0,1-.85.91c-.41.38-.84.74-1.29,1.08a12.94,12.94,0,0,1-2,1.2,12,12,0,0,1-2,.76,12.82,12.82,0,0,1-2.15.44,13.1,13.1,0,0,1-2.37.05A13,13,0,0,1,17,32.64a13.12,13.12,0,0,1-3-1.21,15.8,15.8,0,0,1-1.38-.87c-.27-.19-.52-.4-.77-.61a11,11,0,0,1-.92-.84,15.58,15.58,0,0,1-1.17-1.4,12.74,12.74,0,0,1-2.29-5.43,14.11,14.11,0,0,1-.18-2.93A13.23,13.23,0,0,1,8,15.75,12.93,12.93,0,0,1,9.75,12.3a11.26,11.26,0,0,1,.94-1.16c.19-.21.38-.43.59-.62a13.26,13.26,0,0,1,2.57-1.92,12.86,12.86,0,0,1,2.9-1.2A12.24,12.24,0,0,1,18.51,7a12.79,12.79,0,0,1,1.91-.11,13.08,13.08,0,0,1,3.18.47,12.68,12.68,0,0,1,2.58,1,12.34,12.34,0,0,1,2.1,1.4,11.19,11.19,0,0,1,1.11,1,14.9,14.9,0,0,1,1.08,1.29,14,14,0,0,1,1.07,1.72,15.39,15.39,0,0,1,.79,1.85,13.18,13.18,0,0,1,.71,2.7A10.66,10.66,0,0,1,33.16,20.22ZM29.3,24a.32.32,0,0,1,0-.07,7.87,7.87,0,0,0-.17-1.27A6.42,6.42,0,0,0,28.58,21a4.35,4.35,0,0,0-1.89-2.09c-.38-.21-.77-.4-1.17-.57a5.66,5.66,0,0,0-2-.56,18.88,18.88,0,0,1-2.41-.33,6.15,6.15,0,0,1-2.48-1.07,7.1,7.1,0,0,1-.74-.65,1.79,1.79,0,0,1-.46-.74,7.72,7.72,0,0,1-.24-.83,1.61,1.61,0,0,1,0-.58,1.7,1.7,0,0,0,0-.2,1.71,1.71,0,0,1,.15-.64,4.35,4.35,0,0,1,1.2-1.52,8.3,8.3,0,0,1,.79-.57A5.86,5.86,0,0,0,17,12.16a2.13,2.13,0,0,1,.27-.61,8.83,8.83,0,0,1,.69-.92,2.67,2.67,0,0,1,.89-.71,5.72,5.72,0,0,1,2.5-.61,9,9,0,0,1,1.28.06,5.7,5.7,0,0,1,1.2.25.33.33,0,0,0,.19,0c-.25-.13-.47-.24-.7-.34A9.87,9.87,0,0,0,22.09,9a.31.31,0,0,1-.18-.09h.35a8.81,8.81,0,0,0-1.76-.2,9.43,9.43,0,0,0-1.79.11,11.46,11.46,0,0,0-3.33,1,11.33,11.33,0,0,0-6,7.07A10.66,10.66,0,0,0,9,19.09a8.9,8.9,0,0,0,0,1.35c0,.45.06.9.13,1.34A11.35,11.35,0,0,0,13.44,29a11,11,0,0,0,3.62,1.84,11.81,11.81,0,0,0,3.35.49c.16,0,.32,0,.47,0a9.63,9.63,0,0,0,1.68-.21,16.81,16.81,0,0,0,2.13-.64A8.87,8.87,0,0,0,27.22,29a4.18,4.18,0,0,0,.72-.73c.32-.4.66-.77.93-1.2a5.41,5.41,0,0,0,.55-.91,6.55,6.55,0,0,0,.52-2.34A12.12,12.12,0,0,0,29.87,22,3.18,3.18,0,0,1,29.3,24Z"/><path id="_Path_" data-name="&lt;Path&gt;" d="M23.54,26.15H22.29c-.17,0-.17,0-.18.17-.05.55-.11,1.09-.17,1.64l-.08.82c0,.15,0,.17-.18.17H18.09c-.15,0-.15,0-.14-.16l.22-2.13,0-.35c0-.13,0-.15-.13-.16H15.57c-.1,0-.15,0-.14-.15s0-.27,0-.4c.06-.53.12-1.07.17-1.6s.11-1,.16-1.56c0-.2,0-.21.23-.21h2.36c.24,0,.24,0,.26-.24.07-.67.14-1.35.21-2,0-.14,0-.28,0-.42s.06-.15.18-.15h3.64c.07,0,.1,0,.09.11s0,0,0,.07l-.17,1.64c0,.27-.06.54-.09.82s0,.2.19.2h2.38c.26,0,.27,0,.24.27-.05.43-.09.86-.14,1.29L25,25.39c0,.17,0,.34,0,.51s0,.25-.28.25Z"/></g></g><g id="zenyatta"><path d="M27.3,21.28c.89-.74,1.49-2.05,1.49-4.27,0-7.7-5.9-10.52-8.74-10.52H20c-2.85,0-8.73,2.83-8.74,10.52,0,2.21.6,3.53,1.49,4.27-1.36-.21-2.25,0-2.25,1.68,0,2.33,1.65,1.86,2,1.87S14,26.12,14.71,27s1.34,1.61,1.87-.23.71-2.55.91-3.14.39-.85,2.48-.85H20c2.09,0,2.29.26,2.48.85s.37,1.3.91,3.14,1.15,1.1,1.87.23,1.83-2.15,2.22-2.16,2,.46,2-1.87C29.54,21.31,28.66,21.07,27.3,21.28ZM23.69,8.5c.51.14.84.55.74.92a.86.86,0,0,1-1.1.41c-.51-.14-.84-.55-.74-.92A.86.86,0,0,1,23.69,8.5ZM22.6,10.88a1,1,0,0,1,2,.55,1,1,0,0,1-2-.55Zm2.1,3a1,1,0,1,1-.82-1.23A1,1,0,0,1,24.7,13.91ZM16.31,8.5a.86.86,0,0,1,1.1.41c.1.37-.23.78-.74.92a.86.86,0,0,1-1.1-.41C15.47,9.06,15.8,8.64,16.31,8.5Zm-.15,1.79a1,1,0,0,1,1.23.58,1,1,0,0,1-2,.55A1,1,0,0,1,16.16,10.3Zm0,2.38a1.08,1.08,0,1,1-.82,1.23A1,1,0,0,1,16.11,12.68ZM17.36,17c-.29.24-2.09,1.58-2.35,1.79s-.32.2-.5,0a5.24,5.24,0,0,1-.39-.4c-.22-.24,0-.33.28-.56s2.08-1.28,2.79-1.65c.49-.26.29,0,.46.27S17.65,16.73,17.36,17ZM20,14.43a1.07,1.07,0,1,1,1.1-1.07A1.09,1.09,0,0,1,20,14.43Zm0-3a1,1,0,0,1-1.1-.89,1.12,1.12,0,0,1,2.19,0A1,1,0,0,1,20,11.47ZM20,9.3c-.6,0-1.1-.31-1.1-.69s.49-.69,1.1-.69,1.1.31,1.1.69S20.6,9.3,20,9.3Zm5.87,9.1a5.24,5.24,0,0,1-.39.4c-.18.17-.25.17-.5,0S22.92,17.21,22.64,17s-.46-.28-.29-.51,0-.53.46-.27c.7.37,2.46,1.42,2.79,1.65S26.09,18.16,25.87,18.4Z"/><ellipse cx="20" cy="13.34" rx="0.79" ry="0.77"/><ellipse cx="20" cy="10.51" rx="0.79" ry="0.64"/><ellipse cx="20" cy="8.54" rx="0.79" ry="0.5"/><ellipse cx="23.65" cy="13.7" rx="0.77" ry="0.73" transform="translate(6.07 34.63) rotate(-80.05)"/><ellipse cx="23.63" cy="11.14" rx="0.64" ry="0.74" transform="translate(6.59 30.94) rotate(-74.54)"/><ellipse cx="23.46" cy="9.1" rx="0.5" ry="0.69" transform="translate(8.44 29.28) rotate(-74.54)"/><ellipse cx="16.35" cy="13.7" rx="0.73" ry="0.77" transform="translate(-2.12 3.03) rotate(-9.95)"/><ellipse cx="16.41" cy="11.14" rx="0.74" ry="0.64" transform="translate(-2.38 4.78) rotate(-15.46)"/><ellipse cx="16.47" cy="9.13" rx="0.69" ry="0.5" transform="translate(-1.84 4.72) rotate(-15.46)"/><path d="M26.74,26.25c-.1.07-1,1.26-1.54,1.77s-1.74,1-2.25-.38c-.71-2-.81-2.82-1-3.48s-.33-.92-1.88-.93H20c-1.54,0-1.66.29-1.88.93s-.32,1.47-1,3.48c-.5,1.41-1.69.82-2.25.38a17.34,17.34,0,0,1-1.54-1.77c-.1-.07-.22.18.31,1s2.6,3.54,3.07,4.19a3.47,3.47,0,0,0,3.27,2h.18a3.47,3.47,0,0,0,3.27-2c.47-.66,2.54-3.34,3.07-4.19S26.84,26.18,26.74,26.25Z"/></g></svg>